<svg width="250" height="55" viewBox="0 0 250 55" fill="none" xmlns="http://www.w3.org/2000/svg">
<g clip-path="url(#clip0_6_550)">
<path d="M34.19 23.84L32.51 26.75H8.56L10.45 23.84H34.19Z" fill="#FFCB31"/>
<path d="M35.03 19.46H13.27L11.39 22.38H35.03V19.46Z" fill="#FFCB31"/>
<path d="M31.66 28.21L29.98 31.13H5.73999L7.61999 28.21H31.66Z" fill="#FFCB31"/>
<path d="M18.28 35.51H16.38L32.28 54.51H28.48L12.58 35.51H10.68L26.58 54.51H22.78L6.88002 35.51H4.97002L20.88 54.51H17.08L2.15002 36.68L3.81002 34.12L4.80002 32.59H29.14L27.45 35.51H22.07L37.99 54.51H34.19L18.28 35.51Z" fill="#FFCB31"/>
<path d="M31.66 7.79H0V4.87H29.98L31.66 7.79Z" fill="#FFCB31"/>
<path d="M29.14 3.40999H0V0.48999H27.45L29.14 3.40999Z" fill="#FFCB31"/>
<path d="M35.03 13.62H0V16.54H35.03V13.62Z" fill="#FFCB31"/>
<path d="M34.19 12.16H0V9.23999H32.51L34.19 12.16Z" fill="#FFCB31"/>
<path d="M75.1 39.63L71.1 33.29C70.64 33.29 70.27 33.35 69.98 33.35H64.88V39.63H62.13V19.46H70C72.1151 19.3253 74.2083 19.9533 75.9 21.23C76.5983 21.855 77.1477 22.6286 77.5076 23.4938C77.8676 24.3591 78.029 25.2941 77.98 26.23C78.0297 27.6875 77.6318 29.1253 76.84 30.35C76.0495 31.4894 74.9082 32.3392 73.59 32.77L78.26 39.6L75.1 39.63ZM70 30.84C71.426 30.9429 72.8425 30.5392 74 29.7C74.4719 29.2851 74.8419 28.7671 75.0812 28.1861C75.3205 27.6052 75.4228 26.9769 75.38 26.35C75.4171 25.7355 75.3119 25.1207 75.0726 24.5535C74.8332 23.9864 74.4661 23.4821 74 23.08C72.8307 22.2704 71.4179 21.889 70 22H64.9V30.87L70 30.84Z" fill="#21211F"/>
<path d="M96.15 24.39V39.63H93.48V36.63C92.9507 37.6167 92.1579 38.4372 91.19 39C90.1585 39.554 89.0005 39.8297 87.83 39.8C86.4954 39.8228 85.1804 39.4768 84.03 38.8C82.9274 38.1265 82.0367 37.1562 81.46 36C80.8418 34.7584 80.5298 33.3869 80.55 32C80.5222 30.6124 80.8346 29.2391 81.46 28C82.0504 26.8679 82.9481 25.9251 84.05 25.28C85.1964 24.611 86.5027 24.2655 87.83 24.28C88.9984 24.2588 90.1535 24.5304 91.19 25.07C92.1488 25.609 92.941 26.4012 93.48 27.36V24.36L96.15 24.39ZM91.89 36.13C92.8369 35.2018 93.4038 33.9539 93.48 32.63V31.48C93.3943 30.1644 92.8285 28.926 91.89 28C91.4246 27.5522 90.8743 27.202 90.2715 26.9702C89.6686 26.7383 89.0255 26.6295 88.38 26.65C87.4453 26.6301 86.5238 26.8726 85.72 27.35C84.9411 27.8369 84.3114 28.5288 83.9 29.35C83.4504 30.2103 83.2235 31.1695 83.24 32.14C83.2247 33.1136 83.4515 34.0757 83.9 34.94C84.3181 35.7382 84.9477 36.4059 85.72 36.87C86.5272 37.3381 87.447 37.5767 88.38 37.56C89.0308 37.5678 89.6767 37.4453 90.2795 37.1997C90.8823 36.9541 91.4299 36.5904 91.89 36.13Z" fill="#21211F"/>
<path d="M107 26.84C106.298 26.6172 105.567 26.4993 104.83 26.49C104.157 26.4581 103.489 26.6139 102.9 26.94C102.663 27.0784 102.47 27.2797 102.341 27.5216C102.212 27.7635 102.153 28.0364 102.17 28.31C102.162 28.5966 102.236 28.8795 102.383 29.1256C102.53 29.3718 102.744 29.571 103 29.7C103.787 30.1254 104.618 30.4608 105.48 30.7C106.364 30.9441 107.23 31.2516 108.07 31.62C108.734 31.9318 109.316 32.394 109.77 32.97C110.269 33.6566 110.519 34.4923 110.48 35.34C110.511 35.9805 110.378 36.6183 110.093 37.1925C109.807 37.7668 109.379 38.2582 108.85 38.62C107.665 39.3994 106.268 39.7941 104.85 39.75C103.734 39.7479 102.626 39.5621 101.57 39.2C100.576 38.8757 99.6628 38.3439 98.89 37.64L99.89 35.64C100.555 36.2318 101.325 36.6931 102.16 37C103.026 37.3314 103.943 37.5074 104.87 37.52C105.608 37.5516 106.341 37.3822 106.99 37.03C107.25 36.8782 107.462 36.658 107.605 36.3935C107.748 36.129 107.815 35.8302 107.8 35.53C107.813 35.2271 107.746 34.926 107.606 34.6573C107.465 34.3887 107.256 34.1619 107 34C106.185 33.5679 105.323 33.2323 104.43 33C103.581 32.775 102.751 32.4807 101.95 32.12C101.307 31.8245 100.747 31.3744 100.32 30.81C99.8444 30.1628 99.6045 29.3724 99.64 28.57C99.6012 27.9483 99.7235 27.3272 99.9951 26.7666C100.267 26.206 100.678 25.725 101.19 25.37C102.32 24.6267 103.648 24.2432 105 24.27C105.917 24.2692 106.83 24.4005 107.71 24.66C108.523 24.8898 109.295 25.244 110 25.71L109 27.76C108.374 27.3716 107.702 27.0625 107 26.84Z" fill="#21211F"/>
<path d="M127.5 24.39V39.63H124.83V36.63C124.303 37.6183 123.51 38.4393 122.54 39C121.508 39.554 120.35 39.8297 119.18 39.8C117.845 39.8228 116.53 39.4768 115.38 38.8C114.278 38.1289 113.39 37.1576 112.82 36C112.194 34.7609 111.878 33.3882 111.9 32C111.871 30.6111 112.187 29.2366 112.82 28C113.404 26.8663 114.299 25.9227 115.4 25.28C116.546 24.611 117.853 24.2655 119.18 24.28C120.348 24.2588 121.503 24.5304 122.54 25.07C123.501 25.6061 124.294 26.399 124.83 27.36V24.36L127.5 24.39ZM123.24 36.13C124.187 35.2018 124.754 33.9539 124.83 32.63V31.48C124.744 30.1644 124.178 28.926 123.24 28C122.775 27.5522 122.224 27.202 121.621 26.9702C121.019 26.7383 120.376 26.6295 119.73 26.65C118.799 26.632 117.881 26.8744 117.08 27.35C116.295 27.8322 115.661 28.5251 115.25 29.35C114.8 30.2103 114.573 31.1695 114.59 32.14C114.575 33.1136 114.802 34.0757 115.25 34.94C115.669 35.741 116.302 36.4094 117.08 36.87C117.883 37.3392 118.8 37.578 119.73 37.56C120.381 37.5678 121.027 37.4453 121.629 37.1997C122.232 36.9541 122.78 36.5904 123.24 36.13Z" fill="#21211F"/>
<path d="M149.88 21.25C150.572 21.8783 151.116 22.6532 151.47 23.5182C151.825 24.3833 151.982 25.3165 151.93 26.25C151.987 27.219 151.832 28.1887 151.476 29.0919C151.12 29.995 150.572 30.8099 149.87 31.48C148.239 32.8064 146.168 33.4704 144.07 33.34H139.07V39.62H136.32V19.46H144.06C146.154 19.3194 148.227 19.9568 149.88 21.25ZM147.88 29.7C148.349 29.2832 148.716 28.7646 148.954 28.1839C149.191 27.6033 149.292 26.9759 149.25 26.35C149.288 25.7363 149.185 25.1221 148.947 24.5549C148.709 23.9878 148.344 23.4831 147.88 23.08C146.744 22.2969 145.378 21.9167 144 22H139.12V30.85H144C145.4 30.9311 146.785 30.5247 147.92 29.7H147.88Z" fill="#21211F"/>
<path d="M166.56 24.08C167.862 24.7804 168.953 25.8161 169.72 27.08C170.474 28.3751 170.871 29.8467 170.871 31.345C170.871 32.8434 170.474 34.315 169.72 35.61C168.96 36.8938 167.873 37.9531 166.57 38.68C165.218 39.4152 163.704 39.8004 162.165 39.8004C160.626 39.8004 159.112 39.4152 157.76 38.68C156.452 37.9512 155.364 36.8847 154.61 35.5918C153.855 34.2989 153.461 32.827 153.47 31.33C153.452 29.8341 153.85 28.3627 154.62 27.08C155.38 25.8172 156.464 24.7813 157.76 24.08C159.116 23.3518 160.631 22.9706 162.17 22.9706C163.709 22.9706 165.224 23.3518 166.58 24.08H166.56ZM159.22 26.19C158.313 26.7087 157.555 27.4527 157.02 28.35C156.481 29.2573 156.201 30.2948 156.21 31.35C156.212 32.4038 156.491 33.4385 157.02 34.35C157.547 35.264 158.306 36.0229 159.22 36.55C160.127 37.0888 161.165 37.3689 162.22 37.36C163.276 37.379 164.317 37.0981 165.22 36.55C166.118 36.0221 166.857 35.2622 167.36 34.35C167.882 33.4366 168.154 32.402 168.15 31.35C168.159 30.3069 167.892 29.2799 167.378 28.3723C166.864 27.4647 166.119 26.7086 165.22 26.18C164.313 25.6429 163.274 25.3693 162.22 25.39C161.166 25.3821 160.13 25.6585 159.22 26.19Z" fill="#21211F"/>
<path d="M178.06 37.27C178.615 37.2222 179.149 37.0328 179.61 36.72L180.04 38.88C179.256 39.4292 178.327 39.7321 177.37 39.75C176.907 39.7643 176.447 39.6767 176.022 39.4936C175.597 39.3104 175.217 39.0361 174.91 38.69C174.233 37.8613 173.894 36.8079 173.96 35.74V19.46H176.63V35.46C176.63 36.65 177.11 37.27 178.06 37.27Z" fill="#21211F"/>
<path d="M185.59 44.44C184.784 45.0458 183.798 45.3628 182.79 45.34C181.576 45.3597 180.395 44.9367 179.47 44.15L180.61 42.05C181.185 42.4933 181.884 42.7451 182.61 42.77C183.197 42.7543 183.763 42.552 184.227 42.1923C184.691 41.8326 185.029 41.3344 185.19 40.77L185.77 39.42L179.48 24.35H182.3L187.11 36.56L191.68 24.35H194.4L187.46 41.75C187.093 42.8002 186.447 43.7303 185.59 44.44Z" fill="#21211F"/>
<path d="M220.26 25.89C221.307 27.0771 221.843 28.6298 221.75 30.21V39.63H219.05V30.93C219.107 29.8311 218.729 28.7538 218 27.93C217.623 27.5564 217.172 27.2662 216.676 27.0784C216.18 26.8906 215.65 26.8094 215.12 26.84C214.479 26.8281 213.844 26.9583 213.26 27.2211C212.675 27.4839 212.156 27.8728 211.74 28.36C210.881 29.4276 210.44 30.7712 210.5 32.14V39.66H207.81V30.96C207.876 29.8685 207.518 28.7936 206.81 27.96C206.433 27.584 205.98 27.2924 205.482 27.1045C204.984 26.9166 204.451 26.8367 203.92 26.87C203.276 26.8579 202.638 26.9879 202.05 27.2506C201.463 27.5133 200.94 27.9024 200.52 28.39C199.658 29.4566 199.214 30.8001 199.27 32.17V39.69H196.6V24.39H199.27V27.59C200.27 25.43 202.15 24.34 204.92 24.3C206.16 24.252 207.383 24.6024 208.41 25.3C209.347 25.9899 210.009 26.9888 210.28 28.12C211.22 25.6133 213.19 24.3367 216.19 24.29C216.943 24.2569 217.694 24.3822 218.395 24.6578C219.096 24.9334 219.731 25.3532 220.26 25.89Z" fill="#21211F"/>
<path d="M237.06 35.19L238.67 36.63C237.916 37.6185 236.938 38.414 235.817 38.9511C234.696 39.4883 233.463 39.7518 232.22 39.72C230.823 39.7337 229.446 39.3894 228.22 38.72C227.051 38.0957 226.084 37.1525 225.43 36C224.753 34.7769 224.408 33.3978 224.43 32C224.403 30.6078 224.73 29.2315 225.38 28C225.994 26.8431 226.932 25.8907 228.08 25.26C229.305 24.5889 230.683 24.2445 232.08 24.26C232.95 24.2074 233.822 24.3295 234.644 24.6191C235.466 24.9086 236.221 25.3598 236.866 25.946C237.511 26.5322 238.032 27.2415 238.399 28.0322C238.765 28.823 238.97 29.679 239 30.55L227.57 34.3C227.921 35.2627 228.569 36.089 229.42 36.66C230.306 37.2542 231.354 37.5582 232.42 37.53C233.321 37.5238 234.209 37.3094 235.014 36.9035C235.819 36.4976 236.519 35.9112 237.06 35.19ZM228.49 28C227.542 29.082 227.057 30.4936 227.14 31.93V32.3L236.38 29.3C236.066 28.4454 235.48 27.7176 234.712 27.228C233.944 26.7385 233.037 26.5144 232.13 26.59C231.458 26.5531 230.786 26.6598 230.158 26.9029C229.53 27.146 228.962 27.52 228.49 28Z" fill="#21211F"/>
<path d="M246.73 25.18C247.719 24.5928 248.85 24.2884 250 24.3V26.89C249.333 26.8195 248.658 26.8875 248.018 27.0897C247.378 27.2918 246.786 27.6239 246.28 28.065C245.775 28.5061 245.365 29.0468 245.078 29.6533C244.79 30.2599 244.631 30.9192 244.61 31.59V39.59H241.94V24.39H244.61V27.67C245.047 26.6439 245.787 25.7754 246.73 25.18Z" fill="#21211F"/>
</g>
<defs>
<clipPath id="clip0_6_550">
<rect width="250" height="55" fill="white"/>
</clipPath>
</defs>
</svg>
