<svg width="58" height="82" viewBox="0 0 58 82" fill="none" xmlns="http://www.w3.org/2000/svg">
<g clip-path="url(#clip0_7_1714)">
<path d="M52.1947 35.4404L49.6336 39.8607H13.075L15.9579 35.4404H52.1947Z" fill="#231F20"/>
<path d="M53.4884 28.7937H20.2658L17.3895 33.2205H53.4884V28.7937Z" fill="#231F20"/>
<path d="M48.3465 42.0806L45.7787 46.5074H8.76697L11.6368 42.0806H48.3465Z" fill="#231F20"/>
<path d="M27.9099 53.1541H25.0073L49.2921 82H43.4935L19.2086 53.1541H16.306L40.5908 82H34.7856L10.5007 53.1541H7.59807L31.8829 82H26.0777L3.2901 54.9365L5.81184 51.0517L7.32882 48.7273H44.4916L41.9174 53.1541H33.7086L58 82H52.1948L27.9099 53.1541Z" fill="#231F20"/>
<path d="M48.3465 11.067H0V6.63367H45.7722L48.3465 11.067Z" fill="#231F20"/>
<path d="M44.4916 4.43331H0V0H41.9174L44.4916 4.43331Z" fill="#231F20"/>
<path d="M53.4819 19.9336H0V24.3604H53.4819V19.9336Z" fill="#231F20"/>
<path d="M52.1947 17.7137H0V13.2869H49.6336L52.1947 17.7137Z" fill="#231F20"/>
</g>
<defs>
<clipPath id="clip0_7_1714">
<rect width="58" height="82" fill="white"/>
</clipPath>
</defs>
</svg>
