<svg width="38" height="55" viewBox="0 0 38 55" fill="none" xmlns="http://www.w3.org/2000/svg">
<path d="M34.19 23.84L32.51 26.75H8.56L10.45 23.84H34.19Z" fill="#FFCB31"/>
<path d="M35.03 19.46H13.27L11.39 22.38H35.03V19.46Z" fill="#FFCB31"/>
<path d="M31.66 28.21L29.98 31.13H5.73999L7.61999 28.21H31.66Z" fill="#FFCB31"/>
<path d="M18.28 35.51H16.38L32.28 54.51H28.48L12.58 35.51H10.68L26.58 54.51H22.78L6.88002 35.51H4.97002L20.88 54.51H17.08L2.15002 36.68L3.81002 34.12L4.80002 32.59H29.14L27.45 35.51H22.07L37.99 54.51H34.19L18.28 35.51Z" fill="#FFCB31"/>
<path d="M31.66 7.79H0V4.87H29.98L31.66 7.79Z" fill="#FFCB31"/>
<path d="M29.14 3.40999H0V0.48999H27.45L29.14 3.40999Z" fill="#FFCB31"/>
<path d="M35.03 13.62H0V16.54H35.03V13.62Z" fill="#FFCB31"/>
<path d="M34.19 12.16H0V9.23999H32.51L34.19 12.16Z" fill="#FFCB31"/>
</svg>
