<svg width="268" height="74" viewBox="0 0 268 74" fill="none" xmlns="http://www.w3.org/2000/svg">
<path d="M47.4233 31.7332H14.1788L11.625 35.6703H44.8818L47.4233 31.7332Z" fill="#FFC132"/>
<path d="M47.4233 25.8316H18.0156L15.4618 29.7687H47.4233V25.8316Z" fill="#FFC132"/>
<path d="M7.78815 41.572H41.0735L43.6151 37.6349H10.346L7.78815 41.572Z" fill="#FFC132"/>
<path d="M37.2611 47.4736L39.8027 43.5406H6.50917L5.16893 45.5984L2.92566 49.0566L23.1845 73.0934H28.3412L6.75025 47.4736H9.32857L30.9236 73.0934H36.0803L14.4893 47.4736H17.0676L38.6586 73.0934H43.8193L22.2284 47.4736H24.8067L46.3977 73.0934H51.5584L29.9675 47.4736H37.2611Z" fill="#FFC132"/>
<path d="M41.2492 6.15805H0V10.0911H43.7213L41.2492 6.15805Z" fill="#FFC132"/>
<path d="M37.5431 0.256409H0V4.18948H40.0152L37.5431 0.256409Z" fill="#FFC132"/>
<path d="M47.4233 17.9654H0V21.8984H47.4233V17.9654Z" fill="#FFC132"/>
<path d="M44.9552 12.0597H0V15.9969H47.4233L44.9552 12.0597Z" fill="#FFC132"/>
<path d="M268 30.2869V45.977C268 49.333 266.658 52.5516 264.269 54.925C261.881 57.2983 258.641 58.632 255.262 58.6327H251.89V52.0268H255.278C256.748 52.0268 258.157 51.4469 259.197 50.4146C260.236 49.3823 260.82 47.9822 260.82 46.5223V32.1957L268 30.2869Z" fill="#DEDED9"/>
<path d="M85.1458 30.2869V45.977C85.1458 47.6389 84.8163 49.2846 84.176 50.8201C83.5357 52.3556 82.5973 53.7507 81.4142 54.9259C80.2311 56.1011 78.8266 57.0333 77.2809 57.6693C75.7351 58.3054 74.0784 58.6327 72.4052 58.6327H69.0358V52.0268H72.4241C73.8937 52.0268 75.3032 51.4469 76.3424 50.4146C77.3816 49.3823 77.9655 47.9822 77.9655 46.5223V32.1957L85.1458 30.2869Z" fill="#DEDED9"/>
<path d="M254.963 15.1182V47.2789H247.861V16.888L254.963 15.1182Z" fill="#DEDED9"/>
<path d="M243.687 39.2508L242.32 47.2709H201.622C195.432 47.2709 192.8 39.0716 192.8 39.0716V16.8987L199.927 15.1289V39.2615L243.687 39.2508Z" fill="#DEDED9"/>
<path d="M85.0839 39.2507H94.4039L102.908 30.2869H110.309C111.558 30.2869 112.756 30.7795 113.639 31.6563C114.522 32.533 115.018 33.7223 115.019 34.9626V39.24H129.401V30.2762L136.617 28.0814V39.24H151.435V17.289L158.615 15.1182V39.2507H186.123L184.239 47.2709H157.566L155.983 44.421C155.373 45.2996 154.558 46.018 153.606 46.5144C152.655 47.0108 151.597 47.2704 150.523 47.2709H136.022L134.168 44.4344C133.728 45.2919 133.058 46.0119 132.232 46.5149C131.406 47.0178 130.456 47.2841 129.487 47.2842H116.594L114.091 44.5226C114.091 44.5226 113.875 48.2333 110.659 48.2333H101.568L98.4408 44.7365C98.4408 45.4122 98.1706 46.0602 97.6896 46.538C97.2086 47.0158 96.5562 47.2842 95.876 47.2842H87.4819L84.7421 45.1696" fill="#DEDED9"/>
<path d="M174.121 51.0046L170.311 54.7891L174.121 58.5736L177.931 54.7891L174.121 51.0046Z" fill="#DEDED9"/>
<path d="M181.744 51.0032L177.934 54.7877L181.744 58.5722L185.554 54.7877L181.744 51.0032Z" fill="#DEDED9"/>
<path d="M126.379 52.0199L122.57 55.8044L126.379 59.5889L130.189 55.8044L126.379 52.0199Z" fill="#DEDED9"/>
<path d="M134.003 52.0185L130.193 55.803L134.003 59.5875L137.812 55.803L134.003 52.0185Z" fill="#DEDED9"/>
<path d="M177.934 55.8033L174.124 59.5878L177.933 63.3723L181.743 59.5878L177.934 55.8033Z" fill="#DEDED9"/>
</svg>
