<svg width="210" height="183" viewBox="0 0 210 183" fill="none" xmlns="http://www.w3.org/2000/svg">
<path d="M146.097 1.77002L202.919 16.4919L194.172 23.189L68.5789 80.9552L6.90356 60.082L146.097 1.77002Z" fill="white"/>
<path d="M112.021 162.456L210 116.86V83.9792L112.021 129.576V162.456Z" fill="#7CB2D4"/>
<path d="M69.051 149.519L11.4175 132.909L17.0968 130.534L11.2848 128.853L0.0147517 133.602L0 162.146L69.3608 182.252L108.776 163.975V131.08L69.051 149.519ZM3.80584 159.27L3.8206 138.647L8.46727 139.99C13.468 147.306 17.5983 155.346 19.7225 163.887L3.80584 159.27ZM23.5136 164.979C21.5665 158.621 16.964 149.209 10.0752 140.447L22.9678 144.164C28.7504 151.157 34.3706 160.184 36.7456 168.829L23.5136 164.979ZM43.5459 170.805C38.501 158.06 33.8986 151.953 27.8948 145.581L38.7518 148.708C44.2983 156.084 49.5645 164.448 52.4115 173.372L43.5459 170.805ZM65.5549 177.193L65.3337 177.119C62.4571 170.407 55.7895 159.963 47.2633 151.157L65.5549 156.438V177.193Z" fill="#7CB2D4"/>
<path d="M105.501 34.1785C96.4881 36.0372 88.5814 37.9401 81.5745 39.8578C81.309 39.9315 81.0435 40.0053 80.7927 40.0643C74.5381 41.7902 69.0654 43.5161 64.2417 45.1978L70.4815 46.7614C73.6973 45.8616 77.1049 44.9618 80.7927 44.1062C83.1382 43.5456 85.5721 43.0146 88.1241 42.4688C92.461 41.5689 97.1224 40.6839 102.108 39.8578C103.716 39.5923 105.339 39.3267 107.021 39.0612C109.027 38.7514 110.989 38.4269 112.936 38.0876C135.063 34.2965 154.299 28.8975 168.829 24.0886L153.443 20.1353C142.719 24.2656 129.03 28.809 112.936 32.5264C110.502 33.1017 108.038 33.6475 105.501 34.1785Z" fill="#7CB2D4"/>
<path d="M31.2729 63.0177C37.9258 59.2414 46.9831 54.2997 61.6902 49.4465L56.4977 48.1189C35.9639 56.3501 31.2729 63.0177 31.2729 63.0177Z" fill="#7CB2D4"/>
<path d="M112.021 126.434L210 80.8373V47.9565L112.021 93.5382" fill="#7CB2D4"/>
<path d="M179.258 8.45251L146.23 0L126.375 8.36401L132.526 9.9129L146.525 4.01236L174.213 11.1078C171.145 12.6271 166.705 14.7218 161.084 17.082L177.355 21.1682C183.477 18.985 188.389 17.0378 191.811 15.6069L198.715 17.3771L185.926 23.3071L187.357 23.6611C187.976 23.8382 188.389 24.384 188.389 25.0183V54.9487C189.156 54.5799 204.645 47.4403 210 44.9178V16.3445L197.505 13.1434" fill="#7CB2D4"/>
<path d="M183.3 57.3533V28.8832C183.3 28.2489 182.872 27.7031 182.267 27.5261L178.757 26.6262L154.284 37.9848L151.555 39.2534L148.826 40.522L111.859 57.6778C111.948 57.8548 112.007 58.0613 112.007 58.2678V90.4847L157.544 69.3461C157.559 69.3608 177.296 60.2003 183.3 57.3533Z" fill="#7CB2D4"/>
<path d="M105.9 60.7753L105.442 60.6573L69.759 77.2231L62.7669 75.2169L59.8609 74.3761L56.9549 73.5352L12.1255 60.6131L47.3812 45.7585L41.2889 44.1948L0.722759 61.2916V89.8354L11.1077 92.8447L0.708008 97.2259V125.77L70.0688 145.905L106.932 128.794V95.913L69.759 113.172L12.1108 96.5473L16.905 94.5264L31.4203 98.7453C31.317 98.878 31.2728 98.937 31.2728 98.937C31.3613 98.878 31.4645 98.8338 31.5531 98.7748L70.0688 109.956L106.918 92.8447V62.1324C106.932 61.4981 106.505 60.9523 105.9 60.7753ZM4.51385 122.908V102.286L9.17527 103.628C14.1612 110.945 18.2916 118.984 20.4305 127.525L4.51385 122.908ZM66.2629 120.076V140.831L66.0417 140.772C63.1504 134.06 56.4828 123.616 47.9713 114.809L66.2629 120.076ZM39.445 112.346C44.9915 119.722 50.2577 128.086 53.1195 137.01L44.254 134.443C39.209 121.698 34.6066 115.591 28.6028 109.219L39.445 112.346ZM23.6758 107.803C29.4584 114.795 35.0786 123.823 37.4536 132.467L24.2216 128.631C22.2745 122.259 17.6573 112.848 10.7832 104.1L23.6758 107.803ZM19.575 91.3401L16.669 90.4993L4.51385 86.9737V66.3513L9.17527 67.6937C13.6892 74.3318 17.5098 81.5452 19.7815 89.2011C19.9585 89.8207 20.1355 90.4255 20.2978 91.0451C20.342 91.2221 20.3863 91.4138 20.4305 91.5909L19.575 91.3401ZM36.2587 96.1785L34.6508 95.7065L24.2216 92.6972C24.1184 92.3432 23.9856 91.9744 23.8676 91.6056C23.6758 91.0303 23.4546 90.4255 23.2333 89.8059C23.012 89.2306 22.7908 88.6406 22.54 88.0358C20.1208 82.1648 16.1527 74.9661 10.7979 68.151L23.6906 71.8683C26.6851 75.4824 29.6206 79.6423 32.1136 84.0087C32.4381 84.5692 32.7332 85.1298 33.0282 85.6903C33.3232 86.2509 33.6477 86.8114 33.928 87.372C35.0491 89.6142 35.9932 91.9006 36.7603 94.1576C36.9373 94.6591 37.0996 95.1607 37.2471 95.6622C37.3356 95.9573 37.3946 96.2375 37.4683 96.5326L36.2587 96.1785ZM44.2687 98.5092C43.5164 96.6063 42.7788 94.8657 42.0413 93.243C41.7462 92.594 41.4512 91.9744 41.1562 91.3548C40.1383 89.2454 39.1205 87.3425 38.1026 85.6166C37.7634 85.056 37.4388 84.5102 37.0996 83.9792C36.7455 83.4186 36.3915 82.8876 36.0375 82.3565C33.7362 78.9785 31.317 76.161 28.6175 73.2845L39.4745 76.4117C40.3153 77.5328 41.1562 78.6834 41.9822 79.8488C42.351 80.3798 42.7198 80.9109 43.0886 81.4419C43.4574 81.973 43.8114 82.504 44.1654 83.0498C45.257 84.6872 46.3044 86.3689 47.2927 88.08C47.7205 88.8029 48.104 89.5552 48.5023 90.2927C49.8447 92.7857 51.0248 95.3377 52.0427 97.9487C52.1902 98.347 52.3672 98.7453 52.5147 99.1435C52.7507 99.7779 52.9425 100.427 53.149 101.061L44.2687 98.5092ZM66.2629 89.4372V93.184V104.897L66.0417 104.838C64.8763 102.138 63.1209 98.8338 60.8492 95.2787C60.2739 94.3789 59.6691 93.4643 59.0348 92.5349C57.9137 90.8975 56.7188 89.2306 55.4207 87.549C54.8307 86.7672 54.2111 86.0001 53.5768 85.2183C52.3377 83.6989 51.0396 82.1943 49.6824 80.7191C49.2251 80.2176 48.7679 79.7308 48.2958 79.244C48.1778 79.126 48.0598 78.9932 47.9418 78.8752L48.6646 79.0817L51.5706 79.9226L60.4657 82.4893L65.8647 84.0382L66.2335 84.1414L66.2629 89.4372Z" fill="#7CB2D4"/>
<path d="M51.2017 63.9172C58.3708 59.9048 67.9002 56.4235 77.6066 53.5175L71.234 51.8801C51.3492 57.8249 51.2017 63.9172 51.2017 63.9172Z" fill="#7CB2D4"/>
<path d="M105.605 45.2718C95.6769 46.511 87.5932 47.9123 80.9551 49.3875L86.9884 50.9069C93.715 49.1367 100.176 47.6616 105.605 46.5257C108.334 45.9504 110.827 45.4636 112.936 45.0506C117.671 44.1507 120.607 43.6787 120.607 43.6787C117.937 43.9147 115.414 44.1655 112.936 44.431C110.384 44.6965 107.95 44.9768 105.605 45.2718Z" fill="#7CB2D4"/>
<path d="M55.9667 38.014L48.355 41.215L54.5063 42.7639L55.9814 42.1443L61.4099 39.8579L112.936 18.1439L125.298 12.9367L119.206 11.373L112.936 14.0135" fill="#7CB2D4"/>
<path d="M187.356 23.6315L163.356 17.613L157.323 16.1083L146.849 13.4826L140.609 11.9189L130.873 9.48497L126.374 8.34912L119.19 11.3731L123.734 12.4795L132.865 14.825L138.057 16.1526L147.602 18.6013L153.974 20.2387L181.81 27.3783L182.267 27.4964C182.872 27.6734 183.3 28.2192 183.3 28.8535V59.5805V62.634V129.295L188.404 126.92V60.2738V57.2203V24.9886C188.404 24.7821 188.345 24.5756 188.256 24.3986C188.079 24.0445 187.769 23.7495 187.356 23.6315Z" fill="#005398"/>
<path d="M110.989 56.9105L86.9884 50.892L80.9551 49.3726L70.4817 46.7468L64.2419 45.1832L54.506 42.7492L48.3547 41.2151H48.3399L41.2593 44.1949H41.274L47.3663 45.7585L56.4974 48.104L61.6899 49.4316L71.234 51.8803L77.6066 53.5177L105.442 60.6573L105.9 60.7754C106.504 60.9524 106.932 61.4982 106.932 62.1325V92.8595V95.913V128.794V164.846L112.021 162.471V126.434V93.5528V90.4993V58.2676C112.021 58.0464 111.962 57.8546 111.874 57.6776C111.697 57.3088 111.387 57.0285 110.989 56.9105Z" fill="#005398"/>
</svg>
