<svg width="189" height="189" viewBox="0 0 189 189" fill="none" xmlns="http://www.w3.org/2000/svg">
<circle cx="94.5" cy="94.5" r="94.5" fill="#F9DB83"/>
<g clip-path="url(#clip0_0_1)">
<path d="M129.377 127.043C127.66 122.428 124.242 119.496 119.437 118.339C116.927 117.735 114.36 117.369 111.819 116.894L104.753 115.577C105.181 114.963 105.386 114.501 105.732 114.22C106.824 113.29 108.222 112.611 109.041 111.505C110.51 109.503 112.316 109.13 114.642 109.211C118.832 109.374 121.355 106.717 121.362 102.489C121.362 98.882 121.385 95.2716 121.362 91.6645C121.324 86.4999 121.528 81.3149 121.144 76.1741C120.066 61.7016 106.3 50.6836 91.8476 52.5024C78.3233 54.1991 68.4547 65.2918 68.3833 78.8819C68.3595 83.4323 68.3833 87.9861 68.3833 92.5366C68.3833 96.6085 70.3319 99.3232 74.1644 100.775C74.3676 100.871 74.5492 101.007 74.6978 101.175C74.8463 101.343 74.9588 101.54 75.0281 101.753C76.302 106.862 79.4764 111.296 83.9072 114.155C84.3152 114.427 84.5465 114.959 84.992 115.54C84.2778 115.716 83.9718 115.815 83.6317 115.879C79.5135 116.629 75.392 117.348 71.2772 118.125C65.8362 119.143 62.1193 122.289 60.164 127.474C59.8647 128.268 59.5995 129.072 59.2832 129.965C56.8586 127.589 54.4985 125.316 52.2201 122.974C51.4686 122.208 51.6182 121.047 52.431 120.199C53.5362 119.042 54.6822 117.922 55.8316 116.805C57.3449 115.319 58.8683 113.846 60.2898 112.465L45.14 97.3347C42.3753 100.1 39.5324 102.94 36.6929 105.787C30.4425 112.048 30.4595 120.609 36.7371 126.877L56.9606 147.06C58.3549 148.451 59.8069 149.792 61.1366 151.244C64.1563 154.539 67.4753 157.311 72.0934 158.003H75.5484C77.8234 157.461 80.1665 156.969 81.9756 155.408C85.9475 151.977 89.8174 148.431 94.0648 144.63L90.8886 141.974L91.0247 141.722H134.213C134.233 141.561 134.233 141.398 134.213 141.237C132.594 136.517 131.121 131.722 129.377 127.043ZM113.69 105.024C114.05 103.775 114.22 102.421 114.843 101.325C115.183 100.694 116.285 100.473 117.087 100.046C117.798 104.24 116.934 105.462 113.69 105.024ZM115.281 96.4117V89.5606C115.807 89.8425 116.257 90.2476 116.592 90.7411C116.927 91.2347 117.136 91.8019 117.203 92.394C117.41 94.016 116.842 95.3326 115.281 96.4117ZM74.4534 96.2353C73.0116 95.5057 72.3484 94.1993 72.5219 92.5026C72.6613 91.1453 73.4026 90.1273 74.4534 89.788V96.2353ZM74.5826 82.7706C74.5384 83.6291 74.5044 84.3485 74.4704 85.0883L72.6103 85.8144C72.0254 77.7689 72.3246 69.9983 78.2893 63.758C84.6655 57.0902 92.4529 54.725 101.301 57.4091C110.15 60.0932 115.53 66.3301 116.944 75.509C117.451 78.8242 117.026 82.2956 117.026 85.7567L115.244 85.0781V82.8181C111.306 82.8792 107.525 82.4347 103.93 80.8195C100.336 79.2043 97.5845 76.6457 94.8436 73.7716C89.525 80.0255 82.904 83.2694 74.5826 82.7706ZM78.5988 97.4942C78.4322 93.9821 78.5682 90.4565 78.5682 86.8121C84.8389 86.2318 90.2629 83.8497 94.728 79.7099C96.5779 80.9925 98.2646 82.3024 100.087 83.3916C103.13 85.2062 106.542 86.3171 110.072 86.6424C110.898 86.7204 111.184 87.0157 111.17 87.8538C111.126 90.8874 111.153 93.921 111.15 96.9546C111.141 99.419 110.591 101.851 109.538 104.081C109.424 104.422 109.195 104.714 108.89 104.907C108.585 105.1 108.223 105.182 107.865 105.139C104.046 105.085 100.223 105.119 96.4011 105.119H94.9558V109.171H105.158L105.294 109.432C104.954 109.713 104.614 110.026 104.236 110.277C98.9923 113.768 93.4255 114.349 87.7669 111.593C81.9654 108.787 78.9048 103.941 78.5988 97.4942ZM100.57 116.551L94.8912 122.214L89.2835 116.602C92.9782 117.626 96.885 117.609 100.57 116.551ZM45.14 103.11L54.3659 112.343C53.8014 112.879 53.0771 113.561 52.38 114.216L43.2629 105.054L45.14 103.11ZM66.4313 150.769C58.0182 142.415 49.6209 134.045 41.2395 125.659C40.5594 124.963 39.835 124.274 39.1481 123.568C34.6865 118.97 35.1456 112.18 40.1377 108.186C43.1983 111.264 46.2588 114.339 49.3636 117.454C47.9761 119.096 47.177 121.064 47.9387 123.27C48.3454 124.419 48.9935 125.468 49.8397 126.347C54.3727 130.983 58.9908 135.533 63.5816 140.111C66.4585 142.978 69.4953 143.165 72.5967 140.745L81.8668 150.033C78.0683 154.888 71.0086 155.316 66.4313 150.769ZM85.3354 147.036L75.9599 137.705L78.3981 135.499L87.6717 144.841L85.3354 147.036ZM127.187 137.674C114.038 137.674 100.889 137.68 87.7397 137.691C87.3577 137.708 86.9766 137.641 86.6238 137.493C86.2711 137.346 85.9553 137.123 85.6993 136.839C83.4141 134.488 81.0778 132.184 78.6634 129.764C75.8035 132.343 73.066 134.817 70.3216 137.287C68.7608 138.696 67.9004 138.682 66.4381 137.226C65.3295 136.127 64.2583 134.994 63.1123 133.935C62.888 133.764 62.731 133.52 62.6689 133.245C62.6067 132.97 62.6433 132.682 62.7723 132.432C63.2143 131.241 63.5544 130.016 63.9999 128.828C65.3601 125.153 68.0092 122.886 71.8587 122.133C76.2796 121.268 80.7344 120.487 85.1824 119.737C85.4498 119.715 85.7188 119.748 85.9731 119.833C86.2274 119.918 86.4617 120.054 86.6617 120.233C89.1135 122.608 91.5042 125.021 93.9186 127.426C94.2077 127.711 94.5069 127.986 94.8878 128.343C96.8601 126.378 98.9855 124.593 100.693 122.476C102.651 120.043 104.733 119.374 107.78 120.243C111 121.159 114.387 121.481 117.692 122.102C121.651 122.846 124.385 125.102 125.748 128.889C126.769 131.729 127.67 134.613 128.687 137.674H127.187Z" fill="black"/>
<path d="M157.98 38.4982C157.963 34.4772 155.45 32.0102 151.406 32.0068C142.245 32.0068 133.082 32.0068 123.919 32.0068C119.787 32.0068 117.26 34.5348 117.254 38.6882C117.254 43.6085 117.254 48.5288 117.254 53.4491C117.254 58.0708 119.675 60.463 124.344 60.4698H128.816C128.115 64.5655 127.456 68.4712 126.735 72.6586C127.296 72.3192 127.615 72.1597 127.921 71.9799C132.553 69.0922 137.28 66.3436 141.779 63.2659C144.782 61.213 147.808 60.178 151.495 60.4121C155.439 60.6632 157.956 57.9622 157.983 54.0124C158.022 48.841 158.02 43.6696 157.98 38.4982ZM153.94 53.7002C153.94 55.6921 153.243 56.5506 151.297 56.3368C147.04 55.8685 143.381 56.9883 139.983 59.5774C137.712 61.3114 135.138 62.6517 132.699 64.1651C132.638 64.2025 132.543 64.1651 132.325 64.1957C132.764 61.5625 133.189 59.0311 133.631 56.3741C130.387 56.3741 127.272 56.3741 124.157 56.3741C121.967 56.3741 121.368 55.7905 121.365 53.6289C121.365 48.6725 121.365 43.7126 121.365 38.7493C121.365 36.7133 121.987 36.0856 123.994 36.0822C133.073 36.0822 142.152 36.0822 151.229 36.0822C153.297 36.0822 153.95 36.7608 153.95 38.8206C153.957 43.7771 153.953 48.7369 153.94 53.7002Z" fill="black"/>
<path d="M51.1047 82.5162C50.3804 81.3082 49.7275 80.2257 49.0201 79.0516L43.6438 82.2515C49.1732 56.4624 78.8844 34.406 110.585 44.4162C110.963 43.1845 111.343 41.9595 111.721 40.7311C83.057 31.2095 47.5885 47.6399 39.325 81.9699C38.0055 79.7982 36.7677 77.7622 35.5027 75.6753L32.0374 77.7859C34.4621 81.8104 36.7983 85.6991 39.1787 89.6625L51.1047 82.5162Z" fill="black"/>
<path d="M137.936 81.7592L141.425 83.8257L145.05 77.8467C150.651 96.4284 147.587 113.113 136.09 128.322C136.988 129.052 137.814 129.723 138.644 130.389C138.797 130.511 138.967 130.613 139.283 130.826C151.617 114.511 154.892 96.6524 149.067 76.995L154.926 80.4799C155.65 79.255 156.31 78.1453 156.997 76.9882L145.095 69.8623L137.936 81.7592Z" fill="black"/>
<path d="M125.483 44.1139H149.777V40.2319H125.483V44.1139Z" fill="black"/>
<path d="M125.456 52.2513H141.633V48.3286H125.456V52.2513Z" fill="black"/>
<path d="M145.87 52.2713H149.76V48.3555H145.87V52.2713Z" fill="black"/>
</g>
<defs>
<clipPath id="clip0_0_1">
<rect width="126" height="126" fill="white" transform="translate(32 32)"/>
</clipPath>
</defs>
</svg>
