<svg width="234" height="138" viewBox="0 0 234 138" fill="none" xmlns="http://www.w3.org/2000/svg">
<path d="M220.796 37.7947L230.172 46.8262L125.621 77.9466H121.767L118.258 76.9402L111.729 64.9025L116.867 65.5647L122.27 66.0679L220.796 37.7947Z" fill="white"/>
<path d="M219.883 55.2749L230.172 63.3132L125.29 97.6781L120.853 96.1419L117.344 95.1355L110.815 83.0846L115.94 83.76L121.357 84.2632L219.883 55.2749Z" fill="white"/>
<path d="M219.882 73.3381L228.159 81.6281L125.038 115.503L120.853 115.582L118.628 114.947L112.483 102.194L119.833 104.326L121.356 103.704L219.882 73.3381Z" fill="white"/>
<path d="M219.63 90.5273L229.536 98.4333L125.66 135.195L120.853 134.096L118.628 133.46L112.483 120.708L119.833 122.84L123.528 122.403L219.63 90.5273Z" fill="white"/>
<mask id="mask0_67_3206" style="mask-type:luminance" maskUnits="userSpaceOnUse" x="0" y="0" width="234" height="138">
<path d="M233.708 0H0V137.42H233.708V0Z" fill="white"/>
</mask>
<g mask="url(#mask0_67_3206)">
<path d="M6.25049 30.0478L114.536 2.33081L227.523 33.8088L119.953 65.6045L6.25049 30.0478Z" fill="#A9D6EA"/>
<path d="M114.537 3.24449L224.332 33.8352L119.966 64.6907L9.46874 30.1272L114.537 3.24449ZM114.55 1.41699L3.01953 29.9551L119.94 66.5315L230.715 33.7822L114.55 1.41699Z" fill="#7CB2D4"/>
</g>
<mask id="mask1_67_3206" style="mask-type:luminance" maskUnits="userSpaceOnUse" x="0" y="0" width="234" height="138">
<path d="M233.708 0H0V137.42H233.708V0Z" fill="white"/>
</mask>
<g mask="url(#mask1_67_3206)">
<path d="M202.363 40.9465C201.833 39.2647 200.509 37.914 198.747 37.4107C187.332 34.153 152.874 24.3402 124.959 16.368C118.285 14.4611 111.968 12.6601 106.446 11.071C102.632 9.97181 99.215 8.99185 96.2751 8.15756C93.5736 7.37624 91.3091 6.72734 89.561 6.22412L81.4697 8.25026C83.2575 8.77996 85.4823 9.4421 88.0911 10.2102C88.9254 10.4618 89.7994 10.7134 90.7132 10.9783C96.487 12.6866 103.665 14.7922 111.597 17.1361C141.631 25.9823 182.101 37.914 194.907 41.847C195.45 42.0192 195.9 42.3503 196.258 42.7608C196.734 43.3037 197.026 43.9791 197.026 44.734V45.5815V54.7984V57.9767V60.3471V63.4194V72.6364V75.8411V78.1851V81.2574V90.4743V93.6923V95.9171V99.0026V108.22V112.086L197.41 111.954L202.588 110.153V110.14V106.26V97.1222V94.0366V91.8383V88.6071V79.4564V76.3841V74.0533V70.8486V61.6979V58.6388V56.2684V53.0769V43.9129V42.5489C202.614 41.9927 202.521 41.4498 202.363 40.9465Z" fill="#005398"/>
</g>
<mask id="mask2_67_3206" style="mask-type:luminance" maskUnits="userSpaceOnUse" x="0" y="0" width="234" height="138">
<path d="M233.708 0H0V137.42H233.708V0Z" fill="white"/>
</mask>
<g mask="url(#mask2_67_3206)">
<path d="M153.06 51.289C138.281 46.76 75.7357 27.5846 49.3032 19.917C46.6679 19.1489 44.3901 18.5 42.5494 17.9968L33.6768 20.2216C35.5572 20.7513 37.8085 21.4002 40.3643 22.1683C68.6243 30.5377 134.282 51.4744 148.73 56.0432C149.074 56.1491 149.352 56.3742 149.537 56.6656C149.71 56.9172 149.802 57.2218 149.802 57.5396V59.6452V69.3918V72.4906V75.0332V78.0923V87.8654V90.9775V93.4803V96.5527V106.352V109.478V111.888V114.973V124.799V128.574V128.587L154.689 126.879L155.947 126.441L155.96 122.654L156 112.894L156.013 109.809L156.026 107.425L156.04 104.273L156.079 94.5398L156.092 91.4675L156.106 88.9911L156.119 85.8525L156.159 76.1456L156.172 73.0733L156.185 70.5439L156.198 67.4319L156.238 57.7382L156.251 55.5929C156.251 55.2883 156.212 54.997 156.159 54.7189C155.801 53.1033 154.649 51.7658 153.06 51.289Z" fill="#005398"/>
</g>
<mask id="mask3_67_3206" style="mask-type:luminance" maskUnits="userSpaceOnUse" x="0" y="0" width="234" height="138">
<path d="M233.708 0H0V137.42H233.708V0Z" fill="white"/>
</mask>
<g mask="url(#mask3_67_3206)">
<path d="M224.266 74.2914C223.922 73.9603 223.564 73.616 223.233 73.2584L232.291 70.3318C233.165 70.0537 233.735 69.2194 233.708 68.3057C233.682 67.3919 233.033 66.6106 232.145 66.3855L229.06 65.6306L232 64.6904C232.847 64.4255 233.417 63.631 233.43 62.7437C233.43 61.8564 232.861 61.0619 232.013 60.797L229.139 59.8568C226.742 58.6782 224.981 57.0626 223.445 55.2748L232.265 52.5336C233.139 52.2687 233.721 51.4477 233.708 50.5339C233.682 49.6202 233.059 48.8256 232.172 48.6005L230.795 48.2429L231.987 47.8721C232.834 47.6073 233.417 46.826 233.43 45.9387C233.443 45.0514 232.874 44.2569 232.039 43.9655L228.742 42.8531C226.411 41.6878 224.703 40.2046 223.061 38.4433L232.251 35.7153C233.125 35.4505 233.721 34.6427 233.721 33.7289C233.708 32.8152 233.086 32.0206 232.212 31.769L218.399 28.0213L216.334 27.4651L214.268 26.9089L172.739 15.6526L149.643 9.38878L148.571 9.12393L146.505 8.56773L143.711 7.79965L115.186 0.065903C114.841 -0.0267961 114.484 -0.0267939 114.153 0.0526625L89.561 6.21053C91.3091 6.71375 93.5736 7.36264 96.2751 8.14396L114.63 3.54874L135.103 9.09744L146.518 12.1962L148.584 12.7524L149.418 12.9776L149.643 13.0438L150.65 13.3086L152.57 13.8251L155.497 14.6197L166.554 17.6125L169.653 18.4468L172.752 19.2811L200.31 26.75L203.435 27.5975L210.441 29.4912L214.281 30.5374L215.208 30.789L216.347 31.0936L218.413 31.6498L226.332 33.7951L219.962 35.6888L218.439 36.1391H218.413L217.698 36.351L216.903 36.5893L216.36 36.7482L214.294 37.3574L212.427 37.9136L210.004 38.6287L207.58 39.3438L202.402 40.88C202.561 41.3964 202.654 41.9394 202.654 42.4956V43.8596L203.17 43.7139H203.184L205.885 42.9061L207.024 42.5618L212.387 40.9727L214.307 40.4032L214.824 40.2576L216.373 39.7941L217.247 39.5292L218.373 39.1981L218.426 39.1849L218.969 39.026C219.406 39.5425 219.856 40.0722 220.32 40.5754C221.048 41.3832 221.816 42.1645 222.664 42.9061C223.789 43.9126 225.061 44.8396 226.57 45.6474L226.385 45.7003L221.975 47.0643L221.644 47.1703L219.313 47.8854L218.426 48.1635L216.983 48.6005L216.638 48.7064L216.334 48.8521L215.38 49.1434L214.268 49.4878L213.804 49.6334L203.674 52.7587L202.627 53.0898V56.2813L203.872 55.8972L204.137 55.8178L206.309 55.1556L208.746 54.414L210.864 53.7651L214.281 52.719L216.109 52.1628L216.347 52.0966L217.618 51.7125L218.413 51.4742L219.115 51.2623L222.319 50.2823L222.544 50.3353L226.319 51.3152L220.518 53.1163L219.035 53.5797L218.399 53.7784L217.989 53.9108L217.552 54.0432L216.334 54.414L212.401 55.6324L211.685 55.8575L209.977 56.3872L207.554 57.142L205.024 57.9234L202.614 58.6782V61.7373L203.17 61.5651L204.561 61.1281L205.885 60.7176L212.387 58.7047L214.811 57.9498L214.903 57.9234L217.221 57.2082L218.055 56.9566L219.221 56.5991L219.446 56.5329C219.949 57.1818 220.479 57.8307 221.022 58.4531C221.71 59.2344 222.452 60.0025 223.26 60.7176C224.266 61.6048 225.365 62.4391 226.65 63.1675L226.345 63.2734L221.935 64.6904L219.605 65.4452L219.287 65.5512L216.638 66.3987L216.228 66.5311L214.625 67.0476L212.943 67.5905L208.481 69.034L203.7 70.5702L203.515 70.6231L202.641 70.9012V74.106L203.435 73.8543L203.925 73.6954L206.349 72.9141L208.401 72.252L208.772 72.1328L213.381 70.6496L215.566 69.9478L217.115 69.4578L218.638 68.9678L221.551 68.0276L222.359 67.7759L226.345 68.7559L220.161 70.7556L218.664 71.2455L217.857 71.5104L217.168 71.7355L216.877 71.8282L212.427 73.2717L211.924 73.4306L210.017 74.053L207.607 74.8343L206.984 75.033L202.667 76.4367V79.509L203.462 79.2574L206.163 78.3834L211.646 76.6088L212.454 76.344L214.864 75.5627L216.598 75.0065L217.274 74.7813L218.731 74.3046L219.221 74.1457C219.711 74.7151 220.201 75.2846 220.73 75.8408C220.982 76.1056 221.233 76.3705 221.498 76.6353C222.002 77.1386 222.544 77.6418 223.114 78.1185C224.173 79.0058 225.352 79.8401 226.716 80.5684L226.398 80.6744L225.1 81.1114L222.2 82.0781L220.571 82.621L219.552 82.9653L216.903 83.8526L215.433 84.3558L213.712 84.9385L211.937 85.5344L203.912 88.2359L202.694 88.6465V91.8777L204.203 91.3745L206.627 90.5667L209.037 89.7589L215.009 87.7592L216.585 87.2295L218.161 86.6998L221.684 85.5212L222.677 85.1901L226.398 86.0509L219.737 88.3022L218.214 88.8186L217.525 89.057L216.678 89.3483L212.467 90.7653L210.07 91.5731L207.673 92.3809L202.72 94.0495V97.1351L212.533 93.8244L214.93 93.0166L217.327 92.2088L218.307 91.8777L218.903 91.6791C219.353 92.1558 219.816 92.6325 220.293 93.096C221.088 93.8774 221.922 94.6454 222.862 95.387C223.988 96.2743 225.259 97.1086 226.742 97.8634L226.411 97.9826L202.707 106.299V110.179L232.159 99.9028C232.993 99.6115 233.549 98.8036 233.536 97.9164C233.509 97.0291 232.927 96.261 232.066 95.9962L229.325 95.1884C226.636 94.023 224.743 92.5398 223.061 90.911L232.41 87.746C233.284 87.4546 233.841 86.6203 233.801 85.7066C233.761 84.7928 233.112 84.0248 232.212 83.8129L229.881 83.2699L230.702 82.9918" fill="#7CB2D4"/>
</g>
<mask id="mask4_67_3206" style="mask-type:luminance" maskUnits="userSpaceOnUse" x="0" y="0" width="234" height="138">
<path d="M233.708 0H0V137.42H233.708V0Z" fill="white"/>
</mask>
<g mask="url(#mask4_67_3206)">
<path d="M156.013 107.412L197.052 93.7058V90.4878L156.026 104.26" fill="#7CB2D4"/>
</g>
<mask id="mask5_67_3206" style="mask-type:luminance" maskUnits="userSpaceOnUse" x="0" y="0" width="234" height="138">
<path d="M233.708 0H0V137.42H233.708V0Z" fill="white"/>
</mask>
<g mask="url(#mask5_67_3206)">
<path d="M155.986 112.894L197.052 99.0155V95.9167L156 109.795" fill="#7CB2D4"/>
</g>
<mask id="mask6_67_3206" style="mask-type:luminance" maskUnits="userSpaceOnUse" x="0" y="0" width="234" height="138">
<path d="M233.708 0H0V137.42H233.708V0Z" fill="white"/>
</mask>
<g mask="url(#mask6_67_3206)">
<path d="M156.066 94.5266L182.088 86.1042L184.114 85.4553L184.22 85.4156L186.233 84.7667L186.683 84.621L189.133 83.8265L197.052 81.2706L197.039 78.1851L195.172 78.7942L184.18 82.3565L182.379 82.9392L181.73 83.1511L180.525 83.5351L179.267 83.9456L178.698 84.131L156.066 91.4543" fill="#7CB2D4"/>
</g>
<mask id="mask7_67_3206" style="mask-type:luminance" maskUnits="userSpaceOnUse" x="0" y="0" width="234" height="138">
<path d="M233.708 0H0V137.42H233.708V0Z" fill="white"/>
</mask>
<g mask="url(#mask7_67_3206)">
<path d="M197.052 108.219L155.96 122.654L155.947 126.441L154.688 126.878L197.436 111.954L197.052 112.086" fill="#7CB2D4"/>
</g>
<mask id="mask8_67_3206" style="mask-type:luminance" maskUnits="userSpaceOnUse" x="0" y="0" width="234" height="138">
<path d="M233.708 0H0V137.42H233.708V0Z" fill="white"/>
</mask>
<g mask="url(#mask8_67_3206)">
<path d="M149.484 56.6657L147.219 57.3411L138.135 60.0426L133.394 61.4463L130.56 62.2939L130.255 62.3866L129.792 62.519L127.726 63.1414L123.687 64.3465L121.131 65.1146L120.257 65.3794L118.271 64.757L117.688 64.5716L114.867 63.6844L108.458 61.6715L106.299 60.9961L105.796 60.8372L103.121 60.0029L85.6142 54.5071L75.0598 51.1965L72.3847 50.3622L69.7097 49.5279L55.5797 45.0916L52.9444 44.2705L52.6531 44.1778L49.7264 43.2641L41.6351 40.7215L38.9601 39.8872L36.2851 39.0529L20.2746 34.0339L19.4006 33.7558L8.22373 30.2465L40.3771 22.2081C37.8212 21.4533 35.57 20.7912 33.6895 20.2615L2.34396 28.1012C1.4567 28.3263 0.821048 29.1076 0.794563 30.0346C0.768077 30.9483 1.35076 31.7694 2.22478 32.0475L10.7134 34.7093L1.44346 37.6492C0.595923 37.914 0.013243 38.7086 0.013243 39.5958C0.013243 40.4831 0.58268 41.2777 1.43021 41.5558L10.2896 44.403L2.34396 46.3894C1.4567 46.6145 0.821048 47.3958 0.794563 48.3228C0.768077 49.2365 1.35076 50.0576 2.22478 50.3357L10.7134 52.9975L1.44346 55.9374C0.595923 56.2022 0.013243 56.9968 0.013243 57.884C0.013243 58.7713 0.58268 59.5659 1.43021 59.844L11.9979 63.2474L2.34396 65.6575C1.4567 65.8827 0.821048 66.664 0.794563 67.591C0.768077 68.5047 1.35076 69.3258 2.22478 69.6039L10.7134 72.2656L1.44346 75.2055C0.595923 75.4704 0.013243 76.265 0.013243 77.1522C0.013243 78.0395 0.58268 78.834 1.43021 79.1121L11.5344 82.3698L2.33072 84.6741C1.44346 84.8992 0.807806 85.6805 0.781321 86.6075C0.754835 87.5213 1.33752 88.3423 2.21153 88.6204L10.7001 91.2822L1.43021 94.2221C0.58268 94.4869 0 95.2815 0 96.1688C0 97.056 0.569437 97.8506 1.41697 98.1287L123.488 137.407C123.687 137.473 123.899 137.499 124.111 137.499C124.349 137.499 124.601 137.46 124.826 137.38L149.802 128.666V124.892L124.799 133.672L124.151 133.897C122.8 133.434 121.727 132.878 120.88 132.268C118.92 130.865 117.993 129.117 117.026 127.196C116.377 125.925 115.688 124.601 114.682 123.316L119.794 124.919C119.939 124.958 120.085 124.985 120.231 124.985C120.39 124.985 120.549 124.958 120.694 124.905L129.117 122.058L149.802 115.066V111.981L130.428 118.443L120.204 121.899L20.2614 90.5274L19.3873 90.2493L8.21049 86.7399L18.659 84.1311L19.6654 84.449L30.3258 87.8788L123.674 117.913C123.819 117.966 123.965 117.98 124.124 117.98C124.283 117.98 124.442 117.953 124.588 117.9H124.601L125.342 117.648L131.474 115.596L149.788 109.478V106.352L132.785 112.06L124.786 114.748L124.217 114.947L124.151 114.96C119.661 113.411 118.416 111.014 117.013 108.259C116.364 106.988 115.675 105.664 114.669 104.379L119.78 105.982C119.926 106.035 120.072 106.048 120.217 106.048C120.363 106.048 120.522 106.021 120.668 105.982L129.064 103.267L137.022 100.685L149.802 96.5528V93.4805L138.32 97.1885L130.361 99.7708L120.217 103.055L52.9312 81.9328L41.6219 78.3838L38.9468 77.5495L36.2718 76.7152L20.2614 71.6962L19.48 71.4446L8.21049 67.9088L18.659 65.3L19.4668 65.5648L30.3258 69.0609L46.3363 74.2123L48.9716 75.0599L51.6069 75.9074L62.5454 79.43L123.674 99.0954C123.819 99.1351 123.965 99.1616 124.124 99.1616C124.27 99.1616 124.429 99.1351 124.574 99.0954H124.601H124.614L125.541 98.8041L131.474 96.9104L139.419 94.3678L149.828 91.0306V87.9185L140.73 90.8452L132.772 93.4143L124.813 95.9834L124.19 96.182C119.701 94.6326 118.443 92.2357 117.039 89.4812C116.39 88.2099 115.702 86.8856 114.695 85.6011L119.807 87.2034C119.953 87.2564 120.098 87.2697 120.244 87.2697C120.39 87.2697 120.535 87.2432 120.681 87.2034L129.037 84.6079L136.956 82.1447L149.828 78.1454V75.0863L149.59 75.1658L138.254 78.6884L130.335 81.1515L120.257 84.2768L85.6142 73.4045L75.0465 70.0938L72.3715 69.2596L69.6964 68.4253L52.9444 63.1679L41.6351 59.6188L38.9601 58.7846L36.2718 57.8576L20.2614 52.8253L19.6125 52.6267L8.21049 49.0512L18.4868 46.4821L18.659 46.4423L30.3258 50.1768L46.3363 55.3414L48.9716 56.189L50.0045 56.5201L51.6069 57.0365L58.3872 59.2216L59.2082 59.4864L62.5454 60.5591L78.9531 65.8429L79.2842 65.9489L81.9195 66.7964L84.5548 67.6439L94.7649 70.9281L123.674 80.2245C123.819 80.2775 123.965 80.2907 124.124 80.2907C124.27 80.2907 124.415 80.2643 124.548 80.2245L124.574 80.2113H124.588H124.601L124.932 80.1053L131.408 78.1189L139.313 75.6955L145.352 73.8415L147.881 73.0602L149.815 72.4643V69.3655L145.286 70.756L142.77 71.5373L140.611 72.1994L140.24 72.3054L132.692 74.6361L125.832 76.7549L124.786 77.0728L124.19 77.2581C119.688 75.7088 118.443 73.3118 117.026 70.5441C116.377 69.2728 115.688 67.9485 114.682 66.664L119.794 68.2663C119.939 68.3061 120.085 68.3326 120.231 68.3326C120.376 68.3326 120.509 68.3193 120.654 68.2663L123.687 67.3658L126.256 66.5978L128.825 65.8297L128.997 65.7767L130.348 65.3794L133.513 64.4392L136.347 63.5917L136.877 63.4328L139.181 62.7441L149.828 59.5791V57.4735C149.828 57.1557 149.722 56.8511 149.563 56.5995M105.836 120.906C111.49 122.707 112.907 125.488 114.417 128.441C114.748 129.103 115.106 129.779 115.503 130.454C115.662 130.719 115.821 130.971 115.993 131.222L91.4807 123.33C91.825 123.237 92.1429 123.144 92.4607 123.025C93.5201 122.654 94.4868 122.204 95.4006 121.767C98.1815 120.416 100.592 119.238 105.836 120.906ZM97.334 117.781C96.1422 118.165 95.096 118.655 94.1028 119.145C91.3218 120.509 88.9116 121.688 83.6543 120.019C78.4102 118.35 77.1521 116.02 75.6954 113.331C75.1922 112.391 74.636 111.411 73.9209 110.444L97.334 117.781ZM65.1674 108.034C70.4116 109.703 71.6696 112.034 73.1263 114.722C73.5898 115.569 74.0798 116.457 74.689 117.331C74.8744 117.595 75.073 117.874 75.2981 118.138L50.0972 110.034C50.4415 109.941 50.7858 109.848 51.1169 109.743C52.0307 109.451 52.8914 109.107 53.7257 108.776C57.0232 107.465 59.8571 106.339 65.1674 108.034ZM56.1227 104.843C54.8778 105.187 53.739 105.624 52.6531 106.048C50.0045 107.094 47.6208 108.008 44.0321 107.452C43.1845 107.319 42.3105 107.134 41.3041 106.816C40.6287 106.551 40.0328 106.273 39.4633 105.982C35.6891 104.048 34.2192 101.678 32.6698 99.1881C32.2195 98.473 31.7693 97.7446 31.2528 97.0295L56.1227 104.843ZM23.3204 94.6856C27.2138 95.9834 28.5248 98.0757 30.1934 100.738C30.7761 101.678 31.3985 102.644 32.1533 103.624C32.3652 103.903 32.5903 104.181 32.8287 104.459L9.77313 97.0428C10.0777 96.9368 10.3691 96.8309 10.6604 96.7117C11.5212 96.3674 12.3157 95.9966 13.0706 95.6258C15.9045 94.2353 18.3544 93.0435 23.3204 94.6856ZM105.836 102.062C111.49 103.863 112.907 106.644 114.417 109.597C114.881 110.511 115.384 111.451 115.993 112.378L91.4807 104.485C92.9639 104.101 94.222 103.505 95.4006 102.923C98.1815 101.559 100.592 100.393 105.836 102.062ZM97.334 98.9365C96.1422 99.3205 95.096 99.8105 94.1028 100.3C91.3218 101.664 88.9116 102.843 83.6543 101.175C78.4102 99.5059 77.1521 97.1752 75.6954 94.4869C75.1922 93.5467 74.636 92.5667 73.9209 91.6L97.334 98.9365ZM65.1674 89.1766C70.4116 90.8452 71.6696 93.1759 73.1263 95.8642C73.7222 96.9766 74.3711 98.1419 75.2981 99.2808L50.0972 91.1763C51.4083 90.8319 52.6001 90.3685 53.7257 89.9182C57.0232 88.6204 59.8571 87.4948 65.1674 89.1766ZM33.5173 78.9003L36.1924 79.7345L47.6208 83.3233L56.1227 85.9984C54.8778 86.3427 53.739 86.7797 52.6531 87.2034C49.3821 88.5012 46.5614 89.6269 41.3041 87.9715C39.7811 87.3624 38.5761 86.687 37.5696 85.9719C35.2521 84.343 34.0338 82.5023 32.8287 80.5821C32.7757 80.5026 32.7228 80.4232 32.6698 80.3437C32.4447 79.9862 32.2328 79.6418 31.9944 79.2843C31.756 78.9135 31.5044 78.5559 31.2528 78.1984L33.5173 78.9003ZM13.0706 76.7682C15.9045 75.3777 18.3544 74.1858 23.3204 75.8279C25.532 76.5563 26.896 77.5627 27.9819 78.7678C28.3394 79.1651 28.6705 79.5756 28.9883 80.0259C29.2797 80.4364 29.5578 80.8734 29.8359 81.3237C29.955 81.5091 30.0742 81.6945 30.1934 81.8799C30.9482 83.085 31.756 84.3563 32.8287 85.6011L24.0355 82.7671L21.4002 81.9196L20.8573 81.7474L18.7649 81.0721L9.75988 78.1719C10.1439 78.0527 10.5015 77.9071 10.859 77.7614C11.6404 77.47 12.3687 77.1125 13.0706 76.7682ZM105.836 83.2041C111.49 85.0051 112.907 87.7861 114.417 90.7392C114.881 91.653 115.384 92.5932 115.993 93.5202L91.4675 85.6275C92.9507 85.2435 94.2087 84.6476 95.3873 84.0649C98.1815 82.7141 100.578 81.5356 105.836 83.2041ZM80.2774 74.7288L97.334 80.0789C96.1422 80.4629 95.096 80.9529 94.1028 81.4429C91.3218 82.8069 88.9116 83.9855 83.6543 82.3036C78.5823 80.688 77.2448 78.4632 75.8411 75.8809C75.7881 75.7882 75.7484 75.7088 75.6954 75.6161C75.1922 74.6758 74.636 73.6959 73.9209 72.7291L80.2774 74.7288ZM63.5121 69.882C64.0418 70.0011 64.5848 70.1468 65.1674 70.3322C65.5515 70.4514 65.8693 70.5838 66.2136 70.7163C67.0214 71.0208 67.763 71.3387 68.3722 71.683C70.875 73.0867 71.8947 74.7818 72.9277 76.6622C72.9939 76.7814 73.0601 76.9006 73.1263 77.0198C73.7222 78.1322 74.3711 79.2975 75.2981 80.4364L67.7895 78.0262L56.9702 74.5434L54.3349 73.6959L51.6996 72.8483L50.0972 72.3319C51.4083 71.9876 52.6001 71.5241 53.7257 71.0738C56.6524 69.9084 59.2347 68.902 63.5121 69.882ZM33.5173 60.0559L36.1924 60.8901L47.6208 64.4789L56.1227 67.154C54.8778 67.4983 53.739 67.9353 52.6531 68.359C49.3821 69.6568 46.5614 70.7825 41.3041 69.1271C39.7811 68.518 38.5761 67.8426 37.5696 67.1275C35.2521 65.4986 34.0338 63.6579 32.8287 61.7377C32.7757 61.6582 32.7228 61.5788 32.6698 61.4993C32.4447 61.1418 32.2328 60.7974 31.9944 60.4399C31.756 60.0691 31.5044 59.7115 31.2528 59.354L33.5173 60.0559ZM13.0573 57.9238C15.8913 56.5333 18.3544 55.3414 23.3072 56.9835C25.5187 57.7119 26.8827 58.7183 27.9686 59.9234C28.3262 60.3207 28.6573 60.7312 28.9751 61.1815C29.2664 61.592 29.5445 62.029 29.8226 62.4793C29.9418 62.6647 30.061 62.8501 30.1669 63.0355C30.9218 64.2406 31.7296 65.5119 32.8022 66.7567L24.0223 63.936L21.4267 63.1017L21.387 63.0884L18.7517 62.2409L9.75988 59.3407C10.3426 59.1553 10.8855 58.9302 11.402 58.6919C11.9847 58.4402 12.5409 58.1886 13.0573 57.9238ZM24.0355 45.0916L21.4002 44.244L19.5198 43.6349L18.7649 43.3965L9.77313 40.4964C10.0777 40.3904 10.3691 40.2845 10.6604 40.1653C11.5212 39.821 12.3157 39.4502 13.0706 39.0794C15.9045 37.6889 18.3544 36.4971 23.3204 38.1392C25.532 38.8675 26.896 39.8739 27.9819 41.079C28.3394 41.4763 28.6705 41.8868 28.9883 42.3371C29.2797 42.7476 29.5578 43.1846 29.8359 43.6349C29.955 43.8203 30.0742 44.0057 30.1934 44.1911C30.9482 45.3962 31.756 46.6675 32.8287 47.9123L24.0355 45.0916ZM49.7132 50.5608C47.4487 51.223 44.9723 51.4216 41.3041 50.2827C39.7811 49.6736 38.5761 48.9982 37.5696 48.2831C35.2521 46.6542 34.0338 44.8135 32.8287 42.8933C32.7757 42.8138 32.7228 42.7344 32.6698 42.6549C32.4447 42.2974 32.2328 41.9398 31.9944 41.5955C31.756 41.2247 31.5044 40.8671 31.2528 40.5096L33.5173 41.2247L36.1924 42.059L47.6208 45.6478L49.7132 46.3099L52.6398 47.2237L55.5665 48.1374L56.1227 48.3096C55.9373 48.3625 55.7386 48.4155 55.5665 48.4685C54.5335 48.7863 53.5801 49.1571 52.6531 49.5146H52.6398C51.6466 49.9119 50.7064 50.2695 49.7132 50.5608ZM67.8027 59.1686L60.1087 56.6922L59.1155 56.3744L56.9834 55.6858L54.3481 54.8382L52.6398 54.2953L51.7128 53.9907L50.1105 53.4742C50.9977 53.2359 51.8453 52.9578 52.6398 52.6532C53.0106 52.5075 53.3814 52.3618 53.739 52.2294C54.3614 51.9778 54.9573 51.7527 55.5665 51.5408C57.8177 50.733 60.1484 50.2695 63.5121 51.0376C64.0418 51.1567 64.5848 51.3024 65.1674 51.4878C65.5515 51.607 65.8693 51.7394 66.2136 51.8719C67.0214 52.1764 67.763 52.4943 68.3854 52.8386C70.8883 54.2423 71.908 55.9374 72.9409 57.8178C73.0071 57.937 73.0733 58.0562 73.1395 58.1754C73.3514 58.5594 73.5633 58.97 73.8017 59.3672C74.2255 60.1088 74.7154 60.8504 75.3114 61.592L67.8027 59.1686ZM86.5147 64.1214C85.6539 63.9889 84.7402 63.8035 83.6675 63.4592C83.4424 63.393 83.257 63.3003 83.0451 63.2341C80.3039 62.2674 78.728 61.1153 77.6288 59.8042C76.9137 58.9435 76.3708 58.0165 75.8543 57.0498C75.8013 56.9571 75.7616 56.8776 75.7086 56.7849C75.2054 55.8447 74.6492 54.8647 73.9341 53.898L80.2774 55.8844L96.3805 60.9431L97.334 61.2477C96.8175 61.4199 96.3276 61.592 95.8641 61.8039C95.2549 62.0687 94.6722 62.3336 94.1028 62.6117C93.242 63.0355 92.4077 63.4195 91.5337 63.7373C90.1432 64.2008 88.5806 64.4392 86.5147 64.1214ZM115.993 74.6758L100.022 69.5377L91.4807 66.7832C91.6529 66.7434 91.825 66.6905 91.9972 66.6507C93.2553 66.2667 94.3544 65.737 95.4006 65.2338C95.8773 65.0086 96.3408 64.7835 96.8043 64.5716C97.387 64.32 97.9697 64.0816 98.5921 63.9095C99.2939 63.7108 100.049 63.5784 100.883 63.5519C101.863 63.5254 102.962 63.6314 104.247 63.936C104.75 64.0552 105.28 64.1876 105.849 64.373C107.955 65.0484 109.478 65.8429 110.63 66.7567C110.63 66.7567 110.63 66.7567 110.643 66.7567C112.59 68.2796 113.49 70.0541 114.43 71.9081C114.881 72.7954 115.371 73.7488 115.993 74.6758Z" fill="#7CB2D4"/>
</g>
<mask id="mask9_67_3206" style="mask-type:luminance" maskUnits="userSpaceOnUse" x="0" y="0" width="234" height="138">
<path d="M233.708 0H0V137.42H233.708V0Z" fill="white"/>
</mask>
<g mask="url(#mask9_67_3206)">
<path d="M189.676 62.6513L184.617 64.214L184.061 64.3861L183.346 64.6113L181.598 65.1542L181.399 65.2204L179.571 65.7766L179.532 65.7899L179.134 65.9223L167.799 69.4316L165.031 70.2924L162.263 71.1532L156.145 73.0601L156.132 76.1192L157.112 75.8146L159.615 75.0333L167.905 72.4642L170.672 71.6034L173.44 70.7426L183.094 67.7498L184.047 67.4585L184.299 67.379L185.226 67.0876L186.511 66.6904L187.477 66.3858L188.974 65.9223L189.358 65.8031L194.403 64.2405L197.039 63.4194V60.3604L194.946 61.0092" fill="#7CB2D4"/>
</g>
<mask id="mask10_67_3206" style="mask-type:luminance" maskUnits="userSpaceOnUse" x="0" y="0" width="234" height="138">
<path d="M233.708 0H0V137.42H233.708V0Z" fill="white"/>
</mask>
<g mask="url(#mask10_67_3206)">
<path d="M193.755 55.818L190.351 56.8642L187.637 57.6985L187.054 57.8839L184.922 58.546L181.029 59.7379L177.003 60.9827L175.97 61.3005L175.056 61.5786L174.897 61.6316L172.672 62.3202L172.593 62.3467L170.898 62.8632L170.117 63.1015L157.417 67.0214L156.159 67.4054L156.146 70.5307L157.615 70.0804L160.41 69.2197L163.191 68.3721L175.189 64.6907L175.784 64.5053L176.831 64.1874L177.665 63.9226L178.751 63.5915L180.141 63.1677L180.618 63.0221L180.856 62.9559L185.942 61.3932L190.643 59.9498L193.371 59.1155L196.099 58.2812L197.039 57.9898V54.7983" fill="#7CB2D4"/>
</g>
<mask id="mask11_67_3206" style="mask-type:luminance" maskUnits="userSpaceOnUse" x="0" y="0" width="234" height="138">
<path d="M233.708 0H0V137.42H233.708V0Z" fill="white"/>
</mask>
<g mask="url(#mask11_67_3206)">
<path d="M156.079 88.9648L175.386 82.7804L175.982 82.595L177.85 81.9991L177.929 81.9726L179.796 81.3634L180.326 81.2045L190.907 77.8144L193.622 76.9404L196.35 76.0663L197.052 75.8412V72.6365L190.576 74.7288L187.861 75.6028L185.16 76.4769L176.062 79.4035L175.201 79.6816L173.93 80.0921L172.738 80.4762L171.692 80.8072L170.275 81.2707L156.092 85.8395" fill="#7CB2D4"/>
</g>
<mask id="mask12_67_3206" style="mask-type:luminance" maskUnits="userSpaceOnUse" x="0" y="0" width="234" height="138">
<path d="M233.708 0H0V137.42H233.708V0Z" fill="white"/>
</mask>
<g mask="url(#mask12_67_3206)">
<path d="M49.7131 19.8109L52.6397 19.0825L55.5664 18.3542L67.5113 15.3613L85.7995 10.7794L88.1037 10.2099C85.4949 9.44184 83.2569 8.77971 81.4824 8.25L74.6094 9.97155L42.562 17.9966C44.3895 18.4999 46.6805 19.162 49.3158 19.9168" fill="#7CB2D4"/>
</g>
<mask id="mask13_67_3206" style="mask-type:luminance" maskUnits="userSpaceOnUse" x="0" y="0" width="234" height="138">
<path d="M233.708 0H0V137.42H233.708V0Z" fill="white"/>
</mask>
<g mask="url(#mask13_67_3206)">
<path d="M196.271 42.7476L194.907 43.1581L184.392 46.2834L184.048 46.3893L182.339 46.8925L181.584 47.1177L180.393 47.4752L179.108 47.8593L172.725 49.753L169.626 50.6667L167.613 51.2626L166.527 51.5805L164.832 52.0837L162.065 52.9047L159.27 53.739L156.105 54.6793C156.158 54.9706 156.198 55.2619 156.198 55.5533L156.185 57.6986L156.993 57.4602L159.509 56.7054L162.594 55.7916L166.527 54.6263L167.68 54.282L169.534 53.7258L169.626 53.6993L170.461 53.4477L172.725 52.7723L173.228 52.6266L184.008 49.4219L184.18 49.3689L186.431 48.6935L186.471 48.6803L188.789 47.9917L188.934 47.9519L197.012 45.555V44.7075C197.039 43.9791 196.747 43.2905 196.271 42.7476Z" fill="#7CB2D4"/>
</g>
</svg>
