<svg width="250" height="213" viewBox="0 0 250 213" fill="none" xmlns="http://www.w3.org/2000/svg">
<path d="M42.4473 99.9199L72.1 109.008L78.4187 111.861L74.1565 124.033L65.9473 126.587L50.8058 125.211L39.2466 117.831L40.4407 100.351L42.4473 99.9199Z" fill="white"/>
<path d="M75.8481 51.0624C75.8481 51.5267 73.4931 69.1724 73.4931 69.1724L49.6118 67.3979L39.2466 51.0624V42.7205" fill="white"/>
<path d="M90.4268 49.8026L138.538 36.303L140.627 56.6519L98.3209 72.1416L90.4268 49.8026Z" fill="white"/>
<path d="M61.0392 126.588L132.965 149.425L135.188 161.299L130.992 168.895L123.181 191.997L75.5836 208.332L8.35091 187.27L3.74048 145.063L61.0392 126.588Z" fill="white"/>
<path d="M100.112 20.9128L100.46 20.9957V17.1481C100.46 16.9159 100.493 16.7003 100.56 16.5013C100.759 15.838 101.256 15.2907 101.969 14.8761L98.3208 14.0303C98.4369 14.7434 98.553 15.4234 98.7022 16.0701C99.0837 17.8778 99.5812 19.4368 100.112 20.9128Z" fill="#7CB2D4"/>
<path d="M132.351 28.7734L140.825 25.7717L144.159 24.5942L130.659 21.4929C130.742 22.206 130.842 22.8694 130.958 23.5162C131.339 25.5063 131.803 27.1979 132.351 28.7734Z" fill="#7CB2D4"/>
<path d="M84.6378 16.9327V15.6226L82.3657 16.402L82.4652 16.3688" fill="#7CB2D4"/>
<path d="M78.1541 22.9862C78.8008 21.8419 80.4427 21.0956 82.5986 21.0956C83.5439 21.0956 84.3898 21.2449 85.1029 21.5102C85.136 20.88 85.1858 20.2664 85.2024 19.5865C85.0531 19.404 84.9536 19.2216 84.8707 19.0558L79.0994 17.5134L77.4575 18.0773C77.4907 18.5748 77.557 19.0226 77.6068 19.487C77.7394 20.7639 77.9385 21.9248 78.1541 22.9862Z" fill="#7CB2D4"/>
<path d="M57.6223 37.6461C57.755 37.9778 57.8877 38.3095 58.0203 38.6412L59.8778 39.1553C60.6738 36.9662 61.3704 34.5946 61.7684 31.51L55.0352 29.5862C55.6819 32.7538 56.6272 35.1585 57.6223 37.6461Z" fill="#7CB2D4"/>
<path d="M54.6209 27.1156L62.0009 29.2053C62.0673 28.376 62.117 27.5137 62.1336 26.5849C61.6527 26.0045 61.5698 25.424 61.5698 25.0758V24.628V23.5168L54.4717 25.9381C54.5048 26.2367 54.538 26.5684 54.5712 26.8503C54.6044 26.9332 54.6044 27.0161 54.6209 27.1156Z" fill="#7CB2D4"/>
<path d="M43.6753 34.6112C44.1562 33.2513 44.604 31.7919 44.9688 30.1666C45.0518 29.8184 45.1181 29.4701 45.201 29.1052L35.6816 32.3557L38.103 33.0357" fill="#7CB2D4"/>
<path d="M117.442 28.0109C117.923 29.205 118.404 30.4156 118.852 31.7258C119.283 30.6644 119.681 29.5864 120.063 28.4421L117.326 27.7124C117.376 27.8285 117.409 27.928 117.442 28.0109Z" fill="#7CB2D4"/>
<path d="M116.331 25.1091L120.743 26.2534C121.124 24.8105 121.456 23.2185 121.671 21.3776C121.738 20.764 121.82 20.1504 121.87 19.4704L114.49 17.7788C114.59 18.4919 114.706 19.1719 114.822 19.8021C115.22 21.8088 115.751 23.5004 116.331 25.1091Z" fill="#7CB2D4"/>
<path d="M104.009 41.1124L103.246 41.3777L101.621 41.9582V54.1974L102.152 53.9984L114.258 49.6533L114.988 49.388L115.021 49.3714L115.734 49.1226L115.801 49.106L116.58 48.8241L119.516 47.7627L120.295 47.4808L121.058 47.1988L130.378 43.8488V32.3891C130.378 32.19 130.328 32.0076 130.262 31.8252L119.947 35.4737L119.217 35.7391L118.919 35.8386L118.487 35.9878L117.99 36.1703L117.061 36.502L112.301 38.177L111.572 38.4423L110.842 38.7077L104.772 40.847" fill="#7CB2D4"/>
<path d="M98.7352 43.5346C98.7352 43.3522 98.702 43.1697 98.6523 43.0039L98.0221 43.2195L97.7899 43.3024L96.8612 43.6341L95.949 43.9658L90.045 46.0554L89.3153 46.3208L88.5856 46.5861L84.5225 48.0289V49.704V50.4668V51.2463V61.0144V61.7939V62.5734V71.5952V72.3415V73.121V73.8838V76.272V101.364V104.233L98.7352 98.8764V61.4125C98.503 61.2798 98.2708 61.1471 98.0718 60.9813C96.7782 59.9862 95.9822 58.3278 95.949 56.2216L98.7352 55.2265" fill="#7CB2D4"/>
<path d="M82.9789 104.232V101.678V76.669V73.8331V73.0536V72.2742V72.0586V62.506V61.7266V60.9471V58.161V57.3815V51.179V47.8953L82.7136 47.8124L82.4648 47.746L80.0767 47.0827L79.3304 46.8671L78.5841 46.6515L76.7598 46.1374L76.0135 45.9218L75.317 45.7227L75.2672 45.7062L74.4214 45.5237L73.5093 45.275L63.8572 42.5552L63.1109 42.3396L62.3481 42.124L60.5736 41.6264L59.8273 41.4108L59.081 41.1952L58.9649 41.1621L58.0527 40.9133L57.1406 40.6645L44.4039 37.0823L43.6576 36.8667L42.9113 36.6511L35.664 34.6113L33.8563 34.0972L33.6904 88.8916L36.9907 89.9199M56.0958 50.2668L56.8421 50.4824L57.5884 50.698L59.5122 51.2453L60.2916 51.4609L61.0877 51.6765L61.9666 51.9253L62.7295 52.1575L63.4924 52.373L72.0996 54.8109C72.1328 55.4577 72.0665 56.0713 71.967 56.6352C71.9172 56.9006 71.8509 57.1659 71.7679 57.4147C71.6684 57.68 71.5689 57.9454 71.4528 58.1941C70.3085 60.433 67.8209 61.4944 64.8523 60.6984L61.2369 59.6204L60.4575 59.3882L59.678 59.156L56.7426 58.2771L55.9797 58.0449L55.2168 57.8127L50.424 56.3864C46.2116 55.2421 42.6294 50.781 42.4303 46.4027L56.0958 50.2668Z" fill="#7CB2D4"/>
<path d="M237.678 141.812L239.966 140.8L248.441 137.052L240.049 135.062L240.066 134.266V134.167L237.777 135.162" fill="#7CB2D4"/>
<path d="M240.182 127.434C240.182 127.185 240.149 126.936 240.066 126.704V126.687C240.066 126.671 240.049 126.671 240.049 126.654L237.91 127.533L237.86 130.386L237.844 131.895L240.132 130.916L240.116 132.227" fill="#7CB2D4"/>
<path d="M235.871 132.475L235.887 131.331L235.937 128.362L229.618 130.983L228.408 131.48L227.197 131.978L224.941 132.923L223.2 133.636L223.117 138.213L235.871 132.741" fill="#7CB2D4"/>
<path d="M223.018 145.345L223.001 146.141L222.985 146.92L222.968 148.313L225.008 147.418L226.169 146.887L227.347 146.373L235.705 142.674L235.821 136.008L223.068 141.53" fill="#7CB2D4"/>
<path d="M142.733 150.768V151.331L142.683 153.554V154.134L142.583 160.254L155.552 164.052L155.702 154.681L142.733 150.751" fill="#7CB2D4"/>
<path d="M155.769 149.756L155.785 149.109L155.802 148.346L148.107 146.091L146.332 145.56L145.138 145.212L143.944 144.847L142.833 144.532L142.816 145.295V146.041H142.8V146.14V146.97L142.783 147.534L155.752 151.364" fill="#7CB2D4"/>
<path d="M189.484 150.486L189.501 149.823L189.518 147.915L189.534 147.6L189.12 147.766L187.561 148.413L186.864 148.711L186.715 148.761L186.466 148.877L185.554 149.242L184.493 149.69L184.41 154.831L189.451 152.659" fill="#7CB2D4"/>
<path d="M184.243 165.428L186.465 164.45L186.548 164.417L189.053 163.305L189.318 163.189L189.401 156.108L184.359 158.297" fill="#7CB2D4"/>
<path d="M216.251 136.521L213.448 137.682L213.2 137.782L213.083 137.832L212.304 138.163L211.193 138.611L211.176 139.556L211.143 142.508L211.126 143.304V143.354L216.168 141.198" fill="#7CB2D4"/>
<path d="M211.06 147.816L211.044 148.927L210.961 153.621L212.752 152.825L213.216 152.626L216.019 151.382L216.102 145.279L216.119 144.549L211.077 146.738" fill="#7CB2D4"/>
<path d="M196.25 160.121L208.987 154.499L209.053 150.187L209.07 149.491L209.103 147.633V147.584L196.35 153.106" fill="#7CB2D4"/>
<path d="M209.154 143.62L209.17 142.84L209.187 142.044L209.203 140.502L209.22 139.441L209.021 139.524L205.207 141.099L203.996 141.597L203.349 141.862L202.785 142.111L196.467 144.714L196.417 148.628V149.192L196.4 149.673L209.154 144.217" fill="#7CB2D4"/>
<path d="M122.351 138.495L121.157 138.147L116.331 136.738L116.298 139.69L129.051 143.454L129.084 140.486L123.545 138.86" fill="#7CB2D4"/>
<path d="M132.401 141.464L132.335 141.431L132.053 141.348L131.041 141.066L130.992 144.035L135.917 145.494L135.934 144.516L135.95 143.139L135.967 142.509L133.181 141.697" fill="#7CB2D4"/>
<path d="M182.469 154.648L182.535 150.502L182.287 150.601L174.476 153.835L169.749 152.442L169.699 155.494L176.217 157.418C177.029 157.65 177.892 157.6 178.671 157.268L182.436 155.643" fill="#7CB2D4"/>
<path d="M176.201 160.9L169.65 158.91L169.617 160.602L169.6 161.182L169.484 168.164L174.658 169.673L182.27 166.307L182.386 159.358V159.159L178.688 160.768C177.909 161.099 177.03 161.149 176.201 160.9Z" fill="#7CB2D4"/>
<path d="M162.882 150.436L162.65 150.369L159.913 149.557L159.001 149.291L158.736 149.208L158.686 149.192L157.94 148.976L157.741 148.927L157.724 149.789L157.708 150.983L157.691 151.945L162.832 153.471" fill="#7CB2D4"/>
<path d="M157.493 164.633L158.754 164.997L159.036 165.08L162.634 166.142L162.734 159.657L162.75 158.977L162.767 157.087L162.784 156.821L157.642 155.262" fill="#7CB2D4"/>
<path d="M122.367 120.037L123.511 120.386L128.818 121.928L128.885 118.014V117.168L128.901 116.322L128.968 112.641L116.297 109.009L116.148 118.213L121.223 119.706" fill="#7CB2D4"/>
<path d="M155.784 129.855L157.46 130.336L157.741 130.419L158.753 130.717H158.77H158.786L159.035 130.784L159.3 130.867L159.931 131.049L160.378 131.182L162.684 131.862L162.717 129.888L162.733 129.208L162.75 128.495L162.8 125.51L162.816 124.83V124.697L162.833 123.818L162.849 123.138V123.105V122.939V122.359L157.642 120.866V121.248L157.625 122.027L157.609 123.569L157.592 124.399V124.88V125.228V125.626L157.576 127.152L157.559 128.395C157.46 128.528 157.343 128.644 157.194 128.777C156.862 129.059 156.398 129.357 155.867 129.623C155.784 129.672 155.718 129.706 155.619 129.755" fill="#7CB2D4"/>
<path d="M142.982 117.168V117.201V117.864L142.949 119.407V119.987L142.933 120.966L142.916 121.662L142.883 123.321V123.901L142.866 124.465L142.85 126.041L146.034 126.986L147.593 127.434L147.775 127.5L148.969 127.848L149.152 127.898L150.163 128.196L155.52 129.772L155.57 126.521V126.024V125.875L155.586 125.195L155.603 124.366L155.62 123.006L155.636 122.342V121.695L155.669 120.302L142.999 116.67" fill="#7CB2D4"/>
<path d="M226.268 114.034L235.77 110.086L235.87 102.872L223.067 108.08L222.984 113.121V113.917L222.967 114.713L222.951 115.41L223.946 114.995L225.107 114.514" fill="#7CB2D4"/>
<path d="M240.033 102.027L240.049 101.231L240.066 100.186L240.049 101.181L237.844 102.077V102.276L237.728 109.274L239.933 108.362L248.424 104.846L240.033 102.807" fill="#7CB2D4"/>
<path d="M171.672 134.515L171.722 134.532L173.579 135.079L174.724 135.411L175.884 134.93L175.934 134.913L177.145 134.416L177.924 134.1L182.303 132.293L182.336 130.054L182.352 129.407L182.369 128.76L182.419 125.211L182.435 124.598L178.704 126.107C177.924 126.422 177.045 126.472 176.233 126.239L169.715 124.365L169.699 124.929L169.682 126.472L169.665 127.052L169.649 128.031L169.632 128.727L169.599 130.386L169.582 130.966L169.566 131.53L169.533 133.918H169.549L170.528 134.2" fill="#7CB2D4"/>
<path d="M189.368 123.586L189.384 122.956L189.401 122.16V121.729L184.392 123.752V123.885L184.376 124.482L184.359 125.377L184.326 127.434L184.31 128.296L184.293 129.076L184.26 131.464H184.276L185.354 131.016L185.57 130.916L186.449 130.552H186.465L186.515 130.535L186.631 130.485L186.731 130.436L189.434 129.308L189.534 129.275L191.374 128.512C190.711 128.313 190.097 128.097 189.55 127.848C189.467 127.815 189.351 127.782 189.268 127.732L189.318 124.266" fill="#7CB2D4"/>
<path d="M212.901 119.573L213.2 119.44L213.25 119.424L214.079 119.092L216.003 118.279L216.086 112.84L216.102 112.044L216.119 111.248V110.899L211.11 112.923V113.553L211.094 114.432V114.714L211.077 115.311L211.06 116.19L211.027 118.246V119.109L211.011 119.872L210.994 120.352L212.536 119.722" fill="#7CB2D4"/>
<path d="M199.02 125.327L199.119 125.278L200.33 124.78L201.557 124.282L209.036 121.181V120.849V120.186L209.053 119.539L209.103 115.99L209.119 115.31V114.945L209.136 114.05L209.153 113.718L196.333 118.909V119.506L196.3 121.165V121.745L196.283 122.309L196.267 123.022V123.801L196.25 124.598L196.233 125.195V125.775L196.217 126.488L197.709 125.875" fill="#7CB2D4"/>
<path d="M132.053 122.889L132.203 122.939L132.319 122.972H132.335L133.148 123.221L135.951 124.05L135.967 122.889L135.984 122.209L136 121.496L136.05 118.495L136.067 117.815V117.682L136.083 116.803L136.1 116.09V115.924L136.116 115.277V114.846V114.713L130.909 113.221L130.876 115.46L130.859 116.305L130.843 117.151L130.776 121.397C130.677 121.529 130.561 121.646 130.411 121.778C130.246 121.927 130.03 122.077 129.781 122.226L131.539 122.74" fill="#7CB2D4"/>
<path d="M107.426 171.084C107.442 169.939 107.426 168.579 107.343 167.419C107.326 167.12 107.293 166.855 107.26 166.589C107.227 166.274 107.177 165.992 107.111 165.744C107.061 165.528 107.011 165.346 106.945 165.196C106.679 164.632 106.016 164.599 105.469 165.147C105.436 165.18 105.419 165.213 105.386 165.229C105.187 165.428 105.004 165.661 104.822 165.86C104.623 166.075 104.44 166.274 104.258 166.49C102.815 168.231 101.588 170.221 100.726 171.764C103.114 171.117 105.402 170.918 107.426 171.084Z" fill="#7CB2D4"/>
<path d="M121.97 167.352C121.306 167.866 120.411 168.596 119.482 169.392C119.25 169.591 119.018 169.79 118.769 169.989C118.537 170.188 118.304 170.387 118.072 170.586C116.663 171.78 115.286 172.991 114.357 173.804C115.551 174.948 116.182 176.391 116.066 177.933C115.966 179.26 114.971 181.15 113.379 183.19C114.988 183.754 118.669 185.031 120.56 185.462C121.323 185.628 122.169 184.816 121.804 183.588C121.256 181.731 119.382 178.348 119.499 176.938C119.565 175.993 120.643 173.737 121.621 171.631C121.737 171.399 121.837 171.15 121.953 170.918C122.069 170.669 122.169 170.437 122.285 170.205C122.567 169.591 122.815 169.027 122.981 168.563C123.545 167.054 122.799 166.722 121.97 167.352Z" fill="#7CB2D4"/>
<path d="M92.7474 176.54C87.5234 180.122 83.7587 184.998 83.5597 187.453C83.3607 190.056 86.6942 192.942 91.8021 193.439C90.3095 186.756 91.7689 179.94 92.7474 176.54ZM89.0491 184.882C88.4023 185.064 87.938 184.6 87.9877 183.837C88.0541 183.074 88.6179 182.295 89.2647 182.112C89.9115 181.93 90.3759 182.394 90.3261 183.157C90.2598 183.903 89.6959 184.683 89.0491 184.882Z" fill="#7CB2D4"/>
<path d="M100.161 172.908C98.0716 173.522 96.0483 174.467 94.1743 175.612C93.2953 178.398 91.2554 186.226 93.1958 193.506C94.8708 193.523 96.6951 193.291 98.6189 192.727C107.359 190.156 114.971 181.267 115.22 178.182C115.535 174.119 108.901 170.338 100.161 172.908ZM99.4315 177.055C99.4149 177.121 97.5409 182.892 98.5359 188.78C98.6023 189.128 98.3701 189.576 98.055 189.775C98.0052 189.808 97.9389 189.841 97.8892 189.841C97.6238 189.924 97.4082 189.775 97.3585 189.493C96.3136 183.207 98.254 177.187 98.3369 176.922C98.4696 176.524 98.8179 176.209 99.133 176.242C99.4149 176.308 99.5642 176.657 99.4315 177.055ZM102.417 176.69C102.383 176.773 100.708 182.03 101.587 187.387C101.654 187.735 101.422 188.183 101.107 188.382C101.057 188.415 100.99 188.448 100.941 188.448C100.675 188.531 100.46 188.382 100.41 188.1C99.4481 182.328 101.239 176.806 101.322 176.557C101.455 176.159 101.803 175.844 102.118 175.877C102.4 175.927 102.549 176.292 102.417 176.69ZM105.335 176.806C105.319 176.856 103.942 181.134 104.672 185.496C104.738 185.844 104.506 186.292 104.191 186.491C104.141 186.524 104.075 186.541 104.025 186.557C103.76 186.64 103.544 186.491 103.495 186.209C102.699 181.433 104.175 176.872 104.241 176.69C104.374 176.292 104.722 175.977 105.037 176.01C105.335 176.06 105.468 176.408 105.335 176.806Z" fill="#7CB2D4"/>
<path d="M109.465 25.6233C109.73 30.184 110.543 33.3184 111.538 36.1211L117.939 33.8657C117.21 31.4278 116.331 29.3879 115.502 27.232" fill="#7CB2D4"/>
<path d="M107.26 11.9574C107.243 12.8032 107.21 13.5992 107.177 14.3621C107.873 14.5446 108.437 14.8265 108.901 15.1913C109.432 15.6059 109.78 16.1201 109.896 16.7005C109.93 16.8498 109.963 16.999 109.963 17.1483V22.4055C109.963 22.6543 109.913 23.0025 109.731 23.384L114.54 24.6278C114.009 23.0689 113.545 21.3939 113.18 19.4037C113.064 18.757 112.965 18.0936 112.882 17.3805C112.683 15.7718 112.55 13.9807 112.533 11.9408C112.898 11.6921 113.114 11.4101 113.114 11.095V5.8378C113.114 5.00859 111.688 4.34521 109.913 4.34521C108.139 4.34521 106.712 5.00859 106.712 5.8378V11.095C106.696 11.4267 106.911 11.7086 107.26 11.9574Z" fill="#7CB2D4"/>
<path d="M99.1998 22.8866L93.644 21.4106C94.0255 27.6795 95.4351 31.2617 96.9277 35.0098C97.3423 36.0214 97.7404 37.0496 98.1384 38.1442C99.3325 35.0927 100.41 31.9085 100.842 27.0991C100.311 25.6396 99.7471 24.2797 99.1998 22.8866Z" fill="#7CB2D4"/>
<path d="M91.0057 7.61219C90.9891 8.42482 90.956 9.1877 90.9228 9.93399C91.5862 10.0667 92.1832 10.2657 92.6641 10.5476C93.3275 10.929 93.7919 11.4432 93.9909 12.0568C94.0738 12.289 94.1236 12.5377 94.1236 12.8031V13.0518V13.3503V18.0603C94.1236 18.3422 94.0572 18.79 93.7753 19.2544L98.3194 20.4318C97.8384 19.0056 97.3907 17.4467 97.0424 15.6722C96.9097 15.0254 96.8102 14.3454 96.7107 13.6489C96.4619 11.8909 96.2961 9.90082 96.2795 7.59561C96.6444 7.34684 96.86 7.06491 96.86 6.7498V1.49259C96.86 0.663374 95.4337 0 93.6592 0C91.8847 0 90.4584 0.663374 90.4584 1.49259V6.7498C90.4253 7.08149 90.6409 7.38001 91.0057 7.61219Z" fill="#7CB2D4"/>
<path d="M121.572 28.8564C121.074 30.3656 120.51 31.7587 119.963 33.1518L127.575 30.4651" fill="#7CB2D4"/>
<path d="M123.196 21.5923C122.964 23.4995 122.632 25.1413 122.234 26.6339L130.742 28.823C130.178 27.148 129.697 25.3238 129.332 23.1346C129.233 22.5044 129.15 21.8245 129.067 21.1279C128.901 19.6685 128.802 18.093 128.785 16.3019C129.15 16.0531 129.366 15.7712 129.366 15.4561V10.1989C129.366 9.36967 127.939 8.7063 126.165 8.7063C124.39 8.7063 122.964 9.36967 122.964 10.1989V15.4561C122.964 15.7712 123.18 16.0697 123.545 16.3019C123.528 17.5623 123.462 18.7232 123.379 19.8178C123.329 20.4148 123.263 21.0118 123.196 21.5923Z" fill="#7CB2D4"/>
<path d="M87.7061 38.957C88.1372 40.8311 88.6679 42.4563 89.2484 44.0152L96.446 41.4613" fill="#7CB2D4"/>
<path d="M70.4916 14.5944C70.475 15.8382 70.4087 16.9825 70.3257 18.0605C70.8067 18.5415 71.072 19.1219 71.072 19.7853V20.2496V21.4105V25.0591C71.072 25.4074 70.9891 25.9878 70.5082 26.5683C70.5579 28.492 70.7072 30.1836 70.9062 31.6928L78.253 33.7658C78.3359 32.8703 78.3857 31.925 78.4189 30.8968C77.9379 30.3163 77.855 29.7359 77.855 29.3876V27.6131C77.1087 25.4571 76.4619 23.0524 76.0805 19.9677C76.0307 19.5365 75.981 19.0722 75.9312 18.6078C75.8151 17.3806 75.7488 16.0538 75.7322 14.611C76.0971 14.3622 76.3127 14.0803 76.3127 13.7652V8.50797C76.3127 7.67875 74.8864 7.01538 73.1119 7.01538C71.3374 7.01538 69.9111 7.67875 69.9111 8.50797V13.7652C69.9111 14.0637 70.1267 14.3622 70.4916 14.5944Z" fill="#7CB2D4"/>
<path d="M73.8758 41.9749C74.0416 42.3895 74.2075 42.8207 74.3733 43.2353L76.0483 43.6996C76.8444 41.5271 77.5575 39.1721 77.9887 36.1538L71.3716 34.2632C72.0184 37.2649 72.9305 39.5867 73.8758 41.9749Z" fill="#7CB2D4"/>
<path d="M63.7085 25.9047C63.6919 27.248 63.6256 28.4586 63.5261 29.6195C63.4597 30.4322 63.3768 31.2116 63.2773 31.9413C62.8461 35.0094 62.1496 37.3976 61.3701 39.5701L62.6969 39.935L63.4432 40.1506L64.1894 40.3662L72.5313 42.7045C71.4699 40.0345 70.392 37.381 69.712 33.7656C69.5628 32.9696 69.4301 32.1238 69.314 31.2282C69.115 29.6361 68.9989 27.8948 68.9657 25.8881C69.3306 25.6393 69.5462 25.3574 69.5462 25.0423V23.4999V22.0074V20.7635V19.7851C69.5462 19.6524 69.4964 19.5363 69.4301 19.4202C69.2974 19.188 69.0486 18.9724 68.7004 18.79C68.1199 18.4915 67.2741 18.2925 66.3288 18.2925C64.5543 18.2925 63.128 18.9558 63.128 19.7851V22.9692V24.1136V25.0589C63.128 25.374 63.3436 25.6725 63.7085 25.9047Z" fill="#7CB2D4"/>
<path d="M46.7098 29.4373C46.3118 31.5766 45.7645 33.3677 45.1675 35.0262L56.1463 38.1108C55.0849 35.4574 54.0235 32.7707 53.3767 29.1056C53.2772 28.5251 53.1777 27.9447 53.0948 27.3145C53.0616 27.0989 53.045 26.8667 53.0118 26.6511C53.0118 26.5848 52.9953 26.5184 52.9953 26.4521C52.8294 24.9927 52.7299 23.384 52.6967 21.5763C53.0616 21.3276 53.2772 21.0456 53.2772 20.7305V15.4733C53.2772 14.6441 51.8344 13.9807 50.0764 13.9807C48.3019 13.9807 46.8757 14.6441 46.8757 15.4733V20.7305C46.8757 21.0456 47.0913 21.3441 47.4561 21.5763C47.4229 24.2796 47.2073 26.5516 46.8757 28.5417C46.8093 28.8402 46.7596 29.1387 46.7098 29.4373Z" fill="#7CB2D4"/>
<path d="M82.5983 22.6372C80.8237 22.6372 79.3975 23.3006 79.3975 24.1298V27.3306V29.387C79.3975 29.7021 79.6131 30.0006 79.9779 30.2328C79.9779 30.4816 79.9614 30.7138 79.9614 30.9459C79.9448 31.6093 79.9116 32.2395 79.8784 32.8365C79.8453 33.3009 79.8121 33.7321 79.7789 34.1633C79.696 35.0091 79.6131 35.8051 79.497 36.5514C79.0492 39.5698 78.3527 41.9413 77.5566 44.0973L78.9166 44.4787L79.6629 44.6943L80.4091 44.9099L82.4822 45.4904L82.648 45.5401L83.2451 45.7059L83.4275 45.7557L83.8753 45.8718L84.0245 45.822L84.2069 45.7557L87.8057 44.4787C87.1258 42.6876 86.5122 40.7472 86.0478 38.4254C85.882 37.6128 85.7493 36.7338 85.6332 35.8051C85.4342 34.3125 85.3015 32.6707 85.2683 30.8133C85.2683 30.6142 85.2517 30.4152 85.2517 30.2162C85.3513 30.1499 85.4176 30.067 85.4839 30.0006C85.6829 29.8016 85.8322 29.6026 85.8322 29.3704V28.8563V27.8281V26.4848V24.3454V24.1298C85.8322 23.9971 85.7824 23.881 85.7161 23.7649C85.5834 23.5328 85.3347 23.3172 84.9864 23.1347C84.3894 22.8362 83.5436 22.6372 82.5983 22.6372Z" fill="#7CB2D4"/>
<path d="M53.3103 173.654L22.1318 163.289L22.3972 165.843L53.4595 176.175" fill="#7CB2D4"/>
<path d="M11.9824 185.86L8.54945 161.249L18.782 164.649L18.5 162.095L6.02864 157.949L5.19942 148.214L17.4055 152.078L17.306 151.183C17.2064 150.32 17.4552 149.425 18.0191 148.745C18.3839 148.297 18.8151 148.015 19.2795 147.816L11.4517 145.328L33.7078 139.59L40.9054 137.733L40.922 137.749L63.7254 131.879L70.641 133.968L79.5634 131.58L79.6463 131.563L81.9017 132.293L84.2733 133.073L75.5168 135.461L82.9465 137.7L84.4889 138.164L90.6748 140.038L102.118 143.504L110.178 140.9L105.634 139.524V139.491L105.684 136.588L109.382 137.683L109.432 134.748L105.534 133.603L98.3534 131.497V130.751V113.055L105.402 110.219L105.385 111.049L105.369 111.878L100.741 113.752L105.319 115.095L109.233 116.24L109.332 110.286L109.349 109.457L109.365 108.627L109.382 107.102L105.617 106.024L105.667 103.088L109.415 104.133L109.432 103.055C111.372 103.718 113.71 104.166 116.314 104.349L116.298 105.841V106.057L128.968 109.606L129.067 102.956C129.781 102.707 130.427 102.441 131.041 102.143L130.908 110.153L136.116 111.613L136.132 110.087C137.492 110.551 139.068 110.899 140.776 111.132C141.273 111.198 141.788 111.248 142.302 111.297C142.451 111.314 142.6 111.331 142.749 111.347C142.832 111.347 142.915 111.364 143.015 111.38V111.845L142.982 113.536L155.652 117.085L155.669 116.289L155.685 115.692V115.626L155.702 115.029L155.718 113.52L155.768 109.987C156.382 109.772 156.946 109.539 157.476 109.291C157.559 109.258 157.659 109.208 157.742 109.175L157.659 114.017L157.642 114.764L157.626 115.775L157.609 116.654V116.936L157.592 117.533V117.616L162.8 119.075L162.833 117.417V117.118C164.707 117.749 166.963 118.18 169.45 118.379C169.533 118.379 169.616 118.395 169.716 118.412V118.76V118.843L169.699 119.59L169.682 120.137V120.435L169.666 120.999L176.15 122.807C176.946 123.039 177.809 122.989 178.588 122.674L182.386 121.148L182.403 120.585V120.535L182.419 119.789L182.452 117.301V116.986C183.066 116.77 183.63 116.538 184.16 116.289C184.243 116.256 184.343 116.206 184.426 116.173V116.356L184.409 117.931L184.376 120.253V120.352L189.385 118.346L189.418 116.389L189.434 115.709V115.576L189.451 114.697L189.467 113.984V113.802L189.484 113.155L189.501 111.662L189.567 107.914C191.441 108.544 193.696 108.976 196.184 109.175C196.267 109.175 196.35 109.191 196.449 109.208L196.4 112.143L196.383 112.724L196.366 113.603L196.35 114.515L196.333 115.062V115.095V115.56L209.136 110.418V110.219L209.153 109.423L209.186 107.815C209.8 107.599 210.364 107.367 210.894 107.118C210.977 107.085 211.077 107.035 211.16 107.002L211.127 109.622L216.135 107.616L216.268 98.7265C218.208 99.3899 220.546 99.8211 223.15 100.02L223.067 104.83L235.87 99.6884L235.887 98.627C236.6 98.3783 237.247 98.1129 237.86 97.8144L237.844 98.8924L240.049 98.0134L240.116 93.3366C240.116 93.0879 240.083 92.8557 240 92.6069V92.5903C239.967 92.4908 239.917 92.4079 239.884 92.3084C239.27 90.7661 239.22 89.7047 239.22 89.6881C239.27 86.9351 233.515 84.746 226.401 84.8123C219.269 84.8787 213.465 87.1673 213.415 89.9369C213.415 89.9369 213.399 90.1027 213.349 90.4012L213.415 86.3049C213.415 86.0561 213.382 85.8074 213.299 85.5752V85.5586C213.266 85.4757 213.216 85.3762 213.183 85.2767C212.569 83.7343 212.52 82.6729 212.52 82.6564C212.569 79.9034 206.815 77.7142 199.683 77.7806C192.552 77.8469 186.748 80.1355 186.698 82.9051C186.698 82.9051 186.681 83.071 186.632 83.3695L186.698 79.2732C186.698 79.0244 186.665 78.7922 186.582 78.5435C186.582 78.5435 186.582 78.5269 186.565 78.5269C186.532 78.4274 186.482 78.3444 186.449 78.2449C185.835 76.7026 185.786 75.6412 185.786 75.6246C185.835 72.855 180.081 70.6825 172.949 70.7488C165.818 70.8152 160.014 73.1038 159.964 75.8734C159.964 75.8734 159.898 76.9348 159.218 78.5269C159.185 78.6098 159.135 78.6927 159.102 78.7922V78.8088C159.019 79.041 158.969 79.2897 158.952 79.5385L158.886 83.9665C157.957 81.8106 153.413 80.1521 147.708 79.9531C147.227 79.9365 146.73 79.9199 146.232 79.9365C146.116 79.9365 146.017 79.9365 145.9 79.9531L146.05 26.2698L143.479 27.1819L133.147 30.8305V42.8872L135.021 42.2073L135.751 41.9419L136.481 41.6766L136.945 41.5107C136.962 42.1409 136.879 42.7546 136.763 43.3848C136.646 44.015 136.447 44.6452 136.199 45.2754C136.016 45.7563 135.801 46.2373 135.535 46.685C134.905 47.8294 134.076 48.8907 133.131 49.7697V66.8681V85.6084C133.131 85.6913 133.114 85.7742 133.097 85.8571C133.097 85.8571 133.097 85.8737 133.097 85.8903C133.081 85.9566 133.081 86.023 133.064 86.0727C132.683 87.3165 132.65 87.3995 132.384 87.9799C132.368 88.0462 132.368 88.0794 132.351 88.1457C132.301 88.3116 132.268 88.4609 132.252 88.6267C132.252 88.693 132.235 88.7428 132.235 88.8091C132.235 89.0745 132.285 89.2569 132.285 89.2569L131.091 89.6881L128.752 90.5505C128.238 90.3515 127.674 90.169 127.077 90.0032C127.061 90.0032 127.028 89.9866 127.011 89.9866C126.414 89.8208 125.784 89.6881 125.12 89.572C124.706 89.5057 124.275 89.4393 123.827 89.373L130.295 86.9351V66.8184V51.6272C130.063 51.7267 129.83 51.8262 129.598 51.9091L120.974 55.1264L119.847 55.541L116.48 56.8015L116.281 56.8678L115.701 57.0834L115.518 57.1497L114.938 57.3653L114.755 57.4317L103.478 61.6275C102.815 61.8597 102.168 61.9592 101.538 61.9923V97.6983L106.148 95.957C106.082 96.156 105.999 96.3716 105.916 96.5872C105.883 96.6535 105.866 96.7198 105.833 96.8027C105.8 96.8857 105.75 96.9686 105.717 97.0681C105.717 97.0681 105.717 97.0847 105.7 97.0847C105.617 97.3169 105.568 97.5656 105.551 97.8144V97.8807V97.9802L105.534 99.0582L101.521 100.534V111.563L98.6519 112.724V101.612L84.4391 106.869V132.078V133.056L82.8968 132.592V132.525V106.82L33.7741 91.9767L33.6581 134.565L1.8494 142.774C0.688498 143.073 -0.0909647 144.167 0.00854106 145.362L1.23578 159.856C1.3187 160.768 1.88256 161.531 2.72836 161.88L3.72342 162.278L7.32221 188C7.4383 188.879 8.03534 189.608 8.86455 189.924L21.9495 194.368L21.3691 189.061M98.7348 137.368V131.563L101.604 132.409V138.247V138.38L98.7348 137.534V137.368ZM226.434 86.2054C232.57 86.1391 237.794 87.8638 238.424 90.0529C238.358 90.2685 238.275 90.4841 238.126 90.6832C238.01 90.849 237.877 91.0148 237.695 91.1641C235.854 92.922 231.276 94.1327 226.318 94.1659C221.342 94.2156 216.798 93.0879 215.024 91.3631C214.875 91.2304 214.758 91.0812 214.626 90.8822C214.477 90.6666 214.394 90.4676 214.344 90.252C215.024 88.0794 220.298 86.2551 226.434 86.2054ZM213.365 92.9552C213.365 92.9386 213.365 92.9386 213.365 92.9552C213.399 92.8723 213.448 92.7728 213.481 92.6898C213.581 92.4743 213.647 92.2752 213.73 92.0762L213.747 92.0928C215.836 94.1161 220.762 95.3765 226.285 95.3268C231.807 95.277 236.782 93.9171 238.938 91.8606C238.955 91.8606 238.955 91.844 238.955 91.844C239.021 92.0265 239.088 92.2421 239.171 92.4411C239.204 92.5406 239.253 92.6235 239.287 92.723C239.353 92.9054 239.386 93.1045 239.386 93.3035C239.353 95.7579 233.98 97.9139 227.412 98.1958C227.031 98.2124 226.633 98.229 226.251 98.229C225.505 98.229 224.775 98.2124 224.046 98.1792C220.347 97.9802 217.13 97.1676 215.206 96.0399C214.609 95.6916 214.128 95.3102 213.797 94.8956C213.598 94.6468 213.448 94.3815 213.365 94.1161C213.299 93.9337 213.266 93.7512 213.266 93.5522C213.249 93.3366 213.282 93.1376 213.365 92.9552ZM212.304 103.536C212.022 103.967 211.574 104.382 210.977 104.763C210.43 105.128 209.767 105.46 209.004 105.758C207.063 106.521 204.509 107.068 201.673 107.284C200.977 107.334 200.264 107.367 199.534 107.384C199.385 107.384 199.236 107.384 199.086 107.384C198.124 107.384 197.179 107.334 196.267 107.251C195.952 107.218 195.653 107.185 195.355 107.151C193 106.869 190.927 106.339 189.401 105.642C189.185 105.543 188.986 105.46 188.804 105.36C188.091 104.979 187.51 104.548 187.129 104.1C186.897 103.834 186.748 103.569 186.665 103.287C186.648 103.254 186.632 103.204 186.632 103.171C186.598 103.022 186.565 102.873 186.582 102.723C186.582 102.541 186.632 102.342 186.698 102.143C186.731 102.06 186.781 101.977 186.814 101.878C186.897 101.662 186.98 101.463 187.063 101.264L187.079 101.281C187.66 101.844 188.489 102.342 189.467 102.773C191.275 103.569 193.663 104.133 196.35 104.365C197.411 104.465 198.506 104.514 199.617 104.514C203.232 104.481 206.582 103.884 209.103 102.889C209.85 102.607 210.496 102.276 211.077 101.927C211.525 101.645 211.956 101.347 212.271 101.032L212.287 101.015C212.304 101.081 212.337 101.164 212.37 101.247C212.42 101.363 212.453 101.496 212.503 101.612C212.536 101.712 212.586 101.795 212.619 101.894C212.685 102.077 212.719 102.276 212.702 102.475C212.669 102.823 212.536 103.188 212.304 103.536ZM196.449 95.5921C197.494 95.476 198.605 95.3931 199.733 95.3931C203.514 95.3599 206.931 95.9901 209.153 97.0018C209.982 97.3832 210.646 97.7978 211.093 98.2622C211.392 98.5773 211.624 98.909 211.724 99.2406C211.657 99.4562 211.574 99.6718 211.425 99.8708C211.326 100.004 211.209 100.136 211.077 100.269C211.044 100.302 211.027 100.319 211.01 100.352C210.546 100.8 209.883 101.214 209.103 101.579C206.815 102.64 203.332 103.337 199.617 103.37C198.489 103.387 197.395 103.32 196.333 103.221C193.514 102.939 191.06 102.292 189.451 101.38C189.003 101.131 188.605 100.866 188.307 100.584C188.157 100.451 188.041 100.285 187.909 100.103C187.759 99.8874 187.676 99.6884 187.627 99.4728C187.842 98.7763 188.522 98.1295 189.517 97.5656C191.126 96.6369 193.58 95.9238 196.449 95.5921ZM189.534 95.9735L189.6 91.645C191.54 92.3084 193.895 92.7562 196.483 92.9386L196.466 94.1493C193.68 94.4478 191.259 95.0946 189.534 95.9735ZM209.17 95.4428V95.3268L209.186 94.5307L209.203 93.7347L209.236 91.5124C209.949 91.2636 210.596 90.9982 211.209 90.6997L211.16 94.199L211.143 94.9951L211.127 95.7911L211.11 96.4711C210.596 96.1062 209.932 95.7579 209.17 95.4428ZM199.717 79.1737C205.853 79.1073 211.077 80.8321 211.707 83.0212C211.641 83.2368 211.558 83.4358 211.408 83.6514C211.292 83.8173 211.16 83.9831 210.994 84.1324C209.153 85.8903 204.576 87.1009 199.617 87.1341C194.642 87.1839 190.098 86.0561 188.323 84.348C188.174 84.2153 188.058 84.066 187.925 83.867C187.776 83.6514 187.693 83.4524 187.643 83.2368C188.323 81.0477 193.58 79.24 199.717 79.1737ZM186.648 85.9235C186.681 85.824 186.731 85.741 186.764 85.6581C186.847 85.4425 186.93 85.2435 187.013 85.0445L187.03 85.0611C189.119 87.0844 194.045 88.3448 199.584 88.295C205.106 88.2453 210.082 86.8854 212.238 84.8123C212.238 84.7957 212.254 84.7957 212.254 84.7957C212.321 84.9782 212.387 85.1772 212.47 85.3928C212.503 85.4923 212.553 85.5752 212.586 85.6747C212.652 85.8571 212.685 86.0561 212.669 86.2551C212.636 88.8589 206.616 91.1143 199.518 91.1807C199.169 91.1807 198.821 91.1807 198.489 91.1641C193.879 91.0646 189.882 90.0364 187.892 88.5935C187.245 88.1292 186.797 87.6151 186.632 87.0678C186.565 86.8854 186.532 86.6863 186.532 86.5039C186.549 86.3049 186.582 86.1225 186.648 85.9235ZM185.753 112.475C185.703 112.558 185.653 112.641 185.603 112.724C185.321 113.155 184.874 113.569 184.293 113.951C183.746 114.316 183.082 114.647 182.32 114.946C179.898 115.908 176.515 116.521 172.85 116.571C171.722 116.588 170.628 116.538 169.566 116.439C166.83 116.19 164.425 115.626 162.684 114.83C161.39 114.249 160.462 113.536 160.063 112.773C160.014 112.674 159.964 112.558 159.931 112.458C159.864 112.276 159.831 112.093 159.831 111.894C159.831 111.712 159.881 111.513 159.947 111.314V111.297C159.981 111.215 160.014 111.132 160.063 111.032C160.113 110.916 160.146 110.816 160.196 110.7C160.229 110.601 160.279 110.501 160.312 110.418L160.329 110.435C160.627 110.717 160.992 110.982 161.39 111.231C161.788 111.48 162.236 111.712 162.717 111.928C164.525 112.724 166.913 113.288 169.599 113.52C170.661 113.619 171.755 113.669 172.883 113.669C176.499 113.636 179.849 113.039 182.353 112.044C183.099 111.745 183.762 111.43 184.326 111.082C184.393 111.049 184.459 111.015 184.525 110.966C184.907 110.717 185.238 110.468 185.52 110.186L185.537 110.17C185.554 110.236 185.587 110.319 185.62 110.385C185.636 110.418 185.653 110.452 185.653 110.501C185.686 110.584 185.719 110.684 185.753 110.767C185.786 110.866 185.819 110.949 185.869 111.049C185.935 111.231 185.968 111.43 185.952 111.629C185.968 111.928 185.885 112.21 185.753 112.475ZM163.563 106.355C164.21 106.057 164.939 105.791 165.752 105.559C166.863 105.244 168.123 104.995 169.467 104.83C169.55 104.813 169.633 104.813 169.732 104.796C170.777 104.68 171.888 104.597 173.016 104.597C176.532 104.564 179.732 105.111 181.955 105.99C182.121 106.057 182.286 106.123 182.452 106.206C182.552 106.256 182.635 106.289 182.734 106.339C183.232 106.587 183.663 106.853 184.011 107.118C184.094 107.185 184.177 107.251 184.26 107.317C184.31 107.367 184.343 107.417 184.393 107.45C184.426 107.483 184.476 107.533 184.509 107.566C184.757 107.848 184.923 108.13 185.023 108.428C184.973 108.578 184.923 108.71 184.84 108.86C184.807 108.926 184.774 108.992 184.724 109.075C184.675 109.158 184.575 109.241 184.509 109.324C184.459 109.374 184.426 109.423 184.376 109.49C184.343 109.523 184.326 109.539 184.31 109.573C183.845 110.02 183.182 110.435 182.403 110.8C180.114 111.861 176.631 112.541 172.933 112.591C172.104 112.591 171.291 112.558 170.512 112.508C170.23 112.491 169.948 112.475 169.666 112.442C168.439 112.326 167.294 112.143 166.233 111.878C164.856 111.546 163.695 111.115 162.783 110.601C162.336 110.352 161.938 110.087 161.639 109.805C161.573 109.739 161.523 109.656 161.457 109.589C161.39 109.506 161.307 109.44 161.241 109.324C161.191 109.258 161.175 109.208 161.141 109.141C161.059 108.992 160.992 108.843 160.959 108.694C160.992 108.594 161.042 108.495 161.092 108.395C161.191 108.213 161.307 108.03 161.457 107.864C161.523 107.782 161.606 107.715 161.672 107.632C161.987 107.334 162.369 107.052 162.833 106.786H162.85C163.049 106.604 163.297 106.471 163.563 106.355ZM162.833 105.145L162.85 104.581L162.866 103.038L162.883 102.193L162.899 101.347V100.833C163.115 100.916 163.364 100.965 163.596 101.032C163.977 101.148 164.375 101.264 164.773 101.347C165.188 101.446 165.603 101.546 166.05 101.629C167.145 101.828 168.306 101.977 169.517 102.077C169.599 102.077 169.682 102.093 169.782 102.11L169.765 103.304C169.682 103.32 169.599 103.32 169.5 103.337C167.162 103.619 165.089 104.15 163.48 104.83C163.264 104.946 163.032 105.045 162.833 105.145ZM182.469 104.631V104.249L182.485 103.619L182.502 102.823L182.519 102.027L182.535 100.7C183.149 100.484 183.713 100.252 184.243 100.004C184.326 99.9704 184.426 99.9206 184.509 99.8874L184.476 102.558L184.459 103.354L184.442 104.15L184.426 104.747L184.409 105.493V105.659C184.359 105.626 184.326 105.592 184.277 105.559C184.094 105.427 183.895 105.31 183.68 105.178C183.315 104.995 182.9 104.813 182.469 104.631ZM185.587 96.5208C185.305 96.952 184.857 97.3666 184.277 97.7481C183.729 98.1129 183.066 98.4446 182.303 98.7431C180.545 99.4397 178.29 99.9538 175.769 100.203C174.989 100.285 174.193 100.319 173.381 100.352C173.198 100.352 173.016 100.368 172.833 100.368C171.954 100.368 171.092 100.352 170.246 100.302C170.014 100.285 169.782 100.269 169.55 100.236C169.467 100.236 169.4 100.219 169.318 100.219C168.803 100.169 168.306 100.12 167.808 100.037C167.344 99.9704 166.88 99.8874 166.448 99.7879C164.989 99.4894 163.712 99.0914 162.667 98.627C161.191 97.9636 160.213 97.151 159.914 96.2555C159.848 96.073 159.815 95.8906 159.815 95.6916C159.815 95.5092 159.864 95.3102 159.931 95.1112V95.0946C159.964 95.0117 159.997 94.9287 160.047 94.8292C160.13 94.6136 160.213 94.4146 160.296 94.2156L160.312 94.2322C160.893 94.7961 161.722 95.2936 162.7 95.7248C164.508 96.5208 166.896 97.0847 169.583 97.3169C170.644 97.4164 171.722 97.4661 172.85 97.4495C176.465 97.4164 179.815 96.8193 182.32 95.8243C183.066 95.5424 183.713 95.2107 184.293 94.8624C184.741 94.5805 185.156 94.2985 185.487 93.9668C185.504 93.9668 185.504 93.9502 185.504 93.9502C185.52 94.0166 185.554 94.0995 185.587 94.1824C185.636 94.2985 185.67 94.4312 185.719 94.5473C185.753 94.6468 185.802 94.7297 185.835 94.8292C185.902 95.0117 185.935 95.2107 185.918 95.4097C185.968 95.8077 185.835 96.1725 185.587 96.5208ZM169.732 88.5604C170.777 88.4443 171.888 88.3614 173.016 88.3614C176.797 88.3282 180.213 88.9584 182.436 89.97C183.265 90.3515 183.928 90.7661 184.376 91.2304C184.675 91.5455 184.907 91.8772 184.99 92.2089C184.923 92.4245 184.84 92.6401 184.691 92.8391C184.592 92.9718 184.476 93.1045 184.343 93.2371C184.31 93.2703 184.293 93.2869 184.277 93.3201C183.812 93.7678 183.165 94.1824 182.369 94.5473C180.064 95.6087 176.598 96.2886 172.883 96.3384C171.755 96.355 170.661 96.2886 169.616 96.1891C166.797 95.9072 164.342 95.2604 162.734 94.3483C162.286 94.0995 161.888 93.8342 161.589 93.5356C161.44 93.403 161.324 93.2537 161.191 93.0547C161.042 92.8391 160.959 92.6401 160.909 92.4245C161.125 91.728 161.805 91.0812 162.8 90.5173C164.409 89.6052 166.88 88.892 169.732 88.5604ZM162.833 88.9418V88.693L162.85 87.8638L162.866 87.0346L162.899 84.6465C163.994 85.0113 165.238 85.3098 166.581 85.542C167.079 85.6249 167.576 85.7079 168.09 85.7576C168.638 85.824 169.185 85.8737 169.749 85.9235C169.765 85.9235 169.782 85.9235 169.782 85.9235L169.765 87.1341C166.979 87.416 164.558 88.0628 162.833 88.9418ZM182.469 88.4111V88.0628L182.485 87.2668L182.535 84.4972C183.248 84.2484 183.895 83.9831 184.509 83.6846L184.442 87.7311L184.426 88.5272L184.409 89.3232V89.4559C184.31 89.3896 184.21 89.3232 184.111 89.2569C183.63 88.9584 183.082 88.6765 182.469 88.4111ZM173.016 72.1419C179.152 72.0756 184.376 73.8004 185.006 75.9895C184.94 76.2051 184.857 76.4207 184.708 76.6197C184.592 76.7855 184.459 76.9514 184.277 77.1006C182.436 78.8586 177.858 80.0692 172.9 80.1024C167.924 80.1521 163.397 79.0244 161.606 77.2996C161.457 77.167 161.34 77.0177 161.208 76.8187C161.059 76.6031 160.976 76.4041 160.926 76.1885C161.606 74.0325 166.88 72.2083 173.016 72.1419ZM159.947 78.8751C159.981 78.7922 160.03 78.7093 160.063 78.6098C160.146 78.3942 160.229 78.1952 160.312 77.9962L160.329 78.0127C162.418 80.036 167.344 81.2964 172.867 81.2467C178.389 81.1969 183.364 79.837 185.52 77.7806C185.52 77.764 185.537 77.764 185.537 77.764C185.603 77.9464 185.67 78.1454 185.753 78.361C185.786 78.4605 185.819 78.5435 185.869 78.643C185.935 78.8254 185.968 79.0244 185.968 79.2068C185.918 81.8106 179.915 84.066 172.817 84.1324C165.735 84.1987 159.782 82.0593 159.815 79.4556C159.831 79.2732 159.864 79.0742 159.947 78.8751ZM159.267 104.631C159.251 104.995 159.118 105.36 158.886 105.709C158.604 106.14 158.156 106.554 157.576 106.936C157.029 107.301 156.365 107.632 155.602 107.931C153.679 108.694 151.158 109.241 148.355 109.44C147.658 109.49 146.945 109.523 146.216 109.539C146.182 109.539 146.149 109.539 146.116 109.539C146.1 109.539 146.083 109.539 146.066 109.539C145.486 109.539 144.922 109.523 144.358 109.506C143.844 109.49 143.33 109.457 142.832 109.407C140.096 109.158 137.691 108.594 135.95 107.798C134.474 107.135 133.495 106.322 133.197 105.427C133.131 105.244 133.097 105.062 133.097 104.863C133.097 104.68 133.147 104.481 133.214 104.282C133.214 104.282 133.214 104.282 133.214 104.266C133.247 104.183 133.296 104.1 133.33 104C133.413 103.785 133.495 103.586 133.578 103.387L133.595 103.403C134.175 103.967 135.005 104.465 135.983 104.896C137.791 105.692 140.179 106.256 142.866 106.488C143.894 106.587 144.955 106.637 146.066 106.621C146.1 106.621 146.116 106.621 146.149 106.621C148.322 106.604 150.395 106.372 152.252 105.99C153.496 105.725 154.624 105.393 155.619 105.012C156.365 104.73 157.012 104.398 157.592 104.05C158.04 103.768 158.471 103.47 158.803 103.155C158.803 103.138 158.82 103.138 158.82 103.138C158.836 103.204 158.869 103.287 158.903 103.354C158.952 103.47 158.986 103.602 159.035 103.735C159.052 103.768 159.068 103.801 159.068 103.834C159.085 103.901 159.118 103.951 159.151 104.017C159.234 104.233 159.267 104.432 159.267 104.631ZM143.031 97.7481C144.026 97.632 145.055 97.5656 146.116 97.549C146.182 97.549 146.249 97.549 146.315 97.549C150.096 97.5159 153.513 98.1461 155.735 99.1577C156.564 99.5392 157.228 99.9538 157.675 100.418C157.974 100.733 158.206 101.065 158.306 101.397C158.239 101.612 158.156 101.828 158.007 102.027C157.908 102.159 157.791 102.292 157.659 102.425C157.626 102.458 157.626 102.475 157.592 102.508C157.128 102.956 156.465 103.37 155.685 103.735C153.397 104.796 149.914 105.493 146.216 105.526C146.182 105.526 146.149 105.526 146.116 105.526C145.022 105.526 143.96 105.476 142.932 105.377C140.113 105.095 137.658 104.448 136.049 103.536C135.602 103.287 135.204 103.022 134.905 102.74C134.756 102.607 134.64 102.441 134.507 102.259C134.358 102.043 134.275 101.844 134.225 101.629C134.441 100.949 135.121 100.285 136.116 99.7216C137.708 98.7929 140.179 98.0797 143.031 97.7481ZM136.116 98.1295V97.7978L136.182 93.801C138.073 94.4478 140.345 94.879 142.866 95.0614C142.932 95.0614 142.998 95.078 143.065 95.078L143.048 95.8077V96.2721C142.451 96.3384 141.871 96.4213 141.307 96.5042C139.25 96.8857 137.476 97.433 136.116 98.1295ZM155.752 97.5988L155.818 93.6849C156.531 93.4361 157.178 93.1708 157.791 92.8723L157.709 98.6436C157.178 98.2622 156.514 97.9139 155.752 97.5988ZM140.527 81.9432C141.871 81.6613 143.363 81.4623 144.922 81.3794C145.37 81.3628 145.834 81.3296 146.299 81.3296C146.746 81.3296 147.194 81.3296 147.642 81.3462C153.181 81.5286 157.709 83.1539 158.289 85.1772C158.223 85.3928 158.14 85.6084 157.99 85.8074C157.874 85.9732 157.742 86.1225 157.559 86.2883C155.718 88.0463 151.141 89.2569 146.182 89.2901C146.166 89.2901 146.149 89.2901 146.133 89.2901C142.351 89.3232 138.836 88.6765 136.58 87.5985C136.116 87.3829 135.718 87.1341 135.369 86.8854C135.336 86.8688 135.303 86.8356 135.27 86.819C135.137 86.7195 134.988 86.62 134.872 86.5039C134.739 86.3712 134.623 86.222 134.491 86.0396C134.491 86.023 134.474 86.023 134.474 86.023C134.341 85.824 134.258 85.6084 134.192 85.4094V85.3928C134.656 83.9499 137.127 82.6729 140.527 81.9432ZM133.247 88.0628C133.28 87.9799 133.33 87.897 133.363 87.7975C133.396 87.7311 133.413 87.6814 133.429 87.6151C133.446 87.5819 133.462 87.5487 133.479 87.499C133.529 87.3995 133.562 87.2834 133.612 87.1673L133.628 87.1839C133.694 87.2502 133.777 87.3 133.844 87.3497C133.877 87.3663 133.893 87.3995 133.927 87.416C134.242 87.6814 134.607 87.9302 135.021 88.1789C137.509 89.6052 141.605 90.4676 146.133 90.4178C146.149 90.4178 146.149 90.4178 146.166 90.4178C151.688 90.368 156.664 89.0081 158.82 86.9351L158.836 86.9185C158.853 86.9849 158.886 87.0678 158.919 87.1507C158.969 87.2668 159.002 87.3995 159.052 87.5156C159.085 87.6151 159.135 87.698 159.168 87.7975C159.234 87.9799 159.267 88.1789 159.251 88.3779C159.251 88.3945 159.234 88.4111 159.234 88.4443C159.218 88.776 159.102 89.0911 158.903 89.4062C158.886 89.4227 158.869 89.4393 158.853 89.4725C158.488 90.0032 157.891 90.5173 157.078 90.9817C156.233 91.4626 155.171 91.8938 153.944 92.2421C152.717 92.5903 151.324 92.8889 149.831 93.0713C149.002 93.1708 148.123 93.2537 147.244 93.2869C146.862 93.3035 146.481 93.3201 146.083 93.3201C139.217 93.3864 133.429 91.3797 133.114 88.8921C133.097 88.8091 133.081 88.7428 133.081 88.6599C133.131 88.4609 133.164 88.2618 133.247 88.0628ZM119.598 90.5173C119.963 90.5173 120.328 90.5173 120.676 90.5339C121.207 90.5505 121.721 90.5836 122.218 90.6168C123.031 90.6832 123.81 90.7661 124.557 90.8822C124.573 90.8822 124.59 90.8822 124.623 90.8988C125.336 91.0148 126.016 91.1475 126.646 91.3134C129.349 92.0099 131.24 93.121 131.605 94.3814C131.539 94.597 131.456 94.8126 131.306 95.0116C131.19 95.1775 131.041 95.3267 130.875 95.4926C129.034 97.2505 124.457 98.4446 119.498 98.4944C116.165 98.5275 113.047 98.03 110.808 97.1842C110.327 97.0018 109.879 96.8028 109.481 96.5872C109.448 96.5706 109.432 96.554 109.398 96.5374C108.967 96.3052 108.602 96.0565 108.304 95.7745C108.271 95.7579 108.238 95.7248 108.221 95.7082C108.122 95.6087 108.022 95.476 107.939 95.3599C107.906 95.3102 107.856 95.277 107.823 95.2272C107.674 95.0117 107.591 94.8126 107.541 94.597C108.204 92.3913 113.462 90.5836 119.598 90.5173ZM106.446 97.7149C106.446 97.6817 106.463 97.6486 106.463 97.6154C106.48 97.4993 106.496 97.3832 106.529 97.2505C106.563 97.1676 106.612 97.0847 106.646 96.9852C106.745 96.7696 106.811 96.5706 106.894 96.3716C106.894 96.3882 106.911 96.3881 106.911 96.3881C107.176 96.6369 107.475 96.8691 107.806 97.1013C107.84 97.1179 107.873 97.1344 107.889 97.151C108.238 97.3832 108.636 97.5988 109.067 97.7978C111.588 98.9753 115.352 99.6718 119.449 99.6221C124.971 99.5723 129.946 98.2124 132.102 96.1394L132.119 96.1228C132.136 96.1891 132.169 96.2721 132.202 96.3384C132.252 96.4545 132.285 96.5872 132.335 96.7198C132.368 96.8193 132.417 96.9023 132.451 97.0018C132.517 97.1842 132.55 97.3832 132.534 97.5822C132.534 97.9471 132.384 98.3119 132.152 98.6602C131.854 99.108 131.389 99.5226 130.792 99.9206C129.764 100.584 128.321 101.164 126.596 101.612C124.507 102.143 122.019 102.475 119.382 102.508C113.113 102.574 107.723 100.899 106.612 98.7099C106.463 98.428 106.38 98.1461 106.397 97.8476C106.413 97.7978 106.446 97.7481 106.446 97.7149ZM72.1004 115.825C72.2994 120.203 69.0489 122.824 64.8365 121.696L49.38 116.339C45.1675 115.211 42.6467 109.689 42.4311 105.311L72.1004 115.825Z" fill="#7CB2D4"/>
<path d="M239.933 142.492L237.645 143.504L235.671 144.383L229.8 146.97L228.639 147.484L227.479 147.998L222.934 150.005L217.445 152.443L214.742 153.637L214.012 153.952L213.747 154.068L213.199 154.317L213 154.4L210.944 155.312L208.97 156.191L196.234 161.813L191.242 164.019L190.098 164.533L187.61 165.628L186.449 166.142L184.227 167.12L182.253 167.999L174.774 171.299L174.508 171.216L169.483 169.74L162.617 167.717L158.737 166.573L157.642 166.258L156.481 165.909L155.536 165.628L142.567 161.83L137.161 160.238L137.044 159.408L136.928 158.579L136.132 152.659L136.033 151.945L135.834 150.403V149.972V149.756V149.325V148.927V148.662L134.524 148.264L114.307 142.128L106.397 144.781L106.529 144.814L107.707 145.179L109.249 145.643L116.115 147.717L121.422 149.325L124.805 150.353L117.226 152.841L116.016 153.239L115.933 153.272L114.639 153.703L112.45 154.417L107.69 155.975L100.211 158.43L99.1327 158.778L98.3533 159.027L97.5738 159.276L84.4722 163.554L82.9299 164.052L81.3212 164.583L76.7937 166.075L59.3139 160.536L57.2574 161.216C56.5277 161.465 56.0633 162.211 56.1463 162.991L56.2292 164.417L74.588 170.238L74.4222 180.703L56.876 174.865L57.0252 177.386L74.389 183.157L74.0075 206.873L58.5012 201.632L58.8163 206.889L74.986 212.379C75.268 212.478 75.5499 212.528 75.8484 212.528C76.1138 212.528 76.3957 212.478 76.6445 212.379L125.352 193.207C126.082 192.942 126.663 192.345 126.878 191.599L131.92 174.699L132.135 173.953L132.351 173.223L174.376 185.595L248.143 152.974L249.303 152.46L249.784 152.244V151.78L250 138.064M132.019 161.216L125.187 163.521C124.573 163.737 124.241 164.4 124.457 165.014C124.623 165.495 125.071 165.81 125.568 165.81C125.684 165.81 125.817 165.793 125.95 165.744L129.996 164.384L127.774 171.813L127.558 172.56L127.343 173.306L122.649 189.028L78.6677 206.392L79.0658 182.029L80.6081 181.565C81.2217 181.383 81.57 180.719 81.3876 180.106C81.2051 179.492 80.5583 179.144 79.9281 179.326L79.1155 179.575L79.2648 170.155L97.6236 164.152L98.403 163.903L99.5473 163.538L99.7132 163.488L110.891 159.823L112.052 159.442L122.566 156.009L123.86 155.577L125.153 155.146L128.902 153.919L130.875 153.272L131.323 153.123L131.854 157.103L131.97 157.949L132.036 158.43L132.086 158.778V158.828L132.384 161.1L132.019 161.216Z" fill="#7CB2D4"/>
<path d="M55.0024 200.404L24.9849 190.255L25.5487 195.562L55.4999 205.728L55.3341 205.662" fill="#7CB2D4"/>
<path d="M54.5051 158.978L24.388 149.425L21.9999 150.072C21.2867 150.321 20.8224 151.067 20.9053 151.83L21.0546 153.223L52.631 163.24L52.5647 162.294C52.4652 161.449 52.7305 160.553 53.2778 159.873C53.6427 159.475 54.0573 159.193 54.5051 158.978Z" fill="#7CB2D4"/>
<path d="M168.936 78.3112L172.899 78.278C174.375 78.2614 175.619 77.8302 176.017 77.2498L179.301 77.2166C180.893 77.2 182.203 76.6362 182.22 75.9396C182.236 75.2597 180.943 74.7124 179.351 74.729L176.084 74.7622C175.702 74.1817 174.475 73.7671 172.982 73.7837L169.019 73.8168C167.228 73.8334 165.752 74.4636 165.752 75.2431L165.718 76.9347C165.702 77.7307 167.145 78.3278 168.936 78.3112ZM179.467 75.2597C180.379 75.2431 181.125 75.5582 181.109 75.9562C181.109 76.3542 180.362 76.6693 179.434 76.6859C178.521 76.7025 177.775 76.3874 177.792 75.9894C177.792 75.5914 178.555 75.2763 179.467 75.2597ZM167.36 75.2431C167.36 74.8617 168.107 74.53 169.002 74.53L172.966 74.4968C173.513 74.4968 173.977 74.6129 174.276 74.7953L172.734 74.8119C171.141 74.8285 169.831 75.3924 169.815 76.0889C169.798 76.7689 171.092 77.3161 172.684 77.2996L174.226 77.283C173.928 77.4654 173.463 77.5981 172.916 77.5981L168.952 77.6312C168.057 77.6478 167.327 77.3327 167.344 76.9513L167.36 75.2431Z" fill="#7CB2D4"/>
<path d="M195.653 85.3422L199.617 85.309C201.093 85.2924 202.337 84.8613 202.735 84.2808L206.002 84.2476C207.594 84.2311 208.904 83.6672 208.921 82.9707C208.937 82.2907 207.644 81.7434 206.052 81.76L202.785 81.7932C202.403 81.2127 201.176 80.7981 199.7 80.8147L195.736 80.8479C193.945 80.8644 192.469 81.5112 192.469 82.2741L192.436 83.9823C192.403 84.7452 193.846 85.3588 195.653 85.3422ZM206.168 82.2907C207.08 82.2741 207.826 82.5892 207.81 82.9872C207.81 83.3852 207.063 83.7004 206.135 83.7169C205.223 83.7335 204.476 83.4184 204.493 83.0204C204.509 82.6224 205.256 82.2907 206.168 82.2907ZM194.078 82.2575C194.078 81.8761 194.824 81.5444 195.72 81.5444L199.683 81.5112C200.231 81.5112 200.695 81.6273 200.994 81.8097L199.451 81.8263C197.859 81.8429 196.549 82.4068 196.532 83.1033C196.516 83.7833 197.809 84.3306 199.402 84.314L200.944 84.2974C200.645 84.4798 200.181 84.6125 199.634 84.6125L195.67 84.6457C194.774 84.6622 194.045 84.3471 194.061 83.9657L194.078 82.2575Z" fill="#7CB2D4"/>
<path d="M222.354 92.3747L226.318 92.3415C227.794 92.3249 229.038 91.8937 229.436 91.3133L232.703 91.2801C234.295 91.2635 235.605 90.6997 235.621 90.0031C235.638 89.3066 234.344 88.7759 232.752 88.7925L229.485 88.8256C229.104 88.2452 227.877 87.8306 226.401 87.8472L222.437 87.8803C220.646 87.8969 219.17 88.5437 219.153 89.3066L219.12 90.9982C219.12 91.7776 220.563 92.3913 222.354 92.3747ZM232.885 89.3066C233.797 89.29 234.544 89.6051 234.527 90.0031C234.527 90.4011 233.764 90.7163 232.852 90.7328C231.94 90.7494 231.193 90.4343 231.21 90.0363C231.21 89.6548 231.956 89.3232 232.885 89.3066ZM220.779 89.29C220.779 88.9086 221.525 88.5769 222.42 88.5769L226.384 88.5437C226.931 88.5437 227.396 88.6598 227.694 88.8422L226.152 88.8588C224.56 88.8754 223.25 89.4393 223.233 90.1358C223.216 90.8158 224.51 91.363 226.102 91.3464L227.644 91.3299C227.346 91.5123 226.882 91.645 226.334 91.645L222.371 91.6781C221.475 91.6947 220.745 91.3796 220.762 90.9982L220.779 89.29Z" fill="#7CB2D4"/>
<path d="M142.235 87.4987L146.149 87.4655H146.199C147.675 87.4489 148.919 87.0177 149.317 86.4373L152.601 86.4041C154.193 86.3875 155.503 85.8237 155.519 85.1271C155.536 84.4472 154.242 83.8999 152.65 83.9165L149.383 83.9497C149.002 83.3692 147.775 82.9546 146.282 82.9712H146.199H146.182H146.017H145.519L142.783 83.0043H142.335C140.594 83.0209 139.167 83.6346 139.068 84.3808C139.068 84.3974 139.051 84.414 139.051 84.4472L139.035 85.4257V85.5583L139.018 86.1388C139.018 86.3212 139.101 86.4871 139.234 86.6529C139.681 87.1504 140.859 87.5153 142.235 87.4987ZM152.75 84.4472C153.662 84.4306 154.408 84.7457 154.392 85.1437C154.392 85.5417 153.645 85.8734 152.717 85.8734C151.805 85.8734 151.058 85.5749 151.075 85.1769C151.091 84.7789 151.838 84.4472 152.75 84.4472ZM140.643 84.9447V84.7955V84.414C140.643 84.0326 141.39 83.7009 142.285 83.7009L143.579 83.6843H144.027L146.133 83.6677H146.232C146.299 83.6677 146.365 83.6843 146.431 83.6843C146.896 83.7009 147.294 83.8004 147.542 83.9662L146.415 83.9828H146.149H146.017C144.458 83.9994 143.181 84.5467 143.114 85.2101C143.114 85.2266 143.098 85.2432 143.098 85.2598C143.081 85.9564 144.375 86.4871 145.967 86.4705H146.133L147.509 86.4539C147.211 86.6363 146.746 86.769 146.199 86.769H146.133L142.235 86.8021C141.34 86.8021 140.61 86.5036 140.627 86.1222L140.643 84.9447Z" fill="#7CB2D4"/>
<path d="M168.936 94.5299H169.633L172.883 94.4968C174.359 94.4802 175.603 94.049 176.001 93.4686L179.268 93.4354C180.86 93.4188 182.17 92.8549 182.187 92.1584C182.204 91.4784 180.91 90.9312 179.318 90.9477L176.051 90.9809C175.669 90.4005 174.442 89.9858 172.949 90.0024L169.699 90.0356H169.002C167.211 90.0522 165.735 90.699 165.735 91.4618L165.702 93.1535C165.702 93.9329 167.145 94.5465 168.936 94.5299ZM179.467 91.4784C180.379 91.4618 181.126 91.7769 181.109 92.175C181.109 92.573 180.363 92.8881 179.434 92.9047C178.522 92.9213 177.776 92.6062 177.792 92.2081C177.809 91.8101 178.555 91.4784 179.467 91.4784ZM167.361 91.4453C167.361 91.0638 168.107 90.7321 169.002 90.7321H169.699L172.949 90.699C173.497 90.699 173.961 90.8151 174.26 90.9975L172.717 91.0141C171.125 91.0307 169.815 91.5945 169.798 92.2911C169.782 92.971 171.075 93.5183 172.668 93.5017L174.21 93.4851C173.911 93.6676 173.447 93.8002 172.9 93.8002L169.649 93.8334H168.953C168.057 93.85 167.327 93.5349 167.344 93.1535L167.361 91.4453Z" fill="#7CB2D4"/>
<path d="M195.653 101.562H196.35L199.617 101.529C201.093 101.513 202.336 101.081 202.735 100.501L206.002 100.468C207.594 100.451 208.904 99.8874 208.92 99.1909C208.937 98.5109 207.643 97.9636 206.051 97.9802L202.784 98.0134C202.403 97.4329 201.176 97.0183 199.7 97.0349L196.433 97.0681H195.736C193.945 97.0847 192.469 97.7315 192.452 98.4943L192.419 100.186C192.403 100.965 193.862 101.579 195.653 101.562ZM206.167 98.4943C207.08 98.4777 207.826 98.7928 207.809 99.1909C207.809 99.5889 207.046 99.9206 206.134 99.9206C205.222 99.9372 204.476 99.6221 204.492 99.224C204.509 98.826 205.255 98.5109 206.167 98.4943ZM194.078 98.4777C194.078 98.0963 194.824 97.7646 195.719 97.7646H196.416L199.683 97.7315C200.23 97.7315 200.695 97.8475 200.977 98.03L199.434 98.0465C197.842 98.0631 196.532 98.627 196.515 99.3235C196.499 100.02 197.792 100.551 199.385 100.534L200.927 100.518C200.628 100.7 200.164 100.833 199.617 100.833L196.35 100.866H195.653C194.757 100.882 194.028 100.567 194.044 100.186L194.078 98.4777Z" fill="#7CB2D4"/>
<path d="M112.333 95.4926C112.416 95.8077 112.715 96.0731 113.196 96.2887C113.776 96.554 114.605 96.7033 115.534 96.7033L119.498 96.6701C120.974 96.6535 122.218 96.2224 122.616 95.6419L125.883 95.6087C127.475 95.5921 128.785 95.0283 128.802 94.3317C128.818 93.6518 127.525 93.1045 125.933 93.1211L122.665 93.1543C122.599 93.0548 122.516 92.9718 122.417 92.8889C122.085 92.6236 121.554 92.408 120.891 92.2919C120.891 92.2919 120.891 92.2919 120.874 92.2919C120.476 92.2255 120.029 92.1758 119.564 92.1758L118.005 92.1924L116.28 92.209H115.601C113.809 92.2255 112.333 92.8557 112.317 93.6352V93.7015L112.3 94.2986L112.284 95.3434C112.284 95.3766 112.3 95.4263 112.3 95.4595C112.333 95.4595 112.333 95.4761 112.333 95.4926ZM126.049 93.6352C126.961 93.6186 127.707 93.9337 127.69 94.3317C127.69 94.7298 126.944 95.0449 126.015 95.0615C125.103 95.078 124.357 94.7629 124.374 94.3649C124.39 93.9669 125.137 93.6352 126.049 93.6352ZM113.926 94.879V94.8293L113.942 93.6518V93.5855C113.942 93.204 114.688 92.8723 115.584 92.8723H116.048L119.282 92.8392H119.299H119.548C120.095 92.8392 120.559 92.9552 120.858 93.1377L119.315 93.1543C118.934 93.1543 118.569 93.1874 118.221 93.2538C118.204 93.2538 118.171 93.2704 118.155 93.2704C117.64 93.3699 117.193 93.5357 116.894 93.7347C116.878 93.7513 116.861 93.7679 116.844 93.7845C116.579 93.9669 116.413 94.1991 116.413 94.4312C116.413 94.6303 116.529 94.8127 116.712 94.9785C117.176 95.3766 118.155 95.6585 119.282 95.6419L120.825 95.6253C120.526 95.8077 120.062 95.9404 119.514 95.9404L115.551 95.9736C115.136 95.9736 114.755 95.9072 114.473 95.7912C114.141 95.6585 113.942 95.4926 113.942 95.277L113.926 94.879Z" fill="#7CB2D4"/>
<path d="M142.235 103.718H142.932L146.083 103.685H146.182C147.658 103.668 148.902 103.237 149.3 102.656L152.567 102.623C154.159 102.607 155.47 102.043 155.486 101.346C155.503 100.666 154.209 100.119 152.617 100.135L149.333 100.169C148.952 99.5882 147.725 99.1736 146.249 99.1902H146.083L142.982 99.2233H142.285C140.494 99.2399 139.018 99.8867 139.001 100.65L138.968 102.358C139.001 103.121 140.444 103.734 142.235 103.718ZM152.766 100.65C153.679 100.633 154.425 100.948 154.408 101.346C154.408 101.744 153.662 102.059 152.733 102.076C151.821 102.092 151.075 101.777 151.091 101.379C151.091 100.998 151.838 100.666 152.766 100.65ZM140.66 100.633C140.66 100.252 141.406 99.9365 142.302 99.9199H142.998L146.1 99.8867H146.249C146.796 99.8867 147.26 100.003 147.559 100.185L146.1 100.202H146.017C144.424 100.218 143.114 100.782 143.098 101.479C143.081 102.159 144.375 102.706 145.967 102.689H146.083L147.509 102.673C147.211 102.855 146.746 102.988 146.199 102.988H146.083L142.932 103.021H142.235C141.34 103.038 140.61 102.723 140.627 102.341L140.66 100.633Z" fill="#7CB2D4"/>
<path d="M165.768 109.64C165.917 109.988 166.365 110.286 166.995 110.485C167.111 110.519 167.211 110.552 167.327 110.585C167.808 110.701 168.339 110.767 168.936 110.767H169.002H169.632H170.047L172.899 110.734C173.496 110.734 174.06 110.651 174.541 110.519C174.889 110.419 175.204 110.303 175.453 110.17C175.702 110.038 175.901 109.872 176.017 109.706H176.183L178.256 109.689H178.455H179.284C179.649 109.689 180.014 109.656 180.329 109.59C180.727 109.523 181.075 109.424 181.357 109.291C181.855 109.059 182.17 108.761 182.186 108.429C182.186 108.429 182.186 108.429 182.186 108.412C182.186 108.064 181.871 107.766 181.357 107.55C181.274 107.517 181.191 107.484 181.108 107.467C181.075 107.45 181.059 107.45 181.025 107.434C180.976 107.417 180.909 107.401 180.843 107.384C180.561 107.318 180.263 107.251 179.931 107.235C179.732 107.218 179.516 107.202 179.317 107.218L176.946 107.235L176.05 107.251C175.785 106.853 175.138 106.538 174.292 106.389C173.878 106.306 173.43 106.273 172.966 106.273L169.698 106.306H169.002C167.791 106.323 166.73 106.621 166.166 107.036C166.066 107.119 165.967 107.202 165.901 107.285C165.834 107.368 165.785 107.467 165.751 107.55C165.735 107.6 165.702 107.666 165.702 107.716L165.668 109.424C165.668 109.457 165.685 109.49 165.685 109.507C165.735 109.523 165.751 109.59 165.768 109.64ZM179.467 107.683C180.379 107.666 181.125 107.981 181.108 108.379C181.108 108.628 180.793 108.827 180.346 108.96C180.08 109.043 179.782 109.092 179.433 109.109C178.969 109.109 178.554 109.026 178.256 108.91C177.974 108.777 177.792 108.611 177.792 108.412C177.808 108.014 178.554 107.699 179.467 107.683ZM167.36 108.197V107.766V107.649C167.36 107.484 167.509 107.351 167.725 107.218C168.023 107.052 168.471 106.936 168.985 106.936H169.682L172.949 106.903C173.496 106.903 173.961 107.019 174.259 107.202L172.717 107.218C172.053 107.218 171.44 107.334 170.959 107.5C170.577 107.633 170.279 107.799 170.08 107.981C170.063 107.998 170.047 108.014 170.03 108.031C169.897 108.18 169.815 108.329 169.815 108.495C169.815 108.562 169.831 108.628 169.848 108.678C169.931 108.943 170.213 109.175 170.627 109.358C171.141 109.573 171.871 109.706 172.684 109.706L174.226 109.689C173.927 109.872 173.463 110.004 172.916 110.004L169.848 110.038H169.649H168.952C168.09 110.054 167.393 109.756 167.36 109.391C167.36 109.374 167.343 109.374 167.343 109.358L167.36 108.197Z" fill="#7CB2D4"/>
<path d="M249.055 121.065L249.254 106.173L239.917 110.037L237.711 110.949L235.738 111.778L228.706 114.697L227.529 115.178L226.368 115.659L222.935 117.085L217.794 119.208L215.887 120.004L213.449 121.016L213.349 121.065L213.266 121.098L213.183 121.132L212.304 121.496L210.978 122.044L209.004 122.856L204.112 124.88L203.797 125.012L202.901 125.394L201.923 125.792L201.674 125.891L196.466 128.047L196.184 128.163L195.637 128.396L193.979 129.092L192.934 129.523L191.773 130.004L189.517 130.933L189.02 131.132L187.842 131.629L187.279 131.862L186.731 132.094L186.466 132.21H186.449L185.57 132.575L184.26 133.122H184.244L182.287 133.935H182.27L179.7 135.013L178.489 135.51L177.278 136.008L175.321 136.82L174.807 137.036L174.293 136.887L170.611 135.809L169.533 135.494L169.517 135.477L169.417 135.46L168.223 135.096L166.051 134.465L162.817 133.52L162.668 133.47H162.651L159.898 132.658L159.002 132.392L158.754 132.326L158.737 132.309L158.372 132.21L158.19 132.16L157.709 132.011L157.659 131.994L156.283 131.596L156.05 131.53L155.768 131.447L155.354 131.331L151.34 130.153L148.289 129.258L147.858 129.125L146.647 128.777L146.017 128.595L145.453 128.429L144.077 128.014L142.816 127.649L141.158 127.168L135.95 125.626L135.353 125.46L133.363 124.88L132.302 124.565L132.036 124.482L131.937 124.465L131.788 124.415L131.191 124.233L130.627 124.067L130.245 123.951L129.781 123.818L123.097 121.861L121.323 121.347L120.643 121.148L120.179 120.999L119.034 120.667L116.132 119.821L109.25 117.798L105.336 116.654L99.9292 115.062V126.687V129.076V129.921V130.303L100.576 130.485L105.336 131.878L105.601 131.961L107.259 132.442L114.192 134.499L115.95 135.013L116.364 135.129L123.462 137.218L124.673 137.583L125.867 137.932L129.134 138.893L131.058 139.457L132.07 139.756L133.214 140.087L133.546 140.187L135.867 140.867L135.983 140.9L139.052 141.812L140.362 142.194L141.904 142.658L142.849 142.923H142.866L143.645 143.156L146.249 143.935L147.443 144.283L148.637 144.632L151.954 145.61L155.52 146.655L155.818 146.738L156.747 147.02L157.775 147.318L158.505 147.534L158.77 147.617L158.969 147.666L159.019 147.683L159.931 147.948L159.948 147.965L161.672 148.463L162.684 148.761L162.9 148.827L168.555 150.486L169.55 150.784L169.766 150.851L171.225 151.282L174.393 152.211L177.428 150.95L180.197 149.806L182.303 148.927L184.277 148.098L184.36 148.081L185.587 147.567L186.167 147.318L186.267 147.285L186.483 147.186L186.748 147.086L187.03 146.97L187.212 146.887L187.959 146.589L189.551 145.925L189.733 145.842L196.168 143.172L196.234 143.156L198.738 142.111L200.231 141.497L201.442 141L202.652 140.485L209.054 137.832L211.011 137.019L212.321 136.472L213.216 136.107L213.382 136.041L216.268 134.847L220.696 133.006L221.558 132.658L224.643 131.381L225.854 130.867L227.064 130.369L231.89 128.362L238.226 125.742L239.536 125.195L248.16 121.613L249.055 121.248" fill="#7CB2D4"/>
<path d="M86.7445 18.9389C86.7445 19.1545 86.7279 19.3535 86.7279 19.5691C86.6947 20.5641 86.6616 21.5094 86.5952 22.405V22.4216C86.8274 22.6537 86.9932 22.9191 87.1093 23.1844C87.242 23.483 87.3415 23.7981 87.3415 24.1463V24.6936V29.4201C87.3415 29.7684 87.2586 30.3489 86.7776 30.9293C86.8274 32.9858 86.9932 34.7437 87.2254 36.3192L96.8111 39.0224C94.9537 33.7155 92.5158 29.8513 92.0846 20.9953C92.0514 20.3319 92.0349 19.652 92.0183 18.9389C92.0514 18.9223 92.068 18.8891 92.1012 18.8559C92.3997 18.6238 92.5987 18.375 92.5987 18.0931V12.9188V12.8358C92.5987 12.6203 92.4992 12.4212 92.3168 12.2388C92.0183 11.9237 91.4876 11.6584 90.8242 11.5091C90.592 11.4594 90.3267 11.4096 90.0613 11.3764C89.8457 11.3598 89.6135 11.3433 89.3979 11.3433C89.3648 11.3433 89.3316 11.3433 89.2984 11.3433C87.5737 11.3764 86.1972 12.0232 86.1972 12.8358V15.1079V16.7497V17.3302V18.0765C86.1806 18.3916 86.3962 18.6901 86.7445 18.9389Z" fill="#7CB2D4"/>
<path d="M102.582 23.268C102.582 23.4504 102.566 23.6162 102.566 23.7821C102.533 24.8766 102.483 25.9215 102.417 26.8833C102.383 27.3311 102.334 27.7457 102.3 28.1603C102.284 28.3593 102.267 28.5584 102.234 28.7408C102.151 29.371 102.068 29.968 101.952 30.5485C101.869 31.0128 101.786 31.4606 101.687 31.8918C101.339 33.5336 100.907 34.9931 100.443 36.3364C100.045 37.4807 99.6138 38.5753 99.1826 39.6532L100.227 39.9518C100.294 39.9683 100.344 40.0181 100.41 40.0347L100.609 39.9683L103.163 39.0562L103.926 38.7909L104.689 38.5255L110.062 36.6349C109.001 33.6497 108.122 30.2168 107.889 25.2083C107.856 24.5781 107.84 23.9479 107.823 23.268C107.956 23.185 108.039 23.0855 108.122 22.986C108.287 22.8036 108.403 22.6212 108.403 22.4222V17.165C108.403 17.0654 108.387 16.9659 108.337 16.883C108.221 16.6177 107.956 16.3855 107.591 16.1865C107.425 16.1036 107.243 16.0206 107.044 15.9543C106.811 15.8714 106.563 15.8216 106.281 15.7719C106.032 15.7221 105.783 15.7055 105.501 15.6889C105.468 15.6889 105.418 15.6889 105.385 15.6889C105.352 15.6724 105.286 15.6724 105.203 15.6724C103.66 15.6724 102.367 16.1865 102.068 16.8664C102.019 16.9659 102.002 17.0654 102.002 17.165V21.4105V22.4222C102.002 22.7373 102.218 23.0192 102.582 23.268Z" fill="#7CB2D4"/>
<path d="M61.7689 31.5103C61.8684 30.7806 61.9514 30.0011 62.0177 29.1885L54.6377 27.0989C54.7538 27.9778 54.8865 28.8071 55.0523 29.5865" fill="#005398"/>
<path d="M96.4625 41.4609L97.3747 41.7263C98.0049 41.9087 98.4692 42.4062 98.6517 43.0033C98.7014 43.1691 98.7346 43.3515 98.7346 43.534V55.2259V61.4118V98.8094V101.645V112.757L101.604 111.596V100.567V97.7148V62.0089V54.1811V41.9419V41.776C101.604 40.9966 101.123 40.3332 100.41 40.0513C100.343 40.0181 100.294 39.9849 100.227 39.9684L99.1824 39.6698L96.8108 39.0065L87.2251 36.3032C87.3578 37.2485 87.5236 38.1275 87.706 38.9567" fill="#005398"/>
<path d="M77.9877 36.1707C78.0872 35.4244 78.1867 34.6283 78.2531 33.7825L70.9062 31.7095C71.0389 32.6216 71.1882 33.4674 71.3706 34.28" fill="#005398"/>
<path d="M98.7349 137.368V137.517L101.604 138.363V138.23V132.393L98.7349 131.563" fill="#005398"/>
<path d="M116.297 109.008L128.967 112.64L130.924 113.204L136.132 114.696L142.998 116.67L155.668 120.302L157.625 120.866L162.833 122.358L169.698 124.332L176.216 126.206C177.029 126.438 177.908 126.388 178.687 126.073L182.419 124.564L184.392 123.768L189.401 121.745L196.349 118.925L209.152 113.735L211.126 112.938L216.134 110.915L223.083 108.096L235.886 102.905L237.86 102.109L240.066 101.213L240.082 100.202L240.115 97.9629L237.91 98.8419L235.936 99.6379L223.133 104.779L216.184 107.565L211.176 109.572L209.202 110.368L196.399 115.509L189.45 118.295L184.442 120.302L182.468 121.098L178.671 122.624C177.891 122.939 177.045 122.989 176.233 122.756L169.748 120.949L162.882 119.025L157.675 117.566L155.718 117.018L143.048 113.469L136.182 111.545L130.974 110.086L129.017 109.539L116.347 105.99L109.481 104.066L105.733 103.021L105.683 105.957L109.448 107.034" fill="#005398"/>
<path d="M237.829 131.895L235.855 132.741L223.119 138.214L216.17 141.199L211.128 143.372L209.155 144.218L196.401 149.69L189.453 152.676L184.411 154.832L182.437 155.677L178.673 157.303C177.893 157.634 177.031 157.684 176.218 157.452L169.701 155.528L162.835 153.488L157.71 151.962L155.77 151.382L142.801 147.534L135.935 145.495L131.01 144.035L129.053 143.455L116.299 139.673L109.433 137.634L105.735 136.539L105.685 139.441V139.474L110.229 140.851L102.153 143.488L54.8214 158.828C54.7053 158.862 54.6058 158.944 54.5063 158.994C54.0585 159.193 53.6605 159.475 53.3122 159.89C52.7483 160.57 52.483 161.465 52.5991 162.311L52.6654 163.256L53.3288 173.655L53.4946 176.176L55.037 200.422L55.3686 205.679L55.5345 205.729L58.8845 206.873L58.5694 201.616L57.0934 177.37L56.9442 174.849L56.3139 164.401L56.231 162.974C56.1481 162.195 56.6125 161.465 57.3422 161.2L59.3986 160.52L106.465 144.765L114.376 142.111L134.592 148.248L135.902 148.646L142.768 150.735L155.737 154.666L157.677 155.263L162.802 156.822L169.668 158.911L176.218 160.901C177.031 161.15 177.927 161.1 178.706 160.752L182.404 159.143L184.378 158.298L189.419 156.109L196.368 153.107L209.122 147.584L211.095 146.738L216.137 144.549L223.086 141.531L235.822 136.008L237.796 135.163L240.084 134.168L240.118 132.227L240.134 130.917" fill="#005398"/>
<path d="M24.9849 190.255L22.3978 165.843L22.1324 163.289L21.071 153.239L20.9218 151.846C20.8388 151.067 21.3032 150.337 22.0163 150.088L24.4045 149.441L75.567 135.461L84.3235 133.073L81.9519 132.293L79.6965 131.563L79.6136 131.58L70.6912 133.968L19.5784 147.683C19.4955 147.717 19.4126 147.766 19.3297 147.816C18.8653 148.015 18.4341 148.314 18.0693 148.745C17.5054 149.425 17.2401 150.304 17.3561 151.183L17.4557 152.078L18.5502 162.079L18.8321 164.633L21.4856 189.045L22.0661 194.352L25.6151 195.546" fill="#005398"/>
<path d="M84.8528 19.0553C84.6704 18.6739 84.6207 18.3256 84.6207 18.0768V17.231V16.9159L82.4481 16.3521L82.3486 16.3852L79.0483 17.4964H79.0815" fill="#005398"/>
<path d="M115.468 27.2306L117.326 27.7282L120.062 28.4579L121.555 28.8559L127.558 30.4646L129.217 30.9123C129.698 31.045 130.062 31.3933 130.245 31.8411C130.311 32.0235 130.361 32.2059 130.361 32.4049V43.8647V51.6261V66.8173V86.8677V89.9192L131.174 89.6207L132.368 89.1895C132.368 89.1895 132.318 89.0237 132.318 88.7417C132.318 88.692 132.318 88.6256 132.334 88.5593C132.351 88.41 132.384 88.2608 132.434 88.0784C132.451 88.0286 132.451 87.9789 132.467 87.9125C132.732 87.3155 132.782 87.2492 133.147 86.0053C133.164 85.939 133.164 85.8727 133.18 85.8063V85.7897C133.197 85.7068 133.213 85.6239 133.213 85.541V66.8007V49.7189V42.8364V30.7797V30.6636C133.213 29.967 132.732 29.3368 132.053 29.171L130.709 28.8227L122.201 26.6336L120.692 26.2522L116.281 25.1078L114.49 24.6435L109.68 23.3997C109.597 23.5821 109.498 23.7479 109.349 23.9304C109.365 24.5274 109.398 25.0747 109.415 25.622" fill="#005398"/>
<path d="M99.1992 22.8861L100.924 23.3505C100.924 23.3505 100.476 22.853 100.46 21.0121L98.3202 20.4648L93.7761 19.2874C93.7098 19.3869 93.6601 19.4864 93.5605 19.6025C93.5771 20.2492 93.6103 20.8297 93.6435 21.4101" fill="#005398"/>
</svg>
