<svg width="207" height="221" viewBox="0 0 207 221" fill="none" xmlns="http://www.w3.org/2000/svg">
<g clip-path="url(#clip0_178_120)">
<path d="M189.356 16.6797L204.513 1.17822H176.422H153.19H124.583L107.268 16.0178" fill="#A9D6EA"/>
<path d="M189.356 16.6797L204.513 1.17822H176.422H153.19H124.583L107.268 16.0178" stroke="#7CB2D4" stroke-width="1.33" stroke-miterlimit="10"/>
<path d="M108.817 195.377L107.665 16.3091H189.686V196.515L108.817 195.377Z" fill="#CAE6ED"/>
<path d="M188.786 17.196V195.628L109.677 194.503L108.539 17.196H188.786ZM190.573 15.4751H106.712L107.877 196.277L190.52 197.455V15.4751H190.573Z" fill="#7CB2D4"/>
<path d="M189.912 17.5004L205.876 1.60181L204.539 183.357L191.196 195.919L189.912 17.5004Z" fill="#7CB2D4"/>
<path d="M205.201 3.20365L203.877 183.079L191.844 194.397L190.52 17.7652L205.148 3.20365M206.472 0.000106489L204.261 2.2373L189.633 16.7989L189.236 17.196V17.752L190.56 194.371V197.415L192.758 195.337L204.791 184.005L205.214 183.622V183.052L206.538 3.19042V-0.0263672L206.472 0.000106489Z" fill="#7CB2D4"/>
<path d="M134.366 15.8985L149.549 0.251465H155.533L140.137 16.3486L134.366 15.8985Z" fill="#005497"/>
<path d="M126.264 178.949H122.147V174.885C121.94 174.871 121.732 174.871 121.525 174.885C118.878 175.096 118.017 174.302 118.017 171.271C118.017 133.569 118.017 79.5988 118.017 41.8976C118.017 39.3956 118.586 38.8264 121.049 38.8264H172.676C175.324 38.8264 175.827 39.3559 175.827 42.03V171.641C175.827 171.999 175.827 172.369 175.827 172.727C175.836 173.011 175.787 173.294 175.682 173.558C175.578 173.823 175.42 174.063 175.219 174.264C175.018 174.465 174.778 174.622 174.513 174.727C174.249 174.831 173.966 174.88 173.682 174.871C173.06 174.871 172.424 174.871 171.723 174.871V179.001H167.606V174.964H126.264V178.949ZM171.723 85.9795H122.266V170.622H171.723V85.9795ZM122.253 42.9301V81.6639H171.683V42.9301H122.253Z" fill="#7CB2D4"/>
<path d="M132.459 118.915H128.488V90.0964H132.459V118.915Z" fill="#7CB2D4"/>
<path d="M128.461 73.7876V53.3484H132.433V73.7876H128.461Z" fill="#7CB2D4"/>
<path d="M140.137 196.661L134.366 196.581V15.8987L140.137 16.3488V196.661Z" fill="#005497"/>
<path d="M157.863 15.8985L173.047 0.251465H179.03L163.621 16.3486L157.863 15.8985Z" fill="#005497"/>
<path d="M163.621 196.661L157.863 196.581V15.8987L163.621 16.3488V196.661Z" fill="#005497"/>
<path d="M16.2712 63.912L2.75537 48.9136L28.622 47.9473L51.8411 47.1L80.4215 46.041L98.2793 60.2187" fill="#A9D6EA"/>
<path d="M16.2712 63.912L2.75537 48.9136L28.622 47.9473L51.8411 47.1L80.4215 46.041L98.2793 60.2187" stroke="#7CB2D4" stroke-width="1.33" stroke-miterlimit="10"/>
<path d="M15.927 63.5678L97.8822 60.5364L98.4647 106.485L17.6612 110.628L15.927 63.5678Z" fill="#CAE6ED"/>
<path d="M97.0086 61.4499L97.5646 105.651L18.5085 109.702L16.8405 64.4548L97.0086 61.4896M98.7692 59.623L15.0137 62.7207L16.814 111.555L99.3517 107.332L98.756 59.676L98.7692 59.623Z" fill="#7CB2D4"/>
<path d="M2.33187 98.0258L1.5376 49.8005L15.755 64.7857L16.1124 110.072L2.33187 98.0258Z" fill="#7CB2D4"/>
<path d="M2.21278 51.495L15.0932 65.0505L15.4373 108.603L2.98057 97.7082L2.21278 51.495ZM0.888996 48.1194V51.5083L1.65679 97.7347V98.3171L2.10687 98.7142L14.5504 109.596L16.7744 111.542V108.59L16.4302 65.0373V64.521L16.0728 64.1371L3.17914 50.5816L0.80957 48.1194H0.888996Z" fill="#7CB2D4"/>
<path d="M73.6173 61.0528L57.6922 45.9485L52.0132 46.1338L67.5544 61.5161L73.6173 61.0528Z" fill="#005497"/>
<path d="M56.4081 96.5698L55.4683 74.0656C55.6169 73.7517 55.8571 73.4902 56.1571 73.3154C56.4572 73.1405 56.8031 73.0606 57.1495 73.086C68.7722 72.6227 80.3818 72.1196 91.9913 71.6431C93.3151 71.6431 93.7387 71.974 93.8049 73.311C94.0962 80.2388 94.383 87.1622 94.6654 94.0811C94.7316 95.4049 94.3477 95.8153 92.9974 95.8815C81.3835 96.3669 69.7695 96.8567 58.1555 97.3509C57.8192 97.4178 57.4705 97.3785 57.1575 97.2386C56.8444 97.0987 56.5826 96.865 56.4081 96.5698ZM81.8247 93.8296L80.951 74.7804L58.0629 75.7335L58.8704 94.796L81.8247 93.8296ZM92.0311 93.406L91.2236 74.3303L83.678 74.6348L84.4855 93.7105L92.0311 93.406Z" fill="#7CB2D4"/>
<path d="M70.2283 91.7909L62.9078 92.0954C61.7164 92.0954 61.253 91.7247 61.2001 90.5466C61.0412 86.9371 60.8912 83.3276 60.75 79.7181C60.75 78.5796 61.1471 78.1031 62.2723 78.0501L76.9928 77.4412C78.0783 77.4412 78.5813 77.8383 78.621 78.9238C78.7931 82.5642 78.9387 86.1913 79.0843 89.8317C79.0843 90.9702 78.6872 91.4335 77.5488 91.4865L70.2283 91.7909ZM63.3976 80.605L63.7682 89.4611L76.4368 88.9316L76.0661 80.0755L63.3976 80.605Z" fill="#7CB2D4"/>
<path d="M88.0731 91.6586C87.6983 91.6665 87.3295 91.5628 87.0137 91.3608C86.6978 91.1588 86.4491 90.8675 86.299 90.5239C86.1488 90.1804 86.1042 89.7999 86.1705 89.4309C86.2369 89.0619 86.4114 88.7209 86.6718 88.4512C86.9322 88.1815 87.2669 87.9951 87.6334 87.9159C87.9998 87.8366 88.3816 87.8679 88.7302 88.0059C89.0788 88.1438 89.3786 88.3822 89.5916 88.6908C89.8046 88.9994 89.9211 89.3643 89.9264 89.7392C89.9317 89.9871 89.8878 90.2337 89.7974 90.4646C89.7069 90.6956 89.5717 90.9063 89.3994 91.0847C89.2271 91.2632 89.0213 91.4057 88.7936 91.5042C88.566 91.6027 88.3211 91.6552 88.0731 91.6586ZM88.8939 89.7127C88.4968 89.4479 88.232 89.1435 88.007 89.1699C87.7819 89.1964 87.5966 89.5538 87.398 89.7656C87.6231 89.9774 87.8349 90.3216 88.0864 90.3613C88.3379 90.4011 88.5232 90.0304 88.8939 89.7127Z" fill="#7CB2D4"/>
<path d="M88.7479 77.0044L88.8538 79.4401L86.3784 79.546L86.2725 77.1103L88.7479 77.0044Z" fill="#7CB2D4"/>
<path d="M89.0525 84.5631H88.3508L86.6035 84.6293L86.4976 82.1274L88.9598 82.0215L89.0525 84.5631Z" fill="#7CB2D4"/>
<path d="M69.4477 108.854L75.2061 108.563L73.6176 61.0527L67.5547 61.5161L69.4477 108.854Z" fill="#005497"/>
<path d="M47.9492 61.9927L32.0507 46.9148L26.2393 47.1001L41.8996 62.4692L47.9492 61.9927Z" fill="#005497"/>
<path d="M43.7924 110.165L49.5509 109.874L47.9491 61.9927L41.8994 62.4692L43.7924 110.165Z" fill="#005497"/>
<path d="M15.0931 65.0505L2.729 51.4685L2.99376 97.7081" fill="#7CB2D4"/>
<path d="M15.0931 65.0505L2.729 51.4685L2.99376 97.7081" stroke="#7CB2D4" stroke-miterlimit="10"/>
<path d="M106.699 133.424L121.856 117.936H93.7653H70.533H41.9261L24.6111 132.762" fill="#A9D6EA"/>
<path d="M106.699 133.424L121.856 117.936H93.7653H70.533H41.9261L24.6111 132.762" stroke="#7CB2D4" stroke-width="1.33" stroke-miterlimit="10"/>
<path d="M26.1465 218.728L25.0081 133.066H107.029V219.867L26.1465 218.728Z" fill="#CAE6ED"/>
<path d="M106.143 133.953V218.966L27.0202 217.854L25.9612 133.953H106.209M107.969 132.179H24.1079L25.2728 219.549L107.903 220.727V132.179H107.969Z" fill="#7CB2D4"/>
<path d="M107.241 134.245L123.232 118.346L121.882 206.708L108.539 219.271L107.241 134.245Z" fill="#7CB2D4"/>
<path d="M122.597 119.961L121.273 206.417L109.227 217.762L107.903 134.523L122.544 119.961M123.868 116.731L121.565 119.021L107.003 133.583L106.606 133.98V134.536L107.93 217.788V220.78L110.114 218.728L122.147 207.383L122.558 206.999V206.444L123.881 119.974V116.731H123.868Z" fill="#7CB2D4"/>
<path d="M36.8691 206.549V145.854C37.113 145.441 37.4722 145.108 37.9026 144.897C38.3329 144.685 38.8157 144.604 39.2917 144.663C54.674 144.663 70.0519 144.663 85.4254 144.663C87.5302 144.663 87.9935 145.126 87.9935 147.31V205.173C87.9935 205.437 87.9935 205.702 87.9935 205.967C88.0008 206.201 87.9603 206.434 87.8746 206.651C87.7888 206.869 87.6596 207.067 87.4948 207.233C87.3301 207.399 87.1332 207.529 86.9162 207.617C86.6992 207.704 86.4667 207.746 86.2329 207.741C85.7034 207.741 85.1871 207.741 84.6046 207.741V211.143H81.2025V207.807H43.6469V211.143H40.258V207.754C38.921 207.728 37.5707 207.979 36.8691 206.549ZM84.5252 161.792H40.3374V204.272H84.5517L84.5252 161.792ZM84.5252 148.171H40.3507V158.258H84.5384L84.5252 148.171Z" fill="#7CB2D4"/>
<path d="M62.3916 163.434C66.1032 163.426 69.7338 164.519 72.8237 166.576C75.9137 168.632 78.3241 171.559 79.75 174.986C81.1758 178.413 81.553 182.186 80.8337 185.827C80.1144 189.468 78.331 192.814 75.7092 195.442C73.0875 198.069 69.7452 199.859 66.1054 200.586C62.4657 201.313 58.692 200.944 55.2621 199.526C51.8323 198.107 48.9003 195.703 46.8374 192.617C44.7745 189.532 43.6733 185.904 43.6733 182.192C43.6838 177.227 45.658 172.468 49.1649 168.954C52.6719 165.439 57.4268 163.455 62.3916 163.434ZM69.5532 191.776C67.2326 193.518 64.3584 194.359 61.4645 194.142C58.5707 193.925 55.8539 192.665 53.819 190.596C51.7841 188.528 50.5693 185.79 50.4002 182.893C50.2312 179.996 51.1195 177.136 52.9001 174.845C54.6154 172.602 57.0838 171.055 59.8499 170.49C61.4836 170.127 63.1756 170.115 64.8141 170.455C66.4526 170.795 68.0002 171.479 69.3547 172.462L71.8698 170.225C68.7407 167.769 64.7777 166.629 60.8219 167.047C56.8661 167.466 53.229 169.409 50.6828 172.465C48.1366 175.522 46.8817 179.45 47.1844 183.416C47.4872 187.382 49.3238 191.074 52.3044 193.709C58.7909 199.388 67.6999 198.024 71.8301 194.119L69.5532 191.776ZM66.9983 189.274C66.5239 188.864 66.1655 188.336 65.9588 187.743C65.752 187.151 65.7043 186.515 65.8202 185.898C65.8202 183.41 65.8202 180.921 65.8202 178.432C65.8202 177.109 65.8202 175.957 67.0645 175.176C64.2184 172.819 59.3072 173.27 56.4743 176.102C54.9512 177.573 54.033 179.56 53.9 181.674C53.7671 183.787 54.429 185.873 55.7557 187.523C57.0825 189.174 58.9782 190.268 61.0706 190.592C63.163 190.916 65.301 190.446 67.0645 189.274H66.9983ZM74.3321 172.687C72.6906 174.329 71.0888 175.917 69.5135 177.519C69.3378 177.711 69.2389 177.96 69.2355 178.22C69.2355 180.868 69.2355 183.494 69.2355 186.097C69.2259 186.323 69.291 186.547 69.4209 186.732C71.0359 188.387 72.6774 190.015 74.3188 191.657C76.5203 188.988 77.7265 185.637 77.7314 182.177C77.7362 178.717 76.5394 175.362 74.3453 172.687H74.3321Z" fill="#7CB2D4"/>
<path d="M70.9697 154.816V151.56H81.0834V154.816H70.9697Z" fill="#7CB2D4"/>
<path d="M43.7134 154.843V151.56H46.9831V154.843H43.7134Z" fill="#7CB2D4"/>
<path d="M50.5439 151.56H53.8269V154.829H50.5439V151.56Z" fill="#7CB2D4"/>
<path d="M60.6575 154.856H57.3613V151.573H60.6575V154.856Z" fill="#7CB2D4"/>
<path d="M49.4453 132.338L64.6423 116.996H70.7979L55.217 133.027L49.4453 132.338Z" fill="#005497"/>
<path d="M55.217 220.012L49.4453 219.933V132.338L55.217 133.027V220.012Z" fill="#005497"/>
<path d="M75.1396 132.457L90.3234 116.996H96.479L80.8981 133.027L75.1396 132.457Z" fill="#005497"/>
<path d="M80.8981 220.383L75.1396 220.304V132.458L80.8981 133.027V220.383Z" fill="#005497"/>
</g>
<defs>
<clipPath id="clip0_178_120">
<rect width="205.768" height="220.78" fill="white" transform="translate(0.835938)"/>
</clipPath>
</defs>
</svg>
