<svg width="60" height="44" viewBox="0 0 60 44" fill="none" xmlns="http://www.w3.org/2000/svg">
<g clip-path="url(#clip0_27_21)">
<path d="M20.37 37.38C17.0879 37.3827 13.8978 36.2959 11.3 34.2899L10.93 34.0099L27.46 17.5L25.54 15.58L9 32.11L8.72 31.7599C6.58342 29.1167 5.42168 25.8187 5.42999 22.42C5.44378 18.6919 6.84535 15.1026 9.36148 12.3517C11.8776 9.60077 15.328 7.88539 19.04 7.53995H20.04H36.04L33.32 4.81995H20.39C17.0312 4.82416 13.7431 5.78448 10.91 7.58862C8.07697 9.39277 5.81608 11.9662 4.39169 15.0079C2.96731 18.0497 2.43833 21.4341 2.86658 24.7654C3.29482 28.0968 4.6626 31.2373 6.81 33.8199L7.03998 34.0999L0.039978 41.0999L1.97 43.03L9.03998 35.97L9.31998 36.2C11.5911 38.0328 14.2807 39.275 17.1487 39.8156C20.0167 40.3562 22.9739 40.1784 25.7564 39.2981C28.539 38.4177 31.0603 36.8623 33.0955 34.7705C35.1307 32.6787 36.6163 30.1156 37.42 27.31H34.55C33.5359 30.2602 31.6226 32.8184 29.079 34.6248C26.5355 36.4311 23.4897 37.3947 20.37 37.38Z" fill="white"/>
<path d="M51.5 10.95L51.51 8.46997L50.09 8.39997L49.45 6.33997L47 6.97997L47.64 9.45997L48.79 9.26997L48.85 11.04L51.5 10.95Z" fill="white"/>
<path d="M50.1309 23.2793L48.8313 25.45L51.002 26.7496L52.3016 24.5789L50.1309 23.2793Z" fill="white"/>
<path d="M54.3632 4.01513L52.0568 5.05505L53.0967 7.36145L55.4031 6.32152L54.3632 4.01513Z" fill="white"/>
<path d="M48.51 16.5701L46.39 16.7001L45.34 14.0801L42.95 15.1301L44.05 17.8901L42.43 18.4701L43.47 20.8401L45.94 19.7601L45.83 19.0501L48.6 19.1601L48.51 16.5701Z" fill="white"/>
<path d="M56.004 10.9456L53.4742 10.9747L53.5033 13.5046L56.0332 13.4754L56.004 10.9456Z" fill="white"/>
<path d="M40.92 9.82004L41.76 9.96004L42.06 9.84004L42.12 10.02L42.98 10.15L43.41 7.46004L40.88 7.04004L40.71 8.09004L39.14 7.65004L38.1 10L40.29 11.03L40.92 9.82004Z" fill="white"/>
<path d="M33.6704 15.2379L31.6166 16.7153L33.094 18.7691L35.1478 17.2917L33.6704 15.2379Z" fill="white"/>
<path d="M39.35 20.3901L40.16 23.0001L42.41 22.2501L41.65 19.6101L39.35 20.3901Z" fill="white"/>
<path d="M35.45 20.4301L36.85 22.3801L35.43 22.6001L33.97 20.4901L33.71 19.1901L33.34 19.1301L33.41 19.2301L31.13 19.0701L31.11 21.4901L33.11 21.5301L32.08 22.2701L33.7 24.5301L35.4 23.3001L35.3 25.2401L37.7 25.2501L37.6 22.2301H37.71L37.57 22.0301L37.76 21.8901L38.37 21.4501L38.79 21.1501L37.31 19.0901L35.45 20.4301Z" fill="white"/>
<path d="M40.09 23.0299L40.13 23.0099L40.05 22.8999L40.09 23.0299Z" fill="white"/>
<path d="M42.31 11.3899L44.03 12.9199L45.88 11.1399L44 9.43994L42.83 11.0699L42.91 10.5599L42.31 11.3899Z" fill="white"/>
<path d="M35.79 10.62L34.33 12.55L36.15 13.76L35.43 14.28L36.78 16.19L37.66 18.75L39.65 18.06L39.34 17.29L41.29 15.33L40.07 14.13L42.46 13.38L41.94 11.91L41.89 11.98L41.55 10.9L40.72 11.24L40.98 11.36L39.09 11.83L39.73 13.45L38.61 14.77L37.15 12.75L37.72 12.08L35.79 10.62Z" fill="white"/>
<path d="M41.79 5.02002L44.14 3.99002L42.97 1.74002L41.07 2.78002L41.03 1.66002L38.57 1.65002L38.51 4.39002L41.47 4.22002L41.79 5.02002Z" fill="white"/>
<path d="M59.56 24.2199L59.47 21.5999L57.31 21.7399L56.58 19.1499L54.27 19.9299L54.91 22.3899L57 21.8199L56.95 24.3099L59.56 24.2199Z" fill="white"/>
<path d="M47.7199 0.0412891L45.3098 0.810913L46.0794 3.22101L48.4895 2.45139L47.7199 0.0412891Z" fill="white"/>
</g>
<defs>
<clipPath id="clip0_27_21">
<rect width="59.56" height="43.02" fill="white"/>
</clipPath>
</defs>
</svg>
