<svg width="36" height="42" viewBox="0 0 36 42" fill="none" xmlns="http://www.w3.org/2000/svg">
<path d="M34.3636 17.3636C34.3636 30.0909 18 41 18 41C18 41 1.63635 30.0909 1.63635 17.3636C1.63635 13.0237 3.36037 8.86158 6.42915 5.7928C9.49793 2.72402 13.6601 1 18 1C22.3399 1 26.502 2.72402 29.5708 5.7928C32.6396 8.86158 34.3636 13.0237 34.3636 17.3636Z" stroke="black" stroke-width="2" stroke-linecap="round" stroke-linejoin="round"/>
<path d="M18 22.8183C21.0125 22.8183 23.4546 20.3762 23.4546 17.3637C23.4546 14.3513 21.0125 11.9092 18 11.9092C14.9876 11.9092 12.5455 14.3513 12.5455 17.3637C12.5455 20.3762 14.9876 22.8183 18 22.8183Z" stroke="black" stroke-width="2" stroke-linecap="round" stroke-linejoin="round"/>
</svg>
