<svg width="166" height="222" viewBox="0 0 166 222" fill="none" xmlns="http://www.w3.org/2000/svg">
<path d="M56.2769 67.0917L117.811 31.5176L117.628 88.4989L56.2769 125.612V67.0917Z" fill="#A9D6EA"/>
<path d="M117.159 32.6521L116.976 88.1201L56.929 124.451V67.4696L117.159 32.6521ZM118.463 30.3953L55.6245 66.713V126.773L118.28 88.8637L118.463 30.3953Z" fill="#7CB2D4"/>
<path d="M19.9592 106.018L14.8063 103.135L0.795841 95.0209L0.652344 35.4436L15.6543 44.2752L36.1221 56.1463L41.4446 59.238H41.4576L54.9724 67.0781V125.664L19.9592 106.018Z" fill="#E6F9FF"/>
<path d="M1.30452 36.5918L15.315 44.8364L20.4939 47.8368L35.7829 56.7075L40.9618 59.7209L41.2749 59.9036L54.307 67.4697V124.568L40.7922 116.989L35.6394 114.093L20.2852 105.444L15.1454 102.574L1.44801 94.6428L1.30452 36.5918ZM0 34.2959L0.143498 95.3864L14.4932 103.696L19.646 106.579L35.0132 115.202L40.166 118.098L55.6246 126.773V66.7001L41.6402 58.586H41.6271L36.4482 55.5726L21.1592 46.7018L15.9803 43.7015L0 34.2959Z" fill="#7CB2D4"/>
<path d="M41.8096 57.9339H41.7965L36.7741 55.0118L16.3063 43.1407L1.31738 34.3221L62.3166 0.743896L76.9402 8.40141L82.2757 11.3105L117.132 30.4086L55.6244 65.9567L41.8096 57.9339Z" fill="#E6F9FF"/>
<path d="M62.3167 1.48715L76.6142 8.96203L81.9628 11.8841L97.6691 20.4809L103.005 23.403L115.802 30.4213L55.6246 65.1997L42.2924 57.4639L41.9924 57.2944L37.1004 54.4505L21.8115 45.5798L16.6456 42.5794L2.63512 34.3349L62.3167 1.48715ZM62.3037 0L0 34.2957L15.9803 43.7013L21.1593 46.7017L36.4482 55.5724L41.6271 58.5858H41.6402L55.6246 66.6999L118.463 30.3822L103.631 22.255L98.2953 19.3329L82.5889 10.7362L77.2404 7.81405L62.3037 0Z" fill="#7CB2D4"/>
<path d="M82.5889 10.7361L21.1592 46.7016L21.0157 46.7929L19.646 106.579L14.4932 103.696L15.8629 43.7664L15.9803 43.7012L77.2404 7.81396L82.5889 10.7361Z" fill="#005497"/>
<path d="M103.631 22.2551L41.6401 58.5859H41.6271L41.5358 58.6381L40.166 118.098L35.0132 115.202L36.3829 55.6116L36.4481 55.5725L98.2953 19.333L103.631 22.2551Z" fill="#005497"/>
<path d="M83.1245 141.48L165.126 94.0874L164.879 169.997L83.1245 219.464V141.48Z" fill="#A9D6EA"/>
<path d="M164.252 95.5879L164.017 169.502L84.0112 217.912V141.963L164.252 95.5879ZM166 92.5745L82.2632 140.972V221.004L165.739 170.493L166 92.5745Z" fill="#7CB2D4"/>
<path d="M34.7397 193.348L27.878 189.5L9.19728 178.685L9.01465 99.3057L28.9868 111.072L35.9007 115.064L56.2773 126.883L63.3738 131.018H63.3869L81.3892 141.468V219.53L34.7397 193.348Z" fill="#E6F9FF"/>
<path d="M9.88868 100.832L28.5693 111.829L35.4702 115.821L55.8468 127.64L62.7477 131.657L63.1651 131.892L80.5282 141.963V218.043L62.5259 207.933L55.6642 204.071L35.1832 192.578L28.3345 188.756L10.0844 178.19L9.88868 100.832ZM8.14062 97.7922L8.3363 179.194L27.4605 190.269L34.3223 194.105L54.8032 205.597L61.6649 209.459L82.2632 221.017V140.972L63.6348 130.157H63.6217L56.7208 126.139L36.3443 114.32L29.4434 110.329L8.14062 97.7922Z" fill="#7CB2D4"/>
<path d="M63.8566 129.283H63.8436L57.1384 125.383L29.874 109.572L9.90186 97.8184L91.1732 53.0735L110.663 63.2748L117.772 67.1623L145.806 82.5034L164.213 92.5873L82.2634 139.954L63.8566 129.283Z" fill="#E6F9FF"/>
<path d="M91.1731 54.0651L110.219 64.0316L117.342 67.9191L138.266 79.3728L145.376 83.2602L162.426 92.6006L82.2371 138.95L64.4696 128.644L64.0783 128.423L57.5557 124.626L37.1792 112.808L30.2913 108.816L11.6237 97.8317L91.1731 54.0651ZM91.16 52.0823L8.14062 97.7925L29.4303 110.329L36.3312 114.321L56.7078 126.14L63.6087 130.158H63.6217L82.2502 140.972L165.987 92.5745L146.224 81.747L139.114 77.8595L118.19 66.4059L111.067 62.5184L91.16 52.0823Z" fill="#7CB2D4"/>
<path d="M118.189 66.3928L36.331 114.321L36.1484 114.438L34.3221 194.105L27.4473 190.257L29.2736 110.407L29.4301 110.316L111.067 62.5054L118.189 66.3928Z" fill="#005497"/>
<path d="M146.223 81.7469L63.6211 130.158H63.6081L63.4907 130.223L61.6644 209.446L54.7896 205.598L56.6159 126.192L56.7072 126.14L139.113 77.8464L146.223 81.7469Z" fill="#005497"/>
<path d="M110.768 179.038C109.62 179.038 108.367 178.125 108.367 176.638V157.5C108.367 156.652 108.824 155.857 109.567 155.426L136.284 139.981C136.662 139.759 137.053 139.655 137.471 139.655C138.11 139.655 138.723 139.915 139.18 140.372C139.623 140.816 139.871 141.416 139.871 142.055L139.793 160.175C139.793 161.218 139.232 162.197 138.345 162.731L111.994 178.673C111.615 178.92 111.198 179.038 110.768 179.038Z" fill="white"/>
<path d="M137.483 139.994C138.031 139.994 138.566 140.216 138.957 140.607C139.336 140.985 139.544 141.507 139.544 142.055L139.531 144.899L139.466 160.188C139.466 161.114 138.97 161.975 138.188 162.458L111.836 178.399C111.51 178.594 111.145 178.699 110.78 178.699C109.788 178.699 108.719 177.916 108.719 176.638V157.5C108.719 156.77 109.11 156.092 109.749 155.713L136.466 140.268C136.779 140.085 137.118 139.994 137.483 139.994ZM137.483 139.315C137.027 139.315 136.557 139.433 136.126 139.681L109.41 155.126C108.562 155.609 108.053 156.509 108.053 157.487V176.625C108.053 178.216 109.358 179.351 110.78 179.351C111.249 179.351 111.732 179.221 112.189 178.947L138.54 163.005C139.531 162.405 140.144 161.323 140.144 160.162L140.21 144.873L140.223 142.029C140.21 140.463 138.905 139.315 137.483 139.315Z" fill="#7CB2D4"/>
<path d="M108.327 157.905L125.051 162.823L139.153 140.45" stroke="#7CB2D4" stroke-width="0.5122" stroke-miterlimit="10"/>
</svg>
