<svg width="218" height="184" viewBox="0 0 218 184" fill="none" xmlns="http://www.w3.org/2000/svg">
<path d="M107.476 88.3613L196.69 111.1V111.685L133.673 133.329L41.1494 105.876L107.476 88.3613Z" fill="white"/>
<path d="M169.734 122.694C169.597 122.345 169.423 122.022 169.174 121.711C168.764 121.213 168.229 120.853 167.607 120.641L166.251 120.256L125.699 108.811L128.374 107.891L131.732 106.747L136.136 105.241L140.091 103.885L143.089 102.853L146.522 101.671L149.122 100.776L154.26 99.0093L149.483 98.0142L144.433 99.681L120.835 107.431L80.5073 97.218L74.6235 95.7253L69.7349 96.8324L75.5564 98.35L79.8853 99.4696L113.658 108.264L116.245 108.936L89.7496 116.151C89.1401 116.35 88.6052 116.723 88.145 117.27C87.9708 117.482 87.834 117.718 87.722 117.954C87.4359 118.539 87.3115 119.173 87.3862 119.795V121.425V123.776V127.346V129.734V133.304V136.29V139.86V142.422V145.992V148.592V152.162V154.924V158.494V160.845V164.415V166.803V170.373V170.61L91.0682 171.667V171.431V167.861V165.472V161.902V159.539V155.969V153.22V149.65V147.062V143.492V140.93V137.36V134.387V130.817V128.428V124.858V122.495V120.517C91.006 119.969 91.2299 119.447 91.6031 119.074C91.7897 118.9 91.9887 118.738 92.2499 118.651L121.022 110.341L161.014 121.997L164.895 123.129C165.318 123.278 165.642 123.577 165.853 123.962C166.027 124.273 166.114 124.647 166.077 125.045L166.065 126.189L166.027 129.834L166.015 131.799L165.977 135.456L165.953 138.579L165.915 142.236L165.903 144.226L165.865 147.896L165.841 150.135L165.803 153.804L165.778 156.441L165.741 160.111L165.729 162.101L165.691 165.796L165.679 167.997L165.642 171.704V171.791L169.336 170.336V170.237L169.373 166.53L169.398 164.353L169.436 160.658L169.46 158.718L169.498 155.036L169.523 152.386L169.56 148.704L169.585 146.49L169.622 142.82L169.647 140.88L169.684 137.223L169.722 134.063L169.759 130.394L169.784 128.49L169.821 124.846V124.298C170.045 123.776 169.946 123.216 169.734 122.694Z" fill="#005398"/>
<path d="M188.778 156.914C189.662 156.566 190.097 155.571 189.761 154.688C189.413 153.804 188.418 153.369 187.547 153.705L180.158 156.578L169.585 160.683L169.547 164.378L178.441 160.932" fill="#7CB2D4"/>
<path d="M35.9995 149.7L48.7498 153.357L87.4234 164.44V160.87L59.5719 152.884L36.9449 146.403C36.0368 146.142 35.079 146.664 34.8178 147.585C34.569 148.493 35.0914 149.438 35.9995 149.7Z" fill="#7CB2D4"/>
<path d="M100.671 164.651L98.8422 164.129L91.1299 161.915V165.485L134.045 177.787C134.195 177.837 134.356 177.849 134.518 177.849C134.73 177.849 134.941 177.812 135.14 177.738L165.803 165.833L165.84 162.139L134.431 174.329" fill="#7CB2D4"/>
<path d="M54.7699 139.313L42.057 135.693L37.0066 134.262C36.0986 134.001 35.1407 134.536 34.8795 135.444C34.6183 136.352 35.1532 137.298 36.0613 137.559L47.0327 140.681L85.8432 151.727L87.3981 152.175V148.605" fill="#7CB2D4"/>
<path d="M159.932 140.78L138.673 148.356L135.202 149.587L134.469 149.849L134.207 149.774L133.772 149.65L126.657 147.597L122.303 146.341L91.1675 137.385V140.955L122.863 150.073L123 150.11L128.324 151.64L129.605 152.001L131.807 152.635L134.07 153.282C134.22 153.332 134.381 153.344 134.543 153.344C134.742 153.344 134.929 153.307 135.115 153.245L146.871 149.053L166.027 142.236L166.064 138.579L163.228 139.586" fill="#7CB2D4"/>
<path d="M137.329 160.92L134.456 162.002L121.034 158.183L117.538 157.188L114.043 156.193L96.74 151.267L95.9315 151.043L92.8714 150.172L91.1548 149.687V153.257L92.9212 153.767L95.8444 154.601L98.693 155.409L108.134 158.096L111.63 159.091L115.125 160.086L134.07 165.485C134.22 165.522 134.381 165.547 134.543 165.547C134.742 165.547 134.953 165.51 135.152 165.435L148.139 160.546L165.94 153.854L165.977 150.185L159.496 152.623" fill="#7CB2D4"/>
<path d="M79.6616 134.088L75.2457 132.819L71.2527 131.675L40.5277 122.843L40.2789 122.768L37.505 121.972C36.684 121.736 35.8257 122.171 35.4898 122.955C35.4649 123.03 35.4027 123.079 35.3903 123.154C35.353 123.303 35.3654 123.44 35.353 123.589C35.3281 124.348 35.8008 125.057 36.5596 125.281L69.2127 134.673L73.7654 135.979L76.6638 136.812L81.3285 138.156L85.8688 139.462L87.3989 139.897V136.327L81.4529 134.623L80.1592 134.25" fill="#7CB2D4"/>
<path d="M181.24 124.572L182.036 124.298L183.989 123.614L184.3 123.502L188.716 121.96C189.612 121.649 190.084 120.666 189.773 119.771C189.462 118.875 188.48 118.402 187.584 118.713L181.936 120.691L179.946 121.388L177.968 122.084H177.956L174.908 123.154L171.848 124.224L169.945 124.883L169.908 128.528L178.167 125.642L180.058 124.983" fill="#7CB2D4"/>
<path d="M142.865 134.362L139.531 135.531L136.198 136.7L134.469 137.31L126.582 135.046L126.52 135.033L122.228 133.802L118.571 132.757L111.232 130.655L106.008 129.162L91.1675 124.908V128.478L100.708 131.214L107.6 133.192L122.253 137.384L126.607 138.628L134.058 140.755C134.207 140.805 134.369 140.818 134.531 140.818C134.717 140.818 134.916 140.78 135.103 140.718L143.176 137.894L146.51 136.725L149.843 135.556L162.793 131.028L166.139 129.859L166.176 126.214L151.1 131.488" fill="#7CB2D4"/>
<path d="M65.6539 117.581L64.9946 117.394L62.8426 116.785L60.4792 116.101L60.106 115.989L58.066 115.404L53.2893 114.036L48.2887 112.605L43.3379 111.187L36.9565 109.359C36.0485 109.097 35.0906 109.62 34.8294 110.54C34.5682 111.449 35.0906 112.406 36.0111 112.668L41.8825 114.347L46.8955 115.79L46.9328 115.802L49.2465 116.462L51.6722 117.158L56.4489 118.526L57.9913 118.962L62.6063 120.28L65.5171 121.114L68.5274 121.985L87.3853 127.383V123.813" fill="#7CB2D4"/>
<path d="M34.8176 42.299C33.7479 40.9307 32.4666 40.3087 31.2102 40.5202C30.7251 40.6072 30.4017 41.0675 30.4888 41.5526C30.5758 42.0377 31.0361 42.3487 31.5212 42.2741C32.0934 42.1746 32.79 42.5851 33.4369 43.3936C34.2206 44.3888 34.8052 45.8442 35.0913 47.4861C35.365 49.0908 35.2779 50.7204 34.8425 51.9767C34.4818 53.0092 33.922 53.6809 33.3498 53.7804C32.8647 53.8675 32.5413 54.3277 32.6283 54.8129C32.703 55.2482 33.0761 55.5468 33.4991 55.5468C33.5488 55.5468 33.5986 55.5468 33.6483 55.5343C34.8923 55.3229 35.9372 54.2407 36.5218 52.5614C37.0567 51.0189 37.1687 49.1032 36.8452 47.1876C36.4845 45.2595 35.7755 43.518 34.8176 42.299Z" fill="#7CB2D4"/>
<path d="M146.224 43.2565L141.821 45.3836L138.835 46.8266L137.305 47.573L137.032 47.7098L135.228 48.5805L135.041 48.6676L134.556 48.904L131.571 50.3469L128.61 51.7774C128.623 51.9765 128.648 52.1879 128.697 52.387C128.735 52.5362 128.797 52.6731 128.859 52.8223C128.872 52.8597 128.884 52.897 128.896 52.9343C129.008 53.1706 129.133 53.407 129.295 53.6309C129.618 54.0911 130.028 54.5141 130.588 54.9121C130.601 54.9246 130.613 54.9246 130.638 54.937C131.198 55.3351 131.882 55.6585 132.603 55.9446L136.994 53.9294L137.256 53.8175L139.084 52.984L139.495 52.7975L140.913 52.1506L141.933 51.6904L174.897 36.6015L176.763 37.323L177.397 37.5594L178.019 37.7957L178.853 38.1191L178.019 38.5047L177.397 38.7908L176.763 39.0769L146.274 53.2328L176.788 42.249L177.422 42.025L178.044 41.8011L183.281 39.9228L183.219 39.786L190.956 42.759L178.056 46.5529L177.434 46.7395L176.8 46.9261L148.04 55.3848L176.8 49.0532L177.434 48.9164L178.056 48.7796L196.168 44.7866L199.029 45.8937C200.124 45.6822 201.193 45.4707 202.238 45.2717C203.333 45.0602 204.403 44.8488 205.448 44.6497L178.056 34.1137V27.894" fill="#7CB2D4"/>
<path d="M41.9079 153.655L37.0193 152.237C36.1112 151.976 35.1534 152.498 34.8922 153.406C34.83 153.605 34.83 153.804 34.8424 153.991C34.8922 154.687 35.3524 155.322 36.0615 155.521L87.4356 170.373V166.803" fill="#7CB2D4"/>
<path d="M91.1676 120.555V122.532L117.501 129.983L122.216 131.314L126.209 132.446L126.57 132.546L133.25 134.437L134.058 134.661C134.207 134.698 134.369 134.723 134.531 134.723C134.605 134.723 134.68 134.698 134.755 134.686C134.867 134.673 134.991 134.661 135.091 134.623L138.225 133.541L143.363 131.775L165.952 123.988C165.741 123.602 165.418 123.304 164.995 123.154L161.114 122.022L134.469 131.203L126.545 128.963L122.191 127.732L91.7024 119.099C91.3293 119.485 91.1054 120.007 91.1676 120.555Z" fill="#7CB2D4"/>
<path d="M91.1299 167.885V171.456L134.045 183.87C134.195 183.92 134.356 183.932 134.518 183.932C134.73 183.932 134.953 183.895 135.152 183.808L165.753 171.729L165.79 168.022L134.431 180.399" fill="#7CB2D4"/>
<path d="M110.586 161.504L107.078 160.509L103.57 159.514L100.497 158.643L97.7856 157.872L94.9992 157.088L91.1182 155.994V159.564L97.3876 161.343L100.037 162.089L101.132 162.4L104.64 163.395L134.034 171.717C134.183 171.767 134.345 171.779 134.506 171.779C134.705 171.779 134.917 171.742 135.116 171.667L165.853 160.148L165.891 156.479L134.444 168.271" fill="#7CB2D4"/>
<path d="M150.689 137.447L147.455 138.628L134.468 143.368L126.631 141.104L122.278 139.847L100.185 133.454L95.5456 132.11L91.1919 130.854V134.424L122.315 143.417L126.669 144.674L134.07 146.813C134.219 146.863 134.381 146.876 134.543 146.876C134.742 146.876 134.941 146.838 135.127 146.776L154.259 139.798L157.493 138.616L160.727 137.434L166.089 135.481L166.126 131.824L153.948 136.265" fill="#7CB2D4"/>
<path d="M70.7302 124.945L67.5208 124.012L64.4483 123.117L53.4769 119.945L52.3449 119.621L47.5931 118.253L45.8143 117.743L42.8413 116.885L42.1199 116.673L40.5401 116.213L37.0198 115.193C36.1117 114.932 35.1539 115.454 34.8927 116.362C34.6314 117.258 35.1414 118.191 36.0246 118.464C36.0371 118.464 36.0495 118.477 36.0619 118.489L36.3729 118.576L41.2118 119.969L43.426 120.604L45.976 121.338L46.4985 121.487L67.7696 127.644L71.2277 128.64L74.972 129.722L87.3863 133.317V129.747" fill="#7CB2D4"/>
<path d="M217.65 45.7444C215.908 46.0802 213.819 46.4907 211.467 46.9385C210.447 47.1375 209.365 47.349 208.258 47.5605C207.226 47.7595 206.156 47.971 205.049 48.1824C196.976 49.7498 187.248 51.6406 178.031 53.4567C177.819 53.494 177.608 53.5438 177.409 53.5811C177.197 53.6184 176.986 53.6682 176.774 53.7055C163.974 56.2182 152.356 58.5319 147.841 59.5271C147.555 59.5893 147.281 59.639 147.007 59.6888C146.933 59.7012 146.846 59.7136 146.771 59.7385C146.559 59.7758 146.348 59.8256 146.149 59.8629C145.564 59.9749 144.98 60.0619 144.407 60.1366C144.383 60.1366 144.345 60.149 144.32 60.149C143.885 60.2112 143.45 60.261 143.027 60.2983C142.989 60.2983 142.94 60.3107 142.902 60.3107C142.492 60.348 142.094 60.3729 141.683 60.4102C141.459 60.4227 141.235 60.4476 141.012 60.46C140.464 60.4849 139.942 60.5098 139.407 60.5098C139.258 60.5098 139.121 60.4973 138.971 60.4973C135.849 60.4476 133.063 59.95 130.786 58.9797C130.09 58.6812 129.431 58.3329 128.833 57.9597C128.759 57.91 128.684 57.8726 128.61 57.8229C128.56 57.7856 128.498 57.7607 128.448 57.7234C128.398 57.686 128.336 57.6612 128.286 57.6238C128.261 57.599 128.236 57.5865 128.211 57.5617C128.137 57.4995 128.062 57.4373 127.988 57.3875C127.851 57.288 127.714 57.176 127.59 57.0765C127.515 57.0143 127.44 56.9397 127.353 56.8651C126.93 56.4794 126.545 56.0689 126.221 55.6336C126.097 55.957 126.06 56.2929 126.159 56.6411L126.358 91.9687L122.004 90.9486L121.818 57.1263C121.818 56.156 121.93 55.2977 122.091 54.5016C122.303 53.4069 122.626 52.4367 123.037 51.6281C123.074 51.5659 123.099 51.4913 123.136 51.4291C123.883 49.9986 124.828 49.0034 125.674 48.3317L113.521 51.2923L69.0255 62.0771L45.8387 67.7121C46.0999 67.2145 46.3487 66.6921 46.585 66.1572C48.8987 60.8954 49.869 53.8299 48.9112 46.2792C48.0404 39.3755 45.7889 33.0812 42.5672 28.5782C41.572 27.1974 40.5147 26.0281 39.4076 25.0579L127.739 5.17991C130.401 4.90625 133.834 6.54822 136.757 9.52121C140.365 13.1908 142.741 18.3033 143.45 23.9508C144.32 30.8172 143.586 36.3651 142.007 40.1591L145.266 38.5793L148.214 37.1488C149.035 33.1185 149.197 28.4165 148.55 23.3039C147.691 16.5494 144.805 10.3795 140.414 5.91383C136.285 1.72179 131.259 -0.455078 126.968 0.0798104C126.88 0.0922496 126.806 0.10469 126.731 0.117129L30.2399 21.8485C25.9981 22.4456 22.3036 25.8788 20.0645 31.3024C17.925 36.502 17.2284 43.1445 18.0991 50.0235C18.2484 51.1928 18.4474 52.3372 18.6713 53.4816C18.7957 54.1284 18.9326 54.7877 19.0818 55.4221C19.2311 56.0689 19.4053 56.7158 19.5794 57.3377L0 61.8781C0 61.8781 20.9104 67.936 25.1771 69.1675C24.58 68.4336 24.0078 67.5504 23.4853 66.6423C23.7714 67.1274 24.07 67.6001 24.3685 68.048C25.3139 69.4411 26.3215 70.6229 27.3664 71.6305C24.7666 73.2102 22.5524 75.9593 21.0224 79.6662C18.8828 84.8658 18.1862 91.5084 19.057 98.3873C19.9401 105.341 22.1668 111.735 25.3263 116.412C27.4286 119.509 29.8169 121.649 32.3296 122.768V119.87V116.698C31.3967 115.889 30.4638 114.832 29.5806 113.526C26.8564 109.52 24.9407 103.91 24.1571 97.7529C23.3983 91.7447 23.9705 86.0227 25.7742 81.6441C27.3042 77.9247 29.5681 75.6235 31.9689 75.3125C34.3199 75.0139 36.9944 76.7057 39.3081 79.9523C42.0323 83.7712 43.9604 89.2196 44.7316 95.3024C45.0177 97.5788 45.1048 99.7681 45.0301 101.845L36.758 103.736C38.1015 102.268 38.7234 99.4695 38.201 96.4219C37.8651 94.4938 37.1561 92.7648 36.1983 91.5457C35.1285 90.1774 33.8472 89.5554 32.5909 89.7669C32.1057 89.854 31.7823 90.3142 31.8694 90.7994C31.9565 91.2845 32.4167 91.5955 32.9019 91.5208C33.4741 91.4213 34.1707 91.8318 34.8175 92.6404C35.6012 93.6355 36.1858 95.0909 36.4719 96.7329C37.0317 100.004 35.9992 102.803 34.7304 103.015C34.2453 103.102 33.9219 103.562 34.0089 104.047C34.0836 104.483 34.4568 104.781 34.8797 104.781C34.9295 104.781 34.9792 104.781 35.029 104.769C35.2156 104.731 35.3897 104.644 35.5763 104.582C35.427 104.831 35.3275 105.105 35.3151 105.403C35.3151 105.54 35.34 105.664 35.3773 105.801C35.5017 106.411 35.9495 106.921 36.5714 107.107L43.9728 109.197L48.9236 110.603L57.3201 112.979L58.6884 113.364L61.3504 114.123L62.1217 114.347L64.0622 114.894L66.9232 115.703L67.6572 115.914L69.4857 116.437L87.3609 121.499V119.87C87.2863 119.26 87.4107 118.614 87.6968 118.029L79.0018 115.566L76.5512 114.82L73.3543 113.912L68.5528 112.556L63.7512 111.2L61.848 110.665L59.2731 109.931L56.7479 109.209L49.67 107.207L44.6943 105.801L43.9728 105.602L44.744 105.428L50.0556 104.209L54.372 103.226L56.3499 102.778L58.3277 102.331L75.5685 98.3873L69.747 96.8697L74.6356 95.7626L80.5193 97.2553L107.5 91.0855L122.029 94.4814L123.796 94.8919L126.383 95.489L129.07 96.1234L134.344 97.3549L144.432 99.7059L149.483 98.039L154.259 99.0342L149.122 100.801L158.203 102.928L161.798 103.761L165.679 104.669L193.008 111.05L190.097 112.058L178.217 116.151L176.152 116.86L174.063 117.581L167.694 119.77L166.238 120.268L167.594 120.654C168.216 120.865 168.751 121.226 169.162 121.723C169.41 122.022 169.584 122.358 169.721 122.706L170.965 122.271L174.05 121.201L176.538 120.343L178.566 119.646L180.581 118.949L197.411 113.153L198.779 112.68C199.09 112.73 199.401 112.854 199.663 113.053C200.16 113.426 200.446 114.011 200.446 114.633V114.795C200.446 117.992 200.235 119.472 198.879 119.87L194.015 121.649L187.111 124.174L184.835 125.007L184.126 125.269L182.907 125.716L181.141 126.363L180.966 126.425L169.858 130.481L169.821 134.15L180.071 130.406L182.82 129.398L184.736 128.702L186.651 128.005L187.323 127.756L191.229 128.64L192.995 129.038L190.756 129.834L190.259 130.008L188.194 130.742L186.278 131.426L184.362 132.11L169.784 137.297L169.746 140.954L170.07 140.843L173.366 139.673L179.188 137.596L187.895 134.499L189.077 134.076L189.811 133.814L198.792 130.617C199.103 130.667 199.401 130.792 199.65 130.991C200.148 131.364 200.434 131.948 200.434 132.57V132.732C200.434 135.929 200.222 137.409 198.854 137.807L187.435 142.099L185.606 142.783L184.263 143.293L181.091 144.487L171.649 148.045L169.659 148.791L169.622 152.473L182.671 147.56L183.902 147.099L187.771 145.644L192.634 146.478L190.681 147.211L182.671 150.209L169.597 155.11L169.56 158.792L180.954 154.526L198.717 147.871L198.842 147.821C198.854 147.821 198.854 147.821 198.867 147.833C199.153 147.896 199.426 148.008 199.663 148.194C200.16 148.567 200.446 149.152 200.446 149.774V149.936C200.446 153.195 200.247 154.613 198.991 154.974C198.941 154.986 198.891 155.011 198.842 155.023L177.384 163.494L169.46 166.617L169.423 170.324L200.036 158.245C203.88 157.063 203.88 152.946 203.88 149.936V149.774C203.88 148.692 203.531 147.684 202.959 146.813C202.623 146.303 202.225 145.843 201.728 145.458C201.329 145.159 200.907 144.935 200.459 144.761C199.712 144.549 195.707 143.542 195.707 143.542L217.625 138.031M20.9104 61.2685C21.0472 61.6044 21.1841 61.9278 21.3209 62.2513C21.0597 61.6542 20.9104 61.2685 20.9104 61.2685ZM36.6336 69.9387L35.8002 70.1253C35.0165 70.1999 34.1831 70.0258 33.3372 69.6277C31.7574 68.8814 30.1279 67.3638 28.6352 65.1496C25.911 61.1442 23.9953 55.534 23.2117 49.3766C22.4529 43.3685 23.0251 37.6464 24.8288 33.2678C26.3588 29.5484 28.6227 27.2472 31.0235 26.9362C33.3745 26.6252 36.049 28.3294 38.3627 31.576C41.0869 35.3949 43.015 40.8433 43.7862 46.9261C44.9804 56.3426 42.7537 64.3659 39.4325 68.0231C38.5617 68.9933 37.6163 69.6402 36.6336 69.9387ZM55.2303 99.4944L53.2649 99.9422L50.2049 100.639C50.2173 98.6859 50.1054 96.6831 49.8566 94.6307C48.9858 87.7269 46.7343 81.4326 43.5126 76.9296C42.7538 75.8722 41.9576 74.9642 41.1366 74.1432L41.771 73.9939L44.4082 73.3471L46.8463 72.75C51.6478 77.054 55.815 89.5057 56.2255 99.2456L55.2303 99.4944Z" fill="#7CB2D4"/>
<path d="M40.9128 141.776L37.5044 140.805C36.5964 140.557 35.651 141.079 35.3898 141.987C35.1285 142.895 35.6634 143.84 36.5715 144.102L66.5004 152.573L87.4357 158.506V154.936L77.422 152.1" fill="#7CB2D4"/>
<path d="M135.29 155.621L134.456 155.932L131.122 154.974L127.639 153.979L124.915 153.195L124.156 152.971L115.362 150.446L91.1675 143.517V147.087L93.6056 147.784L104.552 150.919L118.26 154.849L121.743 155.845L125.226 156.84L130.376 158.32L134.07 159.377C134.22 159.427 134.381 159.44 134.543 159.44C134.742 159.44 134.954 159.402 135.14 159.328L143.661 156.18L164.994 148.282L165.99 147.908L166.027 144.239L153.799 148.767" fill="#7CB2D4"/>
<path d="M35.9997 131.289L50.2799 135.382L60.4926 138.305L86.6275 145.794L87.3987 146.017V142.447L85.595 141.937L81.1915 140.681L68.1925 136.962L61.2514 134.971L36.9326 128.005C36.0245 127.744 35.0667 128.267 34.8055 129.187C34.5691 130.07 35.0916 131.028 35.9997 131.289Z" fill="#7CB2D4"/>
<path d="M180.407 142.572L183.616 141.39L186.639 140.27L188.753 139.487C189.636 139.163 190.097 138.168 189.761 137.285C189.636 136.949 189.4 136.7 189.126 136.514C188.865 136.327 188.579 136.203 188.268 136.178C188.032 136.165 187.795 136.19 187.559 136.277L176.874 140.233L173.664 141.415L173.341 141.539L170.455 142.609L169.759 142.87L169.721 146.54L177.197 143.778" fill="#7CB2D4"/>
<path d="M60.6169 104.619L58.6515 104.993L58.2534 105.067L58.7261 105.204L61.0896 105.863L71.0907 108.65L76.1038 110.055L81.1168 111.449L85.2342 112.605L91.8643 114.459L95.0114 113.513L88.9038 111.834L84.4132 110.59L79.3628 109.197L74.3125 107.816L61.8359 104.383" fill="#7CB2D4"/>
<path d="M65.4062 103.127L78.5172 106.722L83.5925 108.103L88.6552 109.483L93.6061 110.839L98.8181 112.27L107.874 109.832L111.307 108.911L113.633 108.277L79.8607 99.4946" fill="#7CB2D4"/>
<path d="M101.703 117.93L133.411 126.824L136.807 125.804L128.547 123.515L128.46 123.49L104.975 116.997" fill="#7CB2D4"/>
<path d="M113.085 114.67L109.813 115.603L123.808 119.484L128.062 120.653L140.588 124.124L143.835 123.179L128.087 118.825L123.845 117.643L114.739 115.13" fill="#7CB2D4"/>
<path d="M127.241 116.425L147.169 121.935L150.416 120.99L127.266 114.584L127.092 114.534L123.024 113.414L121.88 113.091L120.201 112.631L116.929 113.564L120.711 114.621L123 115.243" fill="#7CB2D4"/>
</svg>
