<svg width="712" height="66" viewBox="0 0 712 66" fill="none" xmlns="http://www.w3.org/2000/svg">
<g opacity="0.8" clip-path="url(#clip0_2_205)">
<g opacity="0.7">
<path d="M71.5319 65.1649H68.0822C67.9348 65.188 67.784 65.176 67.6421 65.1298C67.5003 65.0835 67.3713 65.0043 67.2658 64.8987C67.1603 64.7931 67.0813 64.6639 67.0351 64.5219C66.9888 64.3799 66.9768 64.229 66.9999 64.0815V15.8906C66.9807 15.7447 66.9957 15.5965 67.0437 15.4574C67.0917 15.3184 67.1713 15.1924 67.2763 15.0895C67.3813 14.9865 67.5087 14.9096 67.6486 14.8645C67.7885 14.8194 67.9369 14.8075 68.0822 14.8298H71.5319C71.6763 14.8065 71.8242 14.8178 71.9634 14.8628C72.1026 14.9079 72.2291 14.9855 72.3326 15.089C72.436 15.1926 72.5134 15.3192 72.5585 15.4585C72.6035 15.5979 72.6148 15.746 72.5916 15.8906V18.8927H72.9072C74.1698 16.184 76.7853 14.8298 80.731 14.8298H85.2404C86.7186 14.7394 88.1994 14.9576 89.589 15.4705C90.9785 15.9834 92.2464 16.7798 93.3122 17.8093C95.3427 20.1086 96.3805 23.1197 96.1982 26.1833V42.5931C96.3829 45.6571 95.3449 48.6692 93.3122 50.9673C92.2475 51.9996 90.9803 52.7995 89.5909 53.3162C88.2015 53.833 86.7201 54.0552 85.2404 53.9692H80.731C76.7853 53.9692 74.1698 52.6149 72.9072 49.8837H72.5916V64.0815C72.6138 64.2269 72.6019 64.3754 72.5569 64.5155C72.5119 64.6555 72.4349 64.7831 72.3321 64.8883C72.2293 64.9934 72.1035 65.0731 71.9646 65.1211C71.8257 65.1691 71.6775 65.1841 71.5319 65.1649ZM79.7164 49.0486H84.2258C88.5773 49.0486 90.7418 46.7914 90.7418 42.277V26.3187C90.7418 21.8044 88.4872 19.5472 84.2258 19.5472H79.7164C78.7574 19.4797 77.7948 19.6092 76.8875 19.9274C75.9803 20.2457 75.1475 20.7461 74.4404 21.3981C73.7933 22.095 73.2954 22.9172 72.9774 23.8139C72.6595 24.7105 72.5282 25.6628 72.5916 26.6122V41.8031C72.5282 42.7525 72.6595 43.7048 72.9774 44.6014C73.2954 45.4981 73.7933 46.3203 74.4404 47.0172C75.1325 47.7015 75.9584 48.2353 76.8663 48.5849C77.7743 48.9344 78.7446 49.0923 79.7164 49.0486Z" fill="white"/>
<path d="M110.538 53.9691H107.156C107.01 53.9883 106.862 53.9733 106.723 53.9253C106.584 53.8773 106.459 53.7976 106.356 53.6925C106.253 53.5874 106.176 53.4599 106.131 53.3198C106.086 53.1798 106.074 53.0311 106.096 52.8857V15.8905C106.073 15.7459 106.084 15.5978 106.129 15.4584C106.174 15.3191 106.252 15.1925 106.355 15.0889C106.459 14.9854 106.585 14.9078 106.725 14.8627C106.864 14.8177 107.012 14.8064 107.156 14.8297H110.538C110.683 14.8064 110.83 14.8177 110.97 14.8627C111.109 14.9078 111.235 14.9854 111.339 15.0889C111.442 15.1925 111.52 15.3191 111.565 15.4584C111.61 15.5978 111.621 15.7459 111.598 15.8905V18.9603H111.913C112.539 17.6979 113.561 16.6752 114.822 16.0485C116.369 15.2053 118.111 14.785 119.873 14.8297H122.871C123.525 14.8297 123.863 15.1682 123.863 15.8905V18.7345C123.889 19.0238 123.809 19.3126 123.638 19.5471C123.538 19.6438 123.415 19.7118 123.28 19.7436C123.145 19.7753 123.003 19.7698 122.871 19.7277H118.723C117.746 19.6711 116.768 19.8274 115.857 20.1859C114.946 20.5444 114.124 21.0966 113.447 21.8043C112.134 23.3982 111.474 25.4306 111.598 27.4924V52.8857C111.62 53.0311 111.608 53.1798 111.563 53.3198C111.518 53.4599 111.441 53.5874 111.338 53.6925C111.236 53.7976 111.11 53.8773 110.971 53.9253C110.832 53.9733 110.684 53.9883 110.538 53.9691Z" fill="white"/>
<path d="M148.034 53.9691H141.427C139.911 54.0482 138.394 53.8235 136.965 53.308C135.536 52.7925 134.225 51.9967 133.108 50.9671C132.063 49.8494 131.257 48.5305 130.737 47.0909C130.218 45.6513 129.996 44.1209 130.086 42.593V26.1832C129.952 24.6673 130.151 23.1403 130.67 21.7099C131.189 20.2794 132.015 18.9803 133.09 17.9042C134.165 16.8281 135.462 16.0011 136.891 15.4816C138.32 14.962 139.846 14.7626 141.36 14.8973H147.966C149.48 14.7626 151.006 14.962 152.434 15.4816C153.863 16.0011 155.161 16.8281 156.236 17.9042C157.311 18.9803 158.137 20.2794 158.656 21.7099C159.175 23.1403 159.374 24.6673 159.24 26.1832V42.593C159.329 44.1209 159.108 45.6513 158.589 47.0909C158.069 48.5305 157.263 49.8494 156.218 50.9671C153.994 53.0129 151.051 54.0923 148.034 53.9691ZM142.104 49.0485H147.447C151.754 49.0485 153.896 46.7913 153.896 42.4575V26.3412C153.896 21.8269 151.641 19.7277 147.447 19.7277H142.104C137.797 19.7277 135.655 21.9849 135.655 26.3412V42.4575C135.61 46.9719 137.752 49.0485 142.104 49.0485Z" fill="white"/>
<path d="M183.973 53.9692H179.464C177.974 54.0537 176.483 53.8309 175.083 53.3145C173.683 52.7981 172.404 51.9992 171.325 50.9672C170.31 49.8338 169.53 48.5098 169.031 47.0723C168.532 45.6347 168.323 44.1121 168.416 42.593V26.1833C168.325 24.6644 168.535 23.1425 169.035 21.7053C169.534 20.268 170.312 18.944 171.325 17.8092C172.405 16.7813 173.685 15.9864 175.086 15.4739C176.486 14.9614 177.976 14.7422 179.464 14.8297H183.973C187.972 14.8297 190.61 16.184 191.887 18.8926H192.181V1.08341C192.181 0.361113 192.519 7.62939e-06 193.173 7.62939e-06H196.712C197.366 7.62939e-06 197.705 0.361113 197.705 1.08341V52.9986C197.705 53.7209 197.366 54.0821 196.712 54.0821H193.173C192.519 54.0821 192.181 53.7209 192.181 52.9986V49.9966H191.887C190.602 52.615 187.964 53.9692 183.973 53.9692ZM192.181 41.9835V26.7927C192.242 25.8454 192.111 24.8954 191.798 23.9995C191.484 23.1037 190.993 22.2803 190.354 21.5787C189.641 20.9282 188.805 20.429 187.894 20.1109C186.983 19.7928 186.018 19.6624 185.056 19.7278H180.434C176.172 19.7278 174.053 21.9849 174.053 26.4993V42.4576C174.053 46.972 176.172 49.2291 180.434 49.2291H185.101C186.063 49.2945 187.029 49.1641 187.939 48.846C188.85 48.5279 189.687 48.0287 190.399 47.3782C191.053 46.6514 191.549 45.7967 191.856 44.8681C192.162 43.9395 192.273 42.9572 192.181 41.9835Z" fill="white"/>
<path d="M223.273 53.9691H218.989C217.499 54.0537 216.008 53.8309 214.608 53.3144C213.208 52.798 211.928 51.9991 210.849 50.9672C209.835 49.8338 209.055 48.5098 208.556 47.0722C208.056 45.6346 207.847 44.1121 207.941 42.593V15.8905C207.922 15.7446 207.937 15.5964 207.985 15.4573C208.033 15.3183 208.112 15.1923 208.217 15.0894C208.322 14.9864 208.45 14.9095 208.59 14.8644C208.729 14.8193 208.878 14.8074 209.023 14.8297H212.473C212.617 14.8064 212.765 14.8177 212.904 14.8627C213.044 14.9078 213.17 14.9854 213.274 15.0889C213.377 15.1925 213.454 15.3191 213.499 15.4584C213.544 15.5978 213.556 15.7459 213.532 15.8905V42.4575C213.532 46.9719 215.652 49.2291 219.891 49.2291H224.265C225.222 49.3436 226.193 49.2402 227.105 48.9267C228.017 48.6132 228.846 48.0976 229.531 47.4184C230.216 46.7392 230.739 45.9138 231.061 45.004C231.382 44.0942 231.495 43.1235 231.39 42.1641V15.8905C231.371 15.7446 231.385 15.5964 231.433 15.4573C231.481 15.3183 231.561 15.1923 231.666 15.0894C231.771 14.9864 231.898 14.9095 232.038 14.8644C232.178 14.8193 232.327 14.8074 232.472 14.8297H235.922C236.067 14.8074 236.215 14.8193 236.355 14.8644C236.495 14.9095 236.623 14.9864 236.728 15.0894C236.833 15.1923 236.912 15.3183 236.96 15.4573C237.008 15.5964 237.023 15.7446 237.004 15.8905V52.8857C237.027 53.0333 237.015 53.1843 236.969 53.3263C236.923 53.4683 236.843 53.5973 236.738 53.7029C236.632 53.8086 236.503 53.8877 236.362 53.934C236.22 53.9803 236.069 53.9923 235.922 53.9691H232.472C232.325 53.9923 232.174 53.9803 232.032 53.934C231.89 53.8877 231.761 53.8086 231.656 53.7029C231.55 53.5973 231.471 53.4683 231.425 53.3263C231.379 53.1843 231.367 53.0333 231.39 52.8857V49.8836H231.097C229.766 52.6148 227.173 53.9691 223.273 53.9691Z" fill="white"/>
<path d="M270.306 50.132V52.9535C270.306 53.6306 269.945 53.9691 269.223 53.9691H258.108C256.591 54.0482 255.074 53.8235 253.645 53.308C252.217 52.7925 250.905 51.9967 249.788 50.9671C248.743 49.8494 247.937 48.5305 247.418 47.0909C246.898 45.6513 246.677 44.1209 246.767 42.593V26.1832C246.632 24.6673 246.831 23.1403 247.35 21.7099C247.869 20.2794 248.695 18.9803 249.77 17.9042C250.845 16.8281 252.143 16.0011 253.572 15.4816C255.001 14.962 256.526 14.7626 258.04 14.8973H269.156C269.301 14.875 269.449 14.8869 269.589 14.932C269.729 14.9771 269.857 15.0542 269.962 15.1571C270.067 15.26 270.146 15.3859 270.194 15.525C270.242 15.664 270.257 15.8124 270.238 15.9582V18.8023C270.238 19.4795 269.877 19.7955 269.156 19.7955H258.649C254.41 19.7955 252.291 22.0527 252.291 26.567V42.4575C252.291 46.9719 254.41 49.2291 258.649 49.2291H269.156C269.292 49.1991 269.434 49.1996 269.57 49.2307C269.706 49.2618 269.833 49.3227 269.943 49.409C270.053 49.4953 270.143 49.6049 270.205 49.7299C270.268 49.8548 270.302 49.9922 270.306 50.132Z" fill="white"/>
<path d="M279.64 19.7277H275.356C274.635 19.7277 274.274 19.4117 274.274 18.7346V15.8905C274.255 15.7447 274.27 15.5964 274.318 15.4574C274.366 15.3183 274.445 15.1923 274.55 15.0894C274.655 14.9865 274.783 14.9095 274.923 14.8644C275.062 14.8193 275.211 14.8074 275.356 14.8297H279.64C280.159 14.8297 280.407 14.5814 280.407 14.13V7.53904C280.384 7.39148 280.396 7.24048 280.442 7.09846C280.488 6.95644 280.567 6.82742 280.673 6.72181C280.778 6.61619 280.907 6.53703 281.049 6.49077C281.191 6.44451 281.342 6.43236 281.489 6.4555H284.939C285.592 6.4555 285.931 6.81674 285.931 7.53904V14.13C285.931 14.5814 286.201 14.8297 286.765 14.8297H294.904C295.671 14.8297 296.054 15.1682 296.054 15.8905V18.7346C296.054 19.4117 295.671 19.7277 294.904 19.7277H286.765C286.201 19.7277 285.931 19.9535 285.931 20.4275V42.4576C285.931 46.8139 288.185 48.9809 292.695 48.9809H295.693C296.46 48.9809 296.843 49.342 296.843 50.0643V52.8857C296.843 53.5629 296.46 53.9015 295.693 53.9015H291.996C288.907 54.0541 285.882 52.9931 283.563 50.9446C282.488 49.8671 281.653 48.5738 281.113 47.1499C280.572 45.7261 280.34 44.2037 280.429 42.6832V20.3598C280.339 19.8858 280.091 19.7277 279.64 19.7277Z" fill="white"/>
<path d="M309.154 5.62039V10.1348C309.056 11.8418 308.698 13.5239 308.094 15.1232L305.479 22.4138C305.416 22.5818 305.301 22.7252 305.151 22.8227C305.001 22.9203 304.823 22.9668 304.645 22.9555C304.081 22.9555 303.788 22.6396 303.788 22.0301V5.75582C303.765 5.60826 303.777 5.45739 303.823 5.31537C303.869 5.17336 303.948 5.04419 304.054 4.93858C304.159 4.83296 304.288 4.75381 304.43 4.70754C304.572 4.66128 304.723 4.64927 304.87 4.67241H308.162C308.951 4.6047 309.154 4.94324 309.154 5.62039Z" fill="white"/>
<path d="M332.017 53.9692H318.353C318.208 53.9884 318.059 53.9734 317.92 53.9254C317.782 53.8774 317.656 53.7977 317.553 53.6926C317.45 53.5875 317.373 53.46 317.328 53.3199C317.283 53.1799 317.271 53.0312 317.293 52.8858V50.1998C317.293 49.5452 317.654 49.2066 318.353 49.2066H331.25C335.218 49.2066 337.225 47.7169 337.225 44.6922V43.2252C337.285 41.9884 336.932 40.767 336.221 39.7534C335.511 38.7398 334.484 37.9917 333.302 37.6272L324.283 33.79C322.126 33.0132 320.202 31.7006 318.691 29.9754C317.494 28.2949 316.898 26.2588 317 24.197C317 17.8919 320.45 14.7469 327.349 14.762H339.931C340.075 14.7387 340.223 14.7501 340.362 14.7952C340.501 14.8403 340.628 14.9177 340.731 15.0213C340.835 15.1248 340.912 15.2515 340.957 15.3909C341.002 15.5302 341.014 15.6783 340.99 15.8229V18.509C340.99 19.1861 340.652 19.5021 339.931 19.5021H328.341C326.861 19.399 325.389 19.8052 324.17 20.6533C323.742 20.9605 323.391 21.3629 323.144 21.829C322.898 22.2951 322.763 22.8122 322.75 23.3394V24.6485C322.75 26.9056 324.215 28.4405 327.124 29.5691L336.143 33.6321C338.367 34.3083 340.283 35.7466 341.554 37.695C342.608 39.8708 343.096 42.2774 342.974 44.6922C342.974 50.8769 339.322 53.9692 332.017 53.9692Z" fill="white"/>
<path d="M371.632 42.593V40.2004C371.608 40.0529 371.62 39.9019 371.667 39.7599C371.713 39.6178 371.792 39.4888 371.897 39.3832C372.003 39.2776 372.132 39.1984 372.274 39.1522C372.416 39.1059 372.566 39.0939 372.714 39.117H376.163C376.311 39.0939 376.462 39.1059 376.604 39.1522C376.745 39.1984 376.874 39.2776 376.98 39.3832C377.085 39.4888 377.164 39.6178 377.211 39.7599C377.257 39.9019 377.269 40.0529 377.246 40.2004V42.1868C377.246 46.7011 379.5 49.0937 384.01 49.0937H390.774C395.283 49.0937 397.538 46.7387 397.538 42.0287V39.4329C397.538 35.7312 394.494 33.3387 388.406 32.2101C385.859 31.7586 383.311 31.2169 380.741 30.6074C378.28 30.0329 376.026 28.7911 374.224 27.0184C373.307 26.0582 372.595 24.92 372.133 23.6739C371.672 22.4277 371.471 21.1001 371.541 19.773V16.026C371.43 14.5154 371.646 12.9986 372.173 11.579C372.7 10.1593 373.527 8.87005 374.597 7.79904C375.667 6.72803 376.955 5.90042 378.373 5.37255C379.791 4.84467 381.306 4.62894 382.815 4.74006H391.315C392.823 4.63276 394.336 4.85117 395.753 5.3804C397.169 5.90962 398.455 6.7374 399.524 7.80759C400.593 8.87777 401.42 10.1654 401.949 11.5834C402.478 13.0013 402.696 14.5163 402.588 16.026V17.9447C402.588 18.7121 402.25 19.0958 401.596 19.0958H398.079C397.403 19.0958 397.064 18.7121 397.064 17.9447V16.5452C397.064 11.8954 394.81 9.57046 390.3 9.57046H383.784C379.275 9.57046 377.02 12.0006 377.02 16.8611V19.8858C377.02 22.5041 378.734 24.4002 382.161 25.2579C383.694 25.6642 385.385 26.0479 387.211 26.3639C389.089 26.7062 390.947 27.1432 392.781 27.6731C394.539 28.1684 396.246 28.8337 397.876 29.6594C399.431 30.4886 400.721 31.7404 401.596 33.2709C402.587 35.0641 403.078 37.0913 403.017 39.1396V42.593C403.124 44.1027 402.906 45.6178 402.377 47.0358C401.849 48.4537 401.022 49.7414 399.953 50.8116C398.884 51.8818 397.598 52.7094 396.181 53.2386C394.765 53.7678 393.251 53.9862 391.743 53.879H382.928C381.42 53.9862 379.906 53.7678 378.49 53.2386C377.073 52.7094 375.787 51.8818 374.718 50.8116C373.649 49.7414 372.822 48.4537 372.294 47.0358C371.765 45.6178 371.547 44.1027 371.654 42.593H371.632Z" fill="white"/>
<path d="M428.45 53.9691H424.459C422.942 54.0482 421.425 53.8235 419.997 53.308C418.568 52.7925 417.257 51.9967 416.139 50.9671C415.095 49.8494 414.288 48.5305 413.769 47.0909C413.249 45.6513 413.028 44.1209 413.118 42.593V26.1832C412.983 24.6673 413.183 23.1403 413.701 21.7099C414.22 20.2794 415.047 18.9803 416.121 17.9042C417.196 16.8281 418.494 16.0011 419.923 15.4816C421.352 14.962 422.877 14.7626 424.391 14.8973H441.031C441.176 14.875 441.325 14.8869 441.465 14.932C441.604 14.9771 441.732 15.0542 441.837 15.1571C441.942 15.26 442.022 15.3859 442.069 15.525C442.117 15.664 442.132 15.8124 442.113 15.9582V52.9535C442.136 53.101 442.124 53.2519 442.078 53.3939C442.032 53.5359 441.953 53.6651 441.847 53.7707C441.742 53.8763 441.613 53.9555 441.471 54.0018C441.329 54.048 441.178 54.06 441.031 54.0369H437.581C437.436 54.0561 437.287 54.0411 437.149 53.9931C437.01 53.9451 436.884 53.8654 436.781 53.7602C436.678 53.6551 436.601 53.5275 436.556 53.3874C436.511 53.2474 436.499 53.0989 436.522 52.9535V49.9514H436.206C435.056 52.6149 432.463 53.9691 428.45 53.9691ZM436.589 41.9835V20.4274C436.589 19.9534 436.319 19.7277 435.823 19.7277H425.09C420.829 19.7277 418.71 21.9849 418.71 26.4992V42.4575C418.71 46.9719 420.829 49.2291 425.09 49.2291H429.442C430.399 49.3385 431.369 49.2319 432.28 48.9169C433.19 48.6019 434.019 48.0866 434.704 47.4089C435.39 46.7312 435.915 45.9082 436.241 45.0006C436.568 44.093 436.686 43.1237 436.589 42.1641V41.9835Z" fill="white"/>
<path d="M462.631 14.8297H469.395C470.162 14.8297 470.545 15.1457 470.545 15.8229V18.6669C470.545 19.3667 470.162 19.7277 469.395 19.7277H462.631C462.18 19.7277 461.954 19.9535 461.954 20.4275V52.8857C461.954 53.608 461.571 53.9692 460.805 53.9692H457.423C457.275 53.9923 457.124 53.9803 456.983 53.934C456.841 53.8878 456.712 53.8086 456.606 53.703C456.501 53.5974 456.422 53.4683 456.375 53.3263C456.329 53.1843 456.317 53.0333 456.34 52.8857V20.4275C456.34 19.9535 456.092 19.7277 455.574 19.7277H451.064C450.919 19.75 450.771 19.7381 450.631 19.693C450.491 19.6479 450.363 19.571 450.258 19.4681C450.153 19.3651 450.074 19.2391 450.026 19.1001C449.978 18.961 449.963 18.8128 449.982 18.6669V15.8229C449.982 15.1457 450.343 14.8297 451.064 14.8297H455.574C456.092 14.8297 456.34 14.5814 456.34 14.13V11.2859C456.139 8.2615 457.099 5.27426 459.023 2.9343C460.042 1.9136 461.268 1.12353 462.617 0.61733C463.967 0.111135 465.409 -0.0993768 466.847 -5.91949e-06H469.463C470.162 -5.91949e-06 470.522 0.338599 470.522 1.01575V3.83723C470.545 3.98264 470.533 4.13117 470.488 4.2712C470.443 4.41123 470.366 4.53889 470.263 4.644C470.16 4.74911 470.034 4.82881 469.895 4.87682C469.756 4.92484 469.608 4.93984 469.463 4.92063H467.546C466.745 4.82676 465.932 4.92059 465.173 5.19479C464.414 5.46899 463.729 5.91608 463.172 6.50069C462.237 7.99563 461.809 9.75347 461.954 11.5116V14.13C461.94 14.2232 461.947 14.3187 461.975 14.4087C462.004 14.4987 462.053 14.5808 462.118 14.6487C462.184 14.7165 462.264 14.7683 462.353 14.7997C462.442 14.8311 462.537 14.8413 462.631 14.8297Z" fill="white"/>
<path d="M504.027 53.9692H487.771C486.254 54.0484 484.737 53.8236 483.308 53.3081C481.88 52.7926 480.568 51.9968 479.451 50.9673C478.406 49.8495 477.6 48.5307 477.081 47.0911C476.561 45.6514 476.34 44.1211 476.43 42.5931V26.1833C476.295 24.6674 476.494 23.1405 477.013 21.71C477.532 20.2796 478.358 18.9805 479.433 17.9043C480.508 16.8282 481.806 16.0012 483.235 15.4817C484.664 14.9622 486.189 14.7627 487.703 14.8974H494.152C495.667 14.7586 497.194 14.9553 498.624 15.4734C500.055 15.9915 501.355 16.8184 502.43 17.8954C503.506 18.9724 504.332 20.2732 504.85 21.7055C505.367 23.1378 505.564 24.6665 505.425 26.1833V35.9344C505.425 36.7018 505.064 37.0856 504.343 37.0856H482.653C482.134 37.0856 481.886 37.3112 481.886 37.7627V42.4577C481.886 46.972 484.028 49.2292 488.312 49.2292H503.959C504.107 49.2061 504.258 49.2181 504.399 49.2643C504.541 49.3106 504.67 49.3898 504.776 49.4954C504.881 49.601 504.96 49.7301 505.007 49.8722C505.053 50.0142 505.065 50.165 505.042 50.3126V53.0664C505.087 53.6684 504.749 53.9692 504.027 53.9692ZM482.72 33.0001H499.27C499.374 33.0152 499.48 33.0059 499.58 32.9726C499.68 32.9394 499.771 32.8832 499.845 32.8087C499.92 32.7342 499.976 32.6434 500.009 32.5434C500.042 32.4433 500.051 32.3369 500.036 32.2326V26.3413C500.036 21.827 497.894 19.7278 493.61 19.7278H488.38C484.096 19.7278 481.954 21.985 481.954 26.3413V32.2326C481.939 32.3369 481.948 32.4433 481.981 32.5434C482.014 32.6434 482.07 32.7342 482.145 32.8087C482.219 32.8832 482.31 32.9394 482.41 32.9726C482.51 33.0059 482.616 33.0152 482.72 33.0001Z" fill="white"/>
<path d="M516.383 19.7277H512.144C511.445 19.7277 511.084 19.4117 511.084 18.7346V15.8905C511.061 15.7459 511.072 15.5978 511.117 15.4585C511.162 15.3191 511.24 15.1925 511.343 15.089C511.447 14.9854 511.573 14.9078 511.712 14.8628C511.852 14.8177 512 14.8064 512.144 14.8297H516.383C516.879 14.8297 517.127 14.5814 517.127 14.13V7.53904C517.104 7.39148 517.116 7.24048 517.162 7.09846C517.208 6.95644 517.287 6.82742 517.393 6.72181C517.498 6.61619 517.627 6.53703 517.769 6.49077C517.911 6.44451 518.062 6.43236 518.209 6.4555H521.659C522.335 6.4555 522.651 6.81674 522.651 7.53904V14.13C522.651 14.5814 522.944 14.8297 523.508 14.8297H531.625C532.391 14.8297 532.774 15.1682 532.774 15.8905V18.7346C532.774 19.4117 532.391 19.7277 531.625 19.7277H523.508C522.944 19.7277 522.651 19.9535 522.651 20.4275V42.4576C522.651 46.8139 524.906 48.9809 529.415 48.9809H532.414C533.18 48.9809 533.564 49.342 533.564 50.0643V52.8857C533.564 53.5629 533.18 53.9015 532.414 53.9015H528.739C525.65 54.0565 522.623 52.9952 520.306 50.9446C519.227 49.869 518.387 48.5767 517.843 47.1527C517.299 45.7287 517.063 44.2054 517.149 42.6832V20.3598C517.127 19.8858 516.879 19.7277 516.383 19.7277Z" fill="white"/>
<path d="M544.815 66H541.432C541.288 66.0233 541.14 66.012 541.001 65.9669C540.862 65.9218 540.735 65.8443 540.632 65.7407C540.528 65.6371 540.451 65.5104 540.406 65.3711C540.361 65.2317 540.35 65.0838 540.373 64.9392V62.0951C540.351 61.9497 540.362 61.801 540.407 61.661C540.452 61.521 540.529 61.3934 540.632 61.2883C540.735 61.1832 540.861 61.1034 541 61.0554C541.139 61.0074 541.287 60.9923 541.432 61.0116H543.439C544.705 61.1301 545.98 60.9417 547.157 60.4624C548.335 59.9831 549.38 59.2269 550.203 58.2579C551.503 56.3035 552.485 54.155 553.112 51.8926H550.857C550.548 51.8885 550.25 51.7789 550.012 51.5818C549.774 51.3847 549.611 51.1121 549.549 50.8092L538.276 15.8905C538.073 15.1682 538.276 14.8297 539.043 14.8297H542.718C543.028 14.8146 543.333 14.9145 543.574 15.1102C543.815 15.3059 543.976 15.5836 544.025 15.8905L553.923 47.4911H554.217L564.115 15.8905C564.138 15.589 564.279 15.3088 564.506 15.1103C564.734 14.9118 565.031 14.811 565.332 14.8297H568.872C569.729 14.8297 570.045 15.2134 569.797 15.9809L558.365 52.4343C557.428 56.0744 555.772 59.4898 553.495 62.4788C552.405 63.6804 551.059 64.6208 549.556 65.2304C548.053 65.84 546.433 66.103 544.815 66Z" fill="white"/>
<path d="M597.394 52.8858V5.68816C597.371 5.5406 597.383 5.38959 597.429 5.24758C597.475 5.10556 597.554 4.97654 597.66 4.87092C597.765 4.7653 597.894 4.68615 598.036 4.63988C598.178 4.59362 598.329 4.58147 598.476 4.60462H616.514C618.02 4.51789 619.529 4.73497 620.951 5.24289C622.372 5.75082 623.677 6.53924 624.788 7.56152C625.821 8.66329 626.62 9.96374 627.135 11.3839C627.651 12.804 627.873 14.3143 627.787 15.8229V20.0438C627.933 22.0416 627.365 24.0262 626.183 25.6429C625.002 27.2597 623.285 28.4033 621.339 28.8693C622.298 28.9461 623.233 29.2133 624.088 29.655C624.944 30.0968 625.703 30.7044 626.322 31.4425C627.754 33.1674 628.493 35.3639 628.396 37.6046V42.751C628.484 44.2617 628.261 45.7743 627.741 47.1953C627.221 48.6163 626.416 49.9154 625.375 51.0123C624.252 52.0306 622.938 52.8162 621.51 53.3237C620.082 53.8312 618.568 54.0506 617.055 53.9692H598.499C598.35 53.9964 598.196 53.9874 598.051 53.943C597.907 53.8986 597.774 53.8199 597.666 53.7138C597.558 53.6076 597.477 53.477 597.429 53.333C597.382 53.1889 597.37 53.0355 597.394 52.8858ZM603.752 26.4767H615.589C620.099 26.4767 622.353 24.2196 622.353 19.9536V15.8905C622.477 15.0049 622.394 14.1027 622.11 13.2548C621.827 12.4068 621.35 11.6364 620.718 11.0041C620.087 10.3717 619.317 9.89482 618.47 9.61081C617.623 9.3268 616.722 9.24348 615.837 9.36737H603.797C603.694 9.35677 603.59 9.36934 603.492 9.40416C603.394 9.43898 603.305 9.49516 603.232 9.56865C603.158 9.64215 603.102 9.7311 603.067 9.82903C603.033 9.92696 603.02 10.0313 603.031 10.1347V25.7996C602.986 26.251 603.256 26.4767 603.752 26.4767ZM603.752 49.2066H616.333C620.73 49.2066 622.917 46.9493 622.917 42.6833V37.695C622.917 33.3461 620.572 31.1717 615.882 31.1717H603.752C603.256 31.1717 602.986 31.3974 602.986 31.8488V48.4392C602.966 48.5452 602.973 48.6541 603.004 48.7572C603.036 48.8602 603.091 48.9542 603.166 49.0315C603.241 49.1087 603.333 49.1669 603.435 49.2013C603.537 49.2357 603.646 49.2452 603.752 49.2291V49.2066Z" fill="white"/>
<path d="M665.553 53.9691H649.41C647.893 54.0482 646.376 53.8235 644.947 53.308C643.519 52.7925 642.207 51.9967 641.09 50.9671C640.045 49.8494 639.239 48.5305 638.719 47.0909C638.2 45.6513 637.979 44.1209 638.069 42.593V26.1832C637.934 24.6673 638.133 23.1403 638.652 21.7099C639.171 20.2794 639.997 18.9803 641.072 17.9042C642.147 16.8281 643.445 16.0011 644.874 15.4816C646.303 14.962 647.828 14.7626 649.342 14.8973H655.79C657.299 14.8136 658.809 15.0342 660.23 15.546C661.651 16.0579 662.956 16.8505 664.065 17.8768C665.102 18.9983 665.9 20.3188 666.411 21.7582C666.923 23.1977 667.137 24.7261 667.041 26.251V36.002C667.041 36.7695 666.703 37.1532 665.982 37.1532H644.292C643.773 37.1532 643.525 37.3789 643.525 37.8303V42.4575C643.525 46.9719 645.667 49.2291 649.951 49.2291H665.598C665.744 49.2099 665.892 49.2249 666.031 49.2729C666.17 49.3209 666.296 49.4006 666.399 49.5057C666.502 49.6108 666.578 49.7385 666.623 49.8785C666.669 50.0185 666.68 50.1671 666.658 50.3125V53.0663C666.613 53.7435 666.275 53.9691 665.553 53.9691ZM644.246 32.9999H660.796C660.9 33.0151 661.006 33.0057 661.106 32.9725C661.206 32.9393 661.297 32.8831 661.371 32.8086C661.446 32.734 661.502 32.6432 661.535 32.5432C661.568 32.4432 661.578 32.3367 661.563 32.2324V26.3412C661.563 21.8269 659.421 19.7277 655.114 19.7277H649.906C645.622 19.7277 643.48 21.9849 643.48 26.3412V32.2324C643.465 32.3367 643.474 32.4432 643.507 32.5432C643.54 32.6432 643.597 32.734 643.671 32.8086C643.745 32.8831 643.836 32.9393 643.936 32.9725C644.036 33.0057 644.142 33.0151 644.246 32.9999Z" fill="white"/>
<path d="M681.336 53.9692H677.886C677.741 53.9884 677.593 53.9734 677.454 53.9254C677.315 53.8774 677.189 53.7977 677.086 53.6926C676.983 53.5874 676.906 53.4599 676.861 53.3199C676.816 53.1799 676.805 53.0312 676.827 52.8858V0.970602C676.805 0.82519 676.816 0.676666 676.861 0.536635C676.906 0.396603 676.983 0.268946 677.086 0.163836C677.189 0.0587257 677.315 -0.0209762 677.454 -0.0689913C677.593 -0.117006 677.741 -0.13201 677.886 -0.112801H681.336C681.484 -0.135942 681.634 -0.123934 681.776 -0.0776706C681.918 -0.0314068 682.047 0.0477497 682.152 0.153365C682.258 0.258981 682.337 0.388142 682.383 0.530159C682.429 0.672177 682.442 0.823042 682.418 0.970602V52.8858C682.442 53.0334 682.429 53.1844 682.383 53.3264C682.337 53.4684 682.258 53.5974 682.152 53.703C682.047 53.8086 681.918 53.8878 681.776 53.9341C681.634 53.9803 681.484 53.9923 681.336 53.9692Z" fill="white"/>
<path d="M694.842 19.7277H690.625C689.904 19.7277 689.543 19.4117 689.543 18.7346V15.8905C689.524 15.7447 689.539 15.5964 689.587 15.4574C689.635 15.3183 689.715 15.1923 689.82 15.0894C689.924 14.9865 690.052 14.9095 690.192 14.8644C690.332 14.8193 690.48 14.8074 690.625 14.8297H694.842C695.338 14.8297 695.608 14.5814 695.608 14.13V7.53904C695.586 7.39363 695.598 7.24497 695.643 7.10494C695.688 6.96491 695.765 6.83725 695.868 6.73214C695.971 6.62703 696.096 6.54733 696.235 6.49931C696.374 6.4513 696.522 6.43629 696.668 6.4555H700.118C700.794 6.4555 701.11 6.81674 701.11 7.53904V14.13C701.11 14.5814 701.403 14.8297 701.967 14.8297H710.083C710.85 14.8297 711.233 15.1682 711.233 15.8905V18.7346C711.233 19.4117 710.85 19.7277 710.083 19.7277H701.967C701.403 19.7277 701.11 19.9535 701.11 20.4275V42.4576C701.11 46.8139 703.364 48.9809 707.874 48.9809H710.85C711.617 48.9809 712 49.342 712 50.0643V52.8857C712 53.5629 711.617 53.9015 710.85 53.9015H707.175C704.086 54.0541 701.061 52.9931 698.742 50.9446C697.667 49.8671 696.832 48.5738 696.292 47.1499C695.752 45.7261 695.519 44.2037 695.608 42.6832V20.3598C695.608 19.8858 695.338 19.7277 694.842 19.7277Z" fill="white"/>
</g>
</g>
<rect y="15" width="39" height="39" rx="2" fill="#FFCC32" fill-opacity="0.7"/>
<defs>
<clipPath id="clip0_2_205">
<rect width="645" height="66" fill="white" transform="translate(67)"/>
</clipPath>
</defs>
</svg>
