<svg width="207" height="216" viewBox="0 0 207 216" fill="none" xmlns="http://www.w3.org/2000/svg">
<path d="M102.795 185.138L201.913 153.211V31.3408L102.795 62.9256V185.138Z" fill="white"/>
<path d="M101.991 185.138L2.86035 153.211V31.3408L101.991 62.9256V185.138Z" fill="white"/>
<path d="M175.904 134.07L178.264 133.332V144.88L181.349 143.918V132.37L181.48 132.33L181.467 129.628L179.806 128.138" fill="#7CB2D4"/>
<path d="M177.183 149.256V152.829L181.599 151.432L181.573 147.872" fill="#7CB2D4"/>
<path d="M188.335 145.723V149.296L194.307 147.411V143.852" fill="#7CB2D4"/>
<path d="M188.335 129.061V130.498L189.509 130.129V141.689L192.58 140.714V129.166L194.953 128.415L191.038 124.935" fill="#7CB2D4"/>
<path d="M175.904 72.0741L178.264 71.3359V82.8704L181.204 81.9476L181.111 67.3021L179.806 66.1421" fill="#7CB2D4"/>
<path d="M177.183 87.2469V90.8062L181.243 89.5275L181.23 85.9683" fill="#7CB2D4"/>
<path d="M188.335 83.7271V87.2863L194.307 85.4013V81.842" fill="#7CB2D4"/>
<path d="M188.335 67.0387V68.5019L189.509 68.1196V79.6805L192.58 78.705V67.1573L194.953 66.4059L191.038 62.9258" fill="#7CB2D4"/>
<path d="M136.015 147.173L138.335 146.435L136.015 144.365" fill="#7CB2D4"/>
<path d="M136.015 162.742V166.314L148.934 162.228V158.668" fill="#7CB2D4"/>
<path d="M141.776 145.697L144.136 144.946V156.493L147.207 155.531V143.983L149.58 143.219L145.678 139.752" fill="#7CB2D4"/>
<path d="M136.015 85.1511L138.335 84.4261L136.015 82.3696" fill="#7CB2D4"/>
<path d="M136.015 100.745V104.305L148.934 100.218V96.6589" fill="#7CB2D4"/>
<path d="M141.776 83.6879L144.136 82.9497V94.4842L147.207 93.5219V81.9742L149.58 81.2228L145.678 77.7427" fill="#7CB2D4"/>
<path d="M87.6885 91.1884L90.0481 91.9266V103.474L93.1196 104.45V92.9021L95.4792 93.6403L91.5904 87.7083" fill="#7CB2D4"/>
<path d="M81.1899 108.273L94.214 112.386V108.813L81.2163 104.727" fill="#7CB2D4"/>
<path d="M81.2422 101.035L81.8881 101.246V89.6854L84.2609 90.45L81.3608 86.0471" fill="#7CB2D4"/>
<path d="M87.6885 154.529L90.0481 155.267V166.828L93.1196 167.791V156.243L95.4792 156.994L91.5904 151.062" fill="#7CB2D4"/>
<path d="M80.6885 171.468L94.2135 175.726V172.167L80.7148 167.909" fill="#7CB2D4"/>
<path d="M80.7549 164.231L81.9017 164.587V153.04L84.2614 153.791L80.8735 148.65" fill="#7CB2D4"/>
<path d="M38.8486 76.1737L41.2083 76.9251V88.4728L44.2797 89.4351V77.8874L46.6525 78.6388L42.7506 72.7068" fill="#7CB2D4"/>
<path d="M33.127 93.5087L45.3601 97.3843V93.8119L33.1533 89.9495" fill="#7CB2D4"/>
<path d="M33.2197 74.7502L35.408 75.4357L33.2329 72.127" fill="#7CB2D4"/>
<path d="M105.524 1.54907L198.921 31.0906L105.524 62.9257L7.84375 32.9229L105.524 1.54907Z" fill="white"/>
<path d="M38.8486 139.528L41.2083 140.266V151.827L44.2797 152.789V141.242L46.6525 141.993L42.7506 136.048" fill="#7CB2D4"/>
<path d="M32.811 156.77L45.3606 160.725V157.166L32.8242 153.211" fill="#7CB2D4"/>
<path d="M32.8501 149.52L33.061 149.573V138.038L35.4075 138.776L32.916 134.98" fill="#7CB2D4"/>
<path d="M203.693 158.721L188.348 164.113V168.502L181.705 170.836L181.678 166.446L136.028 182.476V187.524L129.344 190.055L129.318 184.835L104.021 193.707H103.929L80.5833 185.89L80.5305 191.215L94.161 196.08V208.563L57.5406 195.289V183.016L74.3349 189.001L73.2407 188.553V183.425L32.7448 169.873L32.7316 174.659L26.1536 172.286V167.672L1.34459 159.367C0.35592 159.038 0 161.634 0 161.634V177.387L104.72 215.405H104.984L122.964 208.3V192.573L149.118 182.568V197.148L170.051 189.62V175.041L193.595 166.71V181.289L206.672 176.201V160.896V160.329L206.237 159.723C205.762 158.932 204.615 158.405 203.693 158.721ZM44.4638 191.189L7.84345 178.218V165.813L44.4638 178.877V191.189Z" fill="#7CB2D4"/>
<path d="M153.679 43.8112L135.224 38.3801L129.556 40.4102L147.734 45.7622L128.896 51.9315L136.015 54.1198V56.3608L154.338 50.376V103.276L136.015 109.274V113.018L154.338 107.007V164.706L136.015 170.994V178.692L181.665 162.979L181.626 155.281L156.948 163.796V106.137L181.296 98.1618L181.27 94.4312L156.948 102.406V49.506L179.556 42.0975L168.971 38.7888" fill="#7CB2D4"/>
<path d="M103.586 189.633C104.061 189.633 104.509 189.568 104.944 189.409L129.278 181.025L129.239 173.34L106.71 181.091L106.631 122.641L128.896 115.338L128.883 111.621L106.578 118.924L106.513 66.0365L128.58 58.8126L128.567 57.5075L128.211 57.3494L120.143 54.8052L103.177 60.3813L87.2664 55.5038L82.099 57.3494L81.598 56.7957L81.5717 60.4076L99.5919 65.9442L99.7369 118.172L81.1498 112.319L81.1103 116.037L99.6973 121.89L99.8423 180.88L80.6357 174.448L80.583 182.159L102.228 189.409C102.69 189.568 103.125 189.633 103.586 189.633Z" fill="#7CB2D4"/>
<path d="M105.867 7.41503L116.096 10.3547L128.58 6.36045L107.066 0.177961C106.289 -0.0593202 105.458 -0.0593202 104.68 0.177961L81.9277 6.84819L94.6223 10.7106" fill="#7CB2D4"/>
<path d="M61.535 20.4261L73.6363 23.9722L79.6475 22.0475L67.823 18.5674L86.5682 13.0836L74.045 9.16846L30.7808 21.863L43.4094 25.7254" fill="#7CB2D4"/>
<path d="M73.2411 57.8505V54.1199L77.6835 52.5644L59.3074 46.9355L77.0244 41.254L71.1451 39.3953L53.349 45.1164L37.8994 40.3707L33.7206 41.7153L33.391 41.8735L33.3779 45.6173L49.6975 50.6266V102.42L33.1142 97.2127L33.101 100.93L49.6975 106.137V164.06L32.811 158.405L32.7583 166.116L73.2411 179.694V171.969L52.3076 164.956V106.954L73.2411 113.559V109.828L52.3076 103.25V51.4307" fill="#7CB2D4"/>
<path d="M140.076 17.2621L128.436 20.9927L134.407 22.7986L146.192 19.0153L161.22 23.3391L173.137 19.1735L136.516 8.64087L124.059 12.6615" fill="#7CB2D4"/>
<path d="M203.825 27.9928L181.955 21.7048L170.17 25.91L190.458 31.7497L177.671 35.9549L188.349 39.1977V39.2109L198.815 35.7703V88.6576L188.349 92.0982V95.842L198.815 92.4014V149.362L188.349 152.961V160.659L204.062 155.241C205.591 154.714 206.672 153.369 206.672 151.867V31.4465C206.659 29.8647 205.459 28.4542 203.825 27.9928Z" fill="#7CB2D4"/>
<path d="M85.3158 38.5781L103.468 32.7515L120.249 37.6817L125.983 35.6648L109.479 30.8269L126.207 25.4485L120.302 23.603L103.415 29.0341L87.5832 24.3808L81.5852 26.3186L97.404 30.9587L79.3706 36.7458" fill="#7CB2D4"/>
<path d="M2.49158 155.979L26.1406 163.902V156.19L7.84359 150.034V92.9812L26.1406 98.7286V95.0112L7.84359 89.2506V37.787L26.1406 43.4026V39.1975L30.0162 37.9583L16.1748 33.7136L35.2891 28.1112L22.845 24.196L2.67613 30.1017C1.04153 30.5894 0.000133727 31.9736 0.000133727 33.5423V152.552C-0.0130486 154.094 0.949257 155.452 2.49158 155.979Z" fill="#7CB2D4"/>
<path d="M177.644 35.9546L158.411 30.1148L170.157 25.9228L181.955 21.7177L181.994 21.7045L173.228 19.1603L173.136 19.1867L161.219 23.3391L149.579 27.4124L134.42 22.8118L128.448 20.9927L112.853 16.2602L124.058 12.6615L136.515 8.65407L136.568 8.64088L128.672 6.34717L128.593 6.37353L116.109 10.3678L105.102 13.9006L94.6354 10.7237L81.9409 6.84809L81.8881 6.83491L73.9656 9.15499L74.071 9.18136L86.581 13.0965L97.2587 16.4184L79.6735 22.0604L73.6624 23.9851L56.0772 29.6139L43.4223 25.7383L30.8068 21.8627L30.7277 21.8495L22.7393 24.1696L22.8447 24.2092L35.302 28.1243L48.1283 32.1712L30.0291 37.9714L26.1535 39.2106V43.4157V95.0375V98.7549V156.203V163.915V167.698V172.299L32.7314 174.658L32.7446 169.873L32.7578 166.103L32.8105 158.392V156.757L32.8237 153.198L32.8369 149.507L32.916 134.967L33.0873 100.904L33.1005 97.1862L33.1137 93.4952L33.1269 89.936L33.2192 74.75L33.2324 72.1399L33.3774 45.6172L33.3905 41.8866L33.7201 41.7152L37.8989 40.3706L55.8663 34.5968L71.1446 39.4083L77.0107 41.267L94.4113 46.7377L77.6698 52.5774L73.2274 54.1329V57.8635V109.841V113.572V171.982V179.707V183.464V188.592L74.3215 189.027L80.5172 191.519V191.242L80.5699 185.916L80.5963 182.199L80.6754 174.487L80.6885 171.495L80.7149 167.936L80.7413 164.244L80.8599 148.663L81.1236 116.063L81.1499 112.346L81.1763 108.299L81.2027 104.74L81.229 101.062L81.3608 86.0736L81.5586 60.434L81.5849 57.5603L82.0991 57.3758L87.2533 55.5171L103.692 49.6641L120.13 54.8316L128.197 57.3758L128.553 57.5339L128.567 58.839L128.857 111.634L128.883 115.365L129.213 173.367L129.252 181.052L129.278 184.862L129.318 190.082L136.001 187.564V182.515V178.732V171.033V166.34V162.781V147.2V144.405V113.045V109.301V104.331V100.772V85.164V82.3694V56.3739V54.1197L128.883 51.9315L111.878 46.7245L129.542 40.4102L135.21 38.3801L150.344 32.9885L168.957 38.7887L179.542 42.0975L180.623 42.4271L180.966 41.8866L181.111 67.302L181.203 81.9475L181.217 85.9813L181.23 89.5405L181.256 94.4443L181.269 98.1617L181.441 129.628L181.467 132.33L181.546 147.885L181.559 151.444L181.586 155.294L181.625 162.979L181.638 166.459L181.665 170.849L188.295 168.529V164.126V160.685V152.987V149.309V145.737V130.511V129.061V95.8416V92.1242V87.2995V83.7271V68.4884V67.0384V39.2106V39.1974M125.983 35.6645L120.249 37.6683L102.558 43.8507L85.3155 38.5647L79.3703 36.7455L63.8943 31.9999L81.5849 26.3183L87.5829 24.3673L104.918 18.8044L120.288 23.6028L126.194 25.4483L141.512 30.2335L125.983 35.6645Z" fill="#005398"/>
</svg>
