<svg width="33" height="32" viewBox="0 0 33 32" fill="none" xmlns="http://www.w3.org/2000/svg">
<path d="M31.999 23.4608V27.977C32.0008 28.3962 31.9119 28.8112 31.738 29.1954C31.5641 29.5795 31.309 29.9243 30.9891 30.2078C30.6693 30.4912 30.2916 30.707 29.8804 30.8413C29.4692 30.9756 29.0335 31.0255 28.6011 30.9878C23.8048 30.4844 19.1977 28.9015 15.1498 26.3662C11.3838 24.0549 8.19086 20.9711 5.79777 17.3338C3.16358 13.4065 1.52427 8.93512 1.01265 4.28192C0.973701 3.86563 1.02493 3.44607 1.16306 3.04994C1.3012 2.65381 1.52323 2.28981 1.815 1.9811C2.10678 1.67239 2.46191 1.42574 2.85779 1.25685C3.25367 1.08796 3.68163 1.00054 4.11441 1.00015H8.79042C9.54686 0.992955 10.2802 1.25167 10.8537 1.72806C11.4273 2.20445 11.8019 2.86601 11.9078 3.58944C12.1051 5.03473 12.4711 6.45381 12.9988 7.81962C13.2085 8.35844 13.2539 8.94403 13.1296 9.507C13.0053 10.07 12.7165 10.5867 12.2974 10.996L10.3179 12.9079C12.5368 16.6767 15.7677 19.7973 19.6699 21.9403L21.6495 20.0284C22.0732 19.6237 22.6083 19.3448 23.1912 19.2247C23.7741 19.1046 24.3804 19.1485 24.9383 19.351C26.3524 19.8607 27.8217 20.2142 29.3181 20.4048C30.0753 20.508 30.7668 20.8763 31.2611 21.4398C31.7554 22.0032 32.018 22.7225 31.999 23.4608Z" stroke="black" stroke-width="2" stroke-linecap="round" stroke-linejoin="round"/>
</svg>
