<svg width="260" height="173" viewBox="0 0 260 173" fill="none" xmlns="http://www.w3.org/2000/svg">
<path d="M58.5702 123.656L217.527 84.5557L217.646 84.3927C228.013 69.95 220.713 52.3572 201.479 45.4837L51.6839 81.8987L58.5702 123.656Z" fill="white"/>
<path d="M59.5303 126.059L219.833 86.6275L220.62 85.5255C226.071 77.9345 227.236 69.3114 223.903 61.2642C220.555 53.218 213.14 46.8023 203.031 43.1845L201.832 42.751L200.533 43.0672L50.7383 79.4822L52.628 84.3026L201.093 48.2176C208.97 51.3066 214.738 56.4991 217.413 62.9291C220.107 69.394 219.307 76.3039 215.187 82.485L57.6093 121.253L59.5303 126.059Z" fill="#7CB2D4"/>
<path d="M27.1039 116.985L186.06 77.8843L186.179 77.7213C196.546 63.2786 189.247 45.6858 170.012 38.8123L20.2175 75.2273L27.1039 116.985Z" fill="white"/>
<path d="M28.0647 119.388L188.351 79.9575L189.138 78.8555C194.605 71.2516 195.769 62.6284 192.421 54.5942C189.073 46.548 181.659 40.1323 171.549 36.5145L170.35 36.0809L169.052 36.3972L19.2566 72.8122L21.1464 77.6325L169.627 41.5466C177.505 44.6356 183.272 49.8281 185.948 56.2581C188.641 62.723 187.842 69.6329 183.722 75.814L26.1436 114.582L28.0647 119.388Z" fill="#7CB2D4"/>
<path d="M24.4342 116.232C24.6263 116.221 24.8024 116.211 24.9939 116.187C32.8946 115.292 37.8977 105.543 36.1385 94.464C34.4527 83.8126 26.8635 75.5114 19.1937 75.9618C19.0015 75.9731 18.8254 75.9834 18.634 76.0066C10.7332 76.9025 5.73019 86.6508 7.48933 97.7299C9.17517 108.381 16.7644 116.683 24.4342 116.232Z" fill="#E6F9FF"/>
<path d="M21.2398 76.7507C21.0797 76.7601 20.9196 76.7695 20.7602 76.7909C17.4562 77.1649 14.5514 79.4111 12.5836 83.1141C10.426 87.1402 9.71558 92.2812 10.5585 97.6069C12.1724 107.855 19.2783 115.86 26.3877 115.443C26.5478 115.433 26.7079 115.424 26.8673 115.403C30.1713 115.029 33.0762 112.782 35.0439 109.079C37.2016 105.053 37.9119 99.9123 37.069 94.5866C35.4551 84.3389 28.3492 76.3333 21.2398 76.7507ZM21.1465 75.1604C29.4248 74.6744 37.4227 83.0955 39.1916 94.342C41.0095 105.874 35.5952 116.006 27.1041 116.973C26.8967 116.997 26.6885 117.009 26.4643 117.022C18.186 117.508 10.1881 109.087 8.41916 97.8405C6.60132 86.309 12.0156 76.1765 20.5067 75.21C20.7309 75.1968 20.9383 75.1727 21.1465 75.1604Z" fill="#7CB2D4"/>
<path d="M7.45524 81.6997C10.0761 76.8065 14.2469 73.682 19.2578 72.8239C19.5279 72.772 19.8154 72.7431 20.1182 72.7014C21.3316 72.5701 22.504 72.5613 23.7023 72.7189C24.9311 72.8507 26.1197 73.1169 27.2832 73.5045C27.4643 73.5779 27.6773 73.6493 27.8584 73.7227C28.9259 74.1159 29.9356 74.6206 30.9523 75.2448L30.9691 75.2558C34.0353 77.1275 36.7366 79.8964 38.7886 83.3754L38.7893 83.3874C39.3237 84.2799 39.8296 85.234 40.2736 86.2278C40.2757 86.2637 40.3084 86.2738 40.3105 86.3096C40.8465 87.502 41.3045 88.7349 41.6859 90.0323C41.6859 90.0323 41.6859 90.0323 41.6866 90.0443C42.05 91.3068 42.3528 92.6328 42.5755 93.9635C43.4457 99.4796 42.7666 104.607 40.9265 108.842C40.9272 108.854 40.9279 108.866 40.9279 108.866L40.9293 108.89C40.5914 109.702 40.188 110.493 39.749 111.227C39.4569 111.724 39.1473 112.198 38.8196 112.637C38.3757 113.287 37.865 113.893 37.3042 114.466L37.3056 114.49L37.2902 114.503C37.0954 114.742 36.8672 114.96 36.6549 115.176C35.9389 115.842 35.2026 116.437 34.4141 116.963C33.4098 117.646 32.3017 118.203 31.1379 118.632C31.1218 118.633 31.1225 118.644 31.1065 118.645C31.0905 118.646 31.0759 118.671 31.0439 118.673C29.9427 119.074 28.7544 119.359 27.5097 119.505C27.2222 119.533 26.9179 119.551 26.6297 119.568C26.2454 119.591 25.8764 119.6 25.49 119.587C20.8276 119.537 16.3667 117.447 12.7691 113.915C8.89703 110.087 6.05314 104.615 5.05237 98.2424C4.10609 92.2508 4.96582 86.3692 7.45524 81.6997ZM11.8038 97.474C13.4708 108.079 20.7445 114.838 26.3808 114.508L26.4448 114.504C26.5409 114.498 26.5875 114.471 26.6836 114.466L26.7156 114.464C27.354 114.39 27.9548 114.223 28.5513 113.984L28.5666 113.971C28.5986 113.969 28.6146 113.968 28.6292 113.944C32.5494 112.298 35.8225 107.018 36.1491 99.992C36.1482 99.7041 36.1474 99.4162 36.1632 99.1393C36.1612 97.7357 36.0748 96.2649 35.8409 94.7429C34.1411 84.1282 26.9001 77.3784 21.2638 77.7094L20.9116 77.73C20.8155 77.7357 20.7201 77.7533 20.6408 77.7699C17.9662 78.1909 15.4511 80.2343 13.7595 83.4412C11.6902 87.3302 10.986 92.3028 11.8038 97.474Z" fill="#7CB2D4"/>
<path d="M41.637 159.529L200.577 120.429L200.696 120.266C211.063 105.824 203.764 88.2307 184.53 81.3572L34.7346 117.772L41.637 159.529Z" fill="white"/>
<path d="M42.5982 161.944L202.885 122.513L203.672 121.411C209.138 113.807 210.303 105.184 206.954 97.1381C203.606 89.0919 196.192 82.6762 186.082 79.0584L184.883 78.6249L183.584 78.9411L33.7893 115.356L35.6791 120.176L184.144 84.0915C192.022 87.1924 197.789 92.373 200.464 98.803C203.158 105.268 202.358 112.178 198.254 118.358L40.6764 157.126L42.5982 161.944Z" fill="#7CB2D4"/>
<path d="M40.9505 158.789C41.1427 158.778 41.3188 158.768 41.5103 158.744C49.411 157.849 54.414 148.1 52.6549 137.021C50.969 126.37 43.3799 118.069 35.7101 118.519C35.5179 118.53 35.3418 118.541 35.1503 118.564C27.2496 119.46 22.2466 129.208 24.0057 140.287C25.6916 150.939 33.2967 159.239 40.9505 158.789Z" fill="#E6F9FF"/>
<path d="M35.7567 119.308C35.5966 119.318 35.4364 119.327 35.277 119.348C31.973 119.722 29.0682 121.968 27.1004 125.671C24.9428 129.698 24.2324 134.839 25.0753 140.164C26.6892 150.412 33.7951 158.418 40.9045 158C41.0646 157.991 41.2247 157.981 41.3842 157.96C44.6882 157.586 47.593 155.34 49.5607 151.637C51.7184 147.611 52.4288 142.47 51.5859 137.144C49.9712 126.884 42.8821 118.89 35.7567 119.308ZM35.6633 117.718C43.9416 117.232 51.9395 125.653 53.7085 136.899C55.5263 148.431 50.112 158.563 41.6209 159.53C41.4135 159.554 41.2053 159.566 40.9812 159.579C32.7029 160.066 24.705 151.644 22.936 140.398C21.1182 128.866 26.5324 118.734 35.0235 117.767C35.247 117.742 35.4552 117.73 35.6633 117.718Z" fill="#7CB2D4"/>
<path d="M21.9875 124.244C22.9426 122.449 24.1204 120.892 25.4899 119.587C26.0967 118.976 26.7718 118.432 27.4817 117.935C28.9021 116.951 30.4654 116.212 32.1417 115.753L32.173 115.74L33.0125 115.534C33.2659 115.471 33.504 115.421 33.7741 115.37L33.7901 115.369C34.0609 115.329 34.3477 115.288 34.6352 115.259C35.3056 115.184 35.9621 115.145 36.6548 115.176C37.8913 115.164 39.1543 115.33 40.377 115.63C40.817 115.736 41.2745 115.865 41.718 116.031C41.734 116.03 41.7348 116.042 41.7508 116.041C41.7828 116.039 41.7995 116.05 41.7995 116.05L41.8155 116.049C43.1093 116.465 44.3328 117.053 45.5334 117.799C45.7667 117.941 46.0007 118.095 46.2507 118.248C47.4221 119.044 48.5706 119.996 49.6475 121.097C49.7498 121.199 49.8515 121.289 49.9219 121.392L49.9226 121.404C51.1729 122.723 52.2709 124.182 53.2157 125.77C53.2484 125.78 53.2491 125.792 53.2498 125.804L53.2505 125.816C54.3716 127.67 55.293 129.68 55.9492 131.825C56.0412 132.024 56.1178 132.235 56.1472 132.461L56.1479 132.473C56.5621 133.781 56.8823 135.13 57.0925 136.521C57.2685 137.603 57.379 138.664 57.4248 139.717L57.4346 139.885C57.4672 140.987 57.4684 142.102 57.3701 143.164L57.375 143.248C57.3757 143.26 57.3757 143.26 57.3604 143.272L57.3646 143.344C57.3018 144.464 57.1408 145.553 56.9304 146.621L56.9325 146.657C56.6144 148.356 56.1139 149.957 55.4477 151.472C55.2064 152.014 54.9491 152.557 54.6896 153.064C54.5589 153.3 54.4128 153.548 54.2653 153.773L54.25 153.786C53.9036 154.454 53.4584 155.08 53.0263 155.657C52.6694 156.146 52.2769 156.577 51.8845 157.008L51.8692 157.021C50.1338 158.935 48.0152 160.343 45.6548 161.189L45.6388 161.19C45.6075 161.204 45.5915 161.205 45.5602 161.219C44.4277 161.633 43.2547 161.906 42.026 162.05C41.7392 162.091 41.4189 162.11 41.1307 162.127C40.8745 162.142 40.6343 162.156 40.376 162.135C35.5604 162.214 30.8747 160.125 27.0297 156.212C26.072 155.224 25.1894 154.148 24.3993 153.007C21.9602 149.502 20.3158 145.304 19.6007 140.786C18.6384 134.796 19.4821 128.915 21.9875 124.244ZM26.3361 140.019C27.1378 145.191 29.3547 149.836 32.5672 153.103C35.2009 155.816 38.2091 157.247 40.9451 157.05C40.9611 157.049 40.9611 157.049 40.9931 157.048C41.0565 157.032 41.1526 157.026 41.2166 157.023L41.2326 157.022C41.871 156.948 42.4717 156.781 43.0683 156.542C43.0683 156.542 43.0843 156.541 43.0836 156.529C43.0996 156.528 43.1156 156.527 43.1309 156.514L43.163 156.512C45.217 155.648 47.0381 153.825 48.4167 151.309C50.4707 147.432 51.1575 142.437 50.3571 137.289C49.5234 132.118 47.3225 127.472 44.1246 124.18C41.5098 121.514 38.5022 120.095 35.8122 120.253C35.6841 120.261 35.5559 120.268 35.4286 120.288C35.3325 120.293 35.2538 120.322 35.1585 120.34C32.4832 120.749 30.0001 122.79 28.2765 125.999C26.5842 129.194 25.7883 133.152 26.034 137.337C26.0859 138.222 26.1866 139.116 26.3361 140.019Z" fill="#7CB2D4"/>
<path d="M43.4886 83.7955L202.429 44.6958L202.548 44.5328C212.915 30.0901 205.616 12.4973 186.381 5.62382L36.5862 42.0389L43.4886 83.7955Z" fill="white"/>
<path d="M35.6409 39.6229L35.6423 39.6468L36.6021 42.0381L36.6056 42.0979L37.5313 44.4552L43.2826 43.0736L47.1315 42.1278L47.3528 42.0668L86.1649 32.649L96.6673 30.0887L98.9004 29.5376L103.89 28.3208L151.794 16.6774L160.904 14.4748L161.458 14.3343L164.911 13.4956L168.159 12.705L174.843 11.0767L185.996 8.37022C186.161 8.44451 186.325 8.49489 186.474 8.57013C186.474 8.57013 186.49 8.58115 186.506 8.58021C190.868 10.3518 194.561 12.7626 197.416 15.6905C197.536 15.8155 197.639 15.9294 197.759 16.0544C198.307 16.6341 198.824 17.2396 199.279 17.8728L199.28 17.8848C199.609 18.2854 199.906 18.6879 200.187 19.1033C200.432 19.4369 200.645 19.7843 200.842 20.1327C200.843 20.1447 200.859 20.1437 200.859 20.1557C201.429 21.0941 201.921 22.0851 202.333 23.0808C203.718 26.4309 204.164 29.9202 203.691 33.3555C203.282 36.523 202.085 39.6649 200.106 42.6247L198.696 42.9714L197.762 43.2062L196.194 43.5863L189.716 45.1784L187.07 45.8257L186.69 45.92L186.658 45.9219L183.206 46.7845L183.19 46.7854L179.738 47.636L179.722 47.637L132.348 59.2852L128.452 60.2458L125.949 60.8607L117.475 62.942L93.8763 68.7549L91.1524 69.4308L87.8417 70.2371L87.8257 70.238L84.5156 71.0563L72.6844 73.9706L72.6684 73.9716L61.502 76.7149L58.2393 77.5184L58.2232 77.5193L56.1335 78.0499L54.9773 78.3338L51.6192 79.1549L51.6032 79.1558L44.9984 80.7794L43.066 81.2528L42.8446 81.3138L42.5432 81.3795L43.204 83.0565L43.4891 83.8076L44.3556 85.9764C44.3556 85.9764 44.3556 85.9764 44.3563 85.9884L44.4504 86.2228L47.523 85.4665L52.0847 84.3468L52.5915 84.221L57.2005 83.0866L58.166 82.8379L58.182 82.837L60.4632 82.2831L60.4792 82.2821L62.2689 81.8411L63.7732 81.4648L73.514 79.0692L73.53 79.0682L84.443 76.3878L87.8958 75.5372L87.9118 75.5362L91.3325 74.6875L94.7059 73.8535L120.222 67.58L128.601 65.5163L131.135 64.8996L134.937 63.9685L183.592 51.993L186.886 51.1757L190.15 50.3842L190.213 50.3685L192.336 49.8479L198.766 48.2705L200.746 47.7823L201.934 47.4846L204.674 46.8078L204.705 46.794L204.753 46.7912L205.539 45.6772C205.822 45.2886 206.089 44.913 206.339 44.5264C207.386 42.9291 208.238 41.2953 208.896 39.6369C211.278 33.6779 211.295 27.4018 208.822 21.4159C208.395 20.4331 207.937 19.4762 207.401 18.5598L207.401 18.5478C207.204 18.1994 207.006 17.8511 206.778 17.5165C206.512 17.0882 206.23 16.6728 205.933 16.2583C205.511 15.6352 205.057 15.0259 204.556 14.4314C204.452 14.3055 204.332 14.1686 204.228 14.0428C201.571 10.9352 197.707 8.05458 193.379 5.76507C189.714 3.82057 184.948 3.38049 180.543 4.43101L167.757 7.50937L162.672 8.7438L158.205 9.83395L155.148 10.5774L153.437 10.9898L144.265 13.2201L98.2936 24.402L92.9864 25.6854L90.8159 26.2088L79.6801 28.9264L35.6409 39.6229Z" fill="#7CB2D4"/>
<path d="M42.8025 83.0549C42.9946 83.0437 43.1708 83.0333 43.3622 83.0101C47.0651 82.5887 50.2803 80.1562 52.4081 76.1679C54.6227 72.0184 55.3728 66.7312 54.5068 61.2868C52.821 50.6353 45.2318 42.3342 37.562 42.7845C37.3698 42.7958 37.1937 42.8061 37.0023 42.8294C29.1015 43.7252 24.0985 53.4736 25.8577 64.5527C27.5435 75.2041 35.1487 83.5043 42.8025 83.0549Z" fill="#E6F9FF"/>
<path d="M37.6244 43.573C37.4642 43.5824 37.3041 43.5918 37.1447 43.6132C33.8407 43.9871 30.9359 46.2334 28.9681 49.9364C26.8105 53.9625 26.1001 59.1035 26.943 64.4292C28.5569 74.677 35.6628 82.6825 42.7722 82.2651C42.9323 82.2557 43.0924 82.2463 43.2518 82.2249C46.5558 81.851 49.4607 79.6047 51.4284 75.9017C53.5861 71.8756 54.2965 66.7346 53.4536 61.4089C51.8396 51.1611 44.7338 43.1556 37.6244 43.573ZM37.531 41.9827C45.8093 41.4967 53.8072 49.9178 55.5762 61.1643C57.394 72.6959 51.9797 82.8283 43.4886 83.7948C43.2812 83.819 43.073 83.8312 42.8488 83.8444C34.5706 84.3304 26.5727 75.9093 24.8037 64.6628C22.9858 53.1312 28.4001 42.9987 36.8912 42.0323C37.0987 42.0081 37.3068 41.9959 37.531 41.9827Z" fill="#7CB2D4"/>
<path d="M35.6425 39.6462C35.9286 39.5934 36.1994 39.5535 36.4869 39.5247C38.9451 39.2483 41.3561 39.5387 43.6512 40.3158C43.6519 40.3278 43.6679 40.3269 43.6679 40.3269C43.9792 40.4286 44.2751 40.5432 44.5718 40.6697C45.5264 41.0576 46.4533 41.5191 47.3531 42.0662C47.5696 42.1975 47.7869 42.3407 48.0042 42.4839C51.8833 45.0637 55.1268 49.1327 57.1079 54.1396C57.6341 55.4405 58.0838 56.8059 58.441 58.2367C58.4417 58.2487 58.4417 58.2487 58.4424 58.2607C58.6517 59.0882 58.8129 59.9187 58.9602 60.7859C59.0699 61.5593 59.1629 62.3218 59.2078 63.087L59.2085 63.099C59.2925 63.9819 59.327 64.8438 59.3295 65.7075L59.3302 65.7194C59.3188 66.62 59.2587 67.5114 59.1498 68.3936C58.9213 70.7947 58.3807 73.0821 57.5087 75.197C57.5094 75.209 57.5101 75.2209 57.5101 75.2209C57.2313 75.9452 56.919 76.6474 56.5413 77.3295C56.4273 77.5762 56.2805 77.8128 56.1337 78.0494C56.1205 78.0981 56.0913 78.1478 56.0454 78.1865L56.0461 78.1985C55.8277 78.5833 55.5918 78.9451 55.3393 79.2958C55.3254 79.3326 55.2954 79.3704 55.2648 79.3962C54.8064 80.071 54.2977 80.7128 53.7369 81.2856C53.7237 81.3344 53.6778 81.3731 53.6165 81.4247C53.4808 81.5766 53.3758 81.7028 53.2227 81.8318L53.2074 81.8446C52.8427 82.202 52.4461 82.5613 52.0626 82.8717C52.0021 82.9353 51.9248 82.9878 51.8629 83.0274C50.5427 84.0768 49.0644 84.8955 47.5233 85.4659C46.4221 85.8665 45.2818 86.1494 44.0851 86.2917L44.0691 86.2926C44.0058 86.3083 43.9577 86.3112 43.8937 86.3149C43.6069 86.3558 43.3026 86.3736 43.0144 86.3905C42.1017 86.4441 41.2001 86.4131 40.3103 86.3094C40.2783 86.3112 40.2623 86.3122 40.2136 86.303C38.8225 86.1447 37.4856 85.8153 36.1549 85.3175C36.1542 85.3055 36.1382 85.3065 36.1382 85.3065C32.0786 83.7571 28.4589 80.6701 25.757 76.5214L25.7563 76.5094C25.5626 76.2208 25.385 75.9313 25.2073 75.6418C24.9223 75.1666 24.654 74.7024 24.4004 74.2134L24.3997 74.2014C24.1467 73.7243 23.9091 73.2344 23.7021 72.7186C23.5397 72.4162 23.4421 72.122 23.3125 71.8296C22.4495 69.7206 21.8184 67.454 21.4364 65.0528C19.4341 52.2962 25.6361 41.3496 35.6425 39.6462ZM28.1877 64.2844C28.523 66.4364 29.09 68.4308 29.8386 70.2346C30.1773 71.0786 30.5453 71.8729 30.9585 72.6165C31.3919 73.4309 31.8546 74.1957 32.3625 74.9097L32.3632 74.9217C35.3784 79.208 39.3904 81.5881 42.8448 81.3132C42.9242 81.2966 43.0043 81.2919 43.0683 81.2881L43.1003 81.2862C43.7547 81.2118 44.3715 81.0436 44.9986 80.7788C47.0381 79.9392 48.9079 78.1257 50.2524 75.5751C51.1205 73.9404 51.7663 72.0787 52.133 70.1134L52.1323 70.1015C52.3212 69.2145 52.4294 68.3203 52.4867 67.3811C52.5482 66.5136 52.5596 65.613 52.5077 64.7282C52.4779 63.6741 52.3834 62.6118 52.2088 61.5542C50.5258 50.9506 43.2841 44.1888 37.6478 44.5198C37.5357 44.5263 37.4076 44.5339 37.297 44.5644C37.2009 44.57 37.1055 44.5876 37.0262 44.6043L37.0101 44.6052C31.4215 45.4732 26.5026 53.6449 28.1877 64.2844Z" fill="#7CB2D4"/>
<path d="M195.162 15.0787C195.162 15.0787 187.955 8.07501 182.529 7.06178L43.0029 41.0501C43.0029 41.0501 50.7305 41.8562 56.2985 48.5723L195.162 15.0787Z" fill="#7CB2D4"/>
<path d="M57.8995 122.916C58.0917 122.904 58.2678 122.894 58.4592 122.871C66.36 121.975 71.363 112.226 69.6039 101.147C67.918 90.4959 60.3289 82.1948 52.659 82.6451C52.4669 82.6564 52.2907 82.6667 52.0993 82.69C48.3964 83.1114 45.1811 85.5438 43.0534 89.5322C40.8387 93.6816 40.0887 98.9689 40.9547 104.413C42.6398 115.053 50.2457 123.365 57.8995 122.916Z" fill="#E6F9FF"/>
<path d="M52.7056 83.4346C52.5455 83.444 52.3854 83.4534 52.226 83.4747C48.922 83.8487 46.0171 86.0949 44.0494 89.798C41.8917 93.8241 41.1813 98.9651 42.0243 104.291C43.6382 114.539 50.744 122.544 57.8534 122.127C58.0136 122.117 58.1737 122.108 58.3331 122.087C65.5154 121.269 70.1941 111.743 68.5508 101.27C66.9202 91.0108 59.815 83.0171 52.7056 83.4346ZM52.6116 81.8323C60.8899 81.3463 68.8877 89.7674 70.6567 101.014C72.4746 112.545 67.0603 122.678 58.5692 123.644C58.3617 123.669 58.1536 123.681 57.9294 123.694C49.6511 124.18 41.6532 115.759 39.8842 104.512C38.0664 92.9808 43.4807 82.8484 51.9718 81.8819C52.1959 81.8687 52.4034 81.8445 52.6116 81.8323Z" fill="#7CB2D4"/>
<path d="M67.2409 109.865C67.2548 109.828 67.2694 109.803 67.2673 109.767L67.2659 109.744C67.4249 108.894 67.5359 108.048 67.5954 107.145L67.5876 107.013L70.1382 106.395L71.0098 106.188L71.0258 106.187L71.7226 106.014L72.2607 105.875L73.5589 105.547L73.5749 105.546L73.813 105.496L73.8924 105.479L74.0984 105.431L74.4152 105.352L74.4229 105.484C74.3934 106.349 74.3617 107.179 74.2668 108.025L74.2675 108.037C74.2703 108.084 74.2724 108.12 74.2592 108.169C74.1684 109.086 74.0457 110.005 73.8574 110.904L73.7941 110.92L73.7781 110.921L70.4673 111.727L70.246 111.788L70.23 111.789L66.5231 112.691C66.8235 111.785 67.0896 110.846 67.2409 109.865ZM67.2409 109.865C67.2548 109.828 67.2694 109.803 67.2673 109.767L67.2659 109.744C67.4249 108.894 67.5359 108.048 67.5954 107.145L67.5883 107.025L70.1382 106.395L71.0098 106.188L71.0258 106.187L71.7226 106.014L72.2607 105.875L73.5596 105.559L73.813 105.496L73.8924 105.479L74.0984 105.431L74.4152 105.352L74.4229 105.484C74.3934 106.349 74.3617 107.179 74.2668 108.025L74.2675 108.037C74.2703 108.084 74.2724 108.12 74.2592 108.169L73.9738 108.234L73.5457 108.331C73.5457 108.331 73.5457 108.331 73.5464 108.343L70.7897 109.009C70.7897 109.009 70.7897 109.009 70.7904 109.021L70.7744 109.022C70.7307 109.372 70.671 109.724 70.6106 110.063C70.5342 110.404 70.4738 110.743 70.3967 111.072L70.3974 111.083C70.3314 111.327 70.2814 111.57 70.23 111.789L66.5231 112.691C66.8235 111.785 67.0896 110.846 67.2409 109.865ZM67.2409 109.865C67.2548 109.828 67.2694 109.803 67.2673 109.767L67.2659 109.744C67.4249 108.894 67.5359 108.048 67.5954 107.145L67.5883 107.025L70.1382 106.395L71.0098 106.188L71.0258 106.187L71.7226 106.014L72.2607 105.875L73.5596 105.559L73.813 105.496L73.8924 105.479L74.0984 105.431L74.4152 105.352L74.4229 105.484C74.3934 106.349 74.3617 107.179 74.2668 108.025L74.2675 108.037C74.2703 108.084 74.2724 108.12 74.2592 108.169L73.9738 108.234L73.5457 108.331C73.5457 108.331 73.5457 108.331 73.5464 108.343L70.7897 109.009C70.7897 109.009 70.7897 109.009 70.7904 109.021L70.7744 109.022C70.7307 109.372 70.671 109.724 70.6106 110.063C70.5342 110.404 70.4738 110.743 70.3967 111.072L70.3974 111.083C70.3314 111.327 70.2814 111.57 70.23 111.789L66.5231 112.691C66.8235 111.785 67.0896 110.846 67.2409 109.865ZM67.2409 109.865C67.2548 109.828 67.2694 109.803 67.2673 109.767L67.2659 109.744C67.4249 108.894 67.5359 108.048 67.5954 107.145L67.5883 107.025L70.1382 106.395L71.0098 106.188L71.0258 106.187L71.7226 106.014L72.2607 105.875L73.5596 105.559L73.813 105.496L73.8924 105.479L74.0984 105.431L74.4152 105.352L74.4229 105.484C74.3934 106.349 74.3617 107.179 74.2668 108.025L74.2675 108.037C74.2703 108.084 74.2724 108.12 74.2592 108.169L73.9738 108.234L73.5457 108.331C73.5457 108.331 73.5457 108.331 73.5464 108.343L70.7897 109.009C70.7897 109.009 70.7897 109.009 70.7904 109.021L70.7744 109.022C70.7307 109.372 70.671 109.724 70.6106 110.063C70.5342 110.404 70.4738 110.743 70.3967 111.072L70.3974 111.083C70.3314 111.327 70.2814 111.57 70.23 111.789L66.5231 112.691C66.8235 111.785 67.0896 110.846 67.2409 109.865ZM36.1493 99.9922C36.1485 99.7043 36.1476 99.4164 36.1635 99.1395C36.2893 95.8086 36.9931 92.7437 38.1676 90.0351L38.1655 89.9992C38.7455 88.6574 39.4125 87.4304 40.214 86.3035C40.26 86.2648 40.2585 86.2409 40.2738 86.228C40.8826 85.3764 41.5749 84.5798 42.3049 83.8771C42.577 83.5851 42.8971 83.2904 43.2047 83.0563C43.2492 82.9937 43.2952 82.955 43.3418 82.9283L43.3578 82.9274C45.4553 81.1604 47.9401 79.9707 50.724 79.4953L50.74 79.4944C50.9475 79.4702 51.1863 79.4322 51.3937 79.408L51.4097 79.4071C51.4731 79.3913 51.5211 79.3885 51.5852 79.3848C52.8299 79.2397 54.0517 79.2519 55.2653 79.3966C55.2973 79.3948 55.3294 79.3929 55.3788 79.414C56.4461 79.5313 57.4892 79.782 58.5044 80.1063L58.5204 80.1054C58.6025 80.1366 58.6673 80.1448 58.7335 80.1769L58.7495 80.1759C58.98 80.2704 59.2432 80.3749 59.473 80.4574L59.489 80.4565C60.4436 80.8443 61.3858 81.293 62.2696 81.841C62.351 81.8602 62.4012 81.8932 62.4353 81.9272C65.7843 83.9623 68.6821 87.0677 70.79 90.9513L70.7907 90.9633C70.845 91.0681 70.9001 91.1848 70.9711 91.3006C70.9718 91.3126 70.9719 91.3126 70.9886 91.3236C71.406 92.139 71.8095 92.9912 72.1664 93.8701C72.4082 94.4318 72.6195 95.0193 72.814 95.5958C73.2037 96.7607 73.5162 97.9782 73.7988 99.2334C73.8749 99.7089 73.9664 100.171 74.0425 100.647C74.0732 100.897 74.1221 101.182 74.1376 101.445L74.1397 101.481C74.213 101.909 74.2521 102.302 74.2774 102.733C74.3767 103.603 74.4126 104.489 74.4152 105.352L74.4229 105.484C74.3934 106.349 74.3617 107.179 74.2668 108.025L74.2675 108.037C74.2703 108.084 74.2724 108.12 74.2592 108.169C74.1684 109.086 74.0457 110.005 73.8574 110.904C73.8616 110.976 73.8331 111.038 73.8213 111.11C73.8213 111.11 73.7893 111.112 73.822 111.122C73.531 112.459 73.1396 113.73 72.6334 114.96L72.6341 114.972C72.3859 115.67 72.0869 116.323 71.7384 116.956C71.7106 117.029 71.682 117.091 71.6382 117.166C71.5081 117.413 71.3621 117.662 71.2153 117.898C70.5141 119.091 69.7265 120.182 68.8345 121.134L68.8192 121.147C68.7899 121.196 68.7461 121.271 68.6528 121.324L68.6536 121.336C68.6389 121.361 68.6396 121.373 68.6083 121.387L68.5478 121.451C68.2298 121.781 67.8798 122.114 67.5123 122.423L67.497 122.436C66.1059 123.646 64.5378 124.578 62.8575 125.24C62.8255 125.242 62.7781 125.257 62.7621 125.258C62.7461 125.259 62.7155 125.284 62.6995 125.285C62.6681 125.299 62.6522 125.3 62.6208 125.314C62.0862 125.513 61.5328 125.666 60.9634 125.819C60.5513 125.915 60.1538 125.987 59.7396 126.047C59.5015 126.097 59.23 126.125 58.9752 126.164C58.6877 126.193 58.4002 126.222 58.096 126.24C56.4787 126.335 54.8468 126.178 53.2648 125.779C53.2648 125.779 53.2488 125.78 53.2161 125.77C51.146 125.268 49.1649 124.364 47.3242 123.117C47.3242 123.117 47.3235 123.105 47.3075 123.106C46.2357 122.365 45.2063 121.525 44.2513 120.585C44.0807 120.415 43.894 120.246 43.722 120.053L43.7213 120.041C43.7213 120.041 43.7206 120.029 43.7046 120.03C43.7046 120.03 43.7038 120.018 43.6878 120.019C43.6878 120.019 43.6871 120.007 43.6711 120.008C43.6711 120.008 43.6704 119.996 43.6544 119.997L43.6537 119.985C43.2566 119.516 42.829 119.073 42.4291 118.557L42.4284 118.545C41.8404 117.835 41.2991 117.099 40.8024 116.301C40.8024 116.301 40.7696 116.291 40.7682 116.267C40.6275 116.059 40.5021 115.838 40.3773 115.63C40.0415 115.109 39.7363 114.563 39.429 113.982L39.4283 113.97C39.4283 113.97 39.4283 113.97 39.4276 113.958C39.2095 113.527 38.9907 113.083 38.8199 112.638C38.6387 112.288 38.5048 111.924 38.371 111.56C37.9981 110.682 37.6732 109.801 37.4096 108.869L37.4082 108.845C37.0442 107.571 36.7421 106.256 36.5186 104.914C36.2595 103.237 36.1459 101.576 36.1493 99.9922ZM45.969 112.35C45.969 112.35 45.9864 112.373 45.9871 112.385L45.9878 112.397C46.4199 113.187 46.8818 113.94 47.373 114.643L47.3737 114.655C47.3751 114.679 47.3751 114.679 47.3918 114.69C47.938 115.51 48.5587 116.229 49.1772 116.913C51.8855 119.801 55.0463 121.367 57.8791 121.177L57.8951 121.176C57.9111 121.175 57.9111 121.175 57.9111 121.175C58.0071 121.17 58.0698 121.142 58.1659 121.136L58.1819 121.135C58.837 121.073 59.4691 120.892 60.0809 120.64L60.1129 120.638C60.1289 120.637 60.1442 120.624 60.1603 120.623C60.1763 120.622 60.1755 120.61 60.1916 120.609C62.1969 119.736 64.0019 117.914 65.3347 115.436C65.8146 114.58 66.2103 113.657 66.5231 112.691C66.8235 111.785 67.0896 110.846 67.2409 109.865C67.2548 109.828 67.2694 109.803 67.2673 109.767L67.2659 109.744C67.4249 108.894 67.5359 108.048 67.5954 107.145L67.5876 107.013C67.6492 106.146 67.646 105.27 67.6093 104.372C67.5517 103.392 67.4615 102.401 67.3071 101.414C65.6234 90.7987 58.3664 84.0499 52.7461 84.3799L52.3778 84.4015C52.2817 84.4071 52.2024 84.4238 52.1077 84.4533C47.0126 85.2444 42.4371 92.1481 42.9833 101.451C43.0345 102.324 43.1352 103.217 43.286 104.145C43.6177 106.237 44.1506 108.197 44.8491 109.968C45.1878 110.812 45.5551 111.594 45.969 112.35ZM67.2409 109.865C67.2548 109.828 67.2694 109.803 67.2673 109.767L67.2659 109.744C67.4249 108.894 67.5359 108.048 67.5954 107.145L67.5883 107.025L70.1382 106.395L71.0098 106.188L71.0258 106.187L71.7226 106.014L72.2607 105.875L73.5596 105.559L73.813 105.496L73.8924 105.479L74.0984 105.431L74.4152 105.352L74.4229 105.484C74.3934 106.349 74.3617 107.179 74.2668 108.025L74.2675 108.037C74.2703 108.084 74.2724 108.12 74.2592 108.169L73.9738 108.234L73.5457 108.331C73.5457 108.331 73.5457 108.331 73.5464 108.343L70.7897 109.009C70.7897 109.009 70.7897 109.009 70.7904 109.021L70.7744 109.022C70.7307 109.372 70.671 109.724 70.6106 110.063C70.5342 110.404 70.4738 110.743 70.3967 111.072L70.3974 111.083C70.3314 111.327 70.2814 111.57 70.23 111.789L66.5231 112.691C66.8235 111.785 67.0896 110.846 67.2409 109.865ZM67.2409 109.865C67.2548 109.828 67.2694 109.803 67.2673 109.767L67.2659 109.744C67.4249 108.894 67.5359 108.048 67.5954 107.145L67.5883 107.025L70.1382 106.395L71.0098 106.188L71.0258 106.187L71.7226 106.014L72.2607 105.875L73.5596 105.559L73.813 105.496L73.8924 105.479L74.0984 105.431L74.4152 105.352L74.4229 105.484C74.3934 106.349 74.3617 107.179 74.2668 108.025L74.2675 108.037C74.2703 108.084 74.2724 108.12 74.2592 108.169L73.9738 108.234L73.5457 108.331C73.5457 108.331 73.5457 108.331 73.5464 108.343L70.7897 109.009C70.7897 109.009 70.7897 109.009 70.7904 109.021L70.7744 109.022C70.7307 109.372 70.671 109.724 70.6106 110.063C70.5342 110.404 70.4738 110.743 70.3967 111.072L70.3974 111.083C70.3314 111.327 70.2814 111.57 70.23 111.789L66.5231 112.691C66.8235 111.785 67.0896 110.846 67.2409 109.865ZM67.2409 109.865C67.2548 109.828 67.2694 109.803 67.2673 109.767L67.2659 109.744C67.4249 108.894 67.5359 108.048 67.5954 107.145L67.5876 107.013L70.1382 106.395L71.0098 106.188L71.0258 106.187L71.7226 106.014L72.2607 105.875L73.5589 105.547L73.5749 105.546L73.813 105.496L73.8924 105.479L74.0984 105.431L74.4152 105.352L74.4229 105.484C74.3934 106.349 74.3617 107.179 74.2668 108.025L74.2675 108.037C74.2703 108.084 74.2724 108.12 74.2592 108.169L73.9738 108.234L73.5464 108.343L70.7904 109.021L70.7744 109.022C70.7307 109.372 70.671 109.724 70.6106 110.063C70.5342 110.404 70.4738 110.743 70.3967 111.072L70.3974 111.083C70.3314 111.327 70.2814 111.57 70.23 111.789L66.5231 112.691C66.8235 111.785 67.0896 110.846 67.2409 109.865Z" fill="#7CB2D4"/>
<path d="M75.555 91.3907L234.495 52.291L234.614 52.1281C244.981 37.6854 237.682 20.0925 218.448 13.219L68.6526 49.6341L75.555 91.3907Z" fill="white"/>
<path d="M76.5163 93.8064L236.803 54.3757L237.59 53.2737C243.056 45.6698 244.221 37.0467 240.872 29.0005C237.934 21.926 230.992 16.1545 222.465 12.4078C220.288 11.4438 217.611 11.289 215.139 11.878L67.6915 47.2194L69.5813 52.0397L218.078 15.9529C225.956 19.0418 231.723 24.2344 234.399 30.6644C237.092 37.1293 236.292 44.0392 232.173 50.2202L74.5945 88.988L76.5163 93.8064Z" fill="#7CB2D4"/>
<path d="M74.8844 90.6511C75.0765 90.6399 75.2527 90.6295 75.4441 90.6063C83.3449 89.7105 88.3479 79.9621 86.5887 68.883C84.9029 58.2315 77.3137 49.9304 69.6439 50.3807C69.4518 50.392 69.2756 50.4023 69.0842 50.4256C61.1834 51.3214 56.1804 61.0698 57.9396 72.1489C59.6254 82.8003 67.2146 91.1015 74.8844 90.6511Z" fill="#E6F9FF"/>
<path d="M69.6908 51.1697C69.5306 51.1791 69.3705 51.1885 69.2111 51.2098C62.0288 52.0275 57.3501 61.5528 58.9934 72.0268C60.6073 82.2746 67.7132 90.2801 74.8226 89.8627C74.9827 89.8533 75.1428 89.8439 75.3022 89.8226C82.4845 89.0049 87.1632 79.4795 85.52 69.0056C83.9053 58.7459 76.8002 50.7523 69.6908 51.1697ZM69.5974 49.5794C77.8757 49.0933 85.8736 57.5145 87.6426 68.7609C89.4604 80.2925 84.0461 90.425 75.555 91.3915C75.3476 91.4157 75.1394 91.4279 74.9152 91.441C66.637 91.9271 58.6391 83.506 56.8701 72.2595C55.0522 60.7279 60.4665 50.5954 68.9576 49.6289C69.1811 49.6038 69.3892 49.5916 69.5974 49.5794Z" fill="#7CB2D4"/>
<path d="M84.4428 76.3879L87.8955 75.5373C87.8997 75.609 87.8873 75.6698 87.8755 75.7424L84.4067 76.594C84.4025 76.5223 84.4143 76.4496 84.4428 76.3879ZM84.4428 76.3879L87.8955 75.5373C87.8997 75.609 87.8873 75.6698 87.8755 75.7424L84.4067 76.594C84.4025 76.5223 84.4143 76.4496 84.4428 76.3879ZM53.1677 67.2218C53.1777 66.2973 53.2379 65.4059 53.3468 64.5237C53.6019 62.301 54.1369 60.1939 54.954 58.2382L54.9526 58.2143C55.2147 57.479 55.5437 56.7878 55.906 56.1186C56.283 55.4246 56.6935 54.7526 57.1074 54.1403C59.7303 50.3749 63.3974 47.9759 67.7086 47.2428C67.9787 47.191 68.2662 47.1621 68.5697 47.1323C70.9952 46.8459 73.4369 47.1105 75.7494 47.9106C76.9456 48.3082 78.1336 48.8384 79.2346 49.5297C79.2674 49.5397 79.2833 49.5388 79.268 49.5517C79.3175 49.5728 79.3502 49.5829 79.3516 49.6068C79.3843 49.6169 79.4178 49.6389 79.4185 49.6508L79.4192 49.6628L79.4352 49.6619C80.3342 50.197 81.2069 50.8297 82.0197 51.5378C82.2217 51.6939 82.4244 51.862 82.5943 52.02C82.9335 52.324 83.2574 52.641 83.582 52.9699C84.624 54.0245 85.577 55.2044 86.4235 56.4865C86.9495 57.2355 87.3955 57.9892 87.8122 58.7926L87.8129 58.8046C88.2428 59.5592 88.6268 60.3526 88.9474 61.1616C89.9309 63.4075 90.6213 65.8626 91.0256 68.3705C91.0627 68.7283 91.1318 69.0842 91.1522 69.4309C91.1731 69.5137 91.1773 69.5854 91.1655 69.6581C91.2766 70.4555 91.3557 71.2547 91.3532 72.0348C91.3728 72.0936 91.3777 72.1773 91.3659 72.25C91.3823 73.0769 91.398 73.8919 91.3323 74.6876C91.3372 74.7713 91.3407 74.8311 91.3129 74.9047L91.3136 74.9167C91.0933 78.5531 90.1843 81.954 88.6068 84.9142C88.4767 85.1618 88.3459 85.3974 88.1991 85.634L88.1998 85.646C88.0851 85.8807 87.9369 86.0933 87.7887 86.306C87.2002 87.2284 86.5594 88.0819 85.8336 88.8564L85.8023 88.8703C85.8037 88.8942 85.7884 88.9071 85.7571 88.9209L85.7578 88.9329C85.7432 88.9577 85.7286 88.9826 85.6826 89.0213L85.6833 89.0332L85.668 89.0461C83.911 90.8651 81.8697 92.2207 79.5887 93.0506L79.5566 93.0524C79.5413 93.0653 79.5093 93.0672 79.494 93.0801C78.9601 93.2914 78.3907 93.4448 77.8199 93.5743L77.8039 93.5753C77.5345 93.6391 77.2498 93.7158 76.9797 93.7676L76.9636 93.7686C76.6128 93.8132 76.2946 93.8679 75.9598 93.9115C75.6723 93.9404 75.368 93.9583 75.0798 93.9752C74.6315 94.0015 74.1985 94.0149 73.7466 93.9815C73.2168 93.9886 72.7002 93.9469 72.1655 93.8703C71.1629 93.7612 70.1533 93.5326 69.1868 93.2173C68.7948 93.1084 68.4174 92.9746 68.0546 92.8159C65.5562 91.8587 63.2482 90.3145 61.2352 88.321C59.7349 86.8493 58.3806 85.1291 57.2553 83.2034L57.2546 83.1915C57.2205 83.1575 57.2031 83.1345 57.2002 83.0867C57.0247 82.833 56.8986 82.6005 56.755 82.345L56.7543 82.333C56.4853 81.8569 56.231 81.3559 56.0086 80.853C55.9745 80.819 55.9724 80.7831 55.9536 80.7362C55.7355 80.3051 55.5654 79.8712 55.3779 79.4142C55.3438 79.3803 55.3409 79.3324 55.3388 79.2966C55.2099 79.0162 55.1137 78.7459 54.9994 78.4406L54.9987 78.4287C54.9812 78.4057 54.9791 78.3698 54.977 78.3339C54.5964 77.3244 54.2777 76.2753 54.021 75.1865L54.0203 75.1746C53.8103 74.335 53.6498 73.5166 53.5025 72.6493C53.3517 71.7223 53.2481 70.7806 53.1934 69.8479C53.1261 68.976 53.1222 68.0883 53.1677 67.2218ZM84.4428 76.3879C84.5239 75.5793 84.5875 74.7477 84.6024 73.9069L84.6017 73.895C84.5982 73.8352 84.6253 73.7496 84.6218 73.6898L84.6211 73.6779C84.6228 72.8859 84.5911 72.0718 84.5433 71.2588C84.5398 71.199 84.5356 71.1272 84.5154 71.0564C84.4789 70.4347 84.3929 69.7918 84.2903 69.1379C83.9174 66.8922 83.2925 64.7332 82.4366 62.7437C82.0833 61.9246 81.7 61.1432 81.27 60.3886L81.2693 60.3766C80.8206 59.5751 80.3259 58.8122 79.786 58.1L79.7853 58.0881C79.2447 57.3639 78.6742 56.6775 78.0431 56.0547C75.4123 53.3896 72.4353 51.9446 69.7453 52.1025C69.6012 52.111 69.4905 52.1415 69.3624 52.149C69.2663 52.1546 69.1709 52.1722 69.0923 52.2008L69.0763 52.2018C66.4017 52.6228 63.9026 54.6652 62.2096 57.8482C61.4146 59.3587 60.8048 61.0142 60.4277 62.8001C60.2394 63.699 60.0832 64.5961 60.0266 65.5473C59.949 66.4157 59.9042 67.2942 59.9255 68.2048L59.9262 68.2168C59.9644 69.4144 60.0521 70.633 60.2692 71.8681C60.5151 73.5934 60.9628 75.1989 61.5017 76.715C61.5045 76.7629 61.5067 76.7987 61.5575 76.8437L61.5582 76.8557C61.7981 77.6575 62.1472 78.4049 62.479 79.1293L62.4797 79.1413C62.4985 79.1881 62.532 79.2102 62.5508 79.2571C62.9181 80.0394 63.3305 80.7711 63.773 81.465C63.7758 81.5128 63.7939 81.5477 63.8448 81.5927C66.8742 86.3941 71.1954 89.116 74.7982 88.9045L75.1665 88.8828C75.8216 88.8204 76.4376 88.6402 77.0655 88.3874L77.0815 88.3865C77.0975 88.3855 77.1128 88.3726 77.1288 88.3717C77.1448 88.3707 77.1441 88.3588 77.1601 88.3578C79.1654 87.4842 80.9865 85.6615 82.3185 83.1717C83.3758 81.2019 84.0646 78.9778 84.4067 76.594C84.4025 76.5223 84.4143 76.4496 84.4428 76.3879ZM84.4428 76.3879L87.8955 75.5373C87.8997 75.609 87.8873 75.6698 87.8755 75.7424L84.4067 76.594C84.4025 76.5223 84.4143 76.4496 84.4428 76.3879ZM84.4428 76.3879L87.8955 75.5373C87.8997 75.609 87.8873 75.6698 87.8755 75.7424L84.4067 76.594C84.4025 76.5223 84.4143 76.4496 84.4428 76.3879Z" fill="#7CB2D4"/>
<path d="M76.3573 165.542L235.314 126.441L235.433 126.278C245.8 111.835 238.5 94.2424 219.266 87.3689L69.471 123.784L76.3573 165.542Z" fill="white"/>
<path d="M68.526 121.368L68.5434 121.391L68.5469 121.451L69.398 123.632L69.3987 123.644L69.4552 123.785L69.4726 123.808L69.4733 123.82C69.4733 123.82 69.4733 123.82 69.4893 123.819L69.49 123.831L69.6977 124.359L70.4164 126.2L75.8503 124.885L76.135 124.809L76.1664 124.795L79.1917 124.053L79.2077 124.052L80.254 123.811L82.5832 123.254L90.9784 121.201L90.9944 121.2L100.753 118.828L104.395 117.93L104.411 117.929L107.975 117.06L129.836 111.745L138.676 109.606L141.338 108.958L145.346 107.991L145.345 107.979L198.477 95.0686L198.493 95.0677L201.772 94.2632L202.453 94.1032L202.453 94.0913L205.051 93.4588L205.067 93.4579L209.186 92.4601L213.59 91.3977L218.88 90.1032C220.854 90.8752 222.674 91.7762 224.356 92.7813C225.406 93.4275 226.41 94.1124 227.337 94.8499L227.354 94.8609C228.211 95.5065 228.991 96.1926 229.74 96.9045C229.74 96.9045 229.74 96.9165 229.756 96.9155C230.166 97.3234 230.576 97.7433 230.955 98.177C231.229 98.4608 231.487 98.7576 231.73 99.0553C231.747 99.0783 231.765 99.1132 231.799 99.1353C232.389 99.8805 232.932 100.653 233.429 101.451C234.119 102.527 234.698 103.644 235.201 104.815C237.894 111.28 237.095 118.19 232.992 124.382L210.152 129.994L210.153 130.006L198.559 132.858L194.837 133.773L190.322 134.878L134.364 148.638L128.853 149.993L126.191 150.641L126.192 150.653L114.043 153.634L89.0179 159.783L89.0186 159.795L84.473 160.914L77.8835 162.524C77.8515 162.526 77.8362 162.539 77.8202 162.54L75.9358 163.011L75.7618 163.057L75.397 163.138L76.3575 165.542L77.3188 167.957L80.3594 167.202L80.3754 167.201L108.885 160.188L122.142 156.926L124.787 156.279L130.806 154.798L186.431 141.117L188.284 140.661L195.111 138.988L195.11 138.976L205.2 136.5L230.496 130.311C236.055 128.941 240.42 125.565 241.924 121.349C244.062 115.345 244.066 108.853 241.707 103.149C240.868 101.17 239.776 99.2788 238.467 97.496C238.449 97.473 238.431 97.438 238.414 97.4151C237.854 96.644 237.266 95.9347 236.614 95.2291L236.614 95.2171C235.944 94.4885 235.244 93.7738 234.513 93.0968L234.512 93.0848C231.762 90.5707 228.47 88.4123 224.721 86.6767L224.72 86.6648C224.571 86.6015 224.439 86.5373 224.292 86.4859L224.276 86.4869C223.186 85.9989 222.083 85.5358 220.934 85.1233C220.918 85.1243 220.901 85.1132 220.901 85.1132C220.868 85.1032 220.836 85.0931 220.819 85.0821L219.604 84.6375L218.305 84.9537L213.838 86.0439L209.149 87.1831L202.528 88.8076L201.72 88.9991L201.688 89.0009L198.25 89.8267L198.234 89.8276L194.781 90.6783L145.309 102.702L141.412 103.65L138.766 104.298L130.101 106.402L111.282 110.975L108.351 111.687L104.992 112.496L104.976 112.497L101.586 113.32L90.1495 116.115L79.5984 118.666L76.3517 119.469L76.3357 119.469L75.8603 119.581L73.0556 120.25L73.0563 120.262L68.652 121.324L68.6527 121.336L68.526 121.368Z" fill="#7CB2D4"/>
<path d="M75.6872 164.801C75.8794 164.789 76.0555 164.779 76.247 164.756C79.9499 164.334 83.1651 161.902 85.2929 157.913C87.5075 153.764 88.2575 148.477 87.3916 143.032C85.7057 132.381 78.1166 124.08 70.4468 124.53C70.2546 124.541 70.0785 124.552 69.887 124.575C61.9863 125.471 56.9833 135.219 58.7424 146.298C60.4282 156.95 68.0174 165.251 75.6872 164.801Z" fill="#E6F9FF"/>
<path d="M70.493 125.319C70.3329 125.328 70.1728 125.338 70.0134 125.359C62.831 126.177 58.1524 135.702 59.7956 146.176C61.4096 156.424 68.5154 164.43 75.6248 164.012C75.7849 164.003 75.9451 163.993 76.1045 163.972C79.4085 163.598 82.3133 161.352 84.2811 157.649C86.4387 153.623 87.1491 148.482 86.3062 143.156C84.7076 132.895 77.6024 124.902 70.493 125.319ZM70.3996 123.729C78.6779 123.243 86.6758 131.664 88.4448 142.91C90.2627 154.442 84.8484 164.574 76.3573 165.541C76.1498 165.565 75.9417 165.577 75.7175 165.59C67.4392 166.076 59.4413 157.655 57.6723 146.409C55.8545 134.877 61.2688 124.745 69.7599 123.778C69.9833 123.753 70.1915 123.741 70.3996 123.729Z" fill="#7CB2D4"/>
<path d="M54.029 139.904C54.0276 139.88 54.0276 139.88 54.0269 139.868C54.0255 139.845 54.0401 139.82 54.0401 139.82C54.0394 139.808 54.0394 139.808 54.0394 139.808L54.0373 139.772C54.224 137.205 54.7867 134.749 55.6998 132.511L55.699 132.499C55.7825 132.278 55.8492 132.047 55.9487 131.825C56.19 131.283 56.4334 130.776 56.7089 130.268C57.5623 128.658 58.5885 127.254 59.7387 126.047C59.7701 126.033 59.7854 126.02 59.8007 126.007C59.8 125.995 59.816 125.995 59.816 125.995C60.102 125.666 60.4367 125.346 60.7742 125.074C62.6685 123.403 64.8665 122.254 67.289 121.644L67.305 121.643C67.7171 121.547 68.1452 121.45 68.5434 121.391C68.5754 121.389 68.5907 121.376 68.6075 121.387C68.8623 121.348 69.133 121.308 69.3725 121.282C70.7927 121.115 72.2248 121.151 73.6187 121.357C74.104 121.412 74.5754 121.504 75.0321 121.622L75.0481 121.621C75.4548 121.705 75.8468 121.814 76.2402 121.947L76.2569 121.958C76.3704 121.975 76.4532 122.018 76.5681 122.059C77.1252 122.243 77.685 122.474 78.2143 122.731L78.2463 122.729C78.9392 123.036 79.6029 123.393 80.254 123.811C81.7192 124.685 83.1031 125.815 84.3688 127.121C85.1893 127.96 85.9493 128.863 86.6655 129.841L86.6662 129.853C87.3809 130.807 88.0199 131.837 88.5648 132.909C88.6004 132.967 88.6192 133.014 88.6547 133.072C89.1585 133.99 89.5997 134.936 89.9949 135.921L89.9956 135.933C90.8411 138.019 91.4535 140.239 91.8124 142.521C91.9158 143.187 92.0024 143.842 92.0717 144.474L92.0724 144.486C92.141 145.382 92.1909 146.23 92.1774 147.095C92.1987 148.006 92.1706 148.895 92.0777 149.777C91.8099 153.152 90.903 156.313 89.4256 159.063C89.3115 159.31 89.1654 159.558 89.018 159.783L89.0187 159.795C88.3175 160.988 87.5139 162.079 86.6204 163.007L86.6211 163.019C84.8544 164.947 82.7519 166.354 80.3754 167.201L80.3594 167.202C79.1956 167.63 78.0073 167.916 76.7466 168.062C76.4591 168.091 76.1708 168.108 75.8506 168.127C70.7908 168.424 65.8168 166.352 61.7496 162.212C60.5516 160.962 59.4404 159.552 58.5158 158.034C58.0219 157.283 57.5592 156.519 57.1738 155.701C56.9034 155.201 56.6637 154.675 56.4546 154.124C56.3263 153.855 56.1821 153.588 56.1026 153.329L56.1019 153.317C55.8419 152.72 55.6293 152.109 55.4472 151.471C54.9411 149.965 54.5762 148.403 54.3213 146.798C54.2794 146.633 54.2682 146.441 54.2424 146.275L54.2417 146.263C54.1278 145.418 54.0285 144.548 53.9779 143.687L53.9744 143.627C53.9737 143.615 53.9737 143.615 53.9723 143.591C53.8993 142.348 53.9071 141.111 54.029 139.904ZM63.6999 154.106C64.1173 154.922 64.564 155.687 65.0726 156.413L65.0733 156.425C65.7574 157.405 66.5014 158.309 67.2885 159.127C69.9403 161.875 73.0272 163.277 75.7618 163.057L75.9539 163.045C76.5923 162.972 77.2098 162.816 77.8202 162.54C77.8362 162.539 77.8515 162.526 77.8836 162.524C79.9223 161.673 81.7608 159.873 83.1373 157.32C84.0478 155.587 84.7034 153.617 85.0616 151.508L85.0609 151.496C85.2338 150.61 85.342 149.716 85.3833 148.778L85.3826 148.766C85.4121 147.9 85.4249 147.024 85.3722 146.127C85.3175 145.194 85.23 144.252 85.0778 143.301C84.2767 138.14 82.0424 133.472 78.8459 130.204C76.2297 127.514 73.2228 126.107 70.5328 126.265C70.4207 126.272 70.2765 126.28 70.1652 126.299C70.0851 126.303 69.9897 126.321 69.8951 126.351L69.8791 126.352C67.2038 126.761 64.7214 128.814 62.9964 131.999C60.9431 135.887 60.2556 140.871 61.0567 146.031C61.3828 148.027 61.8968 149.941 62.5967 151.736C62.934 152.556 63.302 153.35 63.6999 154.106Z" fill="#7CB2D4"/>
<path d="M92.5458 130.66L244.866 93.1968C256.806 80.1016 253.373 62.6777 237.051 53.4016L235.438 52.4884L85.6435 88.9034L92.5458 130.66Z" fill="white"/>
<path d="M93.5073 133.075L242.997 96.3902C246.022 95.6487 248.579 94.0348 250.045 91.909C259.63 78.1121 255.47 60.611 239.164 51.3578L236.188 49.6608L84.7145 86.4864L86.6042 91.3067L234.705 55.3151L234.937 55.4454C249.515 63.7322 252.834 79.219 242.733 91.0665L91.5848 128.245L93.5073 133.075Z" fill="#7CB2D4"/>
<path d="M91.8601 129.92C92.0522 129.909 92.2284 129.899 92.4198 129.876C96.1227 129.454 99.338 127.022 101.466 123.033C103.68 118.884 104.43 113.597 103.564 108.152C101.879 97.5008 94.2894 89.1997 86.6196 89.65C86.4275 89.6613 86.2513 89.6716 86.0599 89.6949C78.1591 90.5907 73.1561 100.339 74.9153 111.418C76.6011 122.07 84.2063 130.37 91.8601 129.92Z" fill="#E6F9FF"/>
<path d="M86.682 90.4382C86.5219 90.4476 86.3617 90.457 86.2023 90.4784C82.8983 90.8524 79.9935 93.0986 78.0257 96.8016C75.8681 100.828 75.1577 105.969 76.0006 111.294C77.6145 121.542 84.7204 129.548 91.8298 129.13C91.9899 129.121 92.1501 129.112 92.3095 129.09C99.4918 128.273 104.17 118.747 102.527 108.273C100.897 98.0144 93.7914 90.0208 86.682 90.4382ZM86.5886 88.8479C94.8669 88.3619 102.865 96.783 104.634 108.03C106.452 119.561 101.037 129.694 92.5462 130.66C92.3388 130.684 92.1306 130.696 91.9065 130.71C83.6282 131.196 75.6303 122.775 73.8613 111.528C72.0435 99.9965 77.4577 89.864 85.9488 88.8975C86.1563 88.8733 86.3805 88.8602 86.5886 88.8479Z" fill="#7CB2D4"/>
<path d="M73.8573 110.905C74.0455 110.006 74.1683 109.087 74.259 108.169C74.2722 108.121 74.2701 108.085 74.2673 108.037L74.552 107.96L75.2015 107.802L76.9286 107.389C76.9147 107.426 76.9175 107.473 76.9203 107.521C76.9232 107.845 76.9422 108.168 76.9618 108.503C76.9934 109.041 77.0403 109.566 77.1207 110.113L73.8573 110.905ZM74.4227 105.484L74.415 105.353L77.0282 104.707C76.999 104.757 77.0018 104.805 77.0046 104.853C76.9243 105.673 76.9094 106.514 76.9279 107.377L76.9286 107.389L75.2015 107.802L74.552 107.96L74.2673 108.037L74.2666 108.025C74.3616 107.18 74.3932 106.35 74.4227 105.484ZM74.2673 108.037L74.2666 108.025L74.552 107.96L75.2015 107.802L76.9279 107.377L76.9286 107.389C76.9147 107.426 76.9175 107.473 76.9203 107.521L74.259 108.169C74.2722 108.121 74.2701 108.085 74.2673 108.037ZM86.0675 91.4584L86.3522 91.3817L86.5896 91.3198L87.8885 91.0036L87.9206 91.0017L88.2213 90.924L88.3953 90.8778L89.7416 90.5468L91.0092 90.2444L91.4053 90.1492L92.3075 89.9162L92.3235 89.9153L92.3242 89.9272C92.3736 89.9483 92.4391 89.9685 92.4885 89.9896C92.538 90.0107 92.6034 90.0308 92.6536 90.0639C92.9008 90.1693 93.1326 90.2877 93.3813 90.4171C93.8457 90.6658 94.3284 90.9494 94.7803 91.2588C95.0143 91.413 95.2483 91.5673 95.467 91.7344C95.8027 91.9787 96.1231 92.2358 96.4282 92.5059C96.4282 92.5059 96.4609 92.5159 96.4616 92.5279C96.7653 92.774 97.0543 93.045 97.3274 93.3169C98.2969 94.2319 99.1774 95.272 99.9995 96.4116L96.6414 97.2327C93.7134 93.3372 89.9396 91.1831 86.7052 91.373C86.5931 91.3796 86.481 91.3861 86.3703 91.4166C86.2742 91.4223 86.1628 91.4408 86.0682 91.4704C86.0675 91.4584 86.0515 91.4594 86.0515 91.4594L86.0675 91.4584ZM86.0675 91.4584L86.3522 91.3817L86.5896 91.3198L87.8885 91.0036L87.9206 91.0017L88.2213 90.924L88.3953 90.8778L89.7416 90.5468L91.0092 90.2444L91.4053 90.1492L92.3075 89.9162L92.3235 89.9153L92.3242 89.9272C92.3736 89.9483 92.4391 89.9685 92.4885 89.9896C92.538 90.0107 92.6034 90.0308 92.6536 90.0639C92.9008 90.1693 93.1326 90.2877 93.3813 90.4171C93.8457 90.6658 94.3284 90.9494 94.7803 91.2588C95.0143 91.413 95.2483 91.5673 95.467 91.7344C95.8027 91.9787 96.1231 92.2358 96.4282 92.5059C96.4282 92.5059 96.4609 92.5159 96.4616 92.5279C96.7653 92.774 97.0543 93.045 97.3274 93.3169C98.2969 94.2319 99.1774 95.272 99.9995 96.4116C100.035 96.4695 100.071 96.5274 100.106 96.5853C100.332 96.884 100.544 97.2075 100.74 97.5319C100.951 97.8435 101.147 98.1679 101.327 98.5053C101.363 98.5632 101.399 98.6331 101.435 98.7029L98.1408 99.5083C97.6746 98.6838 97.1806 97.9329 96.6414 97.2327C93.7134 93.3372 89.9396 91.1831 86.7052 91.373C86.5931 91.3796 86.481 91.3861 86.3703 91.4166C86.2742 91.4223 86.1628 91.4408 86.0682 91.4704C86.0675 91.4584 86.0515 91.4594 86.0515 91.4594L86.0675 91.4584ZM86.0675 91.4584L86.3522 91.3817L87.8885 91.0036L87.9206 91.0017L88.2213 90.924L88.3953 90.8778L89.7416 90.5468L91.0092 90.2444L91.4053 90.1492L92.3075 89.9162L92.3235 89.9153L92.3242 89.9272C92.3736 89.9483 92.4391 89.9685 92.4885 89.9896C92.538 90.0107 92.6034 90.0308 92.6536 90.0639C92.9008 90.1693 93.1326 90.2877 93.3813 90.4171C93.8457 90.6658 94.3284 90.9494 94.7803 91.2588C95.0143 91.413 95.2483 91.5673 95.467 91.7344C95.8027 91.9787 96.1231 92.2358 96.4282 92.5059C96.4282 92.5059 96.4609 92.5159 96.4616 92.5279C96.7653 92.774 97.0543 93.045 97.3274 93.3169C98.2969 94.2319 99.1774 95.272 99.9995 96.4116C100.035 96.4695 100.071 96.5274 100.106 96.5853C100.332 96.884 100.544 97.2075 100.74 97.5319C100.951 97.8435 101.147 98.1679 101.327 98.5053C101.363 98.5632 101.399 98.6331 101.435 98.7029L98.1408 99.5083C97.6746 98.6838 97.1806 97.9329 96.6414 97.2327C93.7134 93.3372 89.9396 91.1831 86.7052 91.373C86.5931 91.3796 86.481 91.3861 86.3703 91.4166C86.2742 91.4223 86.1628 91.4408 86.0682 91.4704C86.0675 91.4584 86.0515 91.4594 86.0515 91.4594L86.0675 91.4584ZM70.1458 106.527L70.1451 106.515C70.1269 106.48 70.1241 106.432 70.138 106.396C70.1487 105.483 70.2082 104.58 70.3498 103.708L70.3484 103.684C70.4322 102.923 70.5495 102.184 70.7149 101.443L70.7142 101.431C70.7134 101.419 70.7128 101.407 70.7281 101.394C70.842 100.871 70.958 100.384 71.1214 99.8829C71.5307 98.3711 72.1051 96.9335 72.8138 95.5961C73.1025 95.0392 73.4078 94.4934 73.7473 93.9815C74.3227 93.1079 74.9335 92.2921 75.6127 91.5443C75.6892 91.4799 75.7498 91.4163 75.8103 91.3528C75.8096 91.3408 75.8256 91.3399 75.8249 91.3279C75.8548 91.2902 75.9014 91.2634 75.9161 91.2386C77.7475 89.3193 79.9775 87.8926 82.4827 87.0496C82.498 87.0367 82.498 87.0367 82.514 87.0357C82.5453 87.0219 82.5773 87.02 82.6087 87.0062C82.6407 87.0043 82.672 86.9905 82.704 86.9886C83.0361 86.8971 83.3514 86.7946 83.6848 86.727L83.7009 86.7261C83.9383 86.6641 84.1763 86.6142 84.4464 86.5623C84.4785 86.5604 84.5098 86.5466 84.5418 86.5447C84.5738 86.5428 84.6539 86.5381 84.6845 86.5123L84.7005 86.5114C85.0033 86.4696 85.2741 86.4297 85.5777 86.3999C86.3107 86.2969 87.0647 86.2766 87.7895 86.3061C89.4931 86.314 91.1335 86.6136 92.7406 87.1672C92.7566 87.1662 92.7573 87.1782 92.7573 87.1782C93.3965 87.3926 94.0218 87.6439 94.6492 87.931C94.6492 87.931 94.6645 87.9181 94.6659 87.942C94.6819 87.9411 94.7147 87.9511 94.7321 87.9741C95.3268 88.2512 95.9076 88.565 96.4737 88.9037L96.4905 88.9147C97.8248 89.7483 99.1049 90.7529 100.266 91.9206C100.283 91.9316 100.283 91.9316 100.283 91.9436C101.392 93.0303 102.395 94.2552 103.326 95.5924C103.818 96.3194 104.296 97.0712 104.73 97.8856L104.73 97.8976C104.766 97.9555 104.802 98.0253 104.838 98.0952C105.216 98.7809 105.548 99.5053 105.865 100.255C105.916 100.312 105.952 100.369 105.973 100.452L105.973 100.464C106.308 101.236 106.613 102.046 106.871 102.883C107.362 104.414 107.745 105.999 108.002 107.64C108.073 108.032 108.127 108.413 108.166 108.806C108.266 109.676 108.333 110.548 108.335 111.412L108.352 111.687C108.383 112.489 108.365 113.282 108.314 114.065L108.315 114.077C108.321 114.172 108.309 114.245 108.283 114.343L108.283 114.355C108.258 115.292 108.149 116.174 107.976 117.06C107.548 119.617 106.758 122.027 105.615 124.182C105.501 124.428 105.355 124.677 105.207 124.902L105.208 124.914C104.507 126.107 103.703 127.198 102.81 128.126L102.81 128.138C102.221 128.772 101.612 129.348 100.952 129.867C99.6467 130.903 98.2004 131.72 96.6439 132.303C96.6279 132.304 96.6286 132.316 96.6126 132.317L96.5966 132.318C95.4328 132.746 94.2125 133.034 92.9517 133.18C92.6482 133.21 92.36 133.227 92.0717 133.244C90.9189 133.311 89.775 133.259 88.6554 133.072C88.5099 133.057 88.3637 133.03 88.2328 132.989C86.7894 132.762 85.4295 132.314 84.0925 131.709C84.0918 131.697 84.0758 131.698 84.0758 131.698C80.9547 130.261 78.134 127.919 75.8511 124.886C75.7814 124.794 75.7277 124.701 75.6741 124.608C75.6574 124.597 75.6574 124.597 75.6567 124.585C75.1857 123.953 74.7447 123.283 74.319 122.6L74.3169 122.564C74.2827 122.53 74.2646 122.495 74.2305 122.461L74.2298 122.449C74.0319 122.089 73.802 121.73 73.6194 121.357C73.4215 120.997 73.2403 120.647 73.057 120.262L73.0563 120.25C73.0375 120.203 73.0194 120.168 73.0166 120.121L73.0159 120.109C72.6166 119.328 72.2966 118.531 71.9753 117.71C71.8958 117.451 71.817 117.204 71.7382 116.956C71.5451 116.404 71.3666 115.826 71.2201 115.247L71.2194 115.235C70.9146 114.149 70.6899 113.058 70.5104 111.917C70.5062 111.845 70.4714 111.799 70.4672 111.728C70.4399 111.537 70.4134 111.359 70.4015 111.156C70.4015 111.156 70.4015 111.156 70.4008 111.144L70.3965 111.072C70.2779 110.419 70.2239 109.774 70.1874 109.152L70.1804 109.033C70.1313 108.196 70.0981 107.358 70.1458 106.527ZM91.9029 128.178L92.1591 128.163C92.7654 128.092 93.3829 127.936 93.962 127.674C93.978 127.673 93.9773 127.661 93.9933 127.66L94.0093 127.659C94.0253 127.658 94.0574 127.656 94.0727 127.643C96.1121 126.803 97.9499 124.992 99.3265 122.439C99.9191 121.313 100.41 120.096 100.753 118.828C101.038 117.935 101.224 117.001 101.36 116.033C101.372 115.948 101.383 115.876 101.409 115.766L101.408 115.754C101.491 114.969 101.555 114.15 101.587 113.32C101.598 113.235 101.594 113.176 101.589 113.092L101.589 113.08C101.602 112.215 101.583 111.34 101.498 110.446C101.459 109.776 101.371 109.097 101.266 108.407C101.057 107.04 100.723 105.716 100.328 104.467C100.053 103.619 99.7652 102.82 99.4147 102.049C99.3944 101.978 99.3756 101.931 99.3401 101.874L99.3394 101.862C99.0215 101.1 98.6417 100.379 98.232 99.6949C98.2285 99.6351 98.193 99.5772 98.1415 99.5202L98.1408 99.5083C97.6746 98.6838 97.1806 97.9329 96.6414 97.2327C93.7134 93.3372 89.9396 91.1831 86.7052 91.373C86.5931 91.3796 86.481 91.3861 86.3703 91.4166C86.2742 91.4223 86.1628 91.4408 86.0682 91.4704C86.0675 91.4584 86.0515 91.4594 86.0515 91.4594C86.0355 91.4603 86.0201 91.4732 86.0041 91.4741L85.9881 91.4751C85.622 91.5326 85.2572 91.614 84.9112 91.7423C84.8799 91.7561 84.8799 91.7561 84.8639 91.757C81.5269 92.9368 78.5984 96.6963 77.4286 101.948L77.4293 101.96C77.2557 102.834 77.1008 103.755 77.0282 104.707C76.999 104.757 77.0018 104.805 77.0046 104.853C76.9243 105.673 76.9094 106.514 76.9279 107.377L76.9286 107.389C76.9147 107.426 76.9175 107.473 76.9203 107.521C76.9232 107.845 76.9422 108.168 76.9618 108.503C76.9934 109.041 77.0403 109.566 77.1207 110.113C77.141 110.46 77.1767 110.794 77.2458 111.15C77.5258 112.909 77.9444 114.564 78.5167 116.102C78.8074 116.949 79.1587 117.732 79.5093 118.504L79.51 118.516C79.5448 118.562 79.5643 118.62 79.5991 118.666C79.949 119.426 80.3608 120.145 80.8025 120.827L80.8032 120.839C80.8381 120.885 80.8576 120.944 80.9084 120.989L80.9091 121.001C81.4394 121.822 81.9967 122.557 82.5839 123.254C85.4149 126.592 88.894 128.379 91.9029 128.178ZM86.0675 91.4584L86.3522 91.3817L86.5896 91.3198L87.8885 91.0036L87.9206 91.0017L88.2213 90.924L88.3953 90.8778L89.7416 90.5468L91.0092 90.2444L91.4053 90.1492L92.3075 89.9162L92.3235 89.9153L92.3242 89.9272C92.3736 89.9483 92.4391 89.9685 92.4885 89.9896C92.538 90.0107 92.6034 90.0308 92.6536 90.0639C92.9008 90.1693 93.1326 90.2877 93.3813 90.4171C93.8457 90.6658 94.3284 90.9494 94.7803 91.2588C95.0143 91.413 95.2483 91.5673 95.467 91.7344C95.8027 91.9787 96.1231 92.2358 96.4282 92.5059C96.4282 92.5059 96.4609 92.5159 96.4616 92.5279C96.7653 92.774 97.0543 93.045 97.3274 93.3169C98.2969 94.2319 99.1774 95.272 99.9995 96.4116C100.035 96.4695 100.071 96.5274 100.106 96.5853C100.332 96.884 100.544 97.2075 100.74 97.5319C100.951 97.8435 101.147 98.1679 101.327 98.5053C101.363 98.5632 101.399 98.6331 101.435 98.7029L98.1408 99.5083C97.6746 98.6838 97.1806 97.9329 96.6414 97.2327C93.7134 93.3372 89.9396 91.1831 86.7052 91.373C86.5931 91.3796 86.481 91.3861 86.3703 91.4166C86.2742 91.4223 86.1628 91.4408 86.0682 91.4704C86.0675 91.4584 86.0515 91.4594 86.0515 91.4594L86.0675 91.4584ZM86.0675 91.4584L86.3522 91.3817L86.5896 91.3198L87.8885 91.0036L87.9206 91.0017L88.2213 90.924L88.3953 90.8778L89.7416 90.5468L91.0092 90.2444L91.4053 90.1492L92.3075 89.9162L92.3235 89.9153L92.3242 89.9272C92.3736 89.9483 92.4391 89.9685 92.4885 89.9896C92.538 90.0107 92.6034 90.0308 92.6536 90.0639C92.9008 90.1693 93.1326 90.2877 93.3813 90.4171C93.8457 90.6658 94.3284 90.9494 94.7803 91.2588C95.0143 91.413 95.2483 91.5673 95.467 91.7344C95.8027 91.9787 96.1231 92.2358 96.4282 92.5059C96.4282 92.5059 96.4609 92.5159 96.4616 92.5279C96.7653 92.774 97.0543 93.045 97.3274 93.3169C98.2969 94.2319 99.1774 95.272 99.9995 96.4116C100.035 96.4695 100.071 96.5274 100.106 96.5853C100.332 96.884 100.544 97.2075 100.74 97.5319C100.951 97.8435 101.147 98.1679 101.327 98.5053C101.363 98.5632 101.399 98.6331 101.435 98.7029L98.1408 99.5083C97.6746 98.6838 97.1806 97.9329 96.6414 97.2327C93.7134 93.3372 89.9396 91.1831 86.7052 91.373C86.5931 91.3796 86.481 91.3861 86.3703 91.4166C86.2742 91.4223 86.1628 91.4408 86.0682 91.4704C86.0675 91.4584 86.0515 91.4594 86.0515 91.4594L86.0675 91.4584ZM86.3522 91.3817L86.5896 91.3198L87.8885 91.0036L87.9206 91.0017L88.2213 90.924L88.3953 90.8778L89.7416 90.5468L91.0092 90.2444L91.4053 90.1492L92.3075 89.9162L92.3555 89.9134C92.405 89.9345 92.4384 89.9565 92.4885 89.9896C92.538 90.0107 92.6034 90.0308 92.6536 90.0639C92.9008 90.1693 93.1326 90.2877 93.3813 90.4171C93.8457 90.6658 94.3284 90.9494 94.7803 91.2588C95.0143 91.413 95.2483 91.5673 95.467 91.7344C95.8027 91.9787 96.1231 92.2358 96.4282 92.5059C96.4282 92.5059 96.4609 92.5159 96.4616 92.5279C96.7653 92.774 97.0543 93.045 97.3274 93.3169C98.2969 94.2319 99.1774 95.272 99.9995 96.4116L96.6414 97.2327C93.7134 93.3372 89.9396 91.1831 86.7052 91.373C86.5931 91.3796 86.481 91.3861 86.3703 91.4166C86.2742 91.4223 86.1628 91.4408 86.0682 91.4704L86.0668 91.4465L86.3522 91.3817ZM74.2673 108.037L74.552 107.96L75.2015 107.802L76.9286 107.389C76.9147 107.426 76.9175 107.473 76.9203 107.521L74.259 108.169C74.2722 108.121 74.2701 108.085 74.2673 108.037Z" fill="#7CB2D4"/>
<path d="M54.9249 132.444C52.7092 132.036 51.6943 129.603 52.6581 127.009C53.622 124.416 56.1995 122.644 58.4153 123.052C60.631 123.459 61.6459 125.892 60.6821 128.486C59.7182 131.079 57.1407 132.851 54.9249 132.444Z" fill="#7CB2D4"/>
<path d="M69.8624 124.39C67.6467 123.982 66.6318 121.55 67.5956 118.956C68.5594 116.362 71.137 114.59 73.3528 114.998C75.5685 115.406 76.5834 117.839 75.6196 120.432C74.6557 123.026 72.0782 124.798 69.8624 124.39Z" fill="#7CB2D4"/>
<path d="M70.8624 99.8334C68.6467 99.4258 67.6318 96.9929 68.5956 94.3993C69.5595 91.8058 72.137 90.0338 74.3528 90.4414C76.5685 90.849 77.5834 93.2819 76.6196 95.8754C75.6557 98.469 73.0782 100.241 70.8624 99.8334Z" fill="#7CB2D4"/>
<path d="M52.3653 155.595C50.1496 155.187 49.1347 152.754 50.0985 150.161C51.0624 147.567 53.6399 145.795 55.8557 146.203C58.0714 146.61 59.0863 149.043 58.1225 151.637C57.1587 154.23 54.5811 156.002 52.3653 155.595Z" fill="#7CB2D4"/>
<path d="M94.7582 75.8303L231.824 43.1862L231.88 43.0389C235.392 32.2503 230.082 21.1757 218.296 14.7407L77.7799 48.5472L78.548 49.0421C88.9344 55.7272 94.8402 65.459 94.7582 75.8303Z" fill="#7CB2D4"/>
<path d="M110.098 114.355L243.094 81.8903C246.542 71.1054 243.26 59.8277 231.668 53.3934L93.3448 87.0711L94.0969 87.5669C104.355 94.2595 112.114 101.063 111.252 114.3L110.099 114.367L110.098 114.355Z" fill="#7CB2D4"/>
<path d="M93.5506 153.241L233.162 119.884C236.463 114.267 236.291 105.866 231.734 98.0349L226.393 99.0084L87.076 133.272L87.8281 133.768C96.5119 141.009 93.5506 153.241 93.5506 153.241Z" fill="#7CB2D4"/>
<path d="M92.9863 25.6855L98.2935 24.4021L98.3938 24.4682C99.1467 24.9759 99.8988 25.4716 100.62 25.9812C100.787 26.1034 100.971 26.2245 101.139 26.3467C101.34 26.4789 101.524 26.612 101.71 26.7571C102.446 27.2658 103.168 27.7873 103.89 28.3208C106.326 30.1335 108.705 32.0576 111.007 34.0581L111.024 34.0691C111.024 34.0691 111.024 34.0691 111.025 34.081L111.042 34.0921L112.194 35.1043L112.855 35.6894L113.466 36.2534L114.401 37.1224C114.776 37.4843 115.15 37.8462 115.558 38.2302C115.644 38.3212 115.73 38.4121 115.831 38.5021C116.07 38.7401 116.326 38.989 116.549 39.2279C116.94 39.6009 117.3 39.9757 117.676 40.3616C119.455 42.2008 121.104 44.0237 122.59 45.7842C123.054 46.3089 123.503 46.8345 123.936 47.3729C124.143 47.6127 124.351 47.8765 124.559 48.1282L124.803 48.4499C124.993 48.6787 125.168 48.9204 125.359 49.1611L126.767 50.9742C126.976 51.2618 127.185 51.5375 127.378 51.8142C129.037 54.0684 130.447 56.1933 131.674 58.209C131.779 58.3588 131.852 58.4985 131.94 58.6373C132.082 58.8569 132.206 59.0656 132.348 59.2852C132.418 59.3891 132.473 59.4939 132.543 59.5977C132.774 59.9801 132.99 60.3634 133.204 60.7347L133.24 60.7927C133.294 60.8974 133.364 60.9893 133.419 61.1061L133.473 61.2109C133.546 61.3506 133.617 61.4784 133.69 61.6181C133.76 61.722 133.814 61.8148 133.868 61.9196C134.084 62.3148 134.3 62.7101 134.5 63.1063C134.589 63.2451 134.713 63.4418 134.791 63.6771C134.845 63.77 134.899 63.8748 134.937 63.9685C134.99 64.0614 135.044 64.1542 135.098 64.259C135.405 64.8409 135.712 65.4108 136.004 66.0056L136.005 66.0175C137.077 68.1382 138.04 70.3134 138.924 72.4932L139.168 73.1027L139.224 73.2314L139.413 73.7123C139.603 74.2051 139.792 74.6979 139.966 75.1916C140.003 75.2734 140.042 75.3911 140.082 75.5208C140.098 75.5318 140.1 75.5557 140.1 75.5676C140.118 75.6026 140.12 75.6265 140.138 75.6614L140.139 75.6734C140.388 76.3666 140.638 77.0599 140.856 77.7669C140.894 77.8607 140.913 77.9196 140.916 77.9674C140.933 77.9904 140.934 78.0023 140.935 78.0143C140.936 78.0382 140.954 78.0731 140.956 78.097L140.957 78.109C141.793 80.5915 142.507 83.1772 143.112 85.8053C143.151 85.923 143.174 86.0416 143.197 86.1603L143.375 87.0017C143.465 87.4404 143.571 87.8781 143.661 88.3167C143.683 88.4234 143.705 88.5301 143.728 88.6367C143.73 88.6846 143.749 88.7195 143.751 88.7673L143.943 89.8359C144.011 90.1799 144.063 90.5128 144.114 90.8457C144.137 90.9524 144.159 91.0591 144.181 91.1657C144.185 91.2255 144.204 91.2844 144.208 91.3441C144.231 91.4628 144.255 91.5934 144.279 91.7359C144.383 92.4017 144.485 93.0556 144.572 93.7104C144.603 93.9606 144.633 94.1988 144.663 94.4489C144.877 96.1761 145.045 97.942 145.149 99.7117C145.179 99.9499 145.193 100.189 145.207 100.428L145.226 100.751C145.257 101.277 145.288 101.803 145.302 102.318C145.31 102.45 145.317 102.569 145.309 102.702C145.322 102.929 145.335 103.156 145.332 103.372C145.361 103.587 145.355 103.767 145.345 103.876C145.366 104.234 145.372 104.594 145.361 104.954C145.368 105.086 145.376 105.218 145.367 105.338C145.375 105.482 145.367 105.614 145.375 105.746C145.367 105.89 145.376 106.033 145.368 106.178L145.368 106.454C145.359 106.562 145.365 106.67 145.339 106.779C145.347 107.187 145.338 107.583 145.345 107.979L145.346 107.991C145.327 108.496 145.308 108.989 145.272 109.471C145.19 111.36 145.059 113.227 144.835 115.16C144.788 115.727 144.725 116.294 144.647 116.875L144.626 117.068C144.593 117.334 144.545 117.601 144.513 117.878C144.457 118.302 144.387 118.75 144.317 119.198C144.266 119.429 144.216 119.672 144.166 119.914C144.133 120.168 144.1 120.422 144.05 120.677C143.948 121.403 143.814 122.131 143.664 122.848C143.045 125.991 142.221 129.195 141.204 132.399C140.907 133.364 140.593 134.318 140.248 135.274L140.249 135.286C139.904 136.266 139.544 137.247 139.166 138.193C139.137 138.255 139.124 138.304 139.096 138.366C138.72 139.359 138.339 140.258 137.987 141.094L137.816 141.476C137.617 141.92 137.434 142.362 137.22 142.807C136.354 144.754 135.408 146.705 134.365 148.638C133.83 149.665 133.263 150.682 132.664 151.689C132.505 151.999 132.315 152.31 132.14 152.62C131.702 153.366 131.262 154.087 130.806 154.798L124.787 156.279L122.142 156.926C122.826 155.986 123.505 154.975 124.196 153.878C124.226 153.84 124.255 153.791 124.269 153.754C124.918 152.756 125.535 151.772 126.134 150.753C126.148 150.716 126.178 150.69 126.192 150.653L126.191 150.642C127.361 148.665 128.433 146.67 129.424 144.669C130.114 143.296 130.757 141.927 131.367 140.547L131.564 140.068L131.563 140.056C131.989 139.095 132.383 138.148 132.773 137.129C132.772 137.117 132.772 137.117 132.788 137.104C133.15 136.159 133.527 135.201 133.871 134.209L133.87 134.197C135.26 130.228 136.36 126.252 137.113 122.38L137.112 122.368C137.127 122.343 137.141 122.307 137.139 122.283C137.241 121.821 137.326 121.36 137.395 120.9C137.469 120.512 137.527 120.124 137.584 119.737L137.623 119.579L137.646 119.421C137.806 118.596 137.918 117.762 138.03 116.927L138.056 116.818L138.067 116.745C138.373 114.291 138.575 111.976 138.677 109.606C138.674 109.558 138.686 109.498 138.683 109.45C138.737 108.727 138.761 108.03 138.753 107.358C138.761 107.214 138.753 107.082 138.761 106.938L138.718 106.76L138.74 106.591L138.777 106.385C138.783 105.677 138.791 104.992 138.767 104.298L138.755 104.095L138.735 104.036L138.729 103.94L138.734 103.736C138.735 102.932 138.704 102.13 138.656 101.317L138.626 100.815C138.517 98.9612 138.345 97.1116 138.124 95.2768C138.12 95.2051 138.1 95.1343 138.096 95.0625C137.999 94.2403 137.887 93.431 137.782 92.7293L137.781 92.7173C137.764 92.6944 137.762 92.6704 137.761 92.6465C137.758 92.5867 137.738 92.5279 137.735 92.4681L137.732 92.4203L137.668 92.1601C137.59 91.6487 137.496 91.1503 137.419 90.6509L137.328 90.2003L137.328 90.1883L137.302 90.0338C137.3 89.986 137.281 89.9391 137.277 89.8793C137.257 89.8085 137.253 89.7368 137.233 89.666L137.208 89.5235C137.097 89.002 136.986 88.4806 136.875 87.9592L136.744 87.367L136.697 87.1178C136.114 84.5724 135.436 82.0566 134.656 79.7147L134.588 79.6468L134.485 79.5448L134.434 79.4878L134.404 78.9737C134.224 78.3843 134.014 77.8087 133.819 77.2203C133.818 77.2083 133.818 77.2083 133.801 77.1973C133.798 77.1495 133.78 77.1145 133.761 77.0677C133.759 77.0198 133.741 76.9849 133.722 76.938L133.63 76.7514C133.455 76.2337 133.265 75.729 133.074 75.2123L132.904 74.7783L132.903 74.7664L132.864 74.6487L132.846 74.6138C132.757 74.463 132.735 74.3563 132.718 74.3453C131.811 72.0349 130.777 69.744 129.65 67.5185C129.359 66.9357 129.052 66.3658 128.746 65.8078C128.708 65.7021 128.654 65.6092 128.6 65.5164C128.6 65.5044 128.583 65.4934 128.582 65.4815L128.366 65.0862L128.365 65.0623C128.092 64.5264 127.804 63.9914 127.484 63.4702C127.446 63.3765 127.392 63.2717 127.338 63.1788C127.321 63.1559 127.303 63.1209 127.286 63.098L127.248 63.0042C127.196 62.9472 127.16 62.8774 127.124 62.8075L126.892 62.4132C126.642 61.9839 126.392 61.5666 126.127 61.1503C126.072 61.0455 126.019 60.9527 125.949 60.8608C125.948 60.8488 125.932 60.8378 125.931 60.8258L125.718 60.4784C124.402 58.312 122.905 56.0842 121.143 53.716L120.899 53.3944L120.603 53.0038C120.149 52.3826 119.664 51.7752 119.178 51.1678C119.074 51.0299 118.97 50.9041 118.866 50.7782L118.449 50.2387C118.086 49.8161 117.74 49.3925 117.361 48.9588C117.257 48.8209 117.136 48.684 117.016 48.5471C115.22 46.4209 113.178 44.2131 110.96 42.0037C110.839 41.8668 110.686 41.7198 110.549 41.5839C110.294 41.3349 110.039 41.0979 109.784 40.8609C109.579 40.657 109.358 40.454 109.154 40.25L108.747 39.89L106.574 37.9059L106.15 37.5228L106.149 37.5109L106.132 37.4998L106.115 37.4888L105.929 37.3318C105.709 37.1407 105.489 36.9497 105.27 36.7706C102.512 34.4009 99.6333 32.1702 96.6672 30.0887C96.4659 29.9446 96.2639 29.7885 96.0467 29.6452C95.5104 29.2688 94.9588 28.9052 94.4066 28.5297L93.8048 28.1331L93.169 27.7025C92.4002 27.1957 91.616 26.7018 90.8158 26.2089L92.9863 25.6855Z" fill="#005497"/>
<path d="M158.205 9.83399L162.672 8.74383L163.928 9.60597C164.447 9.97141 164.967 10.3368 165.471 10.7152C165.671 10.8354 165.839 10.9695 165.991 11.0926C166.729 11.6252 167.452 12.1587 168.159 12.7051C170.327 14.3415 172.454 16.0764 174.552 17.8849L176.416 19.5272L176.484 19.5952L177.811 20.8371L177.878 20.8931C178.339 21.346 178.815 21.798 179.325 22.2839C179.445 22.4089 179.564 22.5219 179.684 22.6468C180.06 23.0207 180.435 23.3946 180.795 23.7695C181.136 24.1094 181.461 24.4502 181.77 24.792C183.362 26.4503 184.839 28.0673 186.169 29.645C186.842 30.4454 187.498 31.2227 188.14 32.0249L188.435 32.3916C188.609 32.6213 188.782 32.8391 188.956 33.0688L190.382 34.9049C192.318 37.5147 193.971 39.9374 195.36 42.2435C195.465 42.3933 195.537 42.533 195.626 42.6718C195.82 42.9723 196.015 43.2729 196.194 43.5863C196.283 43.737 196.373 43.8997 196.478 44.0495C196.605 44.2941 196.748 44.5496 196.891 44.7932L196.926 44.8391C196.996 44.943 197.051 45.0478 197.122 45.1636L197.159 45.2574C197.285 45.478 197.41 45.6986 197.52 45.9201C197.609 46.0708 197.698 46.2216 197.772 46.3852C197.932 46.6518 198.076 46.9193 198.221 47.1868C198.309 47.3255 198.433 47.5222 198.512 47.7696C198.602 47.9323 198.692 48.095 198.766 48.2706C198.856 48.4213 198.945 48.572 199.018 48.7237C199.363 49.3994 199.708 50.075 200.037 50.7635C201.003 52.6986 201.874 54.6751 202.682 56.6674L202.982 57.4057L203.096 57.7109L203.209 57.9803C203.381 58.4501 203.57 58.9309 203.743 59.4127L203.939 59.7491L203.951 59.9524C203.971 60.0113 203.989 60.0581 204.009 60.117L204.01 60.1289C204.223 60.7523 204.436 61.3757 204.635 62.0239C204.671 62.0938 204.689 62.1287 204.69 62.1407L204.73 62.2703L204.731 62.2823C204.768 62.3761 204.79 62.4708 204.828 62.5765C205.685 65.1298 206.405 67.8112 207.014 70.523L207.209 71.3755C207.34 71.9677 207.471 72.5599 207.586 73.153L207.782 74.2934C207.875 74.7918 207.952 75.2792 208.03 75.7786C208.068 75.8843 208.092 76.0149 208.117 76.1694C208.268 77.0964 208.401 78.0005 208.502 78.9064C208.714 80.5977 208.879 82.3158 208.995 84.0127C209.029 84.3227 209.048 84.6455 209.067 84.9564L209.087 85.3031C209.113 85.7456 209.139 86.188 209.148 86.6194C209.143 86.8116 209.155 87.0029 209.149 87.1832C209.164 87.4463 209.179 87.6974 209.178 87.9494C209.207 88.1757 209.201 88.344 209.191 88.4525C209.207 88.7156 209.207 88.9916 209.206 89.2555C209.217 89.4349 209.212 89.6272 209.207 89.8075L209.207 89.8194C209.214 89.939 209.22 90.0346 209.211 90.1551L209.212 90.1671C209.224 90.3823 209.22 90.5865 209.216 90.7908L209.217 91.0787C209.207 91.1872 209.197 91.2838 209.187 91.3924C209.192 91.752 209.197 92.1117 209.186 92.4603C209.171 93.0251 209.155 93.5779 209.122 94.1198C209.049 95.8758 208.926 97.6228 208.744 99.4333C208.657 100.146 208.588 100.882 208.486 101.62L208.466 101.813C208.454 101.886 208.441 101.947 208.429 102.019C208.43 102.031 208.431 102.043 208.431 102.043C208.434 102.091 208.42 102.128 208.422 102.164C208.352 102.624 208.282 103.06 208.21 103.484C208.153 103.883 208.08 104.283 208.007 104.684C207.997 104.78 207.987 104.889 207.961 104.986C207.825 105.954 207.654 106.876 207.492 107.666C206.674 111.793 205.509 116.037 204.037 120.251C203.886 120.691 203.735 121.12 203.582 121.537C203.317 122.225 203.065 122.851 202.87 123.355C202.48 124.385 202.101 125.308 201.718 126.182L201.577 126.514C201.436 126.858 201.279 127.192 201.123 127.537C200.327 129.311 199.468 131.101 198.559 132.858C198.04 133.873 197.489 134.877 196.921 135.882C196.573 136.527 196.21 137.172 195.829 137.806C195.595 138.204 195.345 138.59 195.11 138.976L195.111 138.988L188.284 140.661L186.431 141.117C186.89 140.455 187.332 139.769 187.773 139.071C188.008 138.697 188.244 138.335 188.479 137.962C188.921 137.276 189.331 136.604 189.74 135.908C189.945 135.56 190.15 135.224 190.323 134.878C191.374 133.076 192.344 131.268 193.232 129.428L193.232 129.416C193.88 128.142 194.479 126.859 195.031 125.579L195.244 125.098C195.357 124.84 195.47 124.581 195.583 124.31C195.865 123.634 196.16 122.921 196.466 122.111C196.564 121.865 196.662 121.619 196.76 121.374C197.039 120.65 197.317 119.913 197.578 119.166C197.661 118.933 197.744 118.7 197.811 118.469C199.128 114.636 200.157 110.82 200.887 107.094C200.911 106.96 200.936 106.839 200.96 106.705C201.059 106.208 201.158 105.698 201.241 105.201C201.276 104.971 201.311 104.753 201.346 104.523L201.391 104.184C201.417 104.087 201.427 103.978 201.453 103.881L201.452 103.869C201.526 103.481 201.583 103.081 201.655 102.669L201.654 102.657C201.7 102.342 201.745 102.004 201.789 101.665L201.81 101.484C201.819 101.364 201.844 101.242 201.853 101.122C202.105 99.1151 202.282 97.197 202.394 95.2827L202.394 95.2707C202.419 94.8853 202.444 94.4879 202.454 94.1034L202.453 94.0914C202.503 93.2966 202.522 92.5276 202.527 91.7954C202.522 91.7117 202.534 91.639 202.529 91.5553L202.507 91.4487L202.486 91.3779L202.544 90.9905L202.538 90.8949C202.552 90.5821 202.551 90.2942 202.549 89.9824L202.548 89.9704C202.542 89.5869 202.535 89.1913 202.528 88.8078L202.521 88.6882L202.501 88.6174L202.499 88.3175L202.496 88.2578C202.494 87.406 202.46 86.5441 202.41 85.6952L202.389 85.3484C202.276 83.4233 202.097 81.4661 201.855 79.5366C201.756 78.6666 201.642 77.8214 201.519 77.0848C201.499 77.0259 201.496 76.9661 201.475 76.8953L201.41 76.5992C201.348 76.0989 201.255 75.6124 201.178 75.1131L201.059 74.4482C201.019 74.3305 200.996 74.1999 200.972 74.0693L200.948 73.9268C200.853 73.4044 200.725 72.872 200.613 72.3386L200.435 71.4972C199.87 68.9867 199.195 66.5187 198.413 64.141C198.41 64.0932 198.391 64.0463 198.372 63.9994L198.236 63.8634L198.15 63.7725L198.119 63.2464C197.96 62.7158 197.785 62.2101 197.594 61.6934L197.594 61.6815C197.556 61.5877 197.534 61.493 197.497 61.3992C197.476 61.3284 197.441 61.2705 197.421 61.1997L197.345 61.0002C197.17 60.4945 196.981 60.0017 196.79 59.497L196.697 59.2745L196.583 58.9812L196.526 58.8286C196.454 58.6888 196.415 58.5712 196.394 58.4884C195.548 56.4023 194.623 54.321 193.604 52.2931C193.275 51.6165 192.931 50.9529 192.57 50.2901C192.497 50.1384 192.424 49.9867 192.336 49.848C192.299 49.7661 192.261 49.6724 192.208 49.5915L192.008 49.1953L192.006 49.1594C191.789 48.7522 191.573 48.345 191.341 47.9507C191.251 47.7999 191.178 47.6482 191.089 47.4975C191.035 47.3927 190.964 47.2889 190.91 47.1841L190.515 46.4754L190.514 46.4634C190.337 46.1858 190.176 45.9073 189.999 45.6298C189.91 45.479 189.821 45.3283 189.716 45.1785C189.662 45.0856 189.592 44.9818 189.538 44.889L189.323 44.5176C187.972 42.3053 186.441 40.0315 184.627 37.5944L184.156 36.9622C183.581 36.204 182.974 35.4478 182.384 34.7025L181.969 34.187C181.501 33.6145 181.018 33.043 180.501 32.4494C178.86 30.4941 177.006 28.4792 174.99 26.4379C174.665 26.0971 174.323 25.7452 173.982 25.4053C173.966 25.4062 173.965 25.3943 173.965 25.3943C173.573 25.0213 173.199 24.6713 172.825 24.3094C172.74 24.2304 172.654 24.1394 172.569 24.0604L170.839 22.5063L169.498 21.2892L169.481 21.2662L169.346 21.1541C166.636 18.7936 163.806 16.5601 160.904 14.4748C160.383 14.0855 159.846 13.6971 159.293 13.3096C159.092 13.1654 158.874 13.0222 158.657 12.879C158.489 12.7569 158.289 12.6366 158.105 12.5035C157.77 12.2712 157.419 12.0398 157.068 11.8085L156.382 11.3448C155.981 11.0804 155.564 10.8289 155.148 10.5774L158.205 9.83399Z" fill="#005497"/>
<path d="M42.1577 75.3551C43.9295 75.1551 45.514 73.6822 46.5168 71.3317C47.6044 68.7842 47.8938 65.5037 47.3568 62.1037C46.3078 55.4583 42.3063 50.246 38.4313 50.4735L38.2232 50.4858C36.4514 50.6858 34.8669 52.1586 33.8641 54.5091C32.7765 57.0566 32.4871 60.3371 33.0242 63.7371C34.0731 70.3826 38.0746 75.5948 41.9496 75.3673L42.1577 75.3551Z" fill="#A9D6EA"/>
<path d="M38.4815 51.0582C38.4334 51.061 38.3854 51.0638 38.3213 51.0676C36.9012 51.235 35.5178 52.576 34.6284 54.6679C33.5846 57.1409 33.2895 60.3257 33.8217 63.642C34.8943 70.418 38.9519 74.9431 41.9142 74.7692C41.9622 74.7663 42.0103 74.7635 42.0743 74.7598C45.0908 74.4147 47.6473 68.9733 46.5747 62.1973C45.502 55.4213 41.4437 50.8843 38.4815 51.0582ZM38.4112 49.8625C42.7185 49.6096 47.0494 54.9585 48.1703 62.0076C49.2995 69.2003 46.6612 75.4383 42.2559 75.9369C42.1598 75.9426 42.0805 75.9592 41.9844 75.9649C37.6771 76.2178 33.3462 70.8689 32.2254 63.8197C31.0961 56.6271 33.7344 50.389 38.1397 49.8904C38.2198 49.8857 38.3152 49.8681 38.4112 49.8625Z" fill="#7CB2D4"/>
<path d="M25.775 108.58C29.6533 108.137 32.0446 102.069 30.99 95.3279C29.9411 88.6825 25.9396 83.4702 22.0646 83.6977L21.8565 83.7099C20.0847 83.91 18.5002 85.3828 17.4974 87.7333C16.4098 90.2808 16.1204 93.5613 16.6575 96.9613C17.7064 103.607 21.7079 108.819 25.5829 108.592L25.775 108.58Z" fill="#A9D6EA"/>
<path d="M22.0996 84.2838C22.0516 84.2866 22.0036 84.2894 21.9395 84.2932C20.5193 84.4605 19.136 85.8016 18.2465 87.8935C17.2028 90.3664 16.9077 93.5513 17.4398 96.8676C18.5125 103.644 22.5701 108.169 25.5323 107.995C25.5804 107.992 25.6284 107.989 25.6925 107.985C27.1126 107.818 28.496 106.477 29.3854 104.385C30.4292 101.912 30.7243 98.7272 30.1921 95.4109C29.1195 88.6349 25.0779 84.1089 22.0996 84.2838ZM22.0294 83.0881C26.3367 82.8352 30.6676 88.1841 31.7884 95.2332C32.9177 102.426 30.2794 108.664 25.874 109.163C25.778 109.168 25.6986 109.185 25.6025 109.19C21.2953 109.443 16.9644 104.094 15.8435 97.0453C14.7143 89.8526 17.3526 83.6146 21.7579 83.116C21.8533 83.0984 21.9494 83.0928 22.0294 83.0881Z" fill="#7CB2D4"/>
<path d="M57.2608 115.311C59.0325 115.111 60.617 113.638 61.6198 111.287C62.7074 108.74 62.9968 105.459 62.4598 102.059C61.4108 95.4139 57.4093 90.2016 53.5344 90.4291L53.3262 90.4413C49.4479 90.885 47.0566 96.9525 48.1112 103.694C49.1601 110.339 53.1617 115.551 57.0366 115.324L57.2608 115.311Z" fill="#A9D6EA"/>
<path d="M53.585 91.0137C53.5369 91.0166 53.4889 91.0194 53.4249 91.0231C50.4084 91.3682 47.8518 96.8096 48.9245 103.586C49.9971 110.362 54.0387 114.888 57.017 114.713C57.065 114.71 57.1131 114.707 57.1771 114.703C58.5973 114.536 59.9807 113.195 60.8701 111.103C61.9139 108.63 62.2089 105.445 61.6768 102.129C60.6055 95.3768 56.5472 90.8398 53.585 91.0137ZM53.5148 89.818C57.822 89.5651 62.1529 94.914 63.2738 101.963C64.4031 109.156 61.7647 115.394 57.3594 115.892C57.2633 115.898 57.184 115.915 57.0879 115.92C52.7806 116.173 48.4497 110.824 47.3289 103.775C46.1996 96.5826 48.8379 90.3446 53.2433 89.846C53.3233 89.8413 53.4187 89.8237 53.5148 89.818Z" fill="#7CB2D4"/>
<path d="M91.2949 122.203C93.0667 122.003 94.6512 120.53 95.654 118.179C96.7416 115.632 97.031 112.351 96.494 108.951C95.445 102.306 91.4435 97.0937 87.5685 97.3212L87.3604 97.3334C83.4661 97.778 81.0908 103.845 82.1454 110.586C83.1943 117.231 87.1958 122.443 91.0708 122.216L91.2949 122.203Z" fill="#A9D6EA"/>
<path d="M87.6192 97.9183C87.5711 97.9211 87.5231 97.9239 87.459 97.9277C86.0389 98.0951 84.6555 99.4361 83.7661 101.528C82.7223 104.001 82.4272 107.186 82.9594 110.502C84.032 117.278 88.0896 121.803 91.0519 121.629C91.0999 121.626 91.1479 121.624 91.212 121.62C94.2285 121.275 96.785 115.833 95.7124 109.057C94.639 102.269 90.5814 97.7444 87.6192 97.9183ZM87.549 96.7226C91.8562 96.4697 96.1871 101.819 97.308 108.868C98.4372 116.06 95.7989 122.298 91.3936 122.797C91.2975 122.803 91.2181 122.819 91.1221 122.825C86.8148 123.078 82.4839 117.729 81.3631 110.68C80.2338 103.487 82.8721 97.2491 87.2775 96.7505C87.3568 96.7339 87.4529 96.7282 87.549 96.7226Z" fill="#7CB2D4"/>
<path d="M75.4379 157.809C77.2096 157.609 78.7739 156.065 79.7697 153.595C80.8336 150.917 81.1124 147.457 80.5489 143.879C79.3463 136.259 74.8972 131.36 71.5026 131.56L71.2945 131.572C67.4162 132.016 65.0752 138.392 66.2002 145.513C67.4028 153.133 71.8519 158.031 75.2464 157.832L75.4379 157.809Z" fill="#A9D6EA"/>
<path d="M71.5211 132.146C71.4731 132.149 71.425 132.152 71.377 132.155C69.9721 132.309 68.5936 133.734 67.7266 135.932C66.6905 138.537 66.422 141.9 66.9814 145.407C68.11 152.588 72.2164 157.398 75.1947 157.223C75.2427 157.22 75.2908 157.217 75.3388 157.214C78.3553 156.869 80.8622 151.131 79.7344 143.962C78.6051 136.77 74.4994 131.971 71.5211 132.146ZM71.4509 130.95C75.7742 130.697 80.1553 136.355 81.3307 143.784C82.5304 151.357 79.9264 157.905 75.5211 158.403C75.441 158.408 75.3456 158.426 75.2656 158.43C70.9423 158.684 66.5611 153.026 65.3858 145.597C64.186 138.024 66.7901 131.476 71.1954 130.977C71.2908 130.96 71.3708 130.955 71.4509 130.95Z" fill="#7CB2D4"/>
<path d="M40.6435 152.461C44.1069 152.066 46.9857 146.365 45.7378 138.52C44.5352 130.9 40.0861 126.001 36.6915 126.201L36.4834 126.213C33.02 126.608 30.1412 132.309 31.3891 140.154C32.5917 147.774 37.0408 152.672 40.4353 152.473L40.6435 152.461Z" fill="#A9D6EA"/>
<path d="M36.7425 126.798C36.6945 126.8 36.6465 126.803 36.5984 126.806C33.582 127.151 31.075 132.889 32.2028 140.058C33.3314 147.239 37.4378 152.049 40.4161 151.874C40.4641 151.871 40.5122 151.869 40.5602 151.866C41.9651 151.711 43.3435 150.287 44.2106 148.088C45.2467 145.483 45.5152 142.12 44.9558 138.614C43.8272 131.433 39.7208 126.623 36.7425 126.798ZM36.6723 125.602C40.9956 125.348 45.3768 131.006 46.5521 138.436C47.7519 146.008 45.1478 152.556 40.7425 153.055C40.6624 153.06 40.5671 153.077 40.487 153.082C36.1637 153.336 31.7826 147.678 30.6072 140.248C29.4074 132.675 32.0115 126.127 36.4168 125.629C36.4962 125.612 36.5923 125.607 36.6723 125.602Z" fill="#7CB2D4"/>
<path d="M74.1058 82.0226C75.8935 81.8217 77.4823 80.4206 78.5067 78.1647C79.6013 75.7368 79.9326 72.6218 79.4221 69.4003C78.4255 63.0997 74.4729 58.1725 70.6139 58.3991C70.5339 58.4038 70.4698 58.4075 70.3905 58.4242C66.5121 58.8679 64.072 64.6503 65.0902 71.0456C66.086 77.3342 70.0394 82.2734 73.8983 82.0468C73.9457 82.032 74.0257 82.0273 74.1058 82.0226Z" fill="#A9D6EA"/>
<path d="M70.6327 58.9973C70.5687 59.001 70.5206 59.0039 70.4566 59.0076C69.0044 59.1769 67.6314 60.4213 66.7218 62.4424C65.6702 64.7838 65.3494 67.8022 65.855 70.9401C66.8739 77.3473 70.8679 81.6122 73.8302 81.4383C73.8942 81.4345 73.9423 81.4317 74.0063 81.4279C77.0228 81.0828 79.6541 76.093 78.608 69.4954C77.6051 63.0873 73.595 58.8234 70.6327 58.9973ZM70.5625 57.8016C74.8698 57.5487 79.1358 62.6134 80.2043 69.3177C81.2812 76.1655 78.5939 82.1184 74.1886 82.617C74.0926 82.6227 73.9972 82.6403 73.9011 82.6459C69.5938 82.8988 65.3118 77.835 64.2594 71.1298C63.1825 64.282 65.8697 58.3291 70.275 57.8305C70.3704 57.8129 70.4664 57.8072 70.5625 57.8016Z" fill="#7CB2D4"/>
</svg>
