<svg width="205" height="178" viewBox="0 0 205 178" fill="none" xmlns="http://www.w3.org/2000/svg">
<path d="M54.7341 131.451C53.7201 131.451 52.8857 130.617 52.8857 129.603V2.61861C52.8857 1.60459 53.7201 0.770264 54.7341 0.770264H181.718C182.732 0.770264 183.567 1.60459 183.567 2.61861V129.603C183.567 130.617 182.732 131.451 181.718 131.451H54.7341Z" fill="#A9D6EA"/>
<path d="M181.718 1.54029C182.309 1.54029 182.797 2.02805 182.797 2.61849V129.603C182.797 130.193 182.309 130.681 181.718 130.681H54.7342C54.1438 130.681 53.656 130.193 53.656 129.603V2.61849C53.656 2.02805 54.1438 1.54029 54.7342 1.54029H181.718ZM181.718 0H54.7342C53.2838 0 52.1157 1.16805 52.1157 2.61849V129.603C52.1157 131.053 53.2838 132.221 54.7342 132.221H181.718C183.169 132.221 184.337 131.053 184.337 129.603V2.61849C184.35 1.16805 183.169 0 181.718 0Z" fill="#7CB2D4"/>
<path d="M183.233 55.0395L129.066 0.872559" stroke="#7CB2D4" stroke-width="1.2" stroke-miterlimit="10"/>
<path d="M106.963 130.925L52.8599 76.8093" stroke="#7CB2D4" stroke-width="1.2" stroke-miterlimit="10"/>
<path d="M107.399 0.872559L53.3735 54.8854" stroke="#7CB2D4" stroke-width="1.2" stroke-miterlimit="10"/>
<path d="M183.233 77.1812L128.925 131.489" stroke="#7CB2D4" stroke-width="1.2" stroke-miterlimit="10"/>
<path d="M69.7135 66.8357L117.501 114.623C117.899 115.021 118.554 115.021 118.951 114.623L166.739 66.8357C167.137 66.4378 167.137 65.7832 166.739 65.3853L118.951 17.5977C118.554 17.1998 117.899 17.1998 117.501 17.5977L69.7135 65.3853C69.3156 65.7832 69.3156 66.4378 69.7135 66.8357Z" fill="white"/>
<path d="M181.718 1.9382C182.091 1.9382 182.399 2.24626 182.399 2.61849V129.603C182.399 129.975 182.091 130.283 181.718 130.283H54.7342C54.362 130.283 54.0539 129.975 54.0539 129.603V2.61849C54.0539 2.24626 54.362 1.9382 54.7342 1.9382H181.718ZM181.718 0H54.7342C53.2838 0 52.1157 1.16805 52.1157 2.61849V129.603C52.1157 131.053 53.2838 132.221 54.7342 132.221H181.718C183.169 132.221 184.337 131.053 184.337 129.603V2.61849C184.35 1.16805 183.169 0 181.718 0Z" fill="#7CB2D4"/>
<path d="M69.4826 8.68962L69.842 9.9732L71.1255 9.65231C73.6413 9.02335 75.3998 12.0783 73.6028 13.9394L72.6787 14.8893L73.6028 15.8391C75.3998 17.7003 73.6413 20.7552 71.1255 20.1263L69.842 19.8054L69.4826 21.089C68.7766 23.5791 65.2468 23.5791 64.528 21.089L64.1686 19.8054L62.885 20.1263C60.3692 20.7552 58.6107 17.7003 60.4077 15.8391L61.3319 14.8893L60.4077 13.9394C58.6107 12.0783 60.3692 9.02335 62.885 9.65231L64.1686 9.9732L64.528 8.68962C65.2468 6.19949 68.7766 6.19949 69.4826 8.68962Z" stroke="white" stroke-width="0.8489" stroke-miterlimit="10"/>
<path d="M171.924 8.68962L172.283 9.9732L173.567 9.65231C176.083 9.02335 177.841 12.0783 176.044 13.9394L175.12 14.8893L176.044 15.8391C177.841 17.7003 176.083 20.7552 173.567 20.1263L172.283 19.8054L171.924 21.089C171.218 23.5791 167.688 23.5791 166.969 21.089L166.61 19.8054L165.326 20.1263C162.811 20.7552 161.052 17.7003 162.849 15.8391L163.773 14.8893L162.849 13.9394C161.052 12.0783 162.811 9.02335 165.326 9.65231L166.61 9.9732L166.969 8.68962C167.688 6.19949 171.218 6.19949 171.924 8.68962Z" stroke="white" stroke-width="0.8489" stroke-miterlimit="10"/>
<path d="M120.71 59.9174L121.069 61.201L122.353 60.8801C124.868 60.2511 126.627 63.3061 124.83 65.1672L123.906 66.1171L124.83 67.0669C126.627 68.9281 124.868 71.983 122.353 71.3541L121.069 71.0332L120.71 72.3168C120.004 74.8069 116.474 74.8069 115.755 72.3168L115.396 71.0332L114.112 71.3541C111.596 71.983 109.838 68.9281 111.635 67.0669L112.559 66.1171L111.635 65.1672C109.838 63.3061 111.596 60.2511 114.112 60.8801L115.396 61.201L115.755 59.9174C116.461 57.4273 119.991 57.4273 120.71 59.9174Z" stroke="#7CB2D4" stroke-miterlimit="10"/>
<path d="M104.898 176.184C104.834 176.184 104.757 176.171 104.705 176.145L1.45448 143.735C1.04374 143.504 0.543146 141.309 1.0309 140.051C1.06941 139.948 1.10792 139.884 1.15926 139.807L1.22344 139.781L1.27478 139.717H1.28762L1.33896 139.679L5.61327 138.729L20.5541 135.43L40.9758 130.912L50.4101 128.833L99.9689 117.871H100.007L100.136 117.832C100.174 117.832 100.213 117.832 100.238 117.832C100.303 117.832 100.341 117.832 100.38 117.845L149.143 129.859L154.47 131.181L169.295 134.84L178.511 137.099L183.825 138.421L185.198 138.755L193.195 140.731L202.693 143.067H202.796C202.886 143.106 203.117 143.452 203.181 144.274C203.284 145.673 202.835 146.995 202.552 147.175L105.09 176.158C105.052 176.171 104.975 176.184 104.898 176.184Z" fill="#AEC6D3"/>
<path d="M100.226 118.654L148.835 130.63L149.027 130.668L154.277 131.977L163.545 134.262L168.987 135.61L169.192 135.661L178.203 137.869L178.383 137.908L183.645 139.217L185.019 139.551L190.423 140.885L192.913 141.502L193.118 141.553L198.355 142.836L202.309 143.812C202.488 144.454 202.373 145.866 202.09 146.443L190.359 149.935L184.955 151.539L145.382 163.309L139.285 165.119L104.937 175.337L1.98099 143.029C1.72427 142.516 1.55741 141.168 1.80129 140.423L5.62634 139.576H5.63918L5.81888 139.538L11.3511 138.318L20.7597 136.239L26.1122 135.045H26.125L26.3047 135.007L35.4695 132.979H35.4823L35.662 132.94L41.1814 131.721L50.4231 129.68H50.436L50.6157 129.641L55.9425 128.46H55.9553L56.135 128.422L90.1883 120.887L100.149 118.68H100.162L100.226 118.654ZM100.226 116.972C100.136 116.972 100.033 116.985 99.9435 116.998C99.9178 116.998 99.905 117.011 99.8793 117.011L89.8032 119.244L55.75 126.779H55.7371L50.2306 127.998H50.2178L40.7963 130.078L35.2769 131.297L25.9325 133.364H25.9197L20.3875 134.596L10.9789 136.675L5.44664 137.895H5.43381L1.05682 138.87C1.01831 138.883 0.992637 138.896 0.95413 138.922C0.902787 138.934 0.864279 138.96 0.825772 138.986C0.684579 139.05 0.569056 139.165 0.479206 139.319C0.389356 139.448 0.312341 139.589 0.260998 139.743C-0.329447 141.258 0.145476 144.197 1.21084 144.531L104.436 176.928C104.59 176.98 104.744 177.005 104.911 177.005C105.065 177.005 105.219 176.98 105.36 176.941L139.747 166.711L145.844 164.901L185.417 153.131L190.821 151.526L202.848 147.945C204.247 147.534 204.67 142.208 202.822 142.208L198.753 141.206L193.324 139.871H193.311L190.821 139.255L185.417 137.92L184.043 137.587L178.627 136.239H178.614L169.411 133.98H169.398L163.955 132.632L154.688 130.347L149.258 129.012H149.246L100.624 117.037C100.495 116.998 100.367 116.972 100.226 116.972Z" fill="#7CB2D4"/>
<path d="M202.861 145.609L202.797 146.315C202.771 146.661 202.527 146.944 202.206 147.047L105.245 175.747C105.091 175.799 104.924 175.799 104.757 175.747L1.73728 143.555C1.39071 143.453 1.15967 143.132 1.15967 142.759V141.296C1.15967 140.731 1.71161 140.333 2.23787 140.5L104.642 173.206C104.796 173.257 104.975 173.257 105.129 173.206L201.808 144.736C202.36 144.582 202.912 145.031 202.861 145.609Z" fill="white"/>
<path d="M104.911 173.283C104.834 173.283 104.744 173.27 104.667 173.244L1.44172 140.847C0.992467 140.706 0.966797 140.295 0.966797 140.18C0.966797 140.064 1.01814 139.653 1.48023 139.538L100.072 114.803C100.123 114.79 100.187 114.778 100.239 114.778C100.303 114.778 100.354 114.79 100.418 114.803L202.617 142.939C203.079 143.068 203.117 143.465 203.117 143.594C203.117 143.722 203.091 144.12 202.629 144.248L105.142 173.232C105.065 173.27 104.988 173.283 104.911 173.283Z" fill="#A9D6EA"/>
<path d="M100.239 115.56L202.103 143.619L104.898 172.513L1.98108 140.205L100.239 115.56ZM100.239 114.02C100.123 114.02 100.008 114.033 99.8794 114.059L1.28795 138.793C-0.136823 139.152 -0.188167 141.142 1.21093 141.578L104.436 173.976C104.59 174.027 104.744 174.053 104.911 174.053C105.065 174.053 105.219 174.027 105.36 173.989L202.848 145.006C204.247 144.595 204.221 142.605 202.822 142.22L100.624 114.071C100.496 114.033 100.367 114.02 100.239 114.02Z" fill="#7CB2D4"/>
<path d="M104.898 166.929C104.821 166.929 104.744 166.916 104.68 166.89L1.455 134.493C1.15978 134.326 0.672021 132.888 0.864558 131.438C0.954408 130.719 1.17261 130.45 1.24963 130.424L100.072 108.577C100.149 108.565 100.188 108.552 100.239 108.552C100.29 108.552 100.354 108.565 100.406 108.577L202.72 133.787H202.822C202.912 133.813 203.143 134.146 203.207 134.955C203.336 136.38 202.874 137.727 202.578 137.92L105.117 166.89C105.052 166.929 104.975 166.929 104.898 166.929Z" fill="#AEC6D3"/>
<path d="M100.239 109.412L202.309 134.57C202.489 135.212 202.373 136.637 202.078 137.214L104.937 166.12L1.96843 133.8C1.67321 133.248 1.55769 131.823 1.76306 131.194L100.239 109.412ZM100.239 107.73C100.123 107.73 100.008 107.743 99.8924 107.769L1.05709 129.628C-0.560211 130.026 -0.175139 134.852 1.22396 135.289L104.449 167.686C104.603 167.738 104.757 167.763 104.924 167.763C105.078 167.763 105.232 167.738 105.373 167.699L202.861 138.716C204.26 138.305 204.684 132.966 202.835 132.966L100.637 107.782C100.496 107.756 100.367 107.73 100.239 107.73Z" fill="#7CB2D4"/>
<path d="M202.861 136.328L202.797 137.034C202.771 137.381 202.527 137.663 202.206 137.766L105.245 166.467C105.091 166.518 104.924 166.518 104.757 166.467L1.73728 134.275C1.39071 134.172 1.15967 133.851 1.15967 133.479V132.016C1.15967 131.451 1.71161 131.053 2.23787 131.22L104.642 163.925C104.796 163.977 104.975 163.977 105.129 163.925L201.808 135.456C202.36 135.289 202.912 135.738 202.861 136.328Z" fill="white"/>
<path d="M104.898 164.041C104.821 164.041 104.731 164.028 104.654 164.003L1.42853 131.605C0.979283 131.464 0.953613 131.053 0.953613 130.938C0.953613 130.822 1.00496 130.411 1.46704 130.296L100.058 105.561C100.11 105.548 100.174 105.536 100.225 105.536C100.29 105.536 100.341 105.548 100.405 105.561L202.603 133.697C203.065 133.826 203.104 134.224 203.104 134.352C203.104 134.48 203.078 134.878 202.616 135.007L105.129 163.99C105.052 164.028 104.975 164.041 104.898 164.041Z" fill="#A9D6EA"/>
<path d="M100.239 106.318L202.103 134.377L104.898 163.271L1.98108 130.963L100.239 106.318ZM100.239 104.778C100.123 104.778 100.008 104.791 99.8794 104.817L1.28795 129.551C-0.136823 129.91 -0.188167 131.9 1.21093 132.336L104.436 164.734C104.59 164.785 104.744 164.811 104.911 164.811C105.065 164.811 105.219 164.785 105.36 164.747L202.848 135.764C204.247 135.353 204.221 133.363 202.822 132.978L100.624 104.829C100.496 104.791 100.367 104.778 100.239 104.778Z" fill="#7CB2D4"/>
<path d="M104.898 157.648C104.821 157.648 104.744 157.636 104.68 157.61L1.455 125.213C1.15978 125.046 0.672021 123.608 0.864558 122.158C0.954408 121.439 1.17261 121.169 1.24963 121.144L100.072 99.2972C100.149 99.2843 100.2 99.2715 100.252 99.2715C100.303 99.2715 100.354 99.2843 100.419 99.2972L202.732 124.507H202.835C202.925 124.532 203.156 124.879 203.22 125.675C203.349 127.099 202.887 128.447 202.591 128.64L105.129 157.61C105.052 157.636 104.975 157.648 104.898 157.648Z" fill="#AEC6D3"/>
<path d="M100.239 100.119L202.309 125.277C202.489 125.919 202.373 127.343 202.078 127.921L104.937 156.827L1.96843 124.507C1.67321 123.955 1.55769 122.53 1.76306 121.901L100.239 100.119ZM100.239 98.4502C100.123 98.4502 100.008 98.463 99.8924 98.4887L1.05709 120.348C-0.560211 120.746 -0.175139 125.572 1.22396 126.009L104.449 158.406C104.603 158.457 104.757 158.483 104.924 158.483C105.078 158.483 105.232 158.457 105.373 158.419L202.861 129.436C204.26 129.025 204.684 123.685 202.835 123.685L100.637 98.5015C100.496 98.463 100.367 98.4502 100.239 98.4502Z" fill="#7CB2D4"/>
<path d="M202.861 126.997L202.797 127.703C202.771 128.049 202.527 128.332 202.206 128.434L105.245 157.135C105.091 157.187 104.924 157.187 104.757 157.135L1.73728 124.943C1.39071 124.84 1.15967 124.52 1.15967 124.147V122.684C1.15967 122.119 1.71161 121.721 2.23787 121.888L104.642 154.594C104.796 154.645 104.975 154.645 105.129 154.594L201.808 126.124C202.36 125.97 202.912 126.419 202.861 126.997Z" fill="white"/>
<path d="M104.898 154.761C104.821 154.761 104.731 154.748 104.654 154.722L1.42853 122.325C0.979283 122.184 0.953613 121.773 0.953613 121.657C0.953613 121.542 1.00496 121.131 1.46704 121.016L100.058 96.281C100.11 96.2682 100.174 96.2554 100.225 96.2554C100.29 96.2554 100.354 96.2682 100.405 96.281L202.591 124.417C203.053 124.545 203.091 124.943 203.091 125.072C203.091 125.2 203.065 125.598 202.603 125.726L105.116 154.709C105.052 154.748 104.975 154.761 104.898 154.761Z" fill="#A9D6EA"/>
<path d="M100.239 97.0381L202.103 125.097L104.898 153.99L1.98108 121.683L100.239 97.0381ZM100.239 95.4978C100.123 95.4978 100.008 95.5106 99.8794 95.5363L1.28795 120.271C-0.136823 120.63 -0.188167 122.62 1.21093 123.056L104.436 155.454C104.59 155.505 104.744 155.531 104.911 155.531C105.065 155.531 105.219 155.505 105.36 155.466L202.848 126.483C204.247 126.073 204.221 124.083 202.822 123.698L100.624 95.5491C100.496 95.5106 100.367 95.4978 100.239 95.4978Z" fill="#7CB2D4"/>
<path d="M104.898 148.407C104.821 148.407 104.744 148.394 104.68 148.368L1.455 115.971C1.15978 115.804 0.672021 114.366 0.864558 112.916C0.954408 112.197 1.17261 111.928 1.24963 111.902L100.072 90.0555C100.149 90.0426 100.2 90.0298 100.239 90.0298C100.29 90.0298 100.354 90.0426 100.406 90.0555L202.72 115.265H202.822C202.912 115.291 203.143 115.624 203.207 116.433C203.323 117.832 202.874 119.218 202.578 119.398L105.117 148.368C105.04 148.394 104.975 148.407 104.898 148.407Z" fill="#AEC6D3"/>
<path d="M100.239 90.877L202.309 116.035C202.489 116.677 202.373 118.102 202.078 118.679L104.937 147.585L1.96843 115.265C1.67321 114.713 1.55769 113.288 1.76306 112.659L100.239 90.877ZM100.239 89.1956C100.123 89.1956 100.008 89.2084 99.8924 89.2341L1.05709 111.093C-0.560211 111.491 -0.175139 116.317 1.22396 116.754L104.449 149.151C104.603 149.203 104.757 149.228 104.924 149.228C105.078 149.228 105.232 149.203 105.373 149.164L202.861 120.181C204.26 119.77 204.684 114.431 202.835 114.431L100.637 89.2469C100.496 89.2212 100.367 89.1956 100.239 89.1956Z" fill="#7CB2D4"/>
<path d="M202.861 117.716L202.797 118.422C202.771 118.769 202.527 119.051 202.206 119.154L105.245 147.855C105.091 147.906 104.924 147.906 104.757 147.855L1.73728 115.663C1.39071 115.56 1.15967 115.239 1.15967 114.867V113.404C1.15967 112.839 1.71161 112.441 2.23787 112.608L104.642 145.313C104.796 145.365 104.975 145.365 105.129 145.313L201.808 116.844C202.36 116.677 202.912 117.139 202.861 117.716Z" fill="white"/>
<path d="M104.899 145.506C104.822 145.506 104.732 145.493 104.655 145.468L1.42951 113.07C0.98026 112.929 0.95459 112.518 0.95459 112.403C0.95459 112.287 1.00593 111.877 1.46802 111.761L100.072 87.0393C100.124 87.0265 100.188 87.0137 100.239 87.0137C100.303 87.0137 100.355 87.0265 100.419 87.0393L202.617 115.188C203.079 115.317 203.118 115.714 203.118 115.843C203.118 115.971 203.092 116.369 202.63 116.497L105.142 145.481C105.065 145.493 104.988 145.506 104.899 145.506Z" fill="#A9D6EA"/>
<path d="M100.239 87.7837L202.103 115.843L104.898 144.736L1.98094 112.428L100.239 87.7837ZM100.239 86.2434C100.123 86.2434 100.008 86.2562 99.8921 86.2819L1.30064 111.016C-0.124127 111.376 -0.175472 113.365 1.22363 113.802L104.449 146.199C104.603 146.251 104.757 146.276 104.924 146.276C105.078 146.276 105.232 146.251 105.373 146.212L202.861 117.229C204.26 116.818 204.234 114.829 202.835 114.444L100.624 86.2948C100.495 86.2562 100.367 86.2434 100.239 86.2434Z" fill="#7CB2D4"/>
<path d="M104.898 139.127C104.821 139.127 104.744 139.114 104.68 139.088L1.455 106.691C1.15978 106.524 0.672021 105.086 0.864558 103.636C0.954408 102.917 1.17261 102.647 1.24963 102.622L100.072 80.7752C100.149 80.7623 100.2 80.7495 100.239 80.7495C100.29 80.7495 100.354 80.7623 100.406 80.7752L202.72 105.985H202.822C202.912 106.01 203.143 106.344 203.207 107.153C203.323 108.552 202.874 109.938 202.578 110.118L105.117 139.088C105.04 139.114 104.975 139.127 104.898 139.127Z" fill="#AEC6D3"/>
<path d="M100.239 81.597L202.309 106.755C202.489 107.397 202.373 108.822 202.078 109.399L104.937 138.305L1.96843 105.985C1.67321 105.433 1.55769 104.008 1.76306 103.379L100.239 81.597ZM100.239 79.9155C100.123 79.9155 100.008 79.9284 99.8924 79.954L1.05709 101.813C-0.560211 102.211 -0.175139 107.037 1.22396 107.474L104.449 139.871C104.603 139.923 104.757 139.948 104.924 139.948C105.078 139.948 105.232 139.923 105.373 139.884L202.861 110.901C204.26 110.49 204.684 105.151 202.835 105.151L100.624 79.9669C100.496 79.9412 100.367 79.9155 100.239 79.9155Z" fill="#7CB2D4"/>
<path d="M202.861 108.513L202.797 109.219C202.771 109.566 202.527 109.848 202.206 109.951L105.245 138.652C105.091 138.703 104.924 138.703 104.757 138.652L1.73728 106.46C1.39071 106.357 1.15967 106.036 1.15967 105.664V104.201C1.15967 103.636 1.71161 103.238 2.23787 103.405L104.642 136.11C104.796 136.162 104.975 136.162 105.129 136.11L201.808 107.641C202.36 107.474 202.912 107.923 202.861 108.513Z" fill="white"/>
<path d="M104.911 136.226C104.834 136.226 104.744 136.213 104.667 136.187L1.44172 103.79C0.992467 103.649 0.966797 103.238 0.966797 103.122C0.966797 103.007 1.01814 102.596 1.48023 102.481L100.072 77.7461C100.123 77.7333 100.187 77.7205 100.239 77.7205C100.303 77.7205 100.354 77.7333 100.418 77.7461L202.617 105.895C203.079 106.023 203.117 106.421 203.117 106.55C203.117 106.678 203.091 107.076 202.629 107.204L105.142 136.187C105.065 136.213 104.988 136.226 104.911 136.226Z" fill="#A9D6EA"/>
<path d="M100.239 78.5034L202.103 106.562L104.898 135.456L1.98094 103.148L100.239 78.5034ZM100.239 76.9631C100.123 76.9631 100.008 76.976 99.8921 77.0017L1.30064 101.736C-0.124127 102.096 -0.175472 104.085 1.22363 104.522L104.449 136.919C104.603 136.97 104.757 136.996 104.924 136.996C105.078 136.996 105.232 136.97 105.373 136.932L202.861 107.949C204.26 107.538 204.234 105.548 202.835 105.163L100.624 77.0145C100.495 76.976 100.367 76.9631 100.239 76.9631Z" fill="#7CB2D4"/>
<path d="M100.612 83.9843L181.297 106.203L104.334 129.089L22.8013 103.495L100.612 83.9843ZM100.612 82.7007C100.522 82.7007 100.419 82.7135 100.329 82.7392L22.0312 102.378C20.9017 102.66 20.8631 104.252 21.967 104.598L103.949 130.334C104.065 130.373 104.193 130.386 104.321 130.386C104.437 130.386 104.565 130.373 104.681 130.334L182.106 107.307C183.21 106.973 183.197 105.394 182.08 105.086L100.92 82.7392C100.817 82.7135 100.714 82.7007 100.612 82.7007Z" fill="white"/>
<path d="M161.068 105.767L103.653 122.838C103.64 122.838 103.628 122.838 103.615 122.838L42.9658 103.803L101.048 89.2344L161.068 105.767Z" fill="white"/>
<path d="M190.821 116.587V151.539L185.417 153.143V118.692C185.417 117.96 185.135 117.293 184.673 116.78C184.621 116.715 184.557 116.651 184.493 116.6C184.429 116.523 184.365 116.459 184.288 116.42C184.018 116.176 183.71 116.009 183.363 115.894C182.349 115.586 181.143 115.214 179.782 114.803C179.423 114.7 179.063 114.585 178.691 114.469C178.588 114.443 178.486 114.418 178.37 114.379C162.492 109.592 128.542 99.5797 102.614 91.9424C99.5202 91.0311 96.5423 90.1582 93.7184 89.3239C91.9599 88.8105 90.2656 88.3099 88.6355 87.8349C86.402 87.1675 84.3098 86.5514 82.3716 85.9738C81.4859 85.717 80.6388 85.4732 79.8301 85.2293C79.2782 85.0624 78.7391 84.9084 78.2257 84.7544C76.634 84.2923 75.2221 83.8687 73.9899 83.4965C73.7845 83.4451 73.592 83.3809 73.3994 83.3296L81.2421 81.3657C81.4346 81.4171 81.6271 81.4813 81.8197 81.5326C83.1546 81.9177 84.7462 82.3798 86.5817 82.906C86.954 83.0087 87.3519 83.1242 87.7498 83.2397C90.3683 83.9971 93.359 84.857 96.6963 85.8069C96.9915 85.8967 97.2996 85.9866 97.6077 86.0765C102.96 87.6039 109.07 89.3624 115.552 91.2108C119.236 92.2633 123.035 93.3543 126.886 94.4454C151.287 101.415 177.497 108.886 187.06 111.607C187.561 111.748 188.023 111.966 188.433 112.236C189.332 112.8 190.025 113.622 190.41 114.597C190.474 114.739 190.526 114.88 190.577 115.021C190.731 115.522 190.821 116.048 190.821 116.587Z" fill="#005398"/>
<path d="M145.96 129.141L145.947 131.233L145.934 132.863V135.828L145.908 140.616V140.847L145.896 143.645V146.097L145.883 148.843V149.062L145.87 151.808L145.857 156.814L145.844 158.483V164.914L139.747 166.724V131.04C139.747 130.719 139.657 130.437 139.49 130.193C139.413 130.065 139.298 129.949 139.182 129.834C139.041 129.731 138.887 129.641 138.707 129.59C137.604 129.243 136.205 128.794 134.523 128.255C125.333 125.354 108.107 119.873 89.8161 114.123C88.2501 113.622 86.6713 113.134 85.0925 112.634C81.7167 111.568 78.3153 110.503 74.9394 109.45C73.6302 109.04 72.3209 108.629 71.0117 108.218C67.238 107.037 63.5285 105.882 59.9216 104.765C58.8562 104.432 57.8037 104.111 56.764 103.79C52.5667 102.493 48.5748 101.261 44.8653 100.132C44.0566 99.8878 43.2608 99.644 42.4778 99.4129C39.256 98.4246 36.291 97.5389 33.6597 96.7559C32.1707 96.3067 30.7716 95.8959 29.5137 95.5365C28.9489 95.3696 28.4098 95.2156 27.8964 95.0616C27.8964 95.0616 27.8964 95.0744 27.8836 95.0616C27.6525 94.9974 27.4215 94.9332 27.1904 94.8691L35.7904 92.7126C36.0086 92.7768 36.2396 92.841 36.4707 92.9052C36.4835 92.9052 36.4835 92.9052 36.4835 92.9052C37.151 93.0977 37.8569 93.3031 38.6271 93.5213C39.7566 93.8422 41.0017 94.2016 42.3366 94.5867C44.968 95.3568 47.9844 96.2296 51.2703 97.2052C52.2202 97.4875 53.1828 97.7699 54.184 98.078C57.7909 99.1434 61.6929 100.311 65.7619 101.531C66.9941 101.903 68.2392 102.275 69.5099 102.648C73.0012 103.7 76.5953 104.791 80.2406 105.895C81.7552 106.344 83.2699 106.806 84.7973 107.268C88.0704 108.257 91.3564 109.258 94.6295 110.246C96.4137 110.785 98.185 111.324 99.9563 111.876C118.902 117.627 136.115 122.915 142.892 124.995C143.264 125.11 143.611 125.264 143.932 125.47C144.817 126.021 145.459 126.881 145.754 127.883C145.806 128.011 145.844 128.152 145.87 128.293C145.921 128.576 145.96 128.845 145.96 129.141Z" fill="#005398"/>
</svg>
